<?xml version="1.0" standalone="no"?>
<!DOCTYPE svg PUBLIC "-//W3C//DTD SVG 1.1//EN" "http://www.w3.org/Graphics/SVG/1.1/DTD/svg11.dtd" >
<svg xmlns="http://www.w3.org/2000/svg" xmlns:xlink="http://www.w3.org/1999/xlink" version="1.1">
<metadata>
Created by FontForge 20170731 at Wed Jun 22 12:05:03 2016
 By Aleksey,,,
Copyright (c) 2007 by Process Type Foundry. All rights reserved.
</metadata>
<defs>
<font id="Seravek-Medium" horiz-adv-x="525" >
  <font-face 
    font-family="Seravek Medium"
    font-weight="600"
    font-stretch="normal"
    units-per-em="1000"
    panose-1="2 11 7 3 5 0 0 2 0 4"
    ascent="800"
    descent="-200"
    x-height="487"
    cap-height="666"
    bbox="-95 -250 1361 863"
    underline-thickness="91"
    underline-position="-385"
    unicode-range="U+0020-2212"
  />
<missing-glyph horiz-adv-x="656" 
d="M95 0v666h466v-666h-466zM512 616h-340l340 -527v527zM144 576v-527h339z" />
    <glyph glyph-name="f_f" unicode="ff" horiz-adv-x="681" 
d="M553 0h-136v380h-182v-380h-136v380h-79v107h79v17q0 107 52.5 159.5t146.5 52.5q53 0 82 -10l-9 -105q-19 6 -47 6q-47 0 -68 -24t-21 -73v-23h182v17q0 106 53 159t147 53q56 0 89 -13l-8 -103q-22 7 -55 7q-46 0 -68 -23t-22 -74v-23h119v-107h-119v-380z" />
    <glyph glyph-name="fi" unicode="fi" horiz-adv-x="603" 
d="M538 0h-137v380h-166v-380h-136v380h-79v107h79v14q0 215 218 215q82 0 137 -25l-15 -98q-51 18 -106 18q-51 0 -74.5 -24.5t-23.5 -75.5v-24h303v-487z" />
    <glyph glyph-name="fl" unicode="fl" horiz-adv-x="652" 
d="M549 706v-565q0 -46 42 -46q22 0 38 4l5 -96q-39 -12 -91 -12q-69 0 -100 39t-31 98v476q-37 8 -76 8q-53 0 -77 -26t-24 -81v-18h111v-107h-111v-380h-136v380h-79v107h79v16q0 102 52.5 157.5t158.5 55.5q55 0 102 -10h137z" />
    <glyph glyph-name="f_f_i" unicode="ffi" horiz-adv-x="921" 
d="M417 487v14q0 215 218 215q82 0 137 -25l-15 -98q-51 18 -106 18q-51 0 -74.5 -24.5t-23.5 -75.5v-24h303v-487h-137v380h-166v-380h-136v380h-182v-380h-136v380h-79v107h79v17q0 107 52.5 159.5t146.5 52.5q53 0 82 -10l-9 -105q-19 6 -47 6q-47 0 -68 -24t-21 -73v-23
h182z" />
    <glyph glyph-name="f_f_l" unicode="ffl" horiz-adv-x="970" 
d="M867 706v-565q0 -46 42 -46q22 0 38 4l5 -96q-39 -12 -91 -12q-69 0 -100 39t-31 98v476q-37 8 -76 8q-53 0 -77 -26t-24 -81v-18h111v-107h-111v-380h-136v380h-182v-380h-136v380h-79v107h79v17q0 107 52.5 159.5t146.5 52.5q53 0 82 -10l-9 -105q-19 6 -47 6
q-47 0 -68 -24t-21 -73v-23h182v16q0 102 52.5 157.5t158.5 55.5q55 0 102 -10h137z" />
    <glyph glyph-name="f_b" unicode="fb" horiz-adv-x="919" 
d="M613 -10q-108 0 -201 44v570q-37 8 -76 8q-53 0 -77 -26t-24 -81v-18h111v-107h-111v-380h-136v380h-79v107h79v16q0 102 52.5 157.5t158.5 55.5q55 0 102 -10h137v-259q50 50 129 50q95 0 151.5 -69.5t56.5 -179.5q0 -117 -70.5 -187.5t-202.5 -70.5zM640 391
q-52 0 -91 -33v-253q24 -12 66 -12q69 0 101.5 41.5t32.5 111.5q0 67 -27.5 106t-81.5 39z" />
    <glyph glyph-name="f_f_b" unicode="ffb" horiz-adv-x="1237" 
d="M867 706v-259q50 50 129 50q95 0 151.5 -69.5t56.5 -179.5q0 -117 -70.5 -187.5t-202.5 -70.5q-108 0 -201 44v570q-37 8 -76 8q-53 0 -77 -26t-24 -81v-18h111v-107h-111v-380h-136v380h-182v-380h-136v380h-79v107h79v17q0 107 52.5 159.5t146.5 52.5q53 0 82 -10
l-9 -105q-19 6 -47 6q-47 0 -68 -24t-21 -73v-23h182v16q0 102 52.5 157.5t158.5 55.5q55 0 102 -10h137zM958 391q-52 0 -91 -33v-253q24 -12 66 -12q69 0 101.5 41.5t32.5 111.5q0 67 -27.5 106t-81.5 39z" />
    <glyph glyph-name="f_h" unicode="fh" horiz-adv-x="922" 
d="M549 0h-137v604q-37 8 -76 8q-53 0 -77 -26t-24 -81v-18h111v-107h-111v-380h-136v380h-79v107h79v16q0 102 52.5 157.5t158.5 55.5q55 0 102 -10h137v-278q47 69 137 69q88 0 132 -69.5t44 -174.5v-253h-137v254q0 68 -21 101t-67 33q-52 0 -88 -47v-341z" />
    <glyph glyph-name="f_f_h" unicode="ffh" horiz-adv-x="1240" 
d="M867 0h-137v604q-37 8 -76 8q-53 0 -77 -26t-24 -81v-18h111v-107h-111v-380h-136v380h-182v-380h-136v380h-79v107h79v17q0 107 52.5 159.5t146.5 52.5q53 0 82 -10l-9 -105q-19 6 -47 6q-47 0 -68 -24t-21 -73v-23h182v16q0 102 52.5 157.5t158.5 55.5q55 0 102 -10
h137v-278q47 69 137 69q88 0 132 -69.5t44 -174.5v-253h-137v254q0 68 -21 101t-67 33q-52 0 -88 -47v-341z" />
    <glyph glyph-name="f_j" unicode="fj" horiz-adv-x="603" 
d="M401 380h-166v-380h-136v380h-79v107h79v14q0 215 218 215q82 0 137 -25l-15 -98q-51 18 -106 18q-51 0 -74.5 -24.5t-23.5 -75.5v-24h303v-371q0 -107 -32.5 -182.5t-114.5 -149.5l-89 78q52 56 75.5 110t23.5 129v279z" />
    <glyph glyph-name="f_f_j" unicode="ffj" horiz-adv-x="921" 
d="M417 487v14q0 215 218 215q82 0 137 -25l-15 -98q-51 18 -106 18q-51 0 -74.5 -24.5t-23.5 -75.5v-24h303v-371q0 -107 -32.5 -182.5t-114.5 -149.5l-89 78q52 56 75.5 110t23.5 129v279h-166v-380h-136v380h-182v-380h-136v380h-79v107h79v17q0 107 52.5 159.5
t146.5 52.5q53 0 82 -10l-9 -105q-19 6 -47 6q-47 0 -68 -24t-21 -73v-23h182z" />
    <glyph glyph-name="f_k" unicode="fk" horiz-adv-x="885" 
d="M549 0h-137v604q-37 8 -76 8q-53 0 -77 -26t-24 -81v-18h111v-107h-111v-380h-136v380h-79v107h79v16q0 102 52.5 157.5t158.5 55.5q55 0 102 -10h137v-448l162 229h152l-173 -240l197 -247h-163l-175 237v-237z" />
    <glyph glyph-name="f_f_k" unicode="ffk" horiz-adv-x="1203" 
d="M867 0h-137v604q-37 8 -76 8q-53 0 -77 -26t-24 -81v-18h111v-107h-111v-380h-136v380h-182v-380h-136v380h-79v107h79v17q0 107 52.5 159.5t146.5 52.5q53 0 82 -10l-9 -105q-19 6 -47 6q-47 0 -68 -24t-21 -73v-23h182v16q0 102 52.5 157.5t158.5 55.5q55 0 102 -10
h137v-448l162 229h152l-173 -240l197 -247h-163l-175 237v-237z" />
    <glyph glyph-name=".notdef" horiz-adv-x="656" 
d="M95 0v666h466v-666h-466zM512 616h-340l340 -527v527zM144 576v-527h339z" />
    <glyph glyph-name=".null" horiz-adv-x="0" 
 />
    <glyph glyph-name="nonmarkingreturn" horiz-adv-x="333" 
 />
    <glyph glyph-name="space" unicode=" " horiz-adv-x="215" 
 />
    <glyph glyph-name="exclam" unicode="!" horiz-adv-x="328" 
d="M236 459l-32 -249h-80l-32 249v207h144v-207zM85 72q0 34 21 56.5t58 22.5t58 -22.5t21 -56.5t-21 -57t-58 -23t-58 23t-21 57z" />
    <glyph glyph-name="quotedbl" unicode="&#x22;" horiz-adv-x="485" 
d="M193 417h-108l-15 249h138zM400 417h-108l-15 249h138z" />
    <glyph glyph-name="numbersign" unicode="#" horiz-adv-x="696" 
d="M400 0l17 161h-167l-17 -161h-107l17 161h-98v90h107l18 172h-105v90h115l17 153h107l-17 -153h167l17 153h107l-17 -153h95v-90h-104l-18 -172h97v-90h-107l-17 -161h-107zM277 423l-18 -172h168l18 172h-168z" />
    <glyph glyph-name="dollar" unicode="$" horiz-adv-x="506" 
d="M307 -120h-122v122q-79 11 -135 37l24 103q71 -34 155 -34q44 0 71 19t27 57q0 34 -24 56t-80 49q-87 40 -126 84.5t-39 114.5q0 69 37 112t100 56v130h122v-123q64 -5 123 -35l-23 -104q-75 34 -140 34q-85 0 -85 -65q0 -29 22 -48t75 -46q81 -44 110 -70
q62 -55 62 -130q0 -71 -41.5 -121t-112.5 -69v-129z" />
    <glyph glyph-name="percent" unicode="%" horiz-adv-x="982" 
d="M418 480q0 -80 -48 -138.5t-136 -58.5t-136 58.5t-48 138.5q0 81 48 139.5t136 58.5t136 -58.5t48 -139.5zM308 480q0 50 -18.5 79.5t-55.5 29.5t-55.5 -29.5t-18.5 -79.5q0 -108 74 -108t74 108zM293 37l305 641l98 -47l-306 -643zM937 185q0 -80 -48 -138.5t-136 -58.5
t-136 58.5t-48 138.5q0 81 48 139.5t136 58.5t136 -58.5t48 -139.5zM827 185q0 50 -18.5 79.5t-55.5 29.5t-55.5 -29.5t-18.5 -79.5q0 -108 74 -108t74 108z" />
    <glyph glyph-name="ampersand" unicode="&#x26;" horiz-adv-x="743" 
d="M725 84l-59 -96q-47 27 -161 101q-107 -101 -246 -101q-95 0 -154.5 44t-59.5 121q0 56 34.5 97.5t96.5 83.5q-98 86 -98 172q0 77 54.5 124.5t148.5 47.5q82 0 135.5 -39.5t53.5 -109.5q0 -32 -10 -59.5t-33.5 -53.5t-37 -38t-45.5 -38q68 -53 144 -104q36 49 88 157
l100 -49q-50 -110 -97 -169q24 -16 73 -45.5t73 -45.5zM272 89q77 0 144 61q-94 63 -160 118q-37 -29 -55.5 -52t-18.5 -53q0 -35 22.5 -54.5t67.5 -19.5zM202 507q0 -53 61 -106q44 32 66 58.5t22 61.5q0 29 -20 45t-52 16q-37 0 -57 -19.5t-20 -55.5z" />
    <glyph glyph-name="quotesingle" unicode="'" horiz-adv-x="278" 
d="M193 417h-108l-15 249h138z" />
    <glyph glyph-name="parenleft" unicode="(" horiz-adv-x="363" 
d="M213 280q0 -203 110 -413l-95 -53q-153 220 -153 466t153 466l95 -53q-110 -212 -110 -413z" />
    <glyph glyph-name="parenright" unicode=")" horiz-adv-x="363" 
d="M150 280q0 201 -110 413l95 53q153 -220 153 -466t-153 -466l-95 53q110 210 110 413z" />
    <glyph glyph-name="asterisk" unicode="*" horiz-adv-x="411" 
d="M76 649l99 -58v115h61v-115l99 58l31 -53l-99 -57l99 -57l-30 -54l-100 58v-114h-61v114l-101 -58l-29 54l98 57l-98 57z" />
    <glyph glyph-name="plus" unicode="+" horiz-adv-x="594" 
d="M532 272h-176v-194h-118v194h-176v102h176v194h118v-194h176v-102z" />
    <glyph glyph-name="comma" unicode="," horiz-adv-x="288" 
d="M121 -159l-89 47q28 67 41.5 120.5t15.5 123.5l134 -11q-11 -162 -102 -280z" />
    <glyph glyph-name="hyphen" unicode="-" horiz-adv-x="384" 
d="M324 207h-264v111h264v-111z" />
    <glyph glyph-name="period" unicode="." horiz-adv-x="278" 
d="M60 72q0 34 21 56.5t58 22.5t58 -22.5t21 -56.5t-21 -57t-58 -23t-58 23t-21 57z" />
    <glyph glyph-name="slash" unicode="/" horiz-adv-x="446" 
d="M40 -57l252 764l119 -41l-252 -766z" />
    <glyph glyph-name="zero" unicode="0" horiz-adv-x="614" 
d="M569 333q0 -158 -67 -251.5t-195 -93.5t-195 93.5t-67 251.5t67 251.5t195 93.5t195 -93.5t67 -251.5zM431 333q0 115 -29 175t-95 60t-95 -60t-29 -175t29 -175t95 -60q124 0 124 235z" />
    <glyph glyph-name="one" unicode="1" horiz-adv-x="380" 
d="M305 0h-138v518l-124 -45l-33 108l213 85h82v-666z" />
    <glyph glyph-name="two" unicode="2" horiz-adv-x="500" 
d="M88 532l-32 96q77 50 177 50t157 -53t57 -148q0 -74 -34.5 -136t-99.5 -124q-54 -52 -114 -106h254v-111h-414l-19 80q156 162 169 177q33 37 45.5 52.5t35 46.5t31 57t8.5 53q0 47 -27 73.5t-75 26.5q-65 0 -119 -34z" />
    <glyph glyph-name="three" unicode="3" horiz-adv-x="490" 
d="M445 181q0 -87 -67 -140t-168 -53q-94 0 -175 36l23 104q67 -31 136 -31q55 0 84 24t29 64q0 96 -150 96h-56v111h37q74 0 114.5 26.5t40.5 74.5q0 36 -24.5 55.5t-69.5 19.5q-65 0 -120 -28l-24 99q70 39 172 39q89 0 146.5 -44t57.5 -118q0 -117 -125 -170
q61 -18 100 -60t39 -105z" />
    <glyph glyph-name="four" unicode="4" horiz-adv-x="570" 
d="M543 170h-90v-170h-135v170h-269l-20 101l257 395h167v-390h90v-106zM318 276v265l-161 -265h161z" />
    <glyph glyph-name="five" unicode="5" horiz-adv-x="514" 
d="M474 201q0 -97 -73.5 -155t-183.5 -58q-96 0 -167 30l19 107q73 -27 140 -27q59 0 93 24.5t34 70.5q0 98 -151 98h-108v375h360v-112h-223v-154h21q106 0 172.5 -52t66.5 -147z" />
    <glyph glyph-name="six" unicode="6" horiz-adv-x="550" 
d="M389 678l44 -102q-40 -20 -51 -26t-43.5 -24.5t-44 -28t-34.5 -29t-33.5 -36t-22.5 -40.5t-19 -51q50 55 135 55q87 0 141 -53t54 -142q0 -91 -65.5 -152t-159.5 -61q-117 0 -181 79.5t-64 185.5q0 154 89.5 260.5t254.5 164.5zM385 197q0 44 -25 69t-70 25
q-62 0 -107 -47q0 -64 25 -107.5t79 -43.5q44 0 71 29t27 75z" />
    <glyph glyph-name="seven" unicode="7" horiz-adv-x="465" 
d="M426 666l19 -109l-255 -557h-137l260 556h-278v110h391z" />
    <glyph glyph-name="eight" unicode="8" horiz-adv-x="557" 
d="M279 678q93 0 150 -43t57 -118q0 -85 -117 -164q64 -40 99.5 -82.5t35.5 -103.5q0 -76 -65.5 -127.5t-159.5 -51.5q-103 0 -164.5 47.5t-61.5 128.5q0 39 22 75t47 57t66 49q-57 38 -87 76.5t-30 88.5q0 76 56.5 122t151.5 46zM374 167q0 34 -22.5 60.5t-72.5 58.5
q-4 -3 -17 -13t-16.5 -12.5t-14.5 -11t-14.5 -12.5t-11 -12t-10 -13.5t-6.5 -13.5t-5 -15.5t-1 -16.5q0 -38 25.5 -58.5t70.5 -20.5q42 0 68.5 22.5t26.5 57.5zM199 513q0 -29 17 -50t63 -52q39 27 59 50.5t20 51.5q0 32 -21.5 49.5t-57.5 17.5t-58 -19t-22 -48z" />
    <glyph glyph-name="nine" unicode="9" horiz-adv-x="555" 
d="M166 -12l-44 102q106 48 166 98t82 137q-50 -55 -135 -55q-87 0 -141 53t-54 142q0 96 62.5 154.5t162.5 58.5q120 0 182.5 -79t62.5 -186q0 -304 -344 -425zM170 470q0 -45 26 -70t69 -25q62 0 107 47q0 64 -25 107.5t-79 43.5q-45 0 -71.5 -28t-26.5 -75z" />
    <glyph glyph-name="colon" unicode=":" horiz-adv-x="278" 
d="M60 72q0 34 21 56.5t58 22.5t58 -22.5t21 -56.5t-21 -57t-58 -23t-58 23t-21 57zM60 363q0 34 21 56.5t58 22.5t58 -22.5t21 -56.5t-21 -57t-58 -23t-58 23t-21 57z" />
    <glyph glyph-name="semicolon" unicode=";" horiz-adv-x="282" 
d="M114 -159l-89 47q28 67 41.5 120.5t15.5 123.5l134 -11q-11 -162 -102 -280zM68 363q0 34 21 56.5t58 22.5t58 -22.5t21 -56.5t-21 -57t-58 -23t-58 23t-21 57z" />
    <glyph glyph-name="less" unicode="&#x3c;" horiz-adv-x="591" 
d="M65 377l429 201l42 -95l-352 -160l352 -160l-42 -95l-429 201v108z" />
    <glyph glyph-name="equal" unicode="=" horiz-adv-x="610" 
d="M535 385h-460v101h460v-101zM535 160h-460v101h460v-101z" />
    <glyph glyph-name="greater" unicode="&#x3e;" horiz-adv-x="591" 
d="M97 578l429 -201v-108l-429 -201l-42 95l352 160l-352 160z" />
    <glyph glyph-name="question" unicode="?" horiz-adv-x="474" 
d="M434 500q0 -45 -19 -85t-58.5 -76.5t-76 -62.5t-95.5 -62l-64 92q13 10 38 28t37.5 27.5t31.5 25t28.5 26t20 24.5t15 28t4.5 28q0 35 -22.5 54t-61.5 19q-67 0 -131 -37l-36 100q81 49 186 49q88 0 145.5 -46.5t57.5 -131.5zM121 72q0 34 21 56.5t58 22.5t58 -22.5
t21 -56.5t-21 -57t-58 -23t-58 23t-21 57z" />
    <glyph glyph-name="at" unicode="@" horiz-adv-x="847" 
d="M456 401q68 0 132 -38l-26 -147q-2 -14 -2 -21q0 -52 47 -52q43 0 70.5 44.5t27.5 116.5q0 99 -69 155t-182 56q-139 0 -221.5 -84t-82.5 -221q0 -123 71 -193t205 -70q126 0 250 55l22 -68q-121 -60 -277 -60q-168 0 -264.5 95.5t-96.5 235.5q0 170 109 277.5t291 107.5
q147 0 239.5 -80t92.5 -202q0 -104 -54 -169t-146 -65q-51 0 -81.5 25t-36.5 63q-47 -76 -112 -76q-46 0 -70.5 32t-24.5 80q0 88 49.5 145.5t139.5 57.5zM452 326q-44 0 -66 -34t-22 -83q0 -46 30 -46q34 0 71 64l17 94q-15 5 -30 5z" />
    <glyph glyph-name="A" unicode="A" horiz-adv-x="696" 
d="M424 666l253 -666h-145l-47 140h-274l-47 -140h-145l253 666h152zM448 251l-100 303l-100 -303h200z" />
    <glyph glyph-name="B" unicode="B" horiz-adv-x="582" 
d="M547 187q0 -86 -75.5 -136.5t-200.5 -50.5h-201v666h228q101 0 162.5 -43.5t61.5 -113.5q0 -117 -136 -161q74 -12 117.5 -53t43.5 -108zM409 197q0 44 -37 67.5t-99 23.5h-67v-182h74q64 0 96.5 24t32.5 67zM206 394h60q53 0 85.5 23.5t32.5 64.5q0 78 -104 78h-74v-166
z" />
    <glyph glyph-name="C" unicode="C" horiz-adv-x="621" 
d="M392 678q118 0 189 -36l-20 -103q-73 27 -148 27q-114 0 -174.5 -59.5t-60.5 -173.5t60.5 -173.5t174.5 -59.5q75 0 148 27l20 -103q-71 -36 -189 -36q-167 0 -260.5 95.5t-93.5 249.5t93.5 249.5t260.5 95.5z" />
    <glyph glyph-name="D" unicode="D" horiz-adv-x="690" 
d="M70 0v666h201q174 0 280.5 -93.5t106.5 -239.5t-106.5 -239.5t-280.5 -93.5h-201zM210 112h64q109 0 176.5 59.5t67.5 161.5t-67.5 161.5t-176.5 59.5h-64v-442z" />
    <glyph glyph-name="E" unicode="E" 
d="M70 0v666h400v-111h-260v-161h248v-111h-248v-172h263v-111h-403z" />
    <glyph glyph-name="F" unicode="F" horiz-adv-x="508" 
d="M210 0h-140v666h402v-112h-262v-176h250v-112h-250v-266z" />
    <glyph glyph-name="G" unicode="G" horiz-adv-x="688" 
d="M400 678q127 0 213 -41l-20 -109q-93 38 -182 38q-110 0 -172 -61.5t-62 -181.5q0 -229 232 -229q49 0 93 13v197h126v-272q-103 -44 -237 -44q-164 0 -259 92.5t-95 243.5q0 161 97 257.5t266 96.5z" />
    <glyph glyph-name="H" unicode="H" horiz-adv-x="696" 
d="M626 0h-140v280h-276v-280h-140v666h140v-270h276v270h140v-666z" />
    <glyph glyph-name="I" unicode="I" horiz-adv-x="290" 
d="M215 666v-666h-140v666h140z" />
    <glyph glyph-name="J" unicode="J" horiz-adv-x="288" 
d="M218 157q0 -100 -27.5 -174t-106.5 -153l-97 76q48 54 69.5 106t21.5 122v532h140v-509z" />
    <glyph glyph-name="K" unicode="K" horiz-adv-x="625" 
d="M210 0h-140v666h140v-320l231 320h162l-245 -329l262 -337h-173l-237 327v-327z" />
    <glyph glyph-name="L" unicode="L" horiz-adv-x="481" 
d="M70 666h140v-554h248v-112h-388v666z" />
    <glyph glyph-name="M" unicode="M" horiz-adv-x="854" 
d="M427 236l204 430h126l49 -666h-137l-23 414l-147 -302h-144l-147 302l-23 -414h-137l49 666h126z" />
    <glyph glyph-name="N" unicode="N" horiz-adv-x="719" 
d="M649 0h-134l-311 436v-436h-134v666h134l311 -436v436h134v-666z" />
    <glyph glyph-name="O" unicode="O" horiz-adv-x="746" 
d="M708 333q0 -147 -90 -246t-245 -99t-245 99t-90 246t90 246t245 99t245 -99t90 -246zM373 98q95 0 145 65.5t50 169.5t-50 169.5t-145 65.5t-145 -65.5t-50 -169.5t50 -169.5t145 -65.5z" />
    <glyph glyph-name="P" unicode="P" horiz-adv-x="550" 
d="M534 456q0 -106 -83 -162.5t-214 -56.5h-27v-237h-140v666h182q126 0 204 -53t78 -157zM394 456q0 101 -143 101h-41v-211h34q150 0 150 110z" />
    <glyph glyph-name="Q" unicode="Q" horiz-adv-x="746" 
d="M708 333q0 -96 -40 -174t-114 -123l166 -107l-68 -100l-242 161q-22 -2 -37 -2q-155 0 -245 99t-90 246t90 246t245 99t245 -99t90 -246zM373 98q95 0 145 65.5t50 169.5t-50 169.5t-145 65.5t-145 -65.5t-50 -169.5t50 -169.5t145 -65.5z" />
    <glyph glyph-name="R" unicode="R" horiz-adv-x="622" 
d="M552 463q0 -140 -155 -194l225 -269h-174l-193 243h-45v-243h-140v666h199q128 0 205.5 -52t77.5 -151zM412 460q0 49 -38.5 73t-105.5 24h-58v-208h42q74 0 117 28.5t43 82.5z" />
    <glyph glyph-name="S" unicode="S" horiz-adv-x="527" 
d="M494 190q0 -88 -69 -145t-180 -57q-112 0 -205 45l29 107q86 -41 172 -41q51 0 82 21t31 59q0 34 -28 57.5t-94 49.5q-93 38 -138 84t-45 117q0 91 62 141t168 50q105 0 186 -42l-26 -107q-78 38 -152 38q-98 0 -98 -68q0 -32 20 -50t82 -45q46 -20 77.5 -37t63 -42.5
t47 -59t15.5 -75.5z" />
    <glyph glyph-name="T" unicode="T" horiz-adv-x="546" 
d="M19 666h508v-112h-184v-554h-140v554h-184v112z" />
    <glyph glyph-name="U" unicode="U" horiz-adv-x="686" 
d="M478 234v432h140v-426q0 -115 -73.5 -183.5t-201.5 -68.5t-201.5 68.5t-73.5 183.5v426h140v-432q0 -64 34.5 -99t100.5 -35t100.5 35t34.5 99z" />
    <glyph glyph-name="V" unicode="V" horiz-adv-x="616" 
d="M308 142l159 524h146l-224 -666h-162l-224 666h146z" />
    <glyph glyph-name="W" unicode="W" horiz-adv-x="978" 
d="M568 666l134 -489l118 489h142l-186 -666h-142l-145 522l-145 -522h-142l-186 666h142l118 -489l134 489h158z" />
    <glyph glyph-name="X" unicode="X" horiz-adv-x="636" 
d="M318 441l141 225h152l-219 -331l223 -335h-153l-144 227l-144 -227h-153l223 335l-219 331h152z" />
    <glyph glyph-name="Y" unicode="Y" horiz-adv-x="580" 
d="M290 373l137 293h153l-220 -417v-249h-140v249l-220 417h153z" />
    <glyph glyph-name="Z" unicode="Z" horiz-adv-x="567" 
d="M65 554v112h454v-112l-311 -442h317v-112h-472v112l311 442h-299z" />
    <glyph glyph-name="bracketleft" unicode="[" horiz-adv-x="383" 
d="M333 -176h-243v912h243v-104h-106v-704h106v-104z" />
    <glyph glyph-name="backslash" unicode="\" horiz-adv-x="446" 
d="M154 707l252 -764l-119 -43l-252 766z" />
    <glyph glyph-name="bracketright" unicode="]" horiz-adv-x="383" 
d="M293 -176h-243v104h106v704h-106v104h243v-912z" />
    <glyph glyph-name="asciicircum" unicode="^" horiz-adv-x="526" 
d="M329 666l147 -311l-105 -43l-108 244l-108 -244l-105 43l147 311h132z" />
    <glyph glyph-name="underscore" unicode="_" horiz-adv-x="442" 
d="M444 -250h-446v91h446v-91z" />
    <glyph glyph-name="grave" unicode="`" horiz-adv-x="434" 
d="M329 558h-113l-111 166h151z" />
    <glyph glyph-name="a" unicode="a" 
d="M333 0v52q-64 -62 -153 -62q-63 0 -101.5 39t-38.5 99q0 65 44 101t124 41q34 3 120 5v17q0 96 -95 96q-73 0 -132 -32l-27 96q79 45 183 45q98 0 153 -53.5t55 -156.5v-287h-132zM230 83q54 0 98 35v77q-6 -1 -39.5 -4t-49.5 -5q-33 -6 -49.5 -18t-16.5 -37
q0 -48 57 -48z" />
    <glyph glyph-name="b" unicode="b" horiz-adv-x="571" 
d="M64 34v672h137v-259q50 50 129 50q95 0 151.5 -69.5t56.5 -179.5q0 -117 -70.5 -187.5t-202.5 -70.5q-108 0 -201 44zM292 391q-52 0 -91 -33v-253q24 -12 66 -12q69 0 101.5 41.5t32.5 111.5q0 67 -27.5 106t-81.5 39z" />
    <glyph glyph-name="c" unicode="c" horiz-adv-x="456" 
d="M288 497q86 0 139 -29l-15 -98q-47 21 -104 21q-70 0 -105 -38.5t-35 -108.5t35 -109t105 -39q58 0 104 21l15 -98q-53 -29 -139 -29q-122 0 -189.5 71t-67.5 183t67.5 182.5t189.5 70.5z" />
    <glyph glyph-name="d" unicode="d" horiz-adv-x="572" 
d="M507 706v-706h-131v63q-54 -73 -150 -73q-84 0 -138.5 70t-54.5 178q0 122 71.5 190.5t179.5 68.5q49 0 86 -13v222h137zM273 96q57 0 97 45v242q-27 10 -66 10q-65 0 -99.5 -40t-34.5 -113q0 -66 25.5 -105t77.5 -39z" />
    <glyph glyph-name="e" unicode="e" horiz-adv-x="507" 
d="M273 497q95 0 147 -56.5t52 -153.5q0 -45 -10 -78h-289q5 -118 132 -118q82 0 142 29l17 -93q-74 -37 -177 -37q-120 0 -187 68.5t-67 182.5q0 116 64.5 186t175.5 70zM265 405q-41 0 -64 -28.5t-27 -75.5h167q5 48 -14.5 76t-61.5 28z" />
    <glyph glyph-name="f" unicode="f" horiz-adv-x="363" 
d="M235 0h-136v380h-79v107h79v17q0 106 53 159t147 53q56 0 89 -13l-8 -103q-22 7 -55 7q-46 0 -68 -23t-22 -74v-23h119v-107h-119v-380z" />
    <glyph glyph-name="g" unicode="g" horiz-adv-x="520" 
d="M313 487h190v-91h-77q17 -29 17 -67q0 -72 -55 -118.5t-149 -46.5q-9 0 -17 1q-11 -17 -11 -31q0 -28 54 -33l80 -5q79 -6 119.5 -35.5t40.5 -92.5q0 -83 -83 -133.5t-197 -50.5q-93 0 -155 30t-62 94q0 80 126 112q-45 24 -45 68q0 31 20.5 54t47.5 34
q-59 17 -90.5 57.5t-31.5 95.5q0 74 54 121t150 47q41 0 74 -10zM307 -5l-111 9q-18 -10 -28.5 -17t-20.5 -21.5t-10 -31.5q0 -60 99 -60q56 0 99 20.5t43 55.5q0 40 -71 45zM239 251q38 0 61 21.5t23 57.5q0 37 -22.5 58.5t-61.5 21.5t-61.5 -21t-22.5 -59q0 -37 23 -58
t61 -21z" />
    <glyph glyph-name="h" unicode="h" horiz-adv-x="575" 
d="M202 0h-137v706h137v-278q47 69 137 69q88 0 132 -69.5t44 -174.5v-253h-137v254q0 68 -21 101t-67 33q-52 0 -88 -47v-341z" />
    <glyph glyph-name="i" unicode="i" horiz-adv-x="267" 
d="M202 0h-137v487h137v-487zM54 629q0 34 22 56.5t57 22.5t57.5 -23t22.5 -56t-22.5 -56t-57.5 -23t-57 23t-22 56z" />
    <glyph glyph-name="j" unicode="j" horiz-adv-x="274" 
d="M209 487v-371q0 -107 -32.5 -182.5t-114.5 -149.5l-89 78q52 56 75.5 110t23.5 129v386h137zM61 629q0 34 22 56.5t57 22.5t57.5 -23t22.5 -56t-22.5 -56t-57.5 -23t-57 23t-22 56z" />
    <glyph glyph-name="k" unicode="k" horiz-adv-x="538" 
d="M202 0h-137v706h137v-448l162 229h152l-173 -240l197 -247h-163l-175 237v-237z" />
    <glyph glyph-name="l" unicode="l" horiz-adv-x="297" 
d="M195 706v-565q0 -46 42 -46q22 0 38 4l5 -96q-39 -12 -91 -12q-69 0 -100 39t-31 98v578h137z" />
    <glyph glyph-name="m" unicode="m" horiz-adv-x="874" 
d="M594 388q-54 0 -93 -56q7 -42 7 -79v-253h-137v254q0 69 -19.5 101.5t-63.5 32.5q-50 0 -86 -47v-341h-137v487h132v-66q47 76 142 76q93 0 137 -84q61 84 166 84q88 0 130 -66.5t42 -177.5v-253h-137v254q0 69 -19.5 101.5t-63.5 32.5z" />
    <glyph glyph-name="n" unicode="n" horiz-adv-x="575" 
d="M202 0h-137v487h132v-66q47 76 142 76q88 0 132 -69.5t44 -174.5v-253h-137v254q0 68 -21 101t-67 33q-52 0 -88 -47v-341z" />
    <glyph glyph-name="o" unicode="o" horiz-adv-x="568" 
d="M535 243q0 -110 -66.5 -181.5t-184.5 -71.5t-184.5 71.5t-66.5 181.5q0 109 67 181.5t184 72.5t184 -72.5t67 -181.5zM398 243q0 66 -27.5 109t-86.5 43t-86.5 -43t-27.5 -109t27.5 -108.5t86.5 -42.5t86.5 42.5t27.5 108.5z" />
    <glyph glyph-name="p" unicode="p" horiz-adv-x="571" 
d="M65 -206v693h131v-62q52 72 148 72q88 0 141.5 -68.5t53.5 -179.5q0 -122 -71.5 -190.5t-179.5 -68.5q-47 0 -86 12v-208h-137zM298 390q-59 0 -96 -45v-241q24 -10 66 -10q67 0 100.5 41.5t33.5 112.5q0 64 -26.5 103t-77.5 39z" />
    <glyph glyph-name="q" unicode="q" horiz-adv-x="572" 
d="M507 452v-658h-137v245q-49 -49 -129 -49q-95 0 -151.5 68.5t-56.5 178.5q0 123 72 191.5t201 68.5q112 0 201 -45zM279 95q57 0 91 33v254q-30 11 -65 11q-66 0 -100.5 -40t-34.5 -115q0 -143 109 -143z" />
    <glyph glyph-name="r" unicode="r" horiz-adv-x="379" 
d="M364 487v-117h-23q-97 0 -139 -62v-308h-137v487h132v-86q30 91 126 91q21 0 41 -5z" />
    <glyph glyph-name="s" unicode="s" horiz-adv-x="433" 
d="M405 152q0 -77 -58.5 -119.5t-150.5 -42.5q-88 0 -160 31l20 97q71 -28 135 -28q79 0 79 46q0 7 -1.5 12t-6 10t-8.5 8t-13 7.5t-14 6.5t-18 7t-19 8q-38 16 -57 25.5t-44.5 28t-36.5 43t-11 57.5q0 73 52.5 110.5t136.5 37.5q90 0 155 -34l-21 -97q-69 30 -124 30
q-32 0 -48 -7t-16 -27q0 -6 1.5 -10.5t6 -9t8 -7.5t11.5 -6.5t12.5 -6t15.5 -7t16 -6.5q1 0 22.5 -9t26.5 -11.5t24.5 -13t27 -17t21.5 -19t20 -24.5t11 -28.5t5 -34.5z" />
    <glyph glyph-name="t" unicode="t" horiz-adv-x="401" 
d="M15 380v107h79v126h137v-126h146v-107h-146v-209q0 -37 13.5 -55.5t48.5 -18.5q38 0 74 11l10 -97q-51 -21 -121 -21q-83 0 -122.5 48.5t-39.5 128.5v213h-79z" />
    <glyph glyph-name="u" unicode="u" horiz-adv-x="567" 
d="M365 487h137v-487h-132v66q-51 -76 -142 -76q-60 0 -100 35t-56 88t-16 121v253h137v-254q0 -69 19 -101.5t65 -32.5q52 0 88 47v341z" />
    <glyph glyph-name="v" unicode="v" horiz-adv-x="499" 
d="M322 0h-145l-171 487h138l106 -359l105 359h138z" />
    <glyph glyph-name="w" unicode="w" horiz-adv-x="782" 
d="M458 487l107 -321l79 321h131l-140 -487h-128l-116 343l-116 -343h-128l-140 487h131l79 -321l107 321h134z" />
    <glyph glyph-name="x" unicode="x" horiz-adv-x="512" 
d="M504 0h-143l-105 154l-105 -154h-143l176 246l-171 241h142l101 -148l101 148h142l-171 -241z" />
    <glyph glyph-name="y" unicode="y" horiz-adv-x="493" 
d="M255 -206h-137l66 191l-179 502h142l103 -362l99 362h139z" />
    <glyph glyph-name="z" unicode="z" horiz-adv-x="471" 
d="M434 0h-385v99l225 288h-214v100h366v-100l-225 -287h233v-100z" />
    <glyph glyph-name="braceleft" unicode="{" horiz-adv-x="438" 
d="M279 105v-80q0 -51 19.5 -74t61.5 -23h33v-104h-40q-114 0 -162.5 52.5t-48.5 160.5v98q0 54 -21.5 76t-80.5 22v94q59 0 80.5 22t21.5 76v98q0 108 48.5 160.5t162.5 52.5h40v-104h-33q-42 0 -61.5 -23t-19.5 -74v-80q0 -71 -25 -112.5t-85 -62.5q60 -21 85 -62.5
t25 -112.5z" />
    <glyph glyph-name="bar" unicode="|" horiz-adv-x="313" 
d="M213 -250h-113v1000h113v-1000z" />
    <glyph glyph-name="braceright" unicode="}" horiz-adv-x="438" 
d="M159 25v80q0 71 25 112.5t85 62.5q-60 21 -85 62.5t-25 112.5v80q0 51 -19.5 74t-61.5 23h-33v104h40q114 0 162.5 -52.5t48.5 -160.5v-98q0 -54 21.5 -76t80.5 -22v-94q-59 0 -80.5 -22t-21.5 -76v-98q0 -108 -48.5 -160.5t-162.5 -52.5h-40v104h33q42 0 61.5 23
t19.5 74z" />
    <glyph glyph-name="asciitilde" unicode="~" horiz-adv-x="598" 
d="M457 434l96 -42q-26 -78 -58 -115.5t-85 -37.5q-39 0 -115 38q-5 3 -17.5 9.5t-18.5 9t-15 6.5t-16 5.5t-14 1.5q-24 0 -37 -16.5t-28 -54.5l-99 39q24 87 58 121.5t97 34.5q37 0 107 -36q6 -3 21.5 -11.5t22.5 -12t18 -7t21 -3.5q24 0 36 17t26 54z" />
    <glyph glyph-name="uni00A0" unicode="&#xa0;" horiz-adv-x="200" 
 />
    <glyph glyph-name="exclamdown" unicode="&#xa1;" horiz-adv-x="328" 
d="M204 279l32 -249v-207h-144v207l32 249h80zM85 417q0 34 21 57t58 23t58 -23t21 -57t-21 -56.5t-58 -22.5t-58 22.5t-21 56.5z" />
    <glyph glyph-name="cent" unicode="&#xa2;" horiz-adv-x="508" 
d="M233 692h120v-119q65 -7 100 -27l-19 -98q-54 20 -111 20q-63 0 -97 -34.5t-34 -100.5t34 -100.5t97 -34.5q57 0 111 20l19 -98q-35 -20 -100 -27v-119h-120v125q-85 20 -131.5 81.5t-46.5 152.5t46.5 152.5t131.5 81.5v125z" />
    <glyph glyph-name="sterling" unicode="&#xa3;" horiz-adv-x="551" 
d="M446 361v-108h-167q-17 -89 -86 -144h289v-109h-406l-26 95q74 77 93 158h-92v108h103v83q0 115 55 174.5t159 59.5q88 0 143 -28l-18 -101q-51 20 -102 20q-53 0 -76.5 -30.5t-23.5 -96.5v-81h155z" />
    <glyph glyph-name="currency" unicode="&#xa4;" horiz-adv-x="645" 
d="M585 534l-81 -82q39 -51 39 -119q0 -67 -39 -120l81 -81l-82 -78l-90 88q-38 -17 -90 -17q-50 0 -92 17l-88 -88l-83 78l81 81q-39 53 -39 120q0 68 39 119l-81 82l83 78l88 -89q42 18 92 18q51 0 90 -18l90 89zM429 333q0 51 -29 84t-77 33t-77 -32.5t-29 -84.5
t29 -84.5t77 -32.5t77 33t29 84z" />
    <glyph glyph-name="yen" unicode="&#xa5;" horiz-adv-x="574" 
d="M504 132h-148v-132h-137v132h-149v95h149v22l-27 60h-122v96h82l-112 261h143l104 -292l104 292h143l-111 -261h81v-96h-122l-26 -60v-22h148v-95z" />
    <glyph glyph-name="brokenbar" unicode="&#xa6;" horiz-adv-x="313" 
d="M213 750v-393h-113v393h113zM213 -250h-113v393h113v-393z" />
    <glyph glyph-name="section" unicode="&#xa7;" horiz-adv-x="621" 
d="M364 716q85 0 135 -20l-12 -77q-41 16 -102 16q-43 0 -68.5 -21t-25.5 -62q0 -37 22.5 -65t84.5 -80q43 -38 64.5 -59t53.5 -59.5t46 -78t14 -84.5q0 -121 -96.5 -196.5t-226.5 -75.5q-75 0 -137 23l14 77q50 -19 119 -19q47 0 73 22t26 61q0 35 -23.5 63.5t-77.5 75.5
q-107 94 -149.5 156.5t-42.5 145.5q0 118 88 187.5t221 69.5zM222 603q-66 -46 -66 -134q0 -54 29.5 -99.5t89.5 -100.5q6 -6 29 -26t33 -29.5t29.5 -29t28.5 -34t20.5 -34t16.5 -39.5t5 -41q0 -35 -14 -63q58 58 58 131q0 32 -10 61t-34 58.5t-40 46t-51 48.5
q-81 70 -113.5 114.5t-32.5 104.5q0 42 22 66z" />
    <glyph glyph-name="dieresis" unicode="&#xa8;" horiz-adv-x="540" 
d="M105 632q0 28 19 48t49 20t49 -20t19 -48q0 -30 -19 -49t-49 -19t-49 19t-19 49zM299 632q0 28 19 48t49 20t49 -20t19 -48q0 -30 -19 -49t-49 -19t-49 19t-19 49z" />
    <glyph glyph-name="copyright" unicode="&#xa9;" horiz-adv-x="818" 
d="M60 333q0 145 98 245t251 100q152 0 250.5 -100t98.5 -245t-98.5 -245t-250.5 -100q-153 0 -251 100t-98 245zM711 333q0 125 -83 213.5t-219 88.5t-219 -88.5t-83 -213.5t83 -213.5t219 -88.5t219 88.5t83 213.5zM431 529q63 0 105 -20l-11 -70q-36 13 -81 13
q-58 0 -88.5 -30.5t-30.5 -88.5t30.5 -88.5t88.5 -30.5q45 0 81 13l11 -70q-42 -20 -105 -20q-94 0 -147 55t-53 141t53 141t147 55z" />
    <glyph glyph-name="ordfeminine" unicode="&#xaa;" horiz-adv-x="489" 
d="M70 163v94h349v-94h-349zM288 321v36q-44 -44 -108 -44q-46 0 -73.5 26.5t-27.5 73.5q0 87 112 99q33 3 94 5v10q0 60 -64 60q-53 0 -94 -23l-20 81q49 31 136 31q77 0 117 -40.5t40 -115.5v-199h-112zM285 406v51q-27 -2 -55 -6q-40 -6 -40 -34q0 -31 36 -31q31 0 59 20
z" />
    <glyph glyph-name="guillemotleft" unicode="&#xab;" horiz-adv-x="624" 
d="M303 385l-121 -144l121 -144l-87 -69l-176 213l176 213zM561 385l-121 -144l121 -144l-87 -69l-176 213l176 213z" />
    <glyph glyph-name="logicalnot" unicode="&#xac;" horiz-adv-x="605" 
d="M535 374v-296h-118v194h-352v102h470z" />
    <glyph glyph-name="registered" unicode="&#xae;" horiz-adv-x="556" 
d="M50 457q0 91 63.5 156t164.5 65t164.5 -65t63.5 -156q0 -92 -63.5 -157t-164.5 -65t-164.5 65t-63.5 157zM90 457q0 -80 52 -134t136 -54t136 54t52 134t-52 133.5t-136 53.5t-136 -53.5t-52 -133.5zM369 507q0 -47 -46 -63l69 -87h-67l-59 78h-9v-78h-55v213h87
q36 0 58 -17t22 -46zM314 502q0 25 -33 25h-24v-54h14q43 0 43 29z" />
    <glyph glyph-name="macron" unicode="&#xaf;" horiz-adv-x="511" 
d="M105 577v104h301v-104h-301z" />
    <glyph glyph-name="degree" unicode="&#xb0;" horiz-adv-x="399" 
d="M60 547q0 57 38.5 94t100.5 37t101 -37t39 -94q0 -56 -39 -93.5t-101 -37.5q-61 0 -100 37.5t-39 93.5zM140 547q0 -29 15.5 -46.5t43.5 -17.5q29 0 44.5 17t15.5 47t-15.5 47.5t-44.5 17.5q-27 0 -43 -17.5t-16 -47.5z" />
    <glyph glyph-name="plusminus" unicode="&#xb1;" horiz-adv-x="605" 
d="M538 320h-177v-157h-117v157h-177v101h177v161h117v-161h177v-101zM538 0h-471v100h471v-100z" />
    <glyph glyph-name="twosuperior" unicode="&#xb2;" horiz-adv-x="374" 
d="M70 714l-23 83q58 34 136 34q67 0 110 -36t43 -96q0 -49 -27 -85.5t-79 -74.5q-37 -26 -40 -28h149v-91h-294l-20 70q86 70 113 93q3 3 20 17.5t23.5 21.5t17.5 19.5t15.5 24.5t4.5 24q0 49 -59 49q-44 0 -90 -25z" />
    <glyph glyph-name="threesuperior" unicode="&#xb3;" horiz-adv-x="363" 
d="M328 531q0 -56 -47.5 -88.5t-124.5 -32.5q-75 0 -123 25l18 80q44 -19 93 -19q68 0 68 41q0 43 -69 43h-66v85h55q70 0 70 44q0 36 -53 36q-44 0 -87 -19l-18 79q53 26 129 26q64 0 104 -27.5t40 -76.5q0 -73 -76 -98q87 -27 87 -98z" />
    <glyph glyph-name="acute" unicode="&#xb4;" horiz-adv-x="434" 
d="M218 558h-113l73 166h151z" />
    <glyph glyph-name="mu" unicode="&#xb5;" horiz-adv-x="609" 
d="M65 -206v693h137v-254q0 -68 19.5 -101t63.5 -33q49 0 89 47v341h137v-348q0 -28 9.5 -40.5t37.5 -12.5h16v-80q-37 -13 -76 -13q-91 0 -116 81q-53 -84 -143 -84q-56 0 -91 37q54 -66 54 -154v-79h-137z" />
    <glyph glyph-name="paragraph" unicode="&#xb6;" horiz-adv-x="598" 
d="M528 -140h-104v718h-104v-426q-118 0 -194 68.5t-76 187.5q0 115 77.5 186.5t191.5 71.5h209v-806z" />
    <glyph glyph-name="periodcentered" unicode="&#xb7;" horiz-adv-x="278" 
d="M60 248q0 34 21 56.5t58 22.5t58 -22.5t21 -56.5t-21 -57t-58 -23t-58 23t-21 57z" />
    <glyph glyph-name="cedilla" unicode="&#xb8;" horiz-adv-x="391" 
d="M286 -117q0 -46 -48 -70.5t-124 -28.5l-9 67q71 8 71 34q0 4 -1 7.5t-4 6.5t-6 5t-8 4t-8.5 3t-10 2.5t-10 2t-11 2t-10.5 1.5l31 81h71l-14 -41q41 -4 66 -23t25 -53z" />
    <glyph glyph-name="onesuperior" unicode="&#xb9;" horiz-adv-x="309" 
d="M249 420h-117v281l-90 -28l-24 92l151 56h80v-401z" />
    <glyph glyph-name="ordmasculine" unicode="&#xba;" horiz-adv-x="508" 
d="M77 163v94h355v-94h-355zM448 494q0 -77 -52 -129t-142 -52t-142 51.5t-52 129.5t51.5 130t142.5 52q90 0 142 -52t52 -130zM334 494q0 45 -21 71t-59 26t-59 -26t-21 -71q0 -44 21 -70t59 -26t59 26t21 70z" />
    <glyph glyph-name="guillemotright" unicode="&#xbb;" horiz-adv-x="624" 
d="M442 241l-121 144l87 69l176 -213l-176 -213l-87 69zM184 241l-121 144l87 69l176 -213l-176 -213l-87 69z" />
    <glyph glyph-name="onequarter" unicode="&#xbc;" horiz-adv-x="906" 
d="M276 265h-117v281l-90 -28l-24 92l151 56h80v-401zM222 36l344 642l88 -48l-344 -642zM866 93h-61v-93h-108v93h-179l-21 75l188 233h120v-226h61v-82zM697 175v127l-100 -127h100z" />
    <glyph glyph-name="onehalf" unicode="&#xbd;" horiz-adv-x="946" 
d="M276 265h-117v281l-90 -28l-24 92l151 56h80v-401zM222 36l344 642l88 -48l-344 -642zM617 294l-23 83q58 34 136 34q67 0 110 -36t43 -96q0 -49 -27 -85.5t-79 -74.5q-37 -26 -40 -28h149v-91h-294l-20 70q86 70 113 93q3 3 20 17.5t23.5 21.5t17.5 19.5t15.5 24.5
t4.5 24q0 49 -59 49q-44 0 -90 -25z" />
    <glyph glyph-name="threequarters" unicode="&#xbe;" horiz-adv-x="936" 
d="M355 376q0 -56 -47.5 -88.5t-124.5 -32.5q-75 0 -123 25l18 80q44 -19 93 -19q68 0 68 41q0 43 -69 43h-66v85h55q70 0 70 44q0 36 -53 36q-44 0 -87 -19l-18 79q53 26 129 26q64 0 104 -27.5t40 -76.5q0 -73 -76 -98q87 -27 87 -98zM252 36l344 642l88 -48l-344 -642z
M896 93h-61v-93h-108v93h-179l-21 75l188 233h120v-226h61v-82zM727 175v127l-100 -127h100z" />
    <glyph glyph-name="questiondown" unicode="&#xbf;" horiz-adv-x="474" 
d="M45 -11q0 45 19 85t58.5 76.5t76 62.5t95.5 62l64 -92q-13 -10 -38 -28t-37.5 -27.5t-31.5 -25t-28.5 -26t-20 -24.5t-15 -28t-4.5 -28q0 -35 22.5 -54t61.5 -19q67 0 131 37l36 -100q-81 -49 -186 -49q-88 0 -145.5 46.5t-57.5 131.5zM358 417q0 -34 -21 -56.5
t-58 -22.5t-58 22.5t-21 56.5t21 57t58 23t58 -23t21 -57z" />
    <glyph glyph-name="Agrave" unicode="&#xc0;" horiz-adv-x="696" 
d="M424 666l253 -666h-145l-47 140h-274l-47 -140h-145l253 666h152zM448 251l-100 303l-100 -303h200zM399 726h-113l-123 120h161z" />
    <glyph glyph-name="Aacute" unicode="&#xc1;" horiz-adv-x="696" 
d="M424 666l253 -666h-145l-47 140h-274l-47 -140h-145l253 666h152zM448 251l-100 303l-100 -303h200zM405 726h-113l75 120h161z" />
    <glyph glyph-name="Acircumflex" unicode="&#xc2;" horiz-adv-x="696" 
d="M424 666l253 -666h-145l-47 140h-274l-47 -140h-145l253 666h152zM448 251l-100 303l-100 -303h200zM416 846l93 -120h-117l-44 58l-44 -58h-117l93 120h136z" />
    <glyph glyph-name="Atilde" unicode="&#xc3;" horiz-adv-x="696" 
d="M424 666l253 -666h-145l-47 140h-274l-47 -140h-145l253 666h152zM448 251l-100 303l-100 -303h200zM436 726q-37 0 -90 20q-47 19 -67 19q-16 0 -24.5 -10t-15.5 -31l-84 30q15 57 40 82.5t75 25.5q38 0 89 -20q49 -20 64 -20q11 0 19.5 6.5t12 12.5t11.5 22l78 -37
q-20 -52 -43 -76t-65 -24z" />
    <glyph glyph-name="Adieresis" unicode="&#xc4;" horiz-adv-x="696" 
d="M424 666l253 -666h-145l-47 140h-274l-47 -140h-145l253 666h152zM448 251l-100 303l-100 -303h200zM175 790q0 27 19 45.5t49 18.5t48.5 -18.5t18.5 -45.5q0 -29 -18.5 -47t-48.5 -18q-31 0 -49.5 18t-18.5 47zM385 790q0 27 19 45.5t49 18.5t48.5 -18.5t18.5 -45.5
q0 -29 -18.5 -47t-48.5 -18q-31 0 -49.5 18t-18.5 47z" />
    <glyph glyph-name="Aring" unicode="&#xc5;" horiz-adv-x="696" 
d="M448 723q0 -33 -23 -59l252 -664h-145l-47 140h-274l-47 -140h-145l252 664q-22 26 -22 59q0 36 26.5 63.5t72.5 27.5t73 -27.5t27 -63.5zM448 251l-100 303l-100 -303h200zM309 723q0 -42 39 -42q19 0 29.5 12t10.5 30t-10.5 29.5t-29.5 11.5q-39 0 -39 -41z" />
    <glyph glyph-name="AE" unicode="&#xc6;" horiz-adv-x="897" 
d="M842 666v-111h-298l20 -161h262v-111h-248l23 -172h244v-111h-358l-18 140h-252l-77 -140h-145l386 666h461zM424 532l-143 -281h174z" />
    <glyph glyph-name="Ccedilla" unicode="&#xc7;" horiz-adv-x="621" 
d="M483 -117q0 -46 -48 -70.5t-124 -28.5l-9 67q71 8 71 34q0 4 -1 7.5t-4 6.5t-6 5t-8 4t-8.5 3t-10 2.5t-10 2t-11 2t-10.5 1.5l28 73q-141 18 -217.5 109.5t-76.5 231.5q0 154 93.5 249.5t260.5 95.5q118 0 189 -36l-20 -103q-73 27 -148 27q-114 0 -174.5 -59.5
t-60.5 -173.5t60.5 -173.5t174.5 -59.5q75 0 148 27l20 -103q-67 -34 -179 -36l-10 -29q41 -4 66 -23t25 -53z" />
    <glyph glyph-name="Egrave" unicode="&#xc8;" 
d="M70 0v666h400v-111h-260v-161h248v-111h-248v-172h263v-111h-403zM351 726h-113l-123 120h161z" />
    <glyph glyph-name="Eacute" unicode="&#xc9;" 
d="M70 0v666h400v-111h-260v-161h248v-111h-248v-172h263v-111h-403zM301 726h-113l75 120h161z" />
    <glyph glyph-name="Ecircumflex" unicode="&#xca;" 
d="M70 0v666h400v-111h-260v-161h248v-111h-248v-172h263v-111h-403zM339 846l93 -120h-117l-44 58l-44 -58h-117l93 120h136z" />
    <glyph glyph-name="Edieresis" unicode="&#xcb;" 
d="M70 0v666h400v-111h-260v-161h248v-111h-248v-172h263v-111h-403zM98 790q0 27 19 45.5t49 18.5t48.5 -18.5t18.5 -45.5q0 -29 -18.5 -47t-48.5 -18q-31 0 -49.5 18t-18.5 47zM308 790q0 27 19 45.5t49 18.5t48.5 -18.5t18.5 -45.5q0 -29 -18.5 -47t-48.5 -18
q-31 0 -49.5 18t-18.5 47z" />
    <glyph glyph-name="Igrave" unicode="&#xcc;" horiz-adv-x="290" 
d="M215 666v-666h-140v666h140zM204 726h-113l-123 120h161z" />
    <glyph glyph-name="Iacute" unicode="&#xcd;" horiz-adv-x="290" 
d="M215 666v-666h-140v666h140zM200 726h-113l75 120h161z" />
    <glyph glyph-name="Icircumflex" unicode="&#xce;" horiz-adv-x="290" 
d="M215 666v-666h-140v666h140zM213 846l93 -120h-117l-44 58l-44 -58h-117l93 120h136z" />
    <glyph glyph-name="Idieresis" unicode="&#xcf;" horiz-adv-x="290" 
d="M215 666v-666h-140v666h140zM-27 790q0 27 19 45.5t49 18.5t48.5 -18.5t18.5 -45.5q0 -29 -18.5 -47t-48.5 -18q-31 0 -49.5 18t-18.5 47zM183 790q0 27 19 45.5t49 18.5t48.5 -18.5t18.5 -45.5q0 -29 -18.5 -47t-48.5 -18q-31 0 -49.5 18t-18.5 47z" />
    <glyph glyph-name="Eth" unicode="&#xd0;" horiz-adv-x="731" 
d="M35 278v110h76v278h201q174 0 280.5 -93.5t106.5 -239.5t-106.5 -239.5t-280.5 -93.5h-201v278h-76zM251 112h64q109 0 176.5 59.5t67.5 161.5t-67.5 161.5t-176.5 59.5h-64v-166h165v-110h-165v-166z" />
    <glyph glyph-name="Ntilde" unicode="&#xd1;" horiz-adv-x="719" 
d="M649 0h-134l-311 436v-436h-134v666h134l311 -436v436h134v-666zM447 726q-37 0 -90 20q-47 19 -67 19q-16 0 -24.5 -10t-15.5 -31l-84 30q15 57 40 82.5t75 25.5q38 0 89 -20q49 -20 64 -20q11 0 19.5 6.5t12 12.5t11.5 22l78 -37q-20 -52 -43 -76t-65 -24z" />
    <glyph glyph-name="Ograve" unicode="&#xd2;" horiz-adv-x="746" 
d="M708 333q0 -147 -90 -246t-245 -99t-245 99t-90 246t90 246t245 99t245 -99t90 -246zM373 98q95 0 145 65.5t50 169.5t-50 169.5t-145 65.5t-145 -65.5t-50 -169.5t50 -169.5t145 -65.5zM435 726h-113l-123 120h161z" />
    <glyph glyph-name="Oacute" unicode="&#xd3;" horiz-adv-x="746" 
d="M708 333q0 -147 -90 -246t-245 -99t-245 99t-90 246t90 246t245 99t245 -99t90 -246zM373 98q95 0 145 65.5t50 169.5t-50 169.5t-145 65.5t-145 -65.5t-50 -169.5t50 -169.5t145 -65.5zM423 726h-113l75 120h161z" />
    <glyph glyph-name="Ocircumflex" unicode="&#xd4;" horiz-adv-x="746" 
d="M708 333q0 -147 -90 -246t-245 -99t-245 99t-90 246t90 246t245 99t245 -99t90 -246zM373 98q95 0 145 65.5t50 169.5t-50 169.5t-145 65.5t-145 -65.5t-50 -169.5t50 -169.5t145 -65.5zM441 846l93 -120h-117l-44 58l-44 -58h-117l93 120h136z" />
    <glyph glyph-name="Otilde" unicode="&#xd5;" horiz-adv-x="746" 
d="M708 333q0 -147 -90 -246t-245 -99t-245 99t-90 246t90 246t245 99t245 -99t90 -246zM373 98q95 0 145 65.5t50 169.5t-50 169.5t-145 65.5t-145 -65.5t-50 -169.5t50 -169.5t145 -65.5zM465 726q-37 0 -90 20q-47 19 -67 19q-16 0 -24.5 -10t-15.5 -31l-84 30
q15 57 40 82.5t75 25.5q38 0 89 -20q49 -20 64 -20q11 0 19.5 6.5t12 12.5t11.5 22l78 -37q-20 -52 -43 -76t-65 -24z" />
    <glyph glyph-name="Odieresis" unicode="&#xd6;" horiz-adv-x="746" 
d="M708 333q0 -147 -90 -246t-245 -99t-245 99t-90 246t90 246t245 99t245 -99t90 -246zM373 98q95 0 145 65.5t50 169.5t-50 169.5t-145 65.5t-145 -65.5t-50 -169.5t50 -169.5t145 -65.5zM200 790q0 27 19 45.5t49 18.5t48.5 -18.5t18.5 -45.5q0 -29 -18.5 -47t-48.5 -18
q-31 0 -49.5 18t-18.5 47zM410 790q0 27 19 45.5t49 18.5t48.5 -18.5t18.5 -45.5q0 -29 -18.5 -47t-48.5 -18q-31 0 -49.5 18t-18.5 47z" />
    <glyph glyph-name="multiply" unicode="&#xd7;" horiz-adv-x="603" 
d="M146 555l156 -156l155 156l76 -77l-155 -155l155 -155l-76 -77l-155 156l-156 -156l-76 77l155 155l-155 155z" />
    <glyph glyph-name="Oslash" unicode="&#xd8;" horiz-adv-x="752" 
d="M41 -12l85 104q-85 97 -85 241q0 147 90 246t245 99q105 0 188 -52l85 104l62 -52l-86 -105q86 -97 86 -240q0 -147 -90 -246t-245 -99q-107 0 -188 51l-84 -103zM376 97q95 0 145 65.5t50 170.5q0 79 -30 138l-278 -340q46 -34 113 -34zM181 333q0 -81 29 -138l278 339
q-44 35 -112 35q-95 0 -145 -65.5t-50 -170.5z" />
    <glyph glyph-name="Ugrave" unicode="&#xd9;" horiz-adv-x="686" 
d="M478 234v432h140v-426q0 -115 -73.5 -183.5t-201.5 -68.5t-201.5 68.5t-73.5 183.5v426h140v-432q0 -64 34.5 -99t100.5 -35t100.5 35t34.5 99zM425 726h-113l-123 120h161z" />
    <glyph glyph-name="Uacute" unicode="&#xda;" horiz-adv-x="686" 
d="M478 234v432h140v-426q0 -115 -73.5 -183.5t-201.5 -68.5t-201.5 68.5t-73.5 183.5v426h140v-432q0 -64 34.5 -99t100.5 -35t100.5 35t34.5 99zM380 726h-113l75 120h161z" />
    <glyph glyph-name="Ucircumflex" unicode="&#xdb;" horiz-adv-x="686" 
d="M478 234v432h140v-426q0 -115 -73.5 -183.5t-201.5 -68.5t-201.5 68.5t-73.5 183.5v426h140v-432q0 -64 34.5 -99t100.5 -35t100.5 35t34.5 99zM411 846l93 -120h-117l-44 58l-44 -58h-117l93 120h136z" />
    <glyph glyph-name="Udieresis" unicode="&#xdc;" horiz-adv-x="686" 
d="M478 234v432h140v-426q0 -115 -73.5 -183.5t-201.5 -68.5t-201.5 68.5t-73.5 183.5v426h140v-432q0 -64 34.5 -99t100.5 -35t100.5 35t34.5 99zM170 790q0 27 19 45.5t49 18.5t48.5 -18.5t18.5 -45.5q0 -29 -18.5 -47t-48.5 -18q-31 0 -49.5 18t-18.5 47zM380 790
q0 27 19 45.5t49 18.5t48.5 -18.5t18.5 -45.5q0 -29 -18.5 -47t-48.5 -18q-31 0 -49.5 18t-18.5 47z" />
    <glyph glyph-name="Yacute" unicode="&#xdd;" horiz-adv-x="580" 
d="M290 373l137 293h153l-220 -417v-249h-140v249l-220 417h153zM339 726h-113l75 120h161z" />
    <glyph glyph-name="Thorn" unicode="&#xde;" horiz-adv-x="556" 
d="M534 339q0 -106 -83 -162.5t-214 -56.5h-27v-120h-140v666h140v-117h42q126 0 204 -53t78 -157zM394 339q0 101 -143 101h-41v-211h34q150 0 150 110z" />
    <glyph glyph-name="germandbls" unicode="&#xdf;" horiz-adv-x="622" 
d="M202 0h-137v475q0 118 68 179.5t180 61.5q90 0 147 -44t57 -116q0 -26 -10 -51t-17 -34.5t-26 -34.5q-6 -8 -17.5 -21t-16.5 -20t-10 -17t-5 -20q0 -8 2.5 -14t10 -12.5t12.5 -10t19 -11.5t20 -12q30 -18 42.5 -26.5t34.5 -28.5t31.5 -44t9.5 -54q0 -69 -51.5 -112
t-135.5 -43q-77 0 -130 21l18 96q42 -17 97 -17q32 0 50 13t18 35q0 5 -1 9.5t-2.5 8t-5 8t-5.5 7t-8 6.5t-8.5 6t-10.5 6.5t-11 6.5t-12.5 7t-13.5 7q-58 31 -82.5 62.5t-24.5 78.5q0 52 55 114q2 2 9.5 11l10 12t8.5 11t8.5 12.5t6 11t4.5 13t1 12.5q0 29 -21 45t-55 16
q-103 0 -103 -135v-474z" />
    <glyph glyph-name="agrave" unicode="&#xe0;" 
d="M333 0v52q-64 -62 -153 -62q-63 0 -101.5 39t-38.5 99q0 65 44 101t124 41q34 3 120 5v17q0 96 -95 96q-73 0 -132 -32l-27 96q79 45 183 45q98 0 153 -53.5t55 -156.5v-287h-132zM230 83q54 0 98 35v77q-6 -1 -39.5 -4t-49.5 -5q-33 -6 -49.5 -18t-16.5 -37
q0 -48 57 -48zM326 558h-113l-111 166h151z" />
    <glyph glyph-name="aacute" unicode="&#xe1;" 
d="M333 0v52q-64 -62 -153 -62q-63 0 -101.5 39t-38.5 99q0 65 44 101t124 41q34 3 120 5v17q0 96 -95 96q-73 0 -132 -32l-27 96q79 45 183 45q98 0 153 -53.5t55 -156.5v-287h-132zM230 83q54 0 98 35v77q-6 -1 -39.5 -4t-49.5 -5q-33 -6 -49.5 -18t-16.5 -37
q0 -48 57 -48zM303 558h-113l73 166h151z" />
    <glyph glyph-name="acircumflex" unicode="&#xe2;" 
d="M333 0v52q-64 -62 -153 -62q-63 0 -101.5 39t-38.5 99q0 65 44 101t124 41q34 3 120 5v17q0 96 -95 96q-73 0 -132 -32l-27 96q79 45 183 45q98 0 153 -53.5t55 -156.5v-287h-132zM230 83q54 0 98 35v77q-6 -1 -39.5 -4t-49.5 -5q-33 -6 -49.5 -18t-16.5 -37
q0 -48 57 -48zM329 724l108 -166h-115l-55 93l-55 -93h-115l108 166h124z" />
    <glyph glyph-name="atilde" unicode="&#xe3;" 
d="M333 0v52q-64 -62 -153 -62q-63 0 -101.5 39t-38.5 99q0 65 44 101t124 41q34 3 120 5v17q0 96 -95 96q-73 0 -132 -32l-27 96q79 45 183 45q98 0 153 -53.5t55 -156.5v-287h-132zM230 83q54 0 98 35v77q-6 -1 -39.5 -4t-49.5 -5q-33 -6 -49.5 -18t-16.5 -37
q0 -48 57 -48zM344 565q-22 0 -83 25q-42 20 -57 20q-4 0 -7 -0.5t-5.5 -1.5t-5 -3t-4.5 -3t-4.5 -4.5t-3.5 -5t-4 -6.5t-4 -7l-4 -8l-4 -8l-77 36q19 60 45.5 85.5t74.5 25.5q9 0 17 -1t17 -4t13.5 -5t15.5 -7t15 -7q46 -21 57 -21t20 6.5t13 13t14 25.5l76 -38
q-29 -62 -52 -84.5t-63 -22.5z" />
    <glyph glyph-name="adieresis" unicode="&#xe4;" 
d="M333 0v52q-64 -62 -153 -62q-63 0 -101.5 39t-38.5 99q0 65 44 101t124 41q34 3 120 5v17q0 96 -95 96q-73 0 -132 -32l-27 96q79 45 183 45q98 0 153 -53.5t55 -156.5v-287h-132zM230 83q54 0 98 35v77q-6 -1 -39.5 -4t-49.5 -5q-33 -6 -49.5 -18t-16.5 -37
q0 -48 57 -48zM105 632q0 28 19 48t49 20t49 -20t19 -48q0 -30 -19 -49t-49 -19t-49 19t-19 49zM299 632q0 28 19 48t49 20t49 -20t19 -48q0 -30 -19 -49t-49 -19t-49 19t-19 49z" />
    <glyph glyph-name="aring" unicode="&#xe5;" 
d="M333 0v52q-64 -62 -153 -62q-63 0 -101.5 39t-38.5 99q0 65 44 101t124 41q34 3 120 5v17q0 96 -95 96q-73 0 -132 -32l-27 96q79 45 183 45q98 0 153 -53.5t55 -156.5v-287h-132zM230 83q54 0 98 35v77q-6 -1 -39.5 -4t-49.5 -5q-33 -6 -49.5 -18t-16.5 -37
q0 -48 57 -48zM361 645q0 -36 -27 -63t-73 -27t-72.5 27t-26.5 63t26.5 63.5t72.5 27.5t73 -27.5t27 -63.5zM222 645q0 -18 10.5 -29t28.5 -11t29 11t11 29t-11 29.5t-29 11.5t-28.5 -11.5t-10.5 -29.5z" />
    <glyph glyph-name="ae" unicode="&#xe6;" horiz-adv-x="806" 
d="M572 497q96 0 147.5 -57.5t51.5 -152.5q0 -36 -10 -78h-289q1 -55 34.5 -86.5t97.5 -31.5q77 0 142 29l17 -93q-70 -37 -176 -37q-125 0 -192 73q-91 -73 -200 -73q-73 0 -114 38.5t-41 99.5q0 130 164 144q25 2 69.5 5t57.5 4v13q0 97 -97 97q-69 0 -140 -33l-26 96
q74 43 178 43q106 0 161 -70q58 70 165 70zM564 405q-39 0 -64 -28.5t-27 -75.5h167q7 47 -12.5 75.5t-63.5 28.5zM353 124q-14 33 -19 72q-59 -6 -100 -11q-32 -6 -47.5 -17t-15.5 -36q0 -49 59 -49q66 0 123 41z" />
    <glyph glyph-name="ccedilla" unicode="&#xe7;" horiz-adv-x="456" 
d="M386 -117q0 -46 -48 -70.5t-124 -28.5l-9 67q71 8 71 34q0 4 -1 7.5t-4 6.5t-6 5t-8 4t-8.5 3t-10 2.5t-10 2t-11 2t-10.5 1.5l28 75q-97 15 -150.5 83t-53.5 167q0 112 67.5 182.5t189.5 70.5q86 0 139 -29l-15 -98q-47 21 -104 21q-70 0 -105 -38.5t-35 -108.5t35 -109
t105 -39q58 0 104 21l15 -98q-44 -23 -122 -28l-10 -32q41 -4 66 -23t25 -53z" />
    <glyph glyph-name="egrave" unicode="&#xe8;" horiz-adv-x="507" 
d="M273 497q95 0 147 -56.5t52 -153.5q0 -45 -10 -78h-289q5 -118 132 -118q82 0 142 29l17 -93q-74 -37 -177 -37q-120 0 -187 68.5t-67 182.5q0 116 64.5 186t175.5 70zM265 405q-41 0 -64 -28.5t-27 -75.5h167q5 48 -14.5 76t-61.5 28zM322 558h-113l-111 166h151z" />
    <glyph glyph-name="eacute" unicode="&#xe9;" horiz-adv-x="507" 
d="M273 497q95 0 147 -56.5t52 -153.5q0 -45 -10 -78h-289q5 -118 132 -118q82 0 142 29l17 -93q-74 -37 -177 -37q-120 0 -187 68.5t-67 182.5q0 116 64.5 186t175.5 70zM265 405q-41 0 -64 -28.5t-27 -75.5h167q5 48 -14.5 76t-61.5 28zM311 558h-113l73 166h151z" />
    <glyph glyph-name="ecircumflex" unicode="&#xea;" horiz-adv-x="507" 
d="M273 497q95 0 147 -56.5t52 -153.5q0 -45 -10 -78h-289q5 -118 132 -118q82 0 142 29l17 -93q-74 -37 -177 -37q-120 0 -187 68.5t-67 182.5q0 116 64.5 186t175.5 70zM265 405q-41 0 -64 -28.5t-27 -75.5h167q5 48 -14.5 76t-61.5 28zM325 724l108 -166h-115l-55 93
l-55 -93h-115l108 166h124z" />
    <glyph glyph-name="edieresis" unicode="&#xeb;" horiz-adv-x="507" 
d="M273 497q95 0 147 -56.5t52 -153.5q0 -45 -10 -78h-289q5 -118 132 -118q82 0 142 29l17 -93q-74 -37 -177 -37q-120 0 -187 68.5t-67 182.5q0 116 64.5 186t175.5 70zM265 405q-41 0 -64 -28.5t-27 -75.5h167q5 48 -14.5 76t-61.5 28zM100 632q0 28 19 48t49 20t49 -20
t19 -48q0 -30 -19 -49t-49 -19t-49 19t-19 49zM294 632q0 28 19 48t49 20t49 -20t19 -48q0 -30 -19 -49t-49 -19t-49 19t-19 49z" />
    <glyph glyph-name="igrave" unicode="&#xec;" horiz-adv-x="267" 
d="M202 0h-137v487h137v-487zM190 558h-113l-111 166h151z" />
    <glyph glyph-name="iacute" unicode="&#xed;" horiz-adv-x="267" 
d="M202 0h-137v487h137v-487zM196 558h-113l73 166h151z" />
    <glyph glyph-name="icircumflex" unicode="&#xee;" horiz-adv-x="267" 
d="M202 0h-137v487h137v-487zM196 724l108 -166h-115l-55 93l-55 -93h-115l108 166h124z" />
    <glyph glyph-name="idieresis" unicode="&#xef;" horiz-adv-x="267" 
d="M202 0h-137v487h137v-487zM-31 632q0 28 19 48t49 20t49 -20t19 -48q0 -30 -19 -49t-49 -19t-49 19t-19 49zM163 632q0 28 19 48t49 20t49 -20t19 -48q0 -30 -19 -49t-49 -19t-49 19t-19 49z" />
    <glyph glyph-name="eth" unicode="&#xf0;" horiz-adv-x="561" 
d="M203 490l-41 46l56 46q-58 20 -123 29l25 105q112 -13 196 -53l75 62l39 -47l-58 -48q159 -108 159 -324q0 -137 -67 -226.5t-190 -89.5q-112 0 -176.5 68.5t-64.5 170.5q0 110 62.5 170.5t156.5 60.5q86 0 137 -34q-27 75 -110 126zM168 226q0 -61 26.5 -96.5
t81.5 -35.5q44 0 72 28.5t37 64t9 79.5v63q-50 30 -102 30q-124 0 -124 -133z" />
    <glyph glyph-name="ntilde" unicode="&#xf1;" horiz-adv-x="575" 
d="M202 0h-137v487h132v-66q47 76 142 76q88 0 132 -69.5t44 -174.5v-253h-137v254q0 68 -21 101t-67 33q-52 0 -88 -47v-341zM368 565q-22 0 -83 25q-42 20 -57 20q-4 0 -7 -0.5t-5.5 -1.5t-5 -3t-4.5 -3t-4.5 -4.5t-3.5 -5t-4 -6.5t-4 -7l-4 -8l-4 -8l-77 36
q19 60 45.5 85.5t74.5 25.5q9 0 17 -1t17 -4t13.5 -5t15.5 -7t15 -7q46 -21 57 -21t20 6.5t13 13t14 25.5l76 -38q-29 -62 -52 -84.5t-63 -22.5z" />
    <glyph glyph-name="ograve" unicode="&#xf2;" horiz-adv-x="568" 
d="M535 243q0 -110 -66.5 -181.5t-184.5 -71.5t-184.5 71.5t-66.5 181.5q0 109 67 181.5t184 72.5t184 -72.5t67 -181.5zM398 243q0 66 -27.5 109t-86.5 43t-86.5 -43t-27.5 -109t27.5 -108.5t86.5 -42.5t86.5 42.5t27.5 108.5zM340 558h-113l-111 166h151z" />
    <glyph glyph-name="oacute" unicode="&#xf3;" horiz-adv-x="568" 
d="M535 243q0 -110 -66.5 -181.5t-184.5 -71.5t-184.5 71.5t-66.5 181.5q0 109 67 181.5t184 72.5t184 -72.5t67 -181.5zM398 243q0 66 -27.5 109t-86.5 43t-86.5 -43t-27.5 -109t27.5 -108.5t86.5 -42.5t86.5 42.5t27.5 108.5zM334 558h-113l73 166h151z" />
    <glyph glyph-name="ocircumflex" unicode="&#xf4;" horiz-adv-x="568" 
d="M535 243q0 -110 -66.5 -181.5t-184.5 -71.5t-184.5 71.5t-66.5 181.5q0 109 67 181.5t184 72.5t184 -72.5t67 -181.5zM398 243q0 66 -27.5 109t-86.5 43t-86.5 -43t-27.5 -109t27.5 -108.5t86.5 -42.5t86.5 42.5t27.5 108.5zM346 724l108 -166h-115l-55 93l-55 -93h-115
l108 166h124z" />
    <glyph glyph-name="otilde" unicode="&#xf5;" horiz-adv-x="568" 
d="M535 243q0 -110 -66.5 -181.5t-184.5 -71.5t-184.5 71.5t-66.5 181.5q0 109 67 181.5t184 72.5t184 -72.5t67 -181.5zM398 243q0 66 -27.5 109t-86.5 43t-86.5 -43t-27.5 -109t27.5 -108.5t86.5 -42.5t86.5 42.5t27.5 108.5zM363 565q-22 0 -83 25q-42 20 -57 20
q-4 0 -7 -0.5t-5.5 -1.5t-5 -3t-4.5 -3t-4.5 -4.5t-3.5 -5t-4 -6.5t-4 -7l-4 -8l-4 -8l-77 36q19 60 45.5 85.5t74.5 25.5q9 0 17 -1t17 -4t13.5 -5t15.5 -7t15 -7q46 -21 57 -21t20 6.5t13 13t14 25.5l76 -38q-29 -62 -52 -84.5t-63 -22.5z" />
    <glyph glyph-name="odieresis" unicode="&#xf6;" horiz-adv-x="568" 
d="M535 243q0 -110 -66.5 -181.5t-184.5 -71.5t-184.5 71.5t-66.5 181.5q0 109 67 181.5t184 72.5t184 -72.5t67 -181.5zM398 243q0 66 -27.5 109t-86.5 43t-86.5 -43t-27.5 -109t27.5 -108.5t86.5 -42.5t86.5 42.5t27.5 108.5zM119 632q0 28 19 48t49 20t49 -20t19 -48
q0 -30 -19 -49t-49 -19t-49 19t-19 49zM313 632q0 28 19 48t49 20t49 -20t19 -48q0 -30 -19 -49t-49 -19t-49 19t-19 49z" />
    <glyph glyph-name="divide" unicode="&#xf7;" horiz-adv-x="600" 
d="M535 272h-470v102h470v-102zM374 516q0 -32 -21 -52.5t-53 -20.5t-53.5 20.5t-21.5 52.5t21.5 53t53.5 21t53 -21t21 -53zM374 129q0 -32 -21 -52.5t-53 -20.5t-53.5 20.5t-21.5 52.5t21.5 53t53.5 21t53 -21t21 -53z" />
    <glyph glyph-name="oslash" unicode="&#xf8;" horiz-adv-x="572" 
d="M35 -25l68 85q-68 71 -68 183q0 109 67 181.5t184 72.5q76 0 136 -34l68 86l47 -38l-68 -85q68 -71 68 -183q0 -110 -66.5 -181.5t-184.5 -71.5q-78 0 -136 33l-68 -85zM172 243q0 -48 12 -80l167 211q-26 21 -65 21q-59 0 -86.5 -43t-27.5 -109zM400 243q0 45 -13 80
l-167 -211q26 -20 66 -20q59 0 86.5 42.5t27.5 108.5z" />
    <glyph glyph-name="ugrave" unicode="&#xf9;" horiz-adv-x="567" 
d="M365 487h137v-487h-132v66q-51 -76 -142 -76q-60 0 -100 35t-56 88t-16 121v253h137v-254q0 -69 19 -101.5t65 -32.5q52 0 88 47v341zM364 558h-113l-111 166h151z" />
    <glyph glyph-name="uacute" unicode="&#xfa;" horiz-adv-x="567" 
d="M365 487h137v-487h-132v66q-51 -76 -142 -76q-60 0 -100 35t-56 88t-16 121v253h137v-254q0 -69 19 -101.5t65 -32.5q52 0 88 47v341zM322 558h-113l73 166h151z" />
    <glyph glyph-name="ucircumflex" unicode="&#xfb;" horiz-adv-x="567" 
d="M365 487h137v-487h-132v66q-51 -76 -142 -76q-60 0 -100 35t-56 88t-16 121v253h137v-254q0 -69 19 -101.5t65 -32.5q52 0 88 47v341zM347 724l108 -166h-115l-55 93l-55 -93h-115l108 166h124z" />
    <glyph glyph-name="udieresis" unicode="&#xfc;" horiz-adv-x="567" 
d="M365 487h137v-487h-132v66q-51 -76 -142 -76q-60 0 -100 35t-56 88t-16 121v253h137v-254q0 -69 19 -101.5t65 -32.5q52 0 88 47v341zM120 632q0 28 19 48t49 20t49 -20t19 -48q0 -30 -19 -49t-49 -19t-49 19t-19 49zM314 632q0 28 19 48t49 20t49 -20t19 -48
q0 -30 -19 -49t-49 -19t-49 19t-19 49z" />
    <glyph glyph-name="yacute" unicode="&#xfd;" horiz-adv-x="493" 
d="M255 -206h-137l66 191l-179 502h142l103 -362l99 362h139zM293 558h-113l73 166h151z" />
    <glyph glyph-name="thorn" unicode="&#xfe;" horiz-adv-x="571" 
d="M65 -206v912h137v-274q52 65 142 65q88 0 141.5 -68.5t53.5 -179.5q0 -122 -71.5 -190.5t-179.5 -68.5q-47 0 -86 12v-208h-137zM298 390q-59 0 -96 -45v-241q24 -10 66 -10q67 0 100.5 41.5t33.5 112.5q0 64 -26.5 103t-77.5 39z" />
    <glyph glyph-name="ydieresis" unicode="&#xff;" horiz-adv-x="493" 
d="M255 -206h-137l66 191l-179 502h142l103 -362l99 362h139zM86 632q0 28 19 48t49 20t49 -20t19 -48q0 -30 -19 -49t-49 -19t-49 19t-19 49zM280 632q0 28 19 48t49 20t49 -20t19 -48q0 -30 -19 -49t-49 -19t-49 19t-19 49z" />
    <glyph glyph-name="dotlessi" unicode="&#x131;" horiz-adv-x="267" 
d="M202 0h-137v487h137v-487z" />
    <glyph glyph-name="OE" unicode="&#x152;" horiz-adv-x="974" 
d="M519 666h400v-111h-260v-161h248v-111h-248v-172h263v-111h-403q-74 -12 -128 -12q-166 0 -260.5 98t-94.5 247t94.5 247t260.5 98q54 0 128 -12zM403 100q61 0 116 12v442q-55 12 -116 12q-110 0 -168.5 -61.5t-58.5 -171.5t58.5 -171.5t168.5 -61.5z" />
    <glyph glyph-name="oe" unicode="&#x153;" horiz-adv-x="872" 
d="M634 497q95 0 149 -58t54 -152q0 -37 -10 -78h-291q5 -118 134 -118q74 0 142 29l18 -93q-64 -37 -182 -37q-60 0 -109.5 21.5t-76.5 58.5q-66 -80 -178 -80q-119 0 -185 71.5t-66 181.5q0 109 67.5 181.5t184.5 72.5q110 0 178 -79q60 79 171 79zM400 243q0 68 -30 110
t-85 42t-85 -40.5t-30 -111.5t30 -111t85 -40t85 41.5t30 109.5zM629 406q-37 0 -62.5 -29t-27.5 -76h167q4 42 -14 73.5t-63 31.5z" />
    <glyph glyph-name="circumflex" unicode="&#x2c6;" horiz-adv-x="550" 
d="M337 724l108 -166h-115l-55 93l-55 -93h-115l108 166h124z" />
    <glyph glyph-name="ring" unicode="&#x2da;" horiz-adv-x="409" 
d="M304 645q0 -36 -27 -63t-73 -27t-72.5 27t-26.5 63t26.5 63.5t72.5 27.5t73 -27.5t27 -63.5zM165 645q0 -18 10.5 -29t28.5 -11t29 11t11 29t-11 29.5t-29 11.5t-28.5 -11.5t-10.5 -29.5z" />
    <glyph glyph-name="tilde" unicode="&#x2dc;" horiz-adv-x="548" 
d="M348 565q-22 0 -83 25q-42 20 -57 20q-4 0 -7 -0.5t-5.5 -1.5t-5 -3t-4.5 -3t-4.5 -4.5t-3.5 -5t-4 -6.5t-4 -7l-4 -8l-4 -8l-77 36q19 60 45.5 85.5t74.5 25.5q9 0 17 -1t17 -4t13.5 -5t15.5 -7t15 -7q46 -21 57 -21t20 6.5t13 13t14 25.5l76 -38q-29 -62 -52 -84.5
t-63 -22.5z" />
    <glyph glyph-name="endash" unicode="&#x2013;" horiz-adv-x="543" 
d="M478 265h-413v107h413v-107z" />
    <glyph glyph-name="emdash" unicode="&#x2014;" horiz-adv-x="809" 
d="M749 207h-689v111h689v-111z" />
    <glyph glyph-name="quoteleft" unicode="&#x2018;" horiz-adv-x="282" 
d="M152 706l90 -48q-54 -109 -62 -241l-130 13q4 152 102 276z" />
    <glyph glyph-name="quoteright" unicode="&#x2019;" horiz-adv-x="282" 
d="M140 417l-90 48q55 109 62 241l130 -13q-4 -152 -102 -276z" />
    <glyph glyph-name="quotesinglbase" unicode="&#x201a;" horiz-adv-x="289" 
d="M122 -157l-90 48q54 109 62 241l130 -13q-4 -152 -102 -276z" />
    <glyph glyph-name="quotedblleft" unicode="&#x201c;" horiz-adv-x="497" 
d="M367 706l90 -48q-55 -109 -62 -241l-130 13q4 152 102 276zM152 706l90 -48q-54 -109 -62 -241l-130 13q4 152 102 276z" />
    <glyph glyph-name="quotedblright" unicode="&#x201d;" horiz-adv-x="497" 
d="M140 417l-90 48q55 109 62 241l130 -13q-4 -152 -102 -276zM355 417l-90 48q55 109 62 241l130 -13q-4 -152 -102 -276z" />
    <glyph glyph-name="quotedblbase" unicode="&#x201e;" horiz-adv-x="504" 
d="M122 -157l-90 48q54 109 62 241l130 -13q-4 -152 -102 -276zM337 -157l-90 48q55 109 62 241l130 -13q-4 -152 -102 -276z" />
    <glyph glyph-name="dagger" unicode="&#x2020;" horiz-adv-x="463" 
d="M273 92h-82l-28 298l26 96l-75 -23h-59v113h59l75 -24l-26 97v57h137v-57l-26 -97l75 24h59v-113h-59l-75 23l26 -96z" />
    <glyph glyph-name="daggerdbl" unicode="&#x2021;" horiz-adv-x="473" 
d="M168 390l26 96l-75 -23h-59v113h59l75 -24l-26 97v57h137v-57l-26 -97l75 24h59v-113h-59l-75 23l26 -96v-74l-26 -96l75 23h59v-113h-59l-75 24l26 -97v-57h-137v57l26 97l-75 -24h-59v113h59l75 -23l-26 96v74z" />
    <glyph glyph-name="bullet" unicode="&#x2022;" horiz-adv-x="428" 
d="M70 283q0 61 40.5 103t102.5 42t103.5 -42t41.5 -103q0 -59 -41.5 -101t-103.5 -42t-102.5 42t-40.5 101z" />
    <glyph glyph-name="ellipsis" unicode="&#x2026;" horiz-adv-x="834" 
d="M60 72q0 34 21 56.5t58 22.5t58 -22.5t21 -56.5t-21 -57t-58 -23t-58 23t-21 57zM338 72q0 34 21 56.5t58 22.5t58 -22.5t21 -56.5t-21 -57t-58 -23t-58 23t-21 57zM616 72q0 34 21 56.5t58 22.5t58 -22.5t21 -56.5t-21 -57t-58 -23t-58 23t-21 57z" />
    <glyph glyph-name="perthousand" unicode="&#x2030;" horiz-adv-x="1406" 
d="M418 480q0 -80 -48 -138.5t-136 -58.5t-136 58.5t-48 138.5q0 81 48 139.5t136 58.5t136 -58.5t48 -139.5zM308 480q0 50 -18.5 79.5t-55.5 29.5t-55.5 -29.5t-18.5 -79.5q0 -108 74 -108t74 108zM293 37l305 641l98 -47l-306 -643zM937 185q0 -80 -48 -138.5t-136 -58.5
t-136 58.5t-48 138.5q0 81 48 139.5t136 58.5t136 -58.5t48 -139.5zM827 185q0 50 -18.5 79.5t-55.5 29.5t-55.5 -29.5t-18.5 -79.5q0 -108 74 -108t74 108zM1361 185q0 -80 -48 -138.5t-136 -58.5t-136 58.5t-48 138.5q0 81 48 139.5t136 58.5t136 -58.5t48 -139.5z
M1251 185q0 50 -18.5 79.5t-55.5 29.5t-55.5 -29.5t-18.5 -79.5q0 -108 74 -108t74 108z" />
    <glyph glyph-name="guilsinglleft" unicode="&#x2039;" horiz-adv-x="366" 
d="M303 385l-121 -144l121 -144l-87 -69l-176 213l176 213z" />
    <glyph glyph-name="guilsinglright" unicode="&#x203a;" horiz-adv-x="366" 
d="M184 241l-121 144l87 69l176 -213l-176 -213l-87 69z" />
    <glyph glyph-name="fraction" unicode="&#x2044;" horiz-adv-x="242" 
d="M-95 36l344 642l88 -48l-344 -642z" />
    <glyph glyph-name="uni2074" unicode="&#x2074;" horiz-adv-x="409" 
d="M386 513h-61v-93h-108v93h-179l-21 75l188 233h120v-226h61v-82zM217 595v127l-100 -127h100z" />
    <glyph glyph-name="Euro" unicode="&#x20ac;" horiz-adv-x="576" 
d="M396 678q81 0 135 -24l-13 -98q-37 15 -98 15q-124 0 -155 -112h215v-84h-228q-1 -15 -1 -42q0 -29 1 -42h228v-84h-215q31 -112 155 -112q56 0 98 14l13 -97q-54 -24 -135 -24q-105 0 -174 56.5t-94 162.5h-93v84h81q-2 26 -2 42q0 12 2 42h-81v84h93q25 106 94 162.5
t174 56.5z" />
    <glyph glyph-name="uni2116" unicode="&#x2116;" horiz-adv-x="1105" 
d="M575 0h-128l-249 417v-417h-128v666h128l249 -418v418h128v-666zM689 163v94h355v-94h-355zM1060 494q0 -77 -52 -129t-142 -52t-142 51.5t-52 129.5t51.5 130t142.5 52q90 0 142 -52t52 -130zM946 494q0 45 -21 71t-59 26t-59 -26t-21 -71q0 -44 21 -70t59 -26t59 26
t21 70z" />
    <glyph glyph-name="onethird" horiz-adv-x="909" 
d="M276 265h-117v281l-90 -28l-24 92l151 56h80v-401zM222 36l344 642l88 -48l-344 -642zM864 111q0 -56 -47.5 -88.5t-124.5 -32.5q-75 0 -123 25l18 80q44 -19 93 -19q68 0 68 41q0 43 -69 43h-66v85h55q70 0 70 44q0 36 -53 36q-44 0 -87 -19l-18 79q53 26 129 26
q64 0 104 -27.5t40 -76.5q0 -73 -76 -98q87 -27 87 -98z" />
    <glyph glyph-name="twothirds" horiz-adv-x="975" 
d="M288 36l344 642l88 -48l-344 -642zM930 111q0 -56 -47.5 -88.5t-124.5 -32.5q-75 0 -123 25l18 80q44 -19 93 -19q68 0 68 41q0 43 -69 43h-66v85h55q70 0 70 44q0 36 -53 36q-44 0 -87 -19l-18 79q53 26 129 26q64 0 104 -27.5t40 -76.5q0 -73 -76 -98q87 -27 87 -98z
M87 559l-23 83q58 34 136 34q67 0 110 -36t43 -96q0 -49 -27 -85.5t-79 -74.5q-37 -26 -40 -28h149v-91h-294l-20 70q86 70 113 93q3 3 20 17.5t23.5 21.5t17.5 19.5t15.5 24.5t4.5 24q0 49 -59 49q-44 0 -90 -25z" />
    <glyph glyph-name="oneeighth" horiz-adv-x="924" 
d="M276 265h-117v281l-90 -28l-24 92l151 56h80v-401zM222 36l344 642l88 -48l-344 -642zM548 106q0 61 86 103q-71 38 -71 97q0 48 41.5 76.5t108.5 28.5t109 -27.5t42 -74.5q0 -55 -75 -95q90 -42 90 -108q0 -51 -48.5 -83.5t-117.5 -32.5q-77 0 -121 31t-44 85zM772 109
q0 31 -60 61q-29 -16 -43 -29.5t-14 -32.5q0 -20 15.5 -31.5t42.5 -11.5q26 0 42.5 12.5t16.5 31.5zM665 303q0 -28 48 -53q49 25 49 53q0 36 -49 36q-23 0 -35.5 -10t-12.5 -26z" />
    <glyph glyph-name="threeeighths" horiz-adv-x="954" 
d="M355 376q0 -56 -47.5 -88.5t-124.5 -32.5q-75 0 -123 25l18 80q44 -19 93 -19q68 0 68 41q0 43 -69 43h-66v85h55q70 0 70 44q0 36 -53 36q-44 0 -87 -19l-18 79q53 26 129 26q64 0 104 -27.5t40 -76.5q0 -73 -76 -98q87 -27 87 -98zM252 36l344 642l88 -48l-344 -642z
M578 106q0 61 86 103q-71 38 -71 97q0 48 41.5 76.5t108.5 28.5t109 -27.5t42 -74.5q0 -55 -75 -95q90 -42 90 -108q0 -51 -48.5 -83.5t-117.5 -32.5q-77 0 -121 31t-44 85zM802 109q0 31 -60 61q-29 -16 -43 -29.5t-14 -32.5q0 -20 15.5 -31.5t42.5 -11.5q26 0 42.5 12.5
t16.5 31.5zM695 303q0 -28 48 -53q49 25 49 53q0 36 -49 36q-23 0 -35.5 -10t-12.5 -26z" />
    <glyph glyph-name="fiveeighths" horiz-adv-x="963" 
d="M261 36l344 642l88 -48l-344 -642zM587 106q0 61 86 103q-71 38 -71 97q0 48 41.5 76.5t108.5 28.5t109 -27.5t42 -74.5q0 -55 -75 -95q90 -42 90 -108q0 -51 -48.5 -83.5t-117.5 -32.5q-77 0 -121 31t-44 85zM811 109q0 31 -60 61q-29 -16 -43 -29.5t-14 -32.5
q0 -20 15.5 -31.5t42.5 -11.5q26 0 42.5 12.5t16.5 31.5zM704 303q0 -28 48 -53q49 25 49 53q0 36 -49 36q-23 0 -35.5 -10t-12.5 -26zM365 392q0 -65 -48.5 -101t-128.5 -36q-71 0 -128 20l15 83q42 -17 101 -17q74 0 74 44q0 45 -73 45h-94v236h255v-88h-144v-64h9
q69 0 115.5 -30t46.5 -92z" />
    <glyph glyph-name="seveneighths" horiz-adv-x="914" 
d="M212 36l344 642l88 -48l-344 -642zM538 106q0 61 86 103q-71 38 -71 97q0 48 41.5 76.5t108.5 28.5t109 -27.5t42 -74.5q0 -55 -75 -95q90 -42 90 -108q0 -51 -48.5 -83.5t-117.5 -32.5q-77 0 -121 31t-44 85zM762 109q0 31 -60 61q-29 -16 -43 -29.5t-14 -32.5
q0 -20 15.5 -31.5t42.5 -11.5q26 0 42.5 12.5t16.5 31.5zM655 303q0 -28 48 -53q49 25 49 53q0 36 -49 36q-23 0 -35.5 -10t-12.5 -26zM360 666l14 -77l-180 -324h-119l179 310h-184v91h290z" />
    <glyph glyph-name="minus" unicode="&#x2212;" horiz-adv-x="590" 
d="M525 272h-460v102h460v-102z" />
    <glyph glyph-name="zero.numr" horiz-adv-x="422" 
d="M395 465q0 -93 -48.5 -151.5t-135.5 -58.5t-135.5 58.5t-48.5 151.5q0 94 48.5 152.5t135.5 58.5t135.5 -58.5t48.5 -152.5zM278 465q0 123 -67 123t-67 -123q0 -122 67 -122t67 122z" />
    <glyph glyph-name="one.numr" horiz-adv-x="309" 
d="M249 265h-117v281l-90 -28l-24 92l151 56h80v-401z" />
    <glyph glyph-name="two.numr" horiz-adv-x="374" 
d="M70 559l-23 83q58 34 136 34q67 0 110 -36t43 -96q0 -49 -27 -85.5t-79 -74.5q-37 -26 -40 -28h149v-91h-294l-20 70q86 70 113 93q3 3 20 17.5t23.5 21.5t17.5 19.5t15.5 24.5t4.5 24q0 49 -59 49q-44 0 -90 -25z" />
    <glyph glyph-name="three.numr" horiz-adv-x="363" 
d="M328 376q0 -56 -47.5 -88.5t-124.5 -32.5q-75 0 -123 25l18 80q44 -19 93 -19q68 0 68 41q0 43 -69 43h-66v85h55q70 0 70 44q0 36 -53 36q-44 0 -87 -19l-18 79q53 26 129 26q64 0 104 -27.5t40 -76.5q0 -73 -76 -98q87 -27 87 -98z" />
    <glyph glyph-name="four.numr" horiz-adv-x="409" 
d="M386 358h-61v-93h-108v93h-179l-21 75l188 233h120v-226h61v-82zM217 440v127l-100 -127h100z" />
    <glyph glyph-name="five.numr" horiz-adv-x="367" 
d="M337 392q0 -65 -48.5 -101t-128.5 -36q-71 0 -128 20l15 83q42 -17 101 -17q74 0 74 44q0 45 -73 45h-94v236h255v-88h-144v-64h9q69 0 115.5 -30t46.5 -92z" />
    <glyph glyph-name="six.numr" horiz-adv-x="391" 
d="M294 676l24 -87q-72 -15 -112.5 -38.5t-61.5 -67.5q37 34 90 34q57 0 95.5 -33t38.5 -90q0 -60 -45 -99.5t-117 -39.5q-80 0 -127 48t-47 120q0 102 69.5 166.5t192.5 86.5zM266 387q0 24 -15.5 38.5t-40.5 14.5q-41 0 -68 -27q0 -36 17.5 -58t47.5 -22q27 0 43 15t16 39
z" />
    <glyph glyph-name="seven.numr" horiz-adv-x="347" 
d="M320 666l14 -77l-180 -324h-119l179 310h-184v91h290z" />
    <glyph glyph-name="eight.numr" horiz-adv-x="397" 
d="M33 371q0 61 86 103q-71 38 -71 97q0 48 41.5 76.5t108.5 28.5t109 -27.5t42 -74.5q0 -55 -75 -95q90 -42 90 -108q0 -51 -48.5 -83.5t-117.5 -32.5q-77 0 -121 31t-44 85zM257 374q0 31 -60 61q-29 -16 -43 -29.5t-14 -32.5q0 -20 15.5 -31.5t42.5 -11.5q26 0 42.5 12.5
t16.5 31.5zM150 568q0 -28 48 -53q49 25 49 53q0 36 -49 36q-23 0 -35.5 -10t-12.5 -26z" />
    <glyph glyph-name="nine.numr" horiz-adv-x="394" 
d="M103 255l-24 86q70 15 111.5 39.5t61.5 67.5q-38 -35 -91 -35q-60 0 -96.5 33.5t-36.5 90.5q0 63 44 101t119 38q82 0 127.5 -48.5t45.5 -120.5q0 -103 -69 -166.5t-192 -85.5zM130 543q0 -53 56 -53q43 0 68 28q1 36 -16.5 57.5t-48.5 21.5q-26 0 -42.5 -14t-16.5 -40z
" />
    <glyph glyph-name="parenleft.numr" horiz-adv-x="275" 
d="M172 465q0 -59 20 -108t63 -109l-78 -56q-63 64 -92.5 128.5t-29.5 144.5t29.5 145t92.5 129l78 -56q-42 -59 -62.5 -109t-20.5 -109z" />
    <glyph glyph-name="parenright.numr" horiz-adv-x="275" 
d="M103 465q0 59 -20.5 109t-62.5 109l78 56q63 -64 92.5 -129t29.5 -145t-29.5 -144.5t-92.5 -128.5l-78 56q43 60 63 109t20 108z" />
    <glyph glyph-name="comma.numr" horiz-adv-x="220" 
d="M109 161l-81 38q37 78 37 174l115 -9q-1 -114 -71 -203z" />
    <glyph glyph-name="minus.numr" horiz-adv-x="420" 
d="M370 418h-320v97h320v-97z" />
    <glyph glyph-name="period.numr" horiz-adv-x="228" 
d="M45 326q0 28 19 47.5t50 19.5t50 -19.5t19 -47.5t-19 -47.5t-50 -19.5t-50 19.5t-19 47.5z" />
    <glyph glyph-name="zero.dnom" horiz-adv-x="422" 
d="M395 200q0 -93 -48.5 -151.5t-135.5 -58.5t-135.5 58.5t-48.5 151.5q0 94 48.5 152.5t135.5 58.5t135.5 -58.5t48.5 -152.5zM278 200q0 123 -67 123t-67 -123q0 -122 67 -122t67 122z" />
    <glyph glyph-name="one.dnom" horiz-adv-x="309" 
d="M249 0h-117v281l-90 -28l-24 92l151 56h80v-401z" />
    <glyph glyph-name="two.dnom" horiz-adv-x="374" 
d="M70 294l-23 83q58 34 136 34q67 0 110 -36t43 -96q0 -49 -27 -85.5t-79 -74.5q-37 -26 -40 -28h149v-91h-294l-20 70q86 70 113 93q3 3 20 17.5t23.5 21.5t17.5 19.5t15.5 24.5t4.5 24q0 49 -59 49q-44 0 -90 -25z" />
    <glyph glyph-name="three.dnom" horiz-adv-x="363" 
d="M328 111q0 -56 -47.5 -88.5t-124.5 -32.5q-75 0 -123 25l18 80q44 -19 93 -19q68 0 68 41q0 43 -69 43h-66v85h55q70 0 70 44q0 36 -53 36q-44 0 -87 -19l-18 79q53 26 129 26q64 0 104 -27.5t40 -76.5q0 -73 -76 -98q87 -27 87 -98z" />
    <glyph glyph-name="four.dnom" horiz-adv-x="409" 
d="M386 93h-61v-93h-108v93h-179l-21 75l188 233h120v-226h61v-82zM217 175v127l-100 -127h100z" />
    <glyph glyph-name="five.dnom" horiz-adv-x="367" 
d="M337 127q0 -65 -48.5 -101t-128.5 -36q-71 0 -128 20l15 83q42 -17 101 -17q74 0 74 44q0 45 -73 45h-94v236h255v-88h-144v-64h9q69 0 115.5 -30t46.5 -92z" />
    <glyph glyph-name="six.dnom" horiz-adv-x="391" 
d="M294 411l24 -87q-72 -15 -112.5 -38.5t-61.5 -67.5q37 34 90 34q57 0 95.5 -33t38.5 -90q0 -60 -45 -99.5t-117 -39.5q-80 0 -127 48t-47 120q0 102 69.5 166.5t192.5 86.5zM266 122q0 24 -15.5 38.5t-40.5 14.5q-41 0 -68 -27q0 -36 17.5 -58t47.5 -22q27 0 43 15t16 39
z" />
    <glyph glyph-name="seven.dnom" horiz-adv-x="347" 
d="M320 401l14 -77l-180 -324h-119l179 310h-184v91h290z" />
    <glyph glyph-name="eight.dnom" horiz-adv-x="397" 
d="M33 106q0 61 86 103q-71 38 -71 97q0 48 41.5 76.5t108.5 28.5t109 -27.5t42 -74.5q0 -55 -75 -95q90 -42 90 -108q0 -51 -48.5 -83.5t-117.5 -32.5q-77 0 -121 31t-44 85zM257 109q0 31 -60 61q-29 -16 -43 -29.5t-14 -32.5q0 -20 15.5 -31.5t42.5 -11.5q26 0 42.5 12.5
t16.5 31.5zM150 303q0 -28 48 -53q49 25 49 53q0 36 -49 36q-23 0 -35.5 -10t-12.5 -26z" />
    <glyph glyph-name="nine.dnom" horiz-adv-x="394" 
d="M103 -10l-24 86q70 15 111.5 39.5t61.5 67.5q-38 -35 -91 -35q-60 0 -96.5 33.5t-36.5 90.5q0 63 44 101t119 38q82 0 127.5 -48.5t45.5 -120.5q0 -103 -69 -166.5t-192 -85.5zM130 278q0 -53 56 -53q43 0 68 28q1 36 -16.5 57.5t-48.5 21.5q-26 0 -42.5 -14t-16.5 -40z
" />
    <glyph glyph-name="parenleft.dnom" horiz-adv-x="275" 
d="M172 200q0 -59 20 -108t63 -109l-78 -56q-63 64 -92.5 128.5t-29.5 144.5t29.5 145t92.5 129l78 -56q-42 -59 -62.5 -109t-20.5 -109z" />
    <glyph glyph-name="parenright.dnom" horiz-adv-x="275" 
d="M103 200q0 59 -20.5 109t-62.5 109l78 56q63 -64 92.5 -129t29.5 -145t-29.5 -144.5t-92.5 -128.5l-78 56q43 60 63 109t20 108z" />
    <glyph glyph-name="comma.dnom" horiz-adv-x="220" 
d="M109 -104l-81 38q37 78 37 174l115 -9q-1 -114 -71 -203z" />
    <glyph glyph-name="minus.dnom" horiz-adv-x="420" 
d="M370 153h-320v97h320v-97z" />
    <glyph glyph-name="period.dnom" horiz-adv-x="228" 
d="M45 61q0 28 19 47.5t50 19.5t50 -19.5t19 -47.5t-19 -47.5t-50 -19.5t-50 19.5t-19 47.5z" />
    </font>
</defs>
</svg>
