<?xml version="1.0" standalone="no"?>
<!DOCTYPE svg PUBLIC "-//W3C//DTD SVG 1.1//EN" "http://www.w3.org/Graphics/SVG/1.1/DTD/svg11.dtd" >
<svg xmlns="http://www.w3.org/2000/svg" xmlns:xlink="http://www.w3.org/1999/xlink" version="1.1">
<metadata>
Created by FontForge 20170731 at Sun Jul 19 08:52:43 2015
 By Aleksey,,,
Copyright (c) 2007 by Process Type Foundry. All rights reserved.
</metadata>
<defs>
<font id="Seravek-Bold" horiz-adv-x="0" >
  <font-face 
    font-family="Seravek"
    font-weight="700"
    font-stretch="normal"
    units-per-em="1000"
    panose-1="2 11 8 3 5 0 0 2 0 4"
    ascent="800"
    descent="-200"
    x-height="490"
    cap-height="666"
    bbox="-891 -326 1407 1051"
    underline-thickness="112"
    underline-position="-418"
    unicode-range="U+0020-A69F"
  />
<missing-glyph horiz-adv-x="646" 
d="M90 666h466v-666h-466v666zM167 616l340 -527v527h-340zM139 49h339l-339 527v-527z" />
    <glyph glyph-name="f_f" unicode="ff" horiz-adv-x="702" 
d="M421 0v370h-170v-370h-160v368h-76v122h76v14q0 112 54.5 162t146.5 50q24 0 47.5 -3.5t40.5 -9.5l-11 -116q-8 2 -20 4t-25 2q-38 0 -55.5 -19t-17.5 -62v-22h170v14q0 109 57 160.5t151 51.5q24 0 49.5 -3.5t47.5 -12.5l-12 -114q-24 7 -52 7q-38 0 -59.5 -18
t-21.5 -64v-21h112v-122h-112v-368h-160z" />
    <glyph glyph-name="fi" unicode="fi" horiz-adv-x="621" 
d="M403 0v373h-152v-373h-160v368h-76v122h76v10q0 58 15.5 99t45 67t71 38t93.5 12q43 0 77.5 -7.5t65.5 -20.5l-19 -113q-21 8 -46.5 14t-55.5 6q-45 0 -66 -19.5t-21 -61.5v-24h310v-490h-158z" />
    <glyph glyph-name="fl" unicode="fl" horiz-adv-x="659" 
d="M353 368h-102v-368h-160v368h-76v122h76v13q0 100 52 156.5t163 56.5q29 0 55.5 -2.5t49.5 -7.5h160v-556q0 -19 8 -29.5t31 -10.5q14 0 34 3l5 -110q-20 -6 -45.5 -9.5t-52.5 -3.5q-40 0 -67 12t-43 32t-23 45.5t-7 52.5v457q-29 8 -68 8q-48 0 -70 -20.5t-22 -72.5v-14
h102v-122z" />
    <glyph glyph-name="f_f_i" unicode="ffi" horiz-adv-x="951" 
d="M733 0v373h-152v-373h-160v370h-170v-370h-160v368h-76v122h76v14q0 112 54.5 162t146.5 50q24 0 47.5 -3.5t40.5 -9.5l-11 -116q-8 2 -20 4t-25 2q-38 0 -55.5 -19t-17.5 -62v-22h170v10q0 58 15.5 99t45 67t71 38t93.5 12q43 0 77.5 -7.5t65.5 -20.5l-19 -113
q-21 8 -46.5 14t-55.5 6q-45 0 -66 -19.5t-21 -61.5v-24h310v-490h-158z" />
    <glyph glyph-name="f_f_l" unicode="ffl" horiz-adv-x="989" 
d="M421 503q0 100 52 156.5t163 56.5q29 0 55.5 -2.5t49.5 -7.5h160v-556q0 -19 8 -29.5t31 -10.5q14 0 34 3l5 -110q-20 -6 -45.5 -9.5t-52.5 -3.5q-40 0 -67 12t-43 32t-23 45.5t-7 52.5v457q-29 8 -68 8q-48 0 -70 -20.5t-22 -72.5v-14h102v-122h-102v-368h-160v370h-170
v-370h-160v368h-76v122h76v14q0 112 54.5 162t146.5 50q24 0 47.5 -3.5t40.5 -9.5l-11 -116q-8 2 -20 4t-25 2q-38 0 -55.5 -19t-17.5 -62v-22h170v13z" />
    <glyph glyph-name="f_b" unicode="fb" horiz-adv-x="933" 
d="M411 589q-29 8 -68 8q-48 0 -70 -20.5t-22 -72.5v-14h102v-122h-102v-368h-160v368h-76v122h76v13q0 100 52 156.5t163 56.5q29 0 55.5 -2.5t49.5 -7.5h160v-254q21 21 50.5 34.5t74.5 13.5q48 0 87 -18.5t66.5 -52t42.5 -79.5t15 -101q0 -53 -17.5 -100.5t-52.5 -82.5
t-88 -55.5t-124 -20.5q-60 0 -114.5 13t-99.5 36v550zM650 378q-45 0 -79 -27v-232q11 -5 26 -8t31 -3q31 0 54 11t37 30t21 44t7 54q0 60 -23.5 95.5t-73.5 35.5z" />
    <glyph glyph-name="f_f_b" unicode="ffb" horiz-adv-x="1263" 
d="M901 452q21 21 50.5 34.5t74.5 13.5q48 0 87 -18.5t66.5 -52t42.5 -79.5t15 -101q0 -53 -17.5 -100.5t-52.5 -82.5t-88 -55.5t-124 -20.5q-60 0 -114.5 13t-99.5 36v550q-29 8 -68 8q-48 0 -70 -20.5t-22 -72.5v-14h102v-122h-102v-368h-160v370h-170v-370h-160v368h-76
v122h76v14q0 112 54.5 162t146.5 50q24 0 47.5 -3.5t40.5 -9.5l-11 -116q-8 2 -20 4t-25 2q-38 0 -55.5 -19t-17.5 -62v-22h170v13q0 100 52 156.5t163 56.5q29 0 55.5 -2.5t49.5 -7.5h160v-254zM980 378q-45 0 -79 -27v-232q11 -5 26 -8t31 -3q31 0 54 11t37 30t21 44t7 54
q0 60 -23.5 95.5t-73.5 35.5z" />
    <glyph glyph-name="f_h" unicode="fh" horiz-adv-x="934" 
d="M411 0v589q-29 8 -68 8q-48 0 -70 -20.5t-22 -72.5v-14h102v-122h-102v-368h-160v368h-76v122h76v13q0 100 52 156.5t163 56.5q29 0 55.5 -2.5t49.5 -7.5h160v-274q22 35 57 51.5t74 16.5q49 0 83 -20.5t55.5 -54.5t31 -78.5t9.5 -93.5v-253h-160v256q0 61 -19 89.5
t-58 28.5q-25 0 -43.5 -11t-29.5 -27v-336h-160z" />
    <glyph glyph-name="f_f_h" unicode="ffh" horiz-adv-x="1264" 
d="M741 0v589q-29 8 -68 8q-48 0 -70 -20.5t-22 -72.5v-14h102v-122h-102v-368h-160v370h-170v-370h-160v368h-76v122h76v14q0 112 54.5 162t146.5 50q24 0 47.5 -3.5t40.5 -9.5l-11 -116q-8 2 -20 4t-25 2q-38 0 -55.5 -19t-17.5 -62v-22h170v13q0 100 52 156.5t163 56.5
q29 0 55.5 -2.5t49.5 -7.5h160v-274q22 35 57 51.5t74 16.5q49 0 83 -20.5t55.5 -54.5t31 -78.5t9.5 -93.5v-253h-160v256q0 61 -19 89.5t-58 28.5q-25 0 -43.5 -11t-29.5 -27v-336h-160z" />
    <glyph glyph-name="f_j" unicode="fj" horiz-adv-x="620" 
d="M561 126q0 -50 -6 -95t-22.5 -87.5t-44.5 -82t-73 -77.5l-105 88q22 25 39.5 50.5t29.5 52.5t18 58t6 67v273h-152v-373h-160v368h-76v122h76v10q0 58 15.5 99t45 67t71 38t93.5 12q43 0 77.5 -7.5t65.5 -20.5l-19 -113q-21 8 -46.5 14t-55.5 6q-45 0 -66 -19.5
t-21 -61.5v-24h310v-364v0z" />
    <glyph glyph-name="f_f_j" unicode="ffj" horiz-adv-x="950" 
d="M891 126q0 -50 -6 -95t-22.5 -87.5t-44.5 -82t-73 -77.5l-105 88q22 25 39.5 50.5t29.5 52.5t18 58t6 67v273h-152v-373h-160v370h-170v-370h-160v368h-76v122h76v14q0 112 54.5 162t146.5 50q24 0 47.5 -3.5t40.5 -9.5l-11 -116q-8 2 -20 4t-25 2q-38 0 -55.5 -19
t-17.5 -62v-22h170v10q0 58 15.5 99t45 67t71 38t93.5 12q43 0 77.5 -7.5t65.5 -20.5l-19 -113q-21 8 -46.5 14t-55.5 6q-45 0 -66 -19.5t-21 -61.5v-24h310v-364v0z" />
    <glyph glyph-name="f_k" unicode="fk" horiz-adv-x="914" 
d="M411 0v589q-29 8 -68 8q-48 0 -70 -20.5t-22 -72.5v-14h102v-122h-102v-368h-160v368h-76v122h76v13q0 100 52 156.5t163 56.5q29 0 55.5 -2.5t49.5 -7.5h160v-445l147 229h173l-158 -241l179 -249h-183l-158 237v-237h-160z" />
    <glyph glyph-name="f_f_k" unicode="ffk" horiz-adv-x="1244" 
d="M741 0v589q-29 8 -68 8q-48 0 -70 -20.5t-22 -72.5v-14h102v-122h-102v-368h-160v370h-170v-370h-160v368h-76v122h76v14q0 112 54.5 162t146.5 50q24 0 47.5 -3.5t40.5 -9.5l-11 -116q-8 2 -20 4t-25 2q-38 0 -55.5 -19t-17.5 -62v-22h170v13q0 100 52 156.5t163 56.5
q29 0 55.5 -2.5t49.5 -7.5h160v-445l147 229h173l-158 -241l179 -249h-183l-158 237v-237h-160z" />
    <glyph glyph-name=".notdef" horiz-adv-x="646" 
d="M90 666h466v-666h-466v666zM167 616l340 -527v527h-340zM139 49h339l-339 527v-527z" />
    <glyph glyph-name=".null" 
 />
    <glyph glyph-name="nonmarkingreturn" horiz-adv-x="333" 
 />
    <glyph glyph-name="space" unicode=" " horiz-adv-x="215" 
 />
    <glyph glyph-name="exclam" unicode="!" horiz-adv-x="340" 
d="M216 225h-91l-37 234v207h164v-207zM80 82q0 36 23 63t67 27t67 -27t23 -63t-23 -63t-67 -27t-67 27t-23 63z" />
    <glyph glyph-name="quotedbl" unicode="&#x22;" horiz-adv-x="512" 
d="M81 411l-16 255h160l-16 -255h-128zM303 411l-16 255h160l-16 -255h-128z" />
    <glyph glyph-name="numbersign" unicode="#" horiz-adv-x="699" 
d="M410 153h-153l-16 -153h-124l16 153h-93v104h104l17 160h-101v104h112l16 145h124l-16 -145h153l16 145h124l-16 -145h91v-104h-102l-17 -160h93v-104h-104l-16 -153h-124zM268 257h153l17 160h-153z" />
    <glyph glyph-name="dollar" unicode="$" horiz-adv-x="511" 
d="M177 -120v123q-37 5 -70.5 14t-61.5 22l28 119q39 -17 76.5 -24.5t78.5 -7.5q33 0 60 14.5t27 48.5q0 29 -21 47t-73 42q-46 21 -78 41.5t-52.5 44t-29.5 52t-9 65.5q0 36 10.5 64.5t28.5 50t42 36t52 22.5v132h143v-124q35 -5 64 -14t53 -21l-30 -120q-26 13 -60 23
t-70 10q-35 0 -56 -13t-21 -40q0 -14 5 -23.5t16.5 -18.5t29 -18t41.5 -21q26 -13 56 -29.5t55.5 -39.5t42.5 -54.5t17 -73.5q0 -73 -41 -125.5t-110 -72.5v-131h-143z" />
    <glyph glyph-name="percent" unicode="%" horiz-adv-x="1010" 
d="M424 479q0 -36 -11.5 -71.5t-35 -64t-59.5 -46t-86 -17.5t-86 17.5t-59.5 46t-35 64t-11.5 71.5t11.5 71.5t35 64t59.5 46t86 17.5t86 -17.5t59.5 -46t35 -64t11.5 -71.5zM297 479q0 45 -15.5 71.5t-49.5 26.5t-49.5 -26.5t-15.5 -71.5t15.5 -71.5t49.5 -26.5t49.5 26.5
t15.5 71.5zM599 678l114 -55l-302 -635l-112 57zM970 187q0 -36 -11.5 -71.5t-35 -64t-59.5 -46t-86 -17.5t-86 17.5t-59.5 46t-35 64t-11.5 71.5t11.5 71.5t35 64t59.5 46t86 17.5t86 -17.5t59.5 -46t35 -64t11.5 -71.5zM843 187q0 45 -15.5 71.5t-49.5 26.5t-49.5 -26.5
t-15.5 -71.5t15.5 -71.5t49.5 -26.5t49.5 26.5t15.5 71.5z" />
    <glyph glyph-name="ampersand" unicode="&#x26;" horiz-adv-x="745" 
d="M659 -12q-85 50 -152 94q-60 -54 -120 -74t-123 -20q-51 0 -92 11.5t-70.5 33t-45.5 53.5t-16 74q0 29 10 53t27.5 45t40.5 40t49 38q-43 38 -69.5 77.5t-26.5 90.5q0 37 14 69t41 55.5t66.5 36.5t90.5 13q43 0 79 -11t61.5 -31t40 -48.5t14.5 -63.5q0 -29 -9.5 -54
t-25.5 -47t-36.5 -41.5t-41.5 -38.5q30 -23 61.5 -46t60.5 -43q20 29 40 65t42 78l116 -60q-23 -46 -45 -84.5t-45 -70.5l132 -83zM280 107q66 0 122 47q-33 23 -70.5 51t-69.5 54q-27 -21 -44.5 -41t-17.5 -46q0 -29 19 -47t61 -18zM217 506q0 -25 14 -47t39 -44
q33 26 53.5 48t20.5 51q0 24 -17.5 38t-44.5 14q-29 0 -47 -15.5t-18 -44.5z" />
    <glyph glyph-name="quotesingle" unicode="'" horiz-adv-x="290" 
d="M81 411l-16 255h160l-16 -255h-128z" />
    <glyph glyph-name="parenleft" unicode="(" horiz-adv-x="374" 
d="M70 280q0 129 40 244.5t120 221.5l109 -62q-33 -62 -53.5 -118.5t-32 -107t-15.5 -95.5t-4 -83t4 -83t15.5 -95.5t32 -107t53.5 -118.5l-109 -62q-80 106 -120 221.5t-40 244.5z" />
    <glyph glyph-name="parenright" unicode=")" horiz-adv-x="374" 
d="M304 280q0 -129 -40 -244.5t-120 -221.5l-109 62q33 62 53.5 118.5t32 107t15.5 95.5t4 83t-4 83t-15.5 95.5t-32 107t-53.5 118.5l109 62q80 -106 120 -221.5t40 -244.5z" />
    <glyph glyph-name="asterisk" unicode="*" horiz-adv-x="412" 
d="M171 595v111h70v-111l96 56l35 -61l-96 -55l96 -55l-35 -61l-96 55v-110h-70v110l-96 -55l-35 61l95 55l-95 55l35 61z" />
    <glyph glyph-name="plus" unicode="+" horiz-adv-x="596" 
d="M366 264v-190h-136v190h-170v118h170v190h136v-190h170v-118h-170z" />
    <glyph glyph-name="comma" unicode="," horiz-adv-x="301" 
d="M32 -105q13 32 22 60.5t15 57.5t9.5 61t5.5 71l157 -12q-2 -41 -9 -78t-19.5 -72t-32.5 -70t-47 -71z" />
    <glyph glyph-name="hyphen" unicode="-" horiz-adv-x="374" 
d="M50 195v128h274v-128h-274z" />
    <glyph glyph-name="period" unicode="." horiz-adv-x="286" 
d="M53 82q0 36 23 63t67 27t67 -27t23 -63t-23 -63t-67 -27t-67 27t-23 63z" />
    <glyph glyph-name="slash" unicode="/" horiz-adv-x="457" 
d="M286 714l141 -48l-252 -766l-140 53z" />
    <glyph glyph-name="zero" unicode="0" horiz-adv-x="622" 
d="M582 333q0 -77 -17 -140.5t-51 -109t-85 -70.5t-118 -25q-68 0 -118.5 25t-84.5 70.5t-51 109t-17 140.5t17 140.5t51 109t84.5 70.5t118.5 25q67 0 118 -25t85 -70.5t51 -109t17 -140.5zM420 333q0 106 -24.5 161.5t-84.5 55.5t-84.5 -55.5t-24.5 -161.5t24.5 -161.5
t84.5 -55.5t84.5 55.5t24.5 161.5z" />
    <glyph glyph-name="one" unicode="1" horiz-adv-x="394" 
d="M162 0v493l-121 -42l-36 126l226 89h93v-666h-162z" />
    <glyph glyph-name="two" unicode="2" horiz-adv-x="511" 
d="M55 625q87 53 188 53q46 0 86 -13.5t69.5 -39t46.5 -63.5t17 -86q0 -39 -10 -73t-27.5 -64.5t-40.5 -58t-48 -53.5q-27 -28 -55.5 -53.5t-51.5 -45.5h237v-128h-424l-24 92q27 28 48 49.5t39.5 40.5t35.5 37t36 39q21 23 43 47.5t39.5 50.5t29 52t11.5 52q0 40 -24 64
t-67 24q-31 0 -58 -9t-56 -26z" />
    <glyph glyph-name="three" unicode="3" horiz-adv-x="493" 
d="M451 184q0 -46 -19 -82t-51.5 -61.5t-76.5 -39t-94 -13.5t-97.5 10.5t-84.5 26.5l26 117q29 -13 62.5 -21.5t72.5 -8.5q51 0 76 21.5t25 58.5q0 44 -37 62.5t-95 18.5h-65v126h38q72 0 108.5 23.5t36.5 63.5q0 31 -21.5 49.5t-63.5 18.5q-26 0 -58.5 -7.5t-58.5 -21.5
l-27 112q42 21 85.5 31t95.5 10q46 0 85 -11.5t66.5 -33t43 -52t15.5 -67.5q0 -54 -31.5 -98t-88.5 -70q27 -9 51 -23t42 -34t29 -46t11 -59z" />
    <glyph glyph-name="four" unicode="4" horiz-adv-x="572" 
d="M462 159v-159h-156v159h-260l-22 117l247 390h191v-385h88v-122h-88zM306 528l-139 -247h139v247z" />
    <glyph glyph-name="five" unicode="5" horiz-adv-x="515" 
d="M475 207q0 -52 -20.5 -92.5t-55.5 -68.5t-83 -43t-103 -15q-46 0 -92.5 9t-77.5 22l21 120q32 -12 67.5 -19.5t70.5 -7.5q55 0 86 22t31 64q0 24 -11 40.5t-29.5 26.5t-43 14t-51.5 4h-104v383h359v-128h-208v-131h16q47 0 88.5 -13t72.5 -38.5t49 -62.5t18 -86z" />
    <glyph glyph-name="six" unicode="6" horiz-adv-x="551" 
d="M439 557q-33 -15 -69.5 -32t-69.5 -41t-59 -56t-39 -75q22 22 55 34t68 12q40 0 75 -13t61.5 -38t41.5 -61.5t15 -82.5q0 -45 -17.5 -84.5t-48 -69t-72 -46t-89.5 -16.5q-65 0 -112.5 23.5t-78.5 61.5t-45.5 86t-14.5 97q0 153 92.5 259.5t257.5 162.5zM369 197
q0 37 -21.5 59t-59.5 22q-28 0 -51.5 -11t-37.5 -25q0 -25 4.5 -49t14 -42.5t26.5 -30t43 -11.5q36 0 59 24.5t23 63.5z" />
    <glyph glyph-name="seven" unicode="7" horiz-adv-x="477" 
d="M452 540l-250 -540h-160l256 538h-268v128h400z" />
    <glyph glyph-name="eight" unicode="8" horiz-adv-x="550" 
d="M275 678q47 0 86.5 -11.5t67.5 -32.5t43.5 -51.5t15.5 -69.5q0 -26 -9.5 -49t-24.5 -42.5t-34.5 -36.5t-40.5 -32q24 -16 47 -34.5t41 -40.5t28.5 -48.5t10.5 -59.5q0 -38 -18 -71.5t-49 -58t-73 -38.5t-91 -14q-109 0 -170 49t-61 131q0 30 11 55t28.5 46.5t40 39.5
t46.5 35q-24 17 -43.5 34.5t-34 36.5t-22.5 41t-8 48q0 38 15 70t42.5 55t67 36t88.5 13zM356 171q0 15 -4.5 27t-15 23.5t-27 24t-40.5 29.5q-35 -26 -55 -48t-20 -56q0 -33 21.5 -51t59.5 -18q36 0 58.5 20t22.5 49zM209 507q0 -11 2.5 -20.5t10 -19.5t20.5 -21t34 -26
q29 21 47 41.5t18 45.5q0 29 -19 43.5t-47 14.5q-29 0 -47.5 -16t-18.5 -42z" />
    <glyph glyph-name="nine" unicode="9" horiz-adv-x="555" 
d="M114 109q33 15 69.5 32t69.5 41t59 55.5t39 75.5q-25 -23 -58 -34.5t-65 -11.5q-40 0 -75 13t-61.5 38t-41.5 61.5t-15 82.5q0 53 18.5 93.5t50 67.5t73.5 41t89 14q65 0 112 -23.5t77 -61.5t44 -86t14 -97q0 -153 -92.5 -259.5t-257.5 -162.5zM184 469q0 -37 21.5 -59
t59.5 -22q28 0 51.5 11t37.5 25q0 25 -4.5 49t-14 42.5t-26.5 30t-43 11.5q-36 0 -59 -24.5t-23 -63.5z" />
    <glyph glyph-name="colon" unicode=":" horiz-adv-x="286" 
d="M53 82q0 36 23 63t67 27t67 -27t23 -63t-23 -63t-67 -27t-67 27t-23 63zM53 362q0 36 23 63t67 27t67 -27t23 -63t-23 -63t-67 -27t-67 27t-23 63z" />
    <glyph glyph-name="semicolon" unicode=";" horiz-adv-x="299" 
d="M28 -105q13 32 22 60.5t15 57.5t9.5 61t5.5 71l157 -12q-2 -41 -9 -78t-19.5 -72t-32.5 -70t-47 -71zM66 362q0 36 23 63t67 27t67 -27t23 -63t-23 -63t-67 -27t-67 27t-23 63z" />
    <glyph glyph-name="less" unicode="&#x3c;" horiz-adv-x="581" 
d="M482 582l49 -111l-337 -148l337 -148l-49 -111l-427 195v128z" />
    <glyph glyph-name="equal" unicode="=" horiz-adv-x="606" 
d="M70 380v118h466v-118h-466zM70 148v118h466v-118h-466z" />
    <glyph glyph-name="greater" unicode="&#x3e;" horiz-adv-x="581" 
d="M526 387v-128l-427 -195l-49 111l337 148l-337 148l49 111z" />
    <glyph glyph-name="question" unicode="?" horiz-adv-x="485" 
d="M116 82q0 36 23 63t67 27t67 -27t23 -63t-23 -63t-67 -27t-67 27t-23 63zM445 498q0 -45 -17.5 -81.5t-49.5 -68.5t-77.5 -63t-102.5 -66l-73 114q34 23 63 42.5t50.5 37.5t34 36.5t12.5 39.5q0 30 -19.5 44t-50.5 14q-36 0 -67 -11.5t-62 -28.5l-46 114q45 29 91 43
t107 14q43 0 81 -11.5t66 -34t44 -56t16 -78.5z" />
    <glyph glyph-name="at" unicode="@" horiz-adv-x="853" 
d="M457 403q42 0 79 -13t65 -32l-26 -148q-1 -5 -1.5 -10t-0.5 -9q0 -41 39 -41q19 0 35.5 11.5t29 32t19.5 48.5t7 61q0 50 -18.5 88.5t-51 64.5t-77.5 39t-99 13q-72 0 -127.5 -24t-94 -64.5t-58 -94.5t-19.5 -115q0 -58 15.5 -105t48.5 -80t83.5 -51t119.5 -18
q72 0 135 14.5t120 40.5l25 -77q-69 -33 -141.5 -48t-141.5 -15q-89 0 -157 26t-115 71t-71 106t-24 130q0 82 29.5 153t83.5 123.5t129.5 82.5t167.5 30q77 0 139.5 -22t106.5 -60t68 -90.5t24 -112.5q0 -48 -14 -91t-40.5 -75.5t-64.5 -51.5t-87 -19q-55 0 -85.5 25.5
t-38.5 59.5q-20 -34 -48.5 -52.5t-59.5 -18.5q-51 0 -77 33.5t-26 81.5q0 42 13 78.5t37.5 64.5t61 44t83.5 16zM454 317q-20 0 -34.5 -8.5t-25 -23t-15.5 -33t-5 -37.5q0 -17 6.5 -29t22.5 -12t31 12.5t27 29.5l17 97q-11 4 -24 4z" />
    <glyph glyph-name="A" unicode="A" horiz-adv-x="700" 
d="M477 129h-255l-41 -129h-169l248 666h180l248 -666h-169zM264 259h171l-85 281z" />
    <glyph glyph-name="B" unicode="B" horiz-adv-x="589" 
d="M556 188q0 -45 -20 -80t-57.5 -59t-90 -36.5t-116.5 -12.5h-207v666h239q54 0 96.5 -12t71.5 -33t44.5 -49t15.5 -61q0 -62 -34.5 -102t-100.5 -60q34 -6 63 -19t50.5 -33t33.5 -47t12 -62zM394 201q0 38 -30.5 57.5t-84.5 19.5h-54v-155h58q60 0 85.5 23t25.5 55z
M273 401q43 0 70 19.5t27 55.5q0 32 -23.5 49.5t-65.5 17.5h-56v-142h48z" />
    <glyph glyph-name="C" unicode="C" horiz-adv-x="627" 
d="M392 678q52 0 104.5 -10t90.5 -29l-24 -121q-30 12 -68.5 20.5t-76.5 8.5q-102 0 -161 -53t-59 -161t59 -161t161 -53q38 0 76.5 8.5t68.5 20.5l24 -121q-38 -19 -90.5 -29t-104.5 -10q-88 0 -155 26t-112 72t-68 109t-23 138t23 138t68 109t112 72t155 26z" />
    <glyph glyph-name="D" unicode="D" horiz-adv-x="693" 
d="M65 666h203q88 0 161.5 -25t125.5 -69t81 -105.5t29 -133.5t-29 -133.5t-81 -105.5t-125.5 -69t-161.5 -25h-203v666zM278 130q50 0 91 14t70.5 40t45.5 63.5t16 85.5t-16 85.5t-45.5 63.5t-70.5 40t-91 14h-49v-406h49z" />
    <glyph glyph-name="E" unicode="E" horiz-adv-x="531" 
d="M65 666h415v-130h-251v-134h239v-130h-239v-142h254v-130h-418v666z" />
    <glyph glyph-name="F" unicode="F" horiz-adv-x="514" 
d="M65 0v666h419v-130h-255v-151h243v-130h-243v-255h-164z" />
    <glyph glyph-name="G" unicode="G" horiz-adv-x="694" 
d="M400 678q130 0 218 -41l-22 -124q-86 34 -180 34q-50 0 -90 -13t-68.5 -40.5t-44 -70t-15.5 -101.5q0 -104 54.5 -157t160.5 -53q23 0 44 3.5t35 8.5v186h147v-274q-43 -21 -109.5 -34.5t-138.5 -13.5q-84 0 -150 24.5t-112 68.5t-70.5 105.5t-24.5 136.5
q0 80 24.5 145.5t71.5 112t115 72t155 25.5z" />
    <glyph glyph-name="H" unicode="H" horiz-adv-x="702" 
d="M473 0v271h-244v-271h-164v666h164v-261h244v261h164v-666h-164z" />
    <glyph glyph-name="I" unicode="I" horiz-adv-x="304" 
d="M234 0h-164v666h164v-666z" />
    <glyph glyph-name="J" unicode="J" horiz-adv-x="299" 
d="M234 159q0 -45 -6 -87.5t-21.5 -84t-42.5 -82t-69 -81.5l-113 89q42 50 65 102t23 117v534h164v-507v0z" />
    <glyph glyph-name="K" unicode="K" horiz-adv-x="640" 
d="M65 0v666h164v-319l210 319h185l-225 -329l241 -337h-197l-214 326v-326h-164z" />
    <glyph glyph-name="L" unicode="L" horiz-adv-x="492" 
d="M229 666v-536h245v-130h-409v666h164z" />
    <glyph glyph-name="M" unicode="M" horiz-adv-x="864" 
d="M511 106h-158l-130 267l-20 -373h-161l50 666h148l192 -407l192 407h148l50 -666h-161l-20 373z" />
    <glyph glyph-name="N" unicode="N" horiz-adv-x="721" 
d="M498 0l-275 397v-397h-158v666h158l275 -397v397h158v-666h-158z" />
    <glyph glyph-name="O" unicode="O" horiz-adv-x="748" 
d="M714 333q0 -71 -23 -133.5t-66.5 -109.5t-106.5 -74.5t-144 -27.5t-144.5 27.5t-107 74.5t-66 109.5t-22.5 133.5t22.5 133.5t66 109.5t107 74.5t144.5 27.5t144 -27.5t106.5 -74.5t66.5 -109.5t23 -133.5zM374 118q43 0 76 16t55.5 44.5t33.5 68t11 86.5t-11 86.5
t-33.5 68t-55.5 44.5t-76 16q-44 0 -76.5 -16t-55 -44.5t-33.5 -68t-11 -86.5t11 -86.5t33.5 -68t55 -44.5t76.5 -16z" />
    <glyph glyph-name="P" unicode="P" horiz-adv-x="559" 
d="M547 449q0 -53 -23 -95t-63.5 -70.5t-95.5 -43.5t-119 -15h-17v-225h-164v666h192q63 0 116.5 -13t92 -39.5t60 -67.5t21.5 -97zM389 448q0 92 -131 92h-29v-189h27q65 0 99 26t34 71z" />
    <glyph glyph-name="Q" unicode="Q" horiz-adv-x="748" 
d="M393 -10q-4 -1 -8 -1.5t-11 -0.5q-81 0 -144.5 27.5t-107 74.5t-66 109.5t-22.5 133.5t22.5 133.5t66 109.5t107 74.5t144.5 27.5t144 -27.5t106.5 -74.5t66.5 -109.5t23 -133.5q0 -92 -37.5 -168.5t-108.5 -122.5l160 -106l-77 -117zM374 118q43 0 76 16t55.5 44.5
t33.5 68t11 86.5t-11 86.5t-33.5 68t-55.5 44.5t-76 16q-44 0 -76.5 -16t-55 -44.5t-33.5 -68t-11 -86.5t11 -86.5t33.5 -68t55 -44.5t76.5 -16z" />
    <glyph glyph-name="R" unicode="R" horiz-adv-x="639" 
d="M567 455q0 -67 -37.5 -117t-104.5 -76l219 -262h-202l-183 231h-30v-231h-164v666h212q62 0 115 -13t92 -39t61 -65.5t22 -93.5zM409 452q0 45 -35 66.5t-98 21.5h-47v-187h40q66 0 103 26t37 73z" />
    <glyph glyph-name="S" unicode="S" horiz-adv-x="530" 
d="M502 199q0 -44 -17.5 -82.5t-50.5 -67t-80 -45t-107 -16.5q-55 0 -110 12t-102 35l33 125q35 -17 79 -29.5t95 -12.5q42 0 69 15.5t27 50.5q0 25 -23.5 45.5t-85.5 43.5q-98 37 -143 84.5t-45 121.5q0 97 63.5 148t175.5 51q57 0 109 -12.5t88 -32.5l-28 -123
q-35 17 -76.5 27.5t-85.5 10.5q-37 0 -59.5 -12.5t-22.5 -42.5q0 -14 4 -24t14.5 -19t29.5 -18t48 -21q42 -17 79 -36t64 -44t42.5 -57t15.5 -75z" />
    <glyph glyph-name="T" unicode="T" horiz-adv-x="550" 
d="M536 666v-130h-179v-536h-164v536h-179v130h522z" />
    <glyph glyph-name="U" unicode="U" horiz-adv-x="690" 
d="M463 666h164v-426q0 -118 -74.5 -185t-207.5 -67t-207.5 67t-74.5 185v426h164v-431q0 -57 30 -87t88 -30t88 30t30 87v431z" />
    <glyph glyph-name="V" unicode="V" horiz-adv-x="634" 
d="M409 0h-184l-225 666h172l145 -507l145 507h172z" />
    <glyph glyph-name="W" unicode="W" horiz-adv-x="998" 
d="M714 204l103 462h168l-184 -666h-167l-135 500l-135 -500h-167l-184 666h168l103 -462l124 462h182z" />
    <glyph glyph-name="X" unicode="X" horiz-adv-x="654" 
d="M411 335l225 -335h-175l-134 213l-134 -213h-175l225 335l-221 331h174l131 -208l131 208h174z" />
    <glyph glyph-name="Y" unicode="Y" horiz-adv-x="592" 
d="M378 242v-242h-164v242l-219 424h175l126 -280l126 280h175z" />
    <glyph glyph-name="Z" unicode="Z" horiz-adv-x="570" 
d="M56 666h466v-130l-292 -406h302v-130h-484v130l292 406h-284v130z" />
    <glyph glyph-name="bracketleft" unicode="[" horiz-adv-x="395" 
d="M85 -176v912h265v-120h-105v-672h105v-120h-265z" />
    <glyph glyph-name="backslash" unicode="\" horiz-adv-x="457" 
d="M422 -47l-140 -53l-252 766l141 48z" />
    <glyph glyph-name="bracketright" unicode="]" horiz-adv-x="395" 
d="M45 -176v120h105v672h-105v120h265v-912h-265z" />
    <glyph glyph-name="asciicircum" unicode="^" horiz-adv-x="534" 
d="M489 352l-124 -46l-98 241l-98 -241l-124 46l144 314h156z" />
    <glyph glyph-name="underscore" unicode="_" horiz-adv-x="456" 
d="M-1 -250v112h458v-112h-458z" />
    <glyph glyph-name="grave" unicode="`" horiz-adv-x="445" 
d="M216 559l-116 169h169l76 -169h-129z" />
    <glyph glyph-name="a" unicode="a" horiz-adv-x="535" 
d="M328 48q-23 -23 -62.5 -40.5t-86.5 -17.5q-33 0 -59 11t-43.5 30t-27 44.5t-9.5 54.5q0 68 42.5 102.5t120.5 40.5q29 2 61.5 3t57.5 2v16q0 80 -89 80q-35 0 -67.5 -8t-59.5 -22l-29 111q35 20 82.5 32.5t103.5 12.5q103 0 161 -53.5t58 -160.5v-286h-154v48zM241 95
q23 0 43.5 6t37.5 16v73q-24 -2 -43 -4.5t-37 -4.5q-49 -6 -49 -46q0 -18 12.5 -29t35.5 -11z" />
    <glyph glyph-name="b" unicode="b" horiz-adv-x="580" 
d="M58 706h160v-254q21 21 50.5 34.5t74.5 13.5q48 0 87 -18.5t66.5 -52t42.5 -79.5t15 -101q0 -53 -17.5 -100.5t-52.5 -82.5t-88 -55.5t-124 -20.5q-60 0 -114.5 13t-99.5 36v667zM297 378q-45 0 -79 -27v-232q11 -5 26 -8t31 -3q31 0 54 11t37 30t21 44t7 54
q0 60 -23.5 95.5t-73.5 35.5z" />
    <glyph glyph-name="c" unicode="c" horiz-adv-x="454" 
d="M291 500q38 0 74.5 -8t63.5 -22l-16 -114q-19 8 -45.5 14t-53.5 6q-64 0 -96 -35t-32 -96t32 -96t96 -35q27 0 53.5 6t45.5 14l16 -114q-27 -14 -63.5 -22t-74.5 -8q-62 0 -111.5 18.5t-83.5 52t-52 80.5t-18 104t18 104t52 80.5t83.5 52t111.5 18.5z" />
    <glyph glyph-name="d" unicode="d" horiz-adv-x="584" 
d="M524 0h-153v62q-23 -33 -59.5 -52.5t-87.5 -19.5q-41 0 -77 17.5t-62.5 50t-41.5 78.5t-15 103q0 64 20.5 113t55 82t80.5 49.5t98 16.5q26 0 46 -3.5t36 -8.5v218h160v-706zM282 113q51 0 82 34v225q-22 8 -57 8q-60 0 -89.5 -37t-29.5 -101q0 -57 22.5 -93t71.5 -36z
" />
    <glyph glyph-name="e" unicode="e" horiz-adv-x="516" 
d="M277 500q96 0 152 -56.5t56 -156.5q0 -38 -9 -81h-284q2 -45 30.5 -72.5t87.5 -27.5q36 0 75.5 6.5t68.5 19.5l20 -103q-38 -19 -85.5 -29t-98.5 -10q-64 0 -113 18.5t-82 51.5t-50 79t-17 102q0 60 17.5 108t50 81.5t78.5 51.5t103 18zM272 398q-38 0 -58.5 -24.5
t-20.5 -67.5h142q2 8 2 17q0 32 -17 53.5t-48 21.5z" />
    <glyph glyph-name="f" unicode="f" horiz-adv-x="372" 
d="M91 0v368h-76v122h76v14q0 109 57 160.5t151 51.5q24 0 49.5 -3.5t47.5 -12.5l-12 -114q-24 7 -52 7q-38 0 -59.5 -18t-21.5 -64v-21h112v-122h-112v-368h-160z" />
    <glyph glyph-name="g" unicode="g" horiz-adv-x="528" 
d="M516 490v-102h-72l-1 1q11 -30 11 -58q0 -34 -13.5 -64t-40 -52.5t-66 -35.5t-91.5 -13h-6q-4 -7 -6.5 -13.5t-2.5 -14.5q0 -14 10.5 -20.5t26.5 -7.5l86 -5q74 -5 118.5 -38.5t44.5 -99.5q0 -46 -24.5 -80.5t-65 -57t-91.5 -34t-104 -11.5q-42 0 -81.5 6t-70.5 20.5
t-50 38.5t-19 59q0 23 10 40.5t27 30.5t39 22t45 14q-44 22 -44 67q0 19 7.5 34t18.5 26.5t24.5 20t25.5 13.5q-64 17 -96.5 58.5t-32.5 96.5q0 36 13.5 66.5t40 53.5t66 36t91.5 13q22 0 41.5 -2.5t36.5 -7.5h195zM196 -2q-12 -9 -25 -22t-13 -34q0 -28 23.5 -41t65.5 -13
q22 0 43.5 4.5t38.5 13t27 20t10 26.5q0 18 -12.5 26t-39.5 10zM243 264q35 0 53 18.5t18 50.5t-18 50.5t-53 18.5t-53 -18.5t-18 -50.5t18 -50.5t53 -18.5z" />
    <glyph glyph-name="h" unicode="h" horiz-adv-x="583" 
d="M60 0v706h160v-274q22 35 57 51.5t74 16.5q49 0 83 -20.5t55.5 -54.5t31 -78.5t9.5 -93.5v-253h-160v256q0 61 -19 89.5t-58 28.5q-25 0 -43.5 -11t-29.5 -27v-336h-160z" />
    <glyph glyph-name="i" unicode="i" horiz-adv-x="280" 
d="M60 0v490h160v-490h-160zM50 633q0 38 25 64t65 26t65 -26t25 -64t-25 -64t-65 -26t-65 26t-25 64z" />
    <glyph glyph-name="j" unicode="j" horiz-adv-x="281" 
d="M222 126q0 -50 -6.5 -95t-23 -87.5t-45 -82t-73.5 -77.5l-105 88q22 25 39.5 50.5t29.5 52.5t18 58t6 67v390h160v-364zM52 633q0 38 25 64t65 26t65 -26t25 -64t-25 -64t-65 -26t-65 26t-25 64z" />
    <glyph glyph-name="k" unicode="k" horiz-adv-x="563" 
d="M60 0v706h160v-445l147 229h173l-158 -241l179 -249h-183l-158 237v-237h-160z" />
    <glyph glyph-name="l" unicode="l" horiz-adv-x="301" 
d="M213 150q0 -19 8 -29.5t31 -10.5q14 0 34 3l5 -110q-20 -6 -45.5 -9.5t-52.5 -3.5q-40 0 -67 12t-43 32t-23 45.5t-7 52.5v574h160v-556z" />
    <glyph glyph-name="m" unicode="m" horiz-adv-x="879" 
d="M596 374q-26 0 -46 -12t-34 -28q4 -17 5.5 -39t1.5 -42v-253h-160v256q0 61 -15.5 89.5t-54.5 28.5q-25 0 -43.5 -11t-29.5 -27v-336h-160v490h154v-64q23 40 60.5 57t76.5 17q48 0 79.5 -19.5t59.5 -63.5q52 83 163 83q48 0 81 -20.5t53.5 -54.5t29.5 -78.5t9 -93.5
v-253h-160v256q0 61 -15.5 89.5t-54.5 28.5z" />
    <glyph glyph-name="n" unicode="n" horiz-adv-x="583" 
d="M60 0v490h154v-64q23 40 59.5 57t77.5 17q49 0 83 -20.5t55.5 -54.5t31 -78.5t9.5 -93.5v-253h-160v256q0 61 -19 89.5t-58 28.5q-25 0 -43.5 -11t-29.5 -27v-336h-160z" />
    <glyph glyph-name="o" unicode="o" horiz-adv-x="574" 
d="M548 245q0 -54 -17 -100.5t-50 -81t-82 -54t-112 -19.5t-112 19.5t-82 54t-50 81t-17 100.5t17 100.5t50 81t82 54t112 19.5t112 -19.5t82 -54t50 -81t17 -100.5zM388 245q0 26 -5 50.5t-16.5 44t-31 31t-48.5 11.5t-48.5 -11.5t-31 -31t-16.5 -44t-5 -50.5t5 -50.5
t16.5 -44t31 -31t48.5 -11.5t48.5 11.5t31 31t16.5 44t5 50.5z" />
    <glyph glyph-name="p" unicode="p" horiz-adv-x="584" 
d="M60 490h153v-58q48 68 147 68q41 0 77 -17.5t62.5 -50t41.5 -78.5t15 -103q0 -65 -20.5 -113.5t-55 -81.5t-80.5 -49.5t-98 -16.5q-26 0 -46 3.5t-36 8.5v-208h-160v696zM302 377q-27 0 -47 -8.5t-35 -25.5v-227q11 -4 25 -6t32 -2q63 0 91 38.5t28 103.5
q0 54 -22.5 90.5t-71.5 36.5z" />
    <glyph glyph-name="q" unicode="q" horiz-adv-x="584" 
d="M524 -206h-160v243q-22 -22 -53 -34.5t-72 -12.5q-50 0 -89.5 18.5t-66.5 51.5t-41 79t-14 101q0 59 18 107t53.5 82t88.5 52.5t122 18.5q64 0 115 -12t99 -36v-658zM285 112q46 0 79 26v232q-23 11 -56 11q-61 0 -90.5 -38.5t-29.5 -101.5q0 -60 23.5 -94.5t73.5 -34.5z
" />
    <glyph glyph-name="r" unicode="r" horiz-adv-x="379" 
d="M373 352h-19q-95 0 -134 -48v-304h-160v490h155v-82q14 40 43 63t76 23q14 0 23.5 -1.5t19.5 -4.5z" />
    <glyph glyph-name="s" unicode="s" horiz-adv-x="435" 
d="M409 160q0 -41 -15.5 -73t-44 -53.5t-67.5 -32.5t-86 -11q-40 0 -84 7.5t-80 22.5l22 111q31 -13 68.5 -19.5t65.5 -6.5q29 0 50.5 8.5t21.5 28.5q0 18 -19 25.5t-57 21.5q-31 11 -58 24.5t-46.5 32t-30.5 42.5t-11 56q0 80 54 118t141 38q46 0 84 -8.5t73 -28.5
l-22 -105q-27 12 -57 19.5t-63 7.5q-29 0 -44.5 -5.5t-15.5 -22.5t18.5 -24.5t47.5 -18.5q22 -8 49 -19.5t50.5 -29.5t39.5 -43.5t16 -61.5z" />
    <glyph glyph-name="t" unicode="t" horiz-adv-x="404" 
d="M8 490h75v128h160v-128h141v-122h-141v-192q0 -29 12.5 -45.5t45.5 -16.5q18 0 36.5 2.5t35.5 7.5l11 -111q-24 -11 -59 -17t-70 -6q-47 0 -79.5 14.5t-53 39t-30 58t-9.5 71.5v195h-75v122z" />
    <glyph glyph-name="u" unicode="u" horiz-adv-x="579" 
d="M519 490v-490h-154v64q-28 -42 -63 -58t-74 -16q-49 0 -82.5 20.5t-54 54.5t-29.5 78.5t-9 93.5v253h160v-256q0 -61 17 -89.5t56 -28.5q25 0 43.5 11t29.5 27v336h160z" />
    <glyph glyph-name="v" unicode="v" horiz-adv-x="508" 
d="M169 0l-170 490h161l94 -344l94 344h161l-170 -490h-170z" />
    <glyph glyph-name="w" unicode="w" horiz-adv-x="804" 
d="M510 0l-108 313l-108 -313h-150l-139 490h153l69 -295l100 295h150l100 -295l69 295h153l-139 -490h-150z" />
    <glyph glyph-name="x" unicode="x" horiz-adv-x="531" 
d="M5 0l175 248l-169 242h164l90 -135l91 135h164l-170 -242l176 -248h-166l-95 141l-94 -141h-166z" />
    <glyph glyph-name="y" unicode="y" horiz-adv-x="506" 
d="M113 -206l64 194l-177 502h166l90 -349l89 349h161l-232 -696h-161z" />
    <glyph glyph-name="z" unicode="z" horiz-adv-x="470" 
d="M44 0v110l199 268h-197v112h375v-111l-198 -267h215v-112h-394z" />
    <glyph glyph-name="braceleft" unicode="{" horiz-adv-x="450" 
d="M295 34q0 -50 20 -70t59 -20h36v-120h-64q-60 0 -100 13.5t-65 39.5t-35.5 65.5t-10.5 90.5v100q0 24 -4 42.5t-14.5 31t-30.5 18.5t-51 6v98q31 0 51 6t30.5 18.5t14.5 31t4 42.5v100q0 51 10.5 90.5t35.5 65.5t65 39.5t100 13.5h64v-120h-36q-39 0 -59 -20t-20 -70v-78
q0 -33 -4.5 -59t-16.5 -46.5t-32.5 -36t-53.5 -26.5q33 -11 53.5 -26.5t32.5 -36t16.5 -46.5t4.5 -59v-78z" />
    <glyph glyph-name="bar" unicode="|" horiz-adv-x="323" 
d="M95 -250v1000h133v-1000h-133z" />
    <glyph glyph-name="braceright" unicode="}" horiz-adv-x="450" 
d="M155 112q0 33 4.5 59t16.5 46.5t32.5 36t53.5 26.5q-33 11 -53.5 26.5t-32.5 36t-16.5 46.5t-4.5 59v78q0 50 -20 70t-59 20h-36v120h64q60 0 100 -13.5t65 -39.5t35.5 -65.5t10.5 -90.5v-100q0 -24 4 -42.5t14.5 -31t30 -18.5t51.5 -6v-98q-32 0 -51.5 -6t-30 -18.5
t-14.5 -31t-4 -42.5v-100q0 -51 -10.5 -90.5t-35.5 -65.5t-65 -39.5t-100 -13.5h-64v120h36q39 0 59 20t20 70v78z" />
    <glyph glyph-name="asciitilde" unicode="~" horiz-adv-x="607" 
d="M567 394q-31 -87 -67 -127.5t-94 -40.5q-29 0 -55 12.5t-50 24.5t-41.5 21.5t-34.5 9.5q-27 0 -40 -19.5t-25 -48.5l-115 45q14 48 30 80.5t35.5 53t43.5 29t55 8.5q29 0 52.5 -9.5t52.5 -25.5q22 -12 41 -22.5t39 -10.5q26 0 37 18t24 50z" />
    <glyph glyph-name="uni00A0" unicode="&#xa0;" horiz-adv-x="200" 
 />
    <glyph glyph-name="exclamdown" unicode="&#xa1;" horiz-adv-x="340" 
d="M252 33v-207h-164v207l37 234h91zM80 410q0 36 23 63t67 27t67 -27t23 -63t-23 -63t-67 -27t-67 27t-23 63z" />
    <glyph glyph-name="cent" unicode="&#xa2;" horiz-adv-x="511" 
d="M224 -28v127q-82 21 -128 81.5t-46 152.5q0 91 46 151.5t128 82.5v128h139v-121q26 -5 52 -12t46 -18l-22 -113q-23 10 -51.5 15.5t-59.5 5.5q-55 0 -86.5 -29.5t-31.5 -89.5t31.5 -89.5t86.5 -29.5q31 0 59.5 5.5t51.5 15.5l22 -113q-20 -11 -46 -18.5t-52 -11.5v-120
h-139z" />
    <glyph glyph-name="sterling" unicode="&#xa3;" horiz-adv-x="553" 
d="M453 245h-165q-11 -34 -29.5 -64t-46.5 -55h278v-126h-414l-30 110q29 33 50.5 65t32.5 70h-84v126h99v71q0 61 16.5 105.5t46 73.5t71 43t91.5 14q45 0 82 -8.5t67 -23.5l-24 -115q-20 9 -46 15t-55 6q-49 0 -69 -26.5t-20 -86.5v-68h149v-126z" />
    <glyph glyph-name="currency" unicode="&#xa4;" horiz-adv-x="652" 
d="M517 447q34 -51 34 -114t-34 -114l80 -80l-97 -92l-90 89q-19 -7 -40 -10t-44 -3q-47 0 -85 13l-89 -89l-97 92l80 80q-34 51 -34 114t34 114l-80 80l97 92l89 -90q40 14 85 14t84 -14l90 90l97 -92zM418 333q0 47 -25 75.5t-67 28.5t-67 -28.5t-25 -75.5t25 -75.5
t67 -28.5t67 28.5t25 75.5z" />
    <glyph glyph-name="yen" unicode="&#xa5;" horiz-adv-x="588" 
d="M374 122v-122h-160v122h-145v111h145v9l-26 61h-119v111h72l-106 252h167l92 -280l92 280h167l-106 -252h72v-111h-119l-26 -61v-9h145v-111h-145z" />
    <glyph glyph-name="brokenbar" unicode="&#xa6;" horiz-adv-x="323" 
d="M228 353h-133v397h133v-397zM95 -250v397h133v-397h-133z" />
    <glyph glyph-name="section" unicode="&#xa7;" horiz-adv-x="652" 
d="M373 716q38 0 78 -6t73 -20l-16 -108q-24 9 -52 14.5t-52 5.5q-33 0 -52 -10.5t-19 -36.5q0 -13 6.5 -25.5t19 -27t32.5 -32t47 -40.5q31 -27 62 -55t56 -61t40.5 -73t15.5 -90q0 -58 -19.5 -111.5t-59 -95t-100 -66t-141.5 -24.5q-37 0 -77.5 7t-78.5 18l18 109
q29 -8 58 -13.5t61 -5.5q33 0 52 11.5t19 36.5q0 12 -6 23.5t-18 25t-31 30t-44 40.5q-54 51 -91.5 91.5t-60.5 77t-33 73t-10 78.5q0 58 23 106t65 82.5t101.5 53t133.5 18.5zM214 550q-11 -20 -17 -37t-6 -44q0 -52 30 -97t86 -96q26 -24 54 -51t51 -58t38 -65.5t15 -73.5
q10 20 14.5 36.5t4.5 41.5q0 31 -8.5 58t-24 50.5t-37.5 45.5t-48 44q-69 58 -111.5 111.5t-42.5 111.5q0 6 0.5 12t1.5 11z" />
    <glyph glyph-name="dieresis" unicode="&#xa8;" horiz-adv-x="550" 
d="M100 642q0 30 20 52.5t55 22.5t55 -22.5t20 -52.5q0 -31 -20 -53t-55 -22t-55 22t-20 53zM300 642q0 30 20 52.5t55 22.5t55 -22.5t20 -52.5q0 -31 -20 -53t-55 -22t-55 22t-20 53z" />
    <glyph glyph-name="copyright" unicode="&#xa9;" horiz-adv-x="810" 
d="M55 333q0 71 25.5 134t72 110t111 74t141.5 27t141.5 -27t111 -74t72 -110t25.5 -134t-25.5 -134t-72 -110t-111 -74t-141.5 -27t-141.5 27t-111 74t-72 110t-25.5 134zM703 333q0 59 -21 113t-59.5 95t-93.5 65.5t-124 24.5t-124 -24.5t-93.5 -65.5t-59.5 -95t-21 -113
t21 -113t59.5 -95t93.5 -65.5t124 -24.5t124 24.5t93.5 65.5t59.5 95t21 113zM429 529q28 0 56.5 -5.5t50.5 -15.5l-13 -80q-38 12 -79 12q-51 0 -81 -26.5t-30 -80.5t30 -80.5t81 -26.5q41 0 79 12l13 -80q-22 -10 -50.5 -15.5t-56.5 -5.5q-50 0 -87.5 15t-63.5 41.5
t-39 62t-13 77.5t13 77.5t39 62t63.5 41.5t87.5 15z" />
    <glyph glyph-name="ordfeminine" unicode="&#xaa;" horiz-adv-x="490" 
d="M60 255h370v-113h-370v113zM278 351q-14 -14 -41 -27.5t-60 -13.5q-48 0 -77 26.5t-29 76.5q0 48 30.5 70.5t82.5 27.5q21 2 44.5 3t44.5 2v9q0 26 -15 37.5t-42 11.5q-28 0 -53 -6.5t-45 -16.5l-23 93q62 32 148 32q87 0 125.5 -44.5t38.5 -117.5v-196h-129v33zM273 450
q-11 -1 -23 -2t-23 -3q-16 -2 -22.5 -9.5t-6.5 -18.5q0 -13 9 -20.5t23 -7.5q23 0 43 13v48z" />
    <glyph glyph-name="guillemotleft" unicode="&#xab;" horiz-adv-x="647" 
d="M320 107l-104 -81l-181 215l181 215l104 -81l-115 -134zM592 107l-104 -81l-181 215l181 215l104 -81l-115 -134z" />
    <glyph glyph-name="logicalnot" unicode="&#xac;" horiz-adv-x="596" 
d="M536 74h-136v190h-340v118h476v-308z" />
    <glyph glyph-name="registered" unicode="&#xae;" horiz-adv-x="550" 
d="M45 455q0 45 16.5 85t46.5 71t72.5 49t95.5 18t95.5 -18t72 -49t45.5 -71t16 -85t-16 -85t-45.5 -71t-72 -49t-95.5 -18t-95.5 18t-72.5 49t-46.5 71t-16.5 85zM89 455q0 -39 13.5 -73t38.5 -59t59.5 -39t75.5 -14t75 14t58.5 39t38 59t13.5 73t-13.5 73t-38 59t-58.5 39
t-75 14t-75.5 -14t-59.5 -39t-38.5 -59t-13.5 -73zM369 503q0 -22 -12.5 -37.5t-32.5 -24.5l66 -85h-73l-56 75h-5v-75h-61v211h93q35 0 58 -16.5t23 -47.5zM308 498q0 23 -30 23h-22v-50h14q17 0 27.5 6.5t10.5 20.5z" />
    <glyph glyph-name="macron" unicode="&#xaf;" horiz-adv-x="515" 
d="M100 700h315v-121h-315v121z" />
    <glyph glyph-name="degree" unicode="&#xb0;" horiz-adv-x="398" 
d="M55 544q0 28 10.5 52.5t30 42.5t45.5 28.5t58 10.5q31 0 57.5 -10.5t46 -28.5t30 -42.5t10.5 -52.5q0 -29 -10.5 -53.5t-30 -42.5t-46 -28t-57.5 -10q-32 0 -58 10t-45.5 28t-30 42.5t-10.5 53.5zM145 544q0 -29 15 -44t39 -15t39 15t15 44t-15 44t-39 15t-39 -15
t-15 -44z" />
    <glyph glyph-name="plusminus" unicode="&#xb1;" horiz-adv-x="596" 
d="M366 321v-147h-136v147h-170v118h170v153h136v-153h170v-118h-170zM60 0v116h476v-116h-476z" />
    <glyph glyph-name="twosuperior" unicode="&#xb2;" horiz-adv-x="373" 
d="M33 795q62 39 146 39q72 0 115.5 -34t43.5 -95q0 -51 -23.5 -89t-66.5 -70q-9 -7 -14.5 -11t-13.5 -9h125v-106h-300l-23 80q29 24 56.5 46t57.5 48q27 23 46.5 44.5t19.5 47.5q0 20 -13.5 31t-39.5 11q-23 0 -45 -7.5t-41 -18.5z" />
    <glyph glyph-name="threesuperior" unicode="&#xb3;" horiz-adv-x="366" 
d="M336 533q0 -29 -13.5 -52t-37 -38.5t-56.5 -24t-72 -8.5q-33 0 -68.5 8t-60.5 19l21 89q20 -8 44 -13t49 -5q26 0 43 8t17 28t-16.5 27t-38.5 7h-75v93h58q31 0 46 9.5t15 26.5q0 15 -12.5 22t-32.5 7q-25 0 -46 -5t-41 -13l-20 89q33 16 68 21.5t68 5.5q66 0 108 -27
t42 -79q0 -31 -18.5 -56.5t-55.5 -39.5q33 -10 59 -33t26 -66z" />
    <glyph glyph-name="acute" unicode="&#xb4;" horiz-adv-x="448" 
d="M100 559l73 169h175l-116 -169h-132z" />
    <glyph glyph-name="mu" unicode="&#xb5;" horiz-adv-x="611" 
d="M60 490h160v-256q0 -61 17 -89.5t56 -28.5q25 0 42.5 11t30.5 28v335h160v-346q0 -23 8.5 -33t31.5 -10h15v-94q-18 -7 -39 -11t-47 -4q-54 0 -81.5 22t-38.5 60q-21 -37 -57 -60.5t-83 -23.5q-26 0 -47.5 6t-39.5 17q34 -23 53 -64.5t19 -87.5v-67h-160v696z" />
    <glyph glyph-name="paragraph" unicode="&#xb6;" horiz-adv-x="607" 
d="M422 -140v704h-98v-426q-53 0 -103.5 18t-89.5 52t-62.5 83t-23.5 111t23.5 111t62.5 83t89.5 52t103.5 18h218v-806h-120z" />
    <glyph glyph-name="periodcentered" unicode="&#xb7;" horiz-adv-x="286" 
d="M53 244q0 36 23 63t67 27t67 -27t23 -63t-23 -63t-67 -27t-67 27t-23 63z" />
    <glyph glyph-name="cedilla" unicode="&#xb8;" horiz-adv-x="393" 
d="M293 -113q0 -25 -14.5 -43.5t-39.5 -31t-57.5 -19.5t-69.5 -9l-12 74q23 2 43 8.5t20 21.5q0 8 -5.5 13.5t-14.5 8.5t-19.5 5t-20.5 3l28 82h80l-11 -43q18 0 34.5 -4t29.5 -12.5t21 -21.5t8 -32z" />
    <glyph glyph-name="onesuperior" unicode="&#xb9;" horiz-adv-x="322" 
d="M131 420v270l-86 -28l-30 103l159 59h93v-404h-136z" />
    <glyph glyph-name="ordmasculine" unicode="&#xba;" horiz-adv-x="504" 
d="M67 255h370v-113h-370v113zM454 493q0 -38 -13 -71.5t-38.5 -58.5t-63.5 -39t-87 -14q-50 0 -87.5 14t-63 39t-38.5 58.5t-13 71.5t13 71.5t38.5 58t63 39t87.5 14.5q49 0 87 -14.5t63.5 -39t38.5 -58t13 -71.5zM322 493q0 41 -17.5 63.5t-52.5 22.5t-52.5 -22.5
t-17.5 -63.5t17.5 -63.5t52.5 -22.5t52.5 22.5t17.5 63.5z" />
    <glyph glyph-name="guillemotright" unicode="&#xbb;" horiz-adv-x="647" 
d="M442 241l-115 134l104 81l181 -215l-181 -215l-104 81zM170 241l-115 134l104 81l181 -215l-181 -215l-104 81z" />
    <glyph glyph-name="onequarter" unicode="&#xbc;" horiz-adv-x="916" 
d="M566 678l102 -54l-340 -636l-102 55zM821 89v-89h-126v89h-176l-23 87l183 228h142v-221h60v-94h-60zM695 296l-88 -113h88v113zM156 262v270l-86 -28l-30 103l159 59h93v-404h-136z" />
    <glyph glyph-name="onehalf" unicode="&#xbd;" horiz-adv-x="959" 
d="M566 678l102 -54l-340 -636l-102 55zM156 262v270l-86 -28l-30 103l159 59h93v-404h-136zM592 375q62 39 146 39q72 0 115.5 -34t43.5 -95q0 -51 -23.5 -89t-66.5 -70q-9 -7 -14.5 -11t-13.5 -9h125v-106h-300l-23 80q29 24 56.5 46t57.5 48q27 23 46.5 44.5t19.5 47.5
q0 20 -13.5 31t-39.5 11q-23 0 -45 -7.5t-41 -18.5z" />
    <glyph glyph-name="threequarters" unicode="&#xbe;" horiz-adv-x="942" 
d="M591 678l102 -54l-340 -636l-102 55zM847 89v-89h-126v89h-176l-23 87l183 228h142v-221h60v-94h-60zM721 296l-88 -113h88v113zM363 375q0 -29 -13.5 -52t-37 -38.5t-56.5 -24t-72 -8.5q-33 0 -68.5 8t-60.5 19l21 89q20 -8 44 -13t49 -5q26 0 43 8t17 28t-16.5 27
t-38.5 7h-75v93h58q31 0 46 9.5t15 26.5q0 15 -12.5 22t-32.5 7q-25 0 -46 -5t-41 -13l-20 89q33 16 68 21.5t68 5.5q66 0 108 -27t42 -79q0 -31 -18.5 -56.5t-55.5 -39.5q33 -10 59 -33t26 -66z" />
    <glyph glyph-name="questiondown" unicode="&#xbf;" horiz-adv-x="480" 
d="M369 410q0 -36 -23 -63t-67 -27t-67 27t-23 63t23 63t67 27t67 -27t23 -63zM40 -6q0 45 17.5 81.5t49.5 68.5t77.5 63t102.5 66l73 -114q-34 -23 -63 -42.5t-50.5 -37.5t-34 -36.5t-12.5 -39.5q0 -30 19.5 -44t50.5 -14q36 0 67 11.5t62 28.5l46 -114q-45 -29 -91 -43
t-107 -14q-44 0 -81.5 11t-65.5 33.5t-44 56.5t-16 79z" />
    <glyph glyph-name="Agrave" unicode="&#xc0;" horiz-adv-x="700" 
d="M477 129h-255l-41 -129h-169l248 666h180l248 -666h-169zM264 259h171l-85 281zM281 724l-130 124h183l75 -124h-128z" />
    <glyph glyph-name="Aacute" unicode="&#xc1;" horiz-adv-x="700" 
d="M477 129h-255l-41 -129h-169l248 666h180l248 -666h-169zM264 259h171l-85 281zM284 724l75 124h183l-130 -124h-128z" />
    <glyph glyph-name="Acircumflex" unicode="&#xc2;" horiz-adv-x="700" 
d="M477 129h-255l-41 -129h-169l248 666h180l248 -666h-169zM264 259h171l-85 281zM522 724h-135l-37 52l-37 -52h-135l93 124h158z" />
    <glyph glyph-name="Atilde" unicode="&#xc3;" horiz-adv-x="700" 
d="M477 129h-255l-41 -129h-169l248 666h180l248 -666h-169zM264 259h171l-85 281zM440 714q-24 0 -42.5 4.5t-43.5 14.5q-20 8 -34 13.5t-27 5.5q-18 0 -27 -11t-17 -27l-95 42q17 58 45.5 83t74.5 25q24 0 44.5 -4.5t45.5 -15.5q20 -8 35 -13.5t28 -5.5q17 0 26.5 12
t18.5 29l86 -48q-23 -51 -50 -77.5t-68 -26.5z" />
    <glyph glyph-name="Adieresis" unicode="&#xc4;" horiz-adv-x="700" 
d="M477 129h-255l-41 -129h-169l248 666h180l248 -666h-169zM264 259h171l-85 281zM167 790q0 30 20.5 50.5t54.5 20.5t54.5 -20.5t20.5 -50.5q0 -31 -20.5 -51t-54.5 -20t-54.5 20t-20.5 51zM382 790q0 30 20.5 50.5t54.5 20.5t54.5 -20.5t20.5 -50.5q0 -31 -20.5 -51
t-54.5 -20t-54.5 20t-20.5 51z" />
    <glyph glyph-name="Aring" unicode="&#xc5;" horiz-adv-x="700" 
d="M459 721q0 -14 -5.5 -29t-13.5 -26l248 -666h-169l-42 129h-255l-41 -129h-169l248 665q-19 25 -19 56q0 19 7 36.5t20.5 31t34 22t47.5 8.5t47.5 -8.5t34 -22t20.5 -31t7 -36.5zM264 259h171l-85 281zM310 722q0 -17 11 -28t29 -11t29 11t11 28t-11 28.5t-29 11.5
t-29 -11.5t-11 -28.5z" />
    <glyph glyph-name="AE" unicode="&#xc6;" horiz-adv-x="894" 
d="M843 536h-288l18 -134h258v-130h-242l19 -142h238v-130h-371l-17 129h-238l-72 -129h-168l390 666h473v-130zM294 259h148l-27 237z" />
    <glyph glyph-name="Ccedilla" unicode="&#xc7;" horiz-adv-x="627" 
d="M498 -113q0 -25 -14.5 -43.5t-39.5 -31t-57.5 -19.5t-69.5 -9l-12 74q23 2 43 8.5t20 21.5q0 8 -5.5 13.5t-14.5 8.5t-19.5 5t-20.5 3l25 74q-74 8 -130 37t-93.5 73.5t-56.5 103.5t-19 127q0 75 23 138t68 109t112 72t155 26q52 0 104.5 -10t90.5 -29l-24 -121
q-30 12 -68.5 20.5t-76.5 8.5q-102 0 -161 -53t-59 -161t59 -161t161 -53q38 0 76.5 8.5t68.5 20.5l24 -121q-35 -17 -80.5 -26.5t-93.5 -11.5l-8 -32q18 0 34.5 -4t29.5 -12.5t21 -21.5t8 -32z" />
    <glyph glyph-name="Egrave" unicode="&#xc8;" horiz-adv-x="531" 
d="M65 666h415v-130h-251v-134h239v-130h-239v-142h254v-130h-418v666zM229 724l-130 124h183l75 -124h-128z" />
    <glyph glyph-name="Eacute" unicode="&#xc9;" horiz-adv-x="531" 
d="M65 666h415v-130h-251v-134h239v-130h-239v-142h254v-130h-418v666zM181 724l75 124h183l-130 -124h-128z" />
    <glyph glyph-name="Ecircumflex" unicode="&#xca;" horiz-adv-x="531" 
d="M65 666h415v-130h-251v-134h239v-130h-239v-142h254v-130h-418v666zM449 724h-135l-37 52l-37 -52h-135l93 124h158z" />
    <glyph glyph-name="Edieresis" unicode="&#xcb;" horiz-adv-x="531" 
d="M65 666h415v-130h-251v-134h239v-130h-239v-142h254v-130h-418v666zM94 790q0 30 20.5 50.5t54.5 20.5t54.5 -20.5t20.5 -50.5q0 -31 -20.5 -51t-54.5 -20t-54.5 20t-20.5 51zM309 790q0 30 20.5 50.5t54.5 20.5t54.5 -20.5t20.5 -50.5q0 -31 -20.5 -51t-54.5 -20
t-54.5 20t-20.5 51z" />
    <glyph glyph-name="Igrave" unicode="&#xcc;" horiz-adv-x="304" 
d="M234 0h-164v666h164v-666zM91 724l-130 124h183l75 -124h-128z" />
    <glyph glyph-name="Iacute" unicode="&#xcd;" horiz-adv-x="304" 
d="M234 0h-164v666h164v-666zM83 724l75 124h183l-130 -124h-128z" />
    <glyph glyph-name="Icircumflex" unicode="&#xce;" horiz-adv-x="304" 
d="M234 0h-164v666h164v-666zM324 724h-135l-37 52l-37 -52h-135l93 124h158z" />
    <glyph glyph-name="Idieresis" unicode="&#xcf;" horiz-adv-x="304" 
d="M234 0h-164v666h164v-666zM-30 790q0 30 20.5 50.5t54.5 20.5t54.5 -20.5t20.5 -50.5q0 -31 -20.5 -51t-54.5 -20t-54.5 20t-20.5 51zM185 790q0 30 20.5 50.5t54.5 20.5t54.5 -20.5t20.5 -50.5q0 -31 -20.5 -51t-54.5 -20t-54.5 20t-20.5 51z" />
    <glyph glyph-name="Eth" unicode="&#xd0;" horiz-adv-x="732" 
d="M30 398h74v268h203q88 0 161.5 -25t125.5 -69t81 -105.5t29 -133.5t-29 -133.5t-81 -105.5t-125.5 -69t-161.5 -25h-203v268h-74v130zM317 130q50 0 91 14t70.5 40t45.5 63.5t16 85.5t-16 85.5t-45.5 63.5t-70.5 40t-91 14h-49v-138h156v-130h-156v-138h49z" />
    <glyph glyph-name="Ntilde" unicode="&#xd1;" horiz-adv-x="721" 
d="M498 0l-275 397v-397h-158v666h158l275 -397v397h158v-666h-158zM439 714q-24 0 -42.5 4.5t-43.5 14.5q-20 8 -34 13.5t-27 5.5q-18 0 -27 -11t-17 -27l-95 42q17 58 45.5 83t74.5 25q24 0 44.5 -4.5t45.5 -15.5q20 -8 35 -13.5t28 -5.5q17 0 26.5 12t18.5 29l86 -48
q-23 -51 -50 -77.5t-68 -26.5z" />
    <glyph glyph-name="Ograve" unicode="&#xd2;" horiz-adv-x="748" 
d="M714 333q0 -71 -23 -133.5t-66.5 -109.5t-106.5 -74.5t-144 -27.5t-144.5 27.5t-107 74.5t-66 109.5t-22.5 133.5t22.5 133.5t66 109.5t107 74.5t144.5 27.5t144 -27.5t106.5 -74.5t66.5 -109.5t23 -133.5zM374 118q43 0 76 16t55.5 44.5t33.5 68t11 86.5t-11 86.5
t-33.5 68t-55.5 44.5t-76 16q-44 0 -76.5 -16t-55 -44.5t-33.5 -68t-11 -86.5t11 -86.5t33.5 -68t55 -44.5t76.5 -16zM312 724l-130 124h183l75 -124h-128z" />
    <glyph glyph-name="Oacute" unicode="&#xd3;" horiz-adv-x="748" 
d="M714 333q0 -71 -23 -133.5t-66.5 -109.5t-106.5 -74.5t-144 -27.5t-144.5 27.5t-107 74.5t-66 109.5t-22.5 133.5t22.5 133.5t66 109.5t107 74.5t144.5 27.5t144 -27.5t106.5 -74.5t66.5 -109.5t23 -133.5zM374 118q43 0 76 16t55.5 44.5t33.5 68t11 86.5t-11 86.5
t-33.5 68t-55.5 44.5t-76 16q-44 0 -76.5 -16t-55 -44.5t-33.5 -68t-11 -86.5t11 -86.5t33.5 -68t55 -44.5t76.5 -16zM304 724l75 124h183l-130 -124h-128z" />
    <glyph glyph-name="Ocircumflex" unicode="&#xd4;" horiz-adv-x="748" 
d="M714 333q0 -71 -23 -133.5t-66.5 -109.5t-106.5 -74.5t-144 -27.5t-144.5 27.5t-107 74.5t-66 109.5t-22.5 133.5t22.5 133.5t66 109.5t107 74.5t144.5 27.5t144 -27.5t106.5 -74.5t66.5 -109.5t23 -133.5zM374 118q43 0 76 16t55.5 44.5t33.5 68t11 86.5t-11 86.5
t-33.5 68t-55.5 44.5t-76 16q-44 0 -76.5 -16t-55 -44.5t-33.5 -68t-11 -86.5t11 -86.5t33.5 -68t55 -44.5t76.5 -16zM546 724h-135l-37 52l-37 -52h-135l93 124h158z" />
    <glyph glyph-name="Otilde" unicode="&#xd5;" horiz-adv-x="748" 
d="M714 333q0 -71 -23 -133.5t-66.5 -109.5t-106.5 -74.5t-144 -27.5t-144.5 27.5t-107 74.5t-66 109.5t-22.5 133.5t22.5 133.5t66 109.5t107 74.5t144.5 27.5t144 -27.5t106.5 -74.5t66.5 -109.5t23 -133.5zM374 118q43 0 76 16t55.5 44.5t33.5 68t11 86.5t-11 86.5
t-33.5 68t-55.5 44.5t-76 16q-44 0 -76.5 -16t-55 -44.5t-33.5 -68t-11 -86.5t11 -86.5t33.5 -68t55 -44.5t76.5 -16zM458 714q-24 0 -42.5 4.5t-43.5 14.5q-20 8 -34 13.5t-27 5.5q-18 0 -27 -11t-17 -27l-95 42q17 58 45.5 83t74.5 25q24 0 44.5 -4.5t45.5 -15.5
q20 -8 35 -13.5t28 -5.5q17 0 26.5 12t18.5 29l86 -48q-23 -51 -50 -77.5t-68 -26.5z" />
    <glyph glyph-name="Odieresis" unicode="&#xd6;" horiz-adv-x="748" 
d="M714 333q0 -71 -23 -133.5t-66.5 -109.5t-106.5 -74.5t-144 -27.5t-144.5 27.5t-107 74.5t-66 109.5t-22.5 133.5t22.5 133.5t66 109.5t107 74.5t144.5 27.5t144 -27.5t106.5 -74.5t66.5 -109.5t23 -133.5zM374 118q43 0 76 16t55.5 44.5t33.5 68t11 86.5t-11 86.5
t-33.5 68t-55.5 44.5t-76 16q-44 0 -76.5 -16t-55 -44.5t-33.5 -68t-11 -86.5t11 -86.5t33.5 -68t55 -44.5t76.5 -16zM191 790q0 30 20.5 50.5t54.5 20.5t54.5 -20.5t20.5 -50.5q0 -31 -20.5 -51t-54.5 -20t-54.5 20t-20.5 51zM406 790q0 30 20.5 50.5t54.5 20.5t54.5 -20.5
t20.5 -50.5q0 -31 -20.5 -51t-54.5 -20t-54.5 20t-20.5 51z" />
    <glyph glyph-name="multiply" unicode="&#xd7;" horiz-adv-x="614" 
d="M307 412l153 153l89 -89l-153 -153l153 -153l-89 -89l-153 153l-153 -153l-89 89l153 153l-153 153l89 89z" />
    <glyph glyph-name="Oslash" unicode="&#xd8;" horiz-adv-x="752" 
d="M114 102q-38 46 -58 105t-20 126q0 71 22.5 133.5t66 109.5t107 74.5t144.5 27.5q51 0 95 -11.5t81 -31.5l78 95l86 -71l-78 -95q38 -47 58 -106t20 -125q0 -71 -23 -133.5t-66.5 -109.5t-106.5 -74.5t-144 -27.5q-51 0 -95 11.5t-81 31.5l-78 -95l-86 71zM200 333
q0 -58 17 -106l246 299q-38 22 -87 22q-44 0 -76.5 -16t-55 -44.5t-33.5 -68t-11 -86.5zM376 118q43 0 76 16t55.5 44.5t33.5 68t11 86.5q0 60 -18 105l-245 -299q36 -21 87 -21z" />
    <glyph glyph-name="Ugrave" unicode="&#xd9;" horiz-adv-x="690" 
d="M463 666h164v-426q0 -118 -74.5 -185t-207.5 -67t-207.5 67t-74.5 185v426h164v-431q0 -57 30 -87t88 -30t88 30t30 87v431zM305 724l-130 124h183l75 -124h-128z" />
    <glyph glyph-name="Uacute" unicode="&#xda;" horiz-adv-x="690" 
d="M463 666h164v-426q0 -118 -74.5 -185t-207.5 -67t-207.5 67t-74.5 185v426h164v-431q0 -57 30 -87t88 -30t88 30t30 87v431zM257 724l75 124h183l-130 -124h-128z" />
    <glyph glyph-name="Ucircumflex" unicode="&#xdb;" horiz-adv-x="690" 
d="M463 666h164v-426q0 -118 -74.5 -185t-207.5 -67t-207.5 67t-74.5 185v426h164v-431q0 -57 30 -87t88 -30t88 30t30 87v431zM517 724h-135l-37 52l-37 -52h-135l93 124h158z" />
    <glyph glyph-name="Udieresis" unicode="&#xdc;" horiz-adv-x="690" 
d="M463 666h164v-426q0 -118 -74.5 -185t-207.5 -67t-207.5 67t-74.5 185v426h164v-431q0 -57 30 -87t88 -30t88 30t30 87v431zM162 790q0 30 20.5 50.5t54.5 20.5t54.5 -20.5t20.5 -50.5q0 -31 -20.5 -51t-54.5 -20t-54.5 20t-20.5 51zM377 790q0 30 20.5 50.5t54.5 20.5
t54.5 -20.5t20.5 -50.5q0 -31 -20.5 -51t-54.5 -20t-54.5 20t-20.5 51z" />
    <glyph glyph-name="Yacute" unicode="&#xdd;" horiz-adv-x="592" 
d="M378 242v-242h-164v242l-219 424h175l126 -280l126 280h175zM222 724l75 124h183l-130 -124h-128z" />
    <glyph glyph-name="Thorn" unicode="&#xde;" horiz-adv-x="563" 
d="M547 333q0 -53 -23 -95t-63.5 -70.5t-95.5 -43.5t-119 -15h-17v-109h-164v666h164v-116h28q63 0 116.5 -13t92 -39.5t60 -67.5t21.5 -97zM389 332q0 92 -131 92h-29v-189h27q65 0 99 26t34 71z" />
    <glyph glyph-name="germandbls" unicode="&#xdf;" horiz-adv-x="634" 
d="M60 0v471q0 64 20 110.5t55.5 76.5t83 44t101.5 14q48 0 88 -12.5t68 -34.5t43.5 -53t15.5 -67q0 -39 -15.5 -66t-35.5 -53q-17 -22 -31 -36.5t-14 -32.5q0 -17 14.5 -26t45.5 -27q21 -12 41.5 -26t37 -32.5t26.5 -42.5t10 -57q0 -34 -14 -63.5t-39.5 -51t-61 -33.5
t-78.5 -12q-32 0 -67 6t-64 17l20 109q23 -9 48 -13t42 -4q27 0 42.5 10.5t15.5 29.5q0 22 -20 34t-55 30q-59 30 -81.5 64.5t-22.5 78.5q0 56 51 110q18 19 32 37t14 39q0 26 -18 40.5t-47 14.5q-91 0 -91 -113v-480h-160z" />
    <glyph glyph-name="agrave" unicode="&#xe0;" horiz-adv-x="535" 
d="M328 48q-23 -23 -62.5 -40.5t-86.5 -17.5q-33 0 -59 11t-43.5 30t-27 44.5t-9.5 54.5q0 68 42.5 102.5t120.5 40.5q29 2 61.5 3t57.5 2v16q0 80 -89 80q-35 0 -67.5 -8t-59.5 -22l-29 111q35 20 82.5 32.5t103.5 12.5q103 0 161 -53.5t58 -160.5v-286h-154v48zM241 95
q23 0 43.5 6t37.5 16v73q-24 -2 -43 -4.5t-37 -4.5q-49 -6 -49 -46q0 -18 12.5 -29t35.5 -11zM217 559l-116 169h169l76 -169h-129z" />
    <glyph glyph-name="aacute" unicode="&#xe1;" horiz-adv-x="535" 
d="M328 48q-23 -23 -62.5 -40.5t-86.5 -17.5q-33 0 -59 11t-43.5 30t-27 44.5t-9.5 54.5q0 68 42.5 102.5t120.5 40.5q29 2 61.5 3t57.5 2v16q0 80 -89 80q-35 0 -67.5 -8t-59.5 -22l-29 111q35 20 82.5 32.5t103.5 12.5q103 0 161 -53.5t58 -160.5v-286h-154v48zM241 95
q23 0 43.5 6t37.5 16v73q-24 -2 -43 -4.5t-37 -4.5q-49 -6 -49 -46q0 -18 12.5 -29t35.5 -11zM189 559l73 169h175l-116 -169h-132z" />
    <glyph glyph-name="acircumflex" unicode="&#xe2;" horiz-adv-x="535" 
d="M328 48q-23 -23 -62.5 -40.5t-86.5 -17.5q-33 0 -59 11t-43.5 30t-27 44.5t-9.5 54.5q0 68 42.5 102.5t120.5 40.5q29 2 61.5 3t57.5 2v16q0 80 -89 80q-35 0 -67.5 -8t-59.5 -22l-29 111q35 20 82.5 32.5t103.5 12.5q103 0 161 -53.5t58 -160.5v-286h-154v48zM241 95
q23 0 43.5 6t37.5 16v73q-24 -2 -43 -4.5t-37 -4.5q-49 -6 -49 -46q0 -18 12.5 -29t35.5 -11zM457 559h-132l-48 82l-48 -82h-132l109 169h142z" />
    <glyph glyph-name="atilde" unicode="&#xe3;" horiz-adv-x="535" 
d="M328 48q-23 -23 -62.5 -40.5t-86.5 -17.5q-33 0 -59 11t-43.5 30t-27 44.5t-9.5 54.5q0 68 42.5 102.5t120.5 40.5q29 2 61.5 3t57.5 2v16q0 80 -89 80q-35 0 -67.5 -8t-59.5 -22l-29 111q35 20 82.5 32.5t103.5 12.5q103 0 161 -53.5t58 -160.5v-286h-154v48zM241 95
q23 0 43.5 6t37.5 16v73q-24 -2 -43 -4.5t-37 -4.5q-49 -6 -49 -46q0 -18 12.5 -29t35.5 -11zM356 562q-22 0 -40.5 6.5t-39.5 16.5q-19 8 -33 14.5t-26 6.5q-17 0 -26 -12.5t-19 -32.5l-89 43q12 33 24.5 55t27.5 36t34 20t43 6t43 -7t39 -18q19 -10 31.5 -14.5t23.5 -4.5
q18 0 27.5 11.5t20.5 33.5l86 -44q-14 -30 -27.5 -52t-28 -36t-32 -21t-39.5 -7z" />
    <glyph glyph-name="adieresis" unicode="&#xe4;" horiz-adv-x="535" 
d="M328 48q-23 -23 -62.5 -40.5t-86.5 -17.5q-33 0 -59 11t-43.5 30t-27 44.5t-9.5 54.5q0 68 42.5 102.5t120.5 40.5q29 2 61.5 3t57.5 2v16q0 80 -89 80q-35 0 -67.5 -8t-59.5 -22l-29 111q35 20 82.5 32.5t103.5 12.5q103 0 161 -53.5t58 -160.5v-286h-154v48zM241 95
q23 0 43.5 6t37.5 16v73q-24 -2 -43 -4.5t-37 -4.5q-49 -6 -49 -46q0 -18 12.5 -29t35.5 -11zM106 642q0 30 20 52.5t55 22.5t55 -22.5t20 -52.5q0 -31 -20 -53t-55 -22t-55 22t-20 53zM306 642q0 30 20 52.5t55 22.5t55 -22.5t20 -52.5q0 -31 -20 -53t-55 -22t-55 22
t-20 53z" />
    <glyph glyph-name="aring" unicode="&#xe5;" horiz-adv-x="535" 
d="M328 48q-23 -23 -62.5 -40.5t-86.5 -17.5q-33 0 -59 11t-43.5 30t-27 44.5t-9.5 54.5q0 68 42.5 102.5t120.5 40.5q29 2 61.5 3t57.5 2v16q0 80 -89 80q-35 0 -67.5 -8t-59.5 -22l-29 111q35 20 82.5 32.5t103.5 12.5q103 0 161 -53.5t58 -160.5v-286h-154v48zM241 95
q23 0 43.5 6t37.5 16v73q-24 -2 -43 -4.5t-37 -4.5q-49 -6 -49 -46q0 -18 12.5 -29t35.5 -11zM381 650q0 -18 -7 -34.5t-20 -30t-33 -21.5t-45 -8q-26 0 -45.5 8t-32.5 21.5t-20 30t-7 34.5t7 35t20 30.5t32.5 21.5t45.5 8q25 0 45 -8t33 -21.5t20 -30.5t7 -35zM240 650
q0 -17 10 -26.5t26 -9.5t26 9.5t10 26.5t-10 26.5t-26 9.5t-26 -9.5t-10 -26.5z" />
    <glyph glyph-name="ae" unicode="&#xe6;" horiz-adv-x="813" 
d="M574 500q99 0 149.5 -57.5t50.5 -155.5q0 -19 -2.5 -41.5t-6.5 -39.5h-279q1 -47 29 -73.5t88 -26.5q35 0 69 9t72 26l26 -107q-40 -21 -88 -32.5t-100 -11.5q-64 0 -111.5 18.5t-80.5 52.5q-38 -32 -85.5 -51.5t-107.5 -19.5q-39 0 -68.5 11t-49 30t-29.5 44.5t-10 54.5
q0 68 42.5 101.5t120.5 41.5q35 4 63.5 6t55.5 4v9q0 38 -19.5 60t-69.5 22q-64 0 -129 -29l-31 114q39 20 82.5 30.5t97.5 10.5q48 0 87 -15.5t68 -50.5q32 32 72.5 49t93.5 17zM565 396q-37 0 -57 -24t-21 -66h141q2 8 2 18q0 32 -16.5 52t-48.5 20zM344 128q-7 17 -11 31
t-7 31l-84 -15q-24 -5 -36.5 -13t-12.5 -27q0 -18 13 -28t35 -10q26 0 51.5 7t51.5 24z" />
    <glyph glyph-name="ccedilla" unicode="&#xe7;" horiz-adv-x="454" 
d="M392 -113q0 -25 -14.5 -43.5t-39.5 -31t-57.5 -19.5t-69.5 -9l-12 74q23 2 43 8.5t20 21.5q0 8 -5.5 13.5t-14.5 8.5t-19.5 5t-20.5 3l26 77q-48 9 -85.5 30.5t-63.5 53.5t-39.5 74t-13.5 92q0 57 18 104t52 80.5t83.5 52t111.5 18.5q38 0 74.5 -8t63.5 -22l-16 -114
q-19 8 -45.5 14t-53.5 6q-64 0 -96 -35t-32 -96t32 -96t96 -35q27 0 53.5 6t45.5 14l16 -114q-24 -12 -56 -19.5t-66 -9.5l-8 -34q18 0 34.5 -4t29.5 -12.5t21 -21.5t8 -32z" />
    <glyph glyph-name="egrave" unicode="&#xe8;" horiz-adv-x="516" 
d="M277 500q96 0 152 -56.5t56 -156.5q0 -38 -9 -81h-284q2 -45 30.5 -72.5t87.5 -27.5q36 0 75.5 6.5t68.5 19.5l20 -103q-38 -19 -85.5 -29t-98.5 -10q-64 0 -113 18.5t-82 51.5t-50 79t-17 102q0 60 17.5 108t50 81.5t78.5 51.5t103 18zM272 398q-38 0 -58.5 -24.5
t-20.5 -67.5h142q2 8 2 17q0 32 -17 53.5t-48 21.5zM206 559l-116 169h169l76 -169h-129z" />
    <glyph glyph-name="eacute" unicode="&#xe9;" horiz-adv-x="516" 
d="M277 500q96 0 152 -56.5t56 -156.5q0 -38 -9 -81h-284q2 -45 30.5 -72.5t87.5 -27.5q36 0 75.5 6.5t68.5 19.5l20 -103q-38 -19 -85.5 -29t-98.5 -10q-64 0 -113 18.5t-82 51.5t-50 79t-17 102q0 60 17.5 108t50 81.5t78.5 51.5t103 18zM272 398q-38 0 -58.5 -24.5
t-20.5 -67.5h142q2 8 2 17q0 32 -17 53.5t-48 21.5zM189 559l73 169h175l-116 -169h-132z" />
    <glyph glyph-name="ecircumflex" unicode="&#xea;" horiz-adv-x="516" 
d="M277 500q96 0 152 -56.5t56 -156.5q0 -38 -9 -81h-284q2 -45 30.5 -72.5t87.5 -27.5q36 0 75.5 6.5t68.5 19.5l20 -103q-38 -19 -85.5 -29t-98.5 -10q-64 0 -113 18.5t-82 51.5t-50 79t-17 102q0 60 17.5 108t50 81.5t78.5 51.5t103 18zM272 398q-38 0 -58.5 -24.5
t-20.5 -67.5h142q2 8 2 17q0 32 -17 53.5t-48 21.5zM452 559h-132l-48 82l-48 -82h-132l109 169h142z" />
    <glyph glyph-name="edieresis" unicode="&#xeb;" horiz-adv-x="516" 
d="M277 500q96 0 152 -56.5t56 -156.5q0 -38 -9 -81h-284q2 -45 30.5 -72.5t87.5 -27.5q36 0 75.5 6.5t68.5 19.5l20 -103q-38 -19 -85.5 -29t-98.5 -10q-64 0 -113 18.5t-82 51.5t-50 79t-17 102q0 60 17.5 108t50 81.5t78.5 51.5t103 18zM272 398q-38 0 -58.5 -24.5
t-20.5 -67.5h142q2 8 2 17q0 32 -17 53.5t-48 21.5zM98 642q0 30 20 52.5t55 22.5t55 -22.5t20 -52.5q0 -31 -20 -53t-55 -22t-55 22t-20 53zM298 642q0 30 20 52.5t55 22.5t55 -22.5t20 -52.5q0 -31 -20 -53t-55 -22t-55 22t-20 53z" />
    <glyph glyph-name="igrave" unicode="&#xec;" horiz-adv-x="280" 
d="M60 0v490h160v-490h-160zM76 559l-116 169h169l76 -169h-129z" />
    <glyph glyph-name="iacute" unicode="&#xed;" horiz-adv-x="280" 
d="M60 0v490h160v-490h-160zM75 559l73 169h175l-116 -169h-132z" />
    <glyph glyph-name="icircumflex" unicode="&#xee;" horiz-adv-x="280" 
d="M60 0v490h160v-490h-160zM320 559h-132l-48 82l-48 -82h-132l109 169h142z" />
    <glyph glyph-name="idieresis" unicode="&#xef;" horiz-adv-x="280" 
d="M60 0v490h160v-490h-160zM-35 642q0 30 20 52.5t55 22.5t55 -22.5t20 -52.5q0 -31 -20 -53t-55 -22t-55 22t-20 53zM165 642q0 30 20 52.5t55 22.5t55 -22.5t20 -52.5q0 -31 -20 -53t-55 -22t-55 22t-20 53z" />
    <glyph glyph-name="eth" unicode="&#xf0;" horiz-adv-x="572" 
d="M160 532l45 38q-27 9 -54.5 14t-58.5 9l30 123q50 -6 99.5 -17.5t96.5 -32.5l72 62l42 -47l-55 -47q81 -57 124 -138t43 -193q0 -63 -16.5 -119.5t-49.5 -99.5t-83 -68.5t-117 -25.5q-63 0 -110 19.5t-78 52.5t-46.5 77.5t-15.5 94.5q0 57 18 99.5t49 71t70.5 42.5
t83.5 14q38 0 68.5 -6.5t60.5 -23.5q-17 39 -45 64.5t-64 45.5l-66 -56zM186 228q0 -49 25 -82.5t70 -33.5q30 0 50 14t31.5 36.5t16.5 50t5 55.5v53q-18 8 -38.5 14t-48.5 6q-51 0 -81 -27t-30 -86z" />
    <glyph glyph-name="ntilde" unicode="&#xf1;" horiz-adv-x="583" 
d="M60 0v490h154v-64q23 40 59.5 57t77.5 17q49 0 83 -20.5t55.5 -54.5t31 -78.5t9.5 -93.5v-253h-160v256q0 61 -19 89.5t-58 28.5q-25 0 -43.5 -11t-29.5 -27v-336h-160zM373 562q-22 0 -40.5 6.5t-39.5 16.5q-19 8 -33 14.5t-26 6.5q-17 0 -26 -12.5t-19 -32.5l-89 43
q12 33 24.5 55t27.5 36t34 20t43 6t43 -7t39 -18q19 -10 31.5 -14.5t23.5 -4.5q18 0 27.5 11.5t20.5 33.5l86 -44q-14 -30 -27.5 -52t-28 -36t-32 -21t-39.5 -7z" />
    <glyph glyph-name="ograve" unicode="&#xf2;" horiz-adv-x="574" 
d="M548 245q0 -54 -17 -100.5t-50 -81t-82 -54t-112 -19.5t-112 19.5t-82 54t-50 81t-17 100.5t17 100.5t50 81t82 54t112 19.5t112 -19.5t82 -54t50 -81t17 -100.5zM388 245q0 26 -5 50.5t-16.5 44t-31 31t-48.5 11.5t-48.5 -11.5t-31 -31t-16.5 -44t-5 -50.5t5 -50.5
t16.5 -44t31 -31t48.5 -11.5t48.5 11.5t31 31t16.5 44t5 50.5zM227 559l-116 169h169l76 -169h-129z" />
    <glyph glyph-name="oacute" unicode="&#xf3;" horiz-adv-x="574" 
d="M548 245q0 -54 -17 -100.5t-50 -81t-82 -54t-112 -19.5t-112 19.5t-82 54t-50 81t-17 100.5t17 100.5t50 81t82 54t112 19.5t112 -19.5t82 -54t50 -81t17 -100.5zM388 245q0 26 -5 50.5t-16.5 44t-31 31t-48.5 11.5t-48.5 -11.5t-31 -31t-16.5 -44t-5 -50.5t5 -50.5
t16.5 -44t31 -31t48.5 -11.5t48.5 11.5t31 31t16.5 44t5 50.5zM214 559l73 169h175l-116 -169h-132z" />
    <glyph glyph-name="ocircumflex" unicode="&#xf4;" horiz-adv-x="574" 
d="M548 245q0 -54 -17 -100.5t-50 -81t-82 -54t-112 -19.5t-112 19.5t-82 54t-50 81t-17 100.5t17 100.5t50 81t82 54t112 19.5t112 -19.5t82 -54t50 -81t17 -100.5zM388 245q0 26 -5 50.5t-16.5 44t-31 31t-48.5 11.5t-48.5 -11.5t-31 -31t-16.5 -44t-5 -50.5t5 -50.5
t16.5 -44t31 -31t48.5 -11.5t48.5 11.5t31 31t16.5 44t5 50.5zM467 559h-132l-48 82l-48 -82h-132l109 169h142z" />
    <glyph glyph-name="otilde" unicode="&#xf5;" horiz-adv-x="574" 
d="M548 245q0 -54 -17 -100.5t-50 -81t-82 -54t-112 -19.5t-112 19.5t-82 54t-50 81t-17 100.5t17 100.5t50 81t82 54t112 19.5t112 -19.5t82 -54t50 -81t17 -100.5zM388 245q0 26 -5 50.5t-16.5 44t-31 31t-48.5 11.5t-48.5 -11.5t-31 -31t-16.5 -44t-5 -50.5t5 -50.5
t16.5 -44t31 -31t48.5 -11.5t48.5 11.5t31 31t16.5 44t5 50.5zM371 562q-22 0 -40.5 6.5t-39.5 16.5q-19 8 -33 14.5t-26 6.5q-17 0 -26 -12.5t-19 -32.5l-89 43q12 33 24.5 55t27.5 36t34 20t43 6t43 -7t39 -18q19 -10 31.5 -14.5t23.5 -4.5q18 0 27.5 11.5t20.5 33.5
l86 -44q-14 -30 -27.5 -52t-28 -36t-32 -21t-39.5 -7z" />
    <glyph glyph-name="odieresis" unicode="&#xf6;" horiz-adv-x="574" 
d="M548 245q0 -54 -17 -100.5t-50 -81t-82 -54t-112 -19.5t-112 19.5t-82 54t-50 81t-17 100.5t17 100.5t50 81t82 54t112 19.5t112 -19.5t82 -54t50 -81t17 -100.5zM388 245q0 26 -5 50.5t-16.5 44t-31 31t-48.5 11.5t-48.5 -11.5t-31 -31t-16.5 -44t-5 -50.5t5 -50.5
t16.5 -44t31 -31t48.5 -11.5t48.5 11.5t31 31t16.5 44t5 50.5zM112 642q0 30 20 52.5t55 22.5t55 -22.5t20 -52.5q0 -31 -20 -53t-55 -22t-55 22t-20 53zM312 642q0 30 20 52.5t55 22.5t55 -22.5t20 -52.5q0 -31 -20 -53t-55 -22t-55 22t-20 53z" />
    <glyph glyph-name="divide" unicode="&#xf7;" horiz-adv-x="596" 
d="M60 264v118h476v-118h-476zM381 125q0 -36 -24 -58.5t-59 -22.5t-59 22.5t-24 58.5t24 59.5t59 23.5t59 -23.5t24 -59.5zM381 519q0 -36 -24 -58.5t-59 -22.5t-59 22.5t-24 58.5t24 59.5t59 23.5t59 -23.5t24 -59.5z" />
    <glyph glyph-name="oslash" unicode="&#xf8;" horiz-adv-x="580" 
d="M98 62q-35 35 -52 81.5t-17 101.5q0 54 17 100.5t50 81t82 54t112 19.5q42 0 77 -8.5t64 -24.5l70 85l50 -41l-69 -83q69 -71 69 -183q0 -54 -17 -100.5t-50 -81t-82 -54t-112 -19.5q-83 0 -141 32l-69 -84l-51 40zM189 245q0 -17 1.5 -32.5t6.5 -30.5l150 183
q-23 17 -57 17q-29 0 -48.5 -11.5t-31 -31t-16.5 -44t-5 -50.5zM391 245q0 16 -1.5 32t-6.5 30l-150 -182q23 -17 57 -17q29 0 48.5 11.5t31 31t16.5 44t5 50.5z" />
    <glyph glyph-name="ugrave" unicode="&#xf9;" horiz-adv-x="579" 
d="M519 490v-490h-154v64q-28 -42 -63 -58t-74 -16q-49 0 -82.5 20.5t-54 54.5t-29.5 78.5t-9 93.5v253h160v-256q0 -61 17 -89.5t56 -28.5q25 0 43.5 11t29.5 27v336h160zM247 559l-116 169h169l76 -169h-129z" />
    <glyph glyph-name="uacute" unicode="&#xfa;" horiz-adv-x="579" 
d="M519 490v-490h-154v64q-28 -42 -63 -58t-74 -16q-49 0 -82.5 20.5t-54 54.5t-29.5 78.5t-9 93.5v253h160v-256q0 -61 17 -89.5t56 -28.5q25 0 43.5 11t29.5 27v336h160zM207 559l73 169h175l-116 -169h-132z" />
    <glyph glyph-name="ucircumflex" unicode="&#xfb;" horiz-adv-x="579" 
d="M519 490v-490h-154v64q-28 -42 -63 -58t-74 -16q-49 0 -82.5 20.5t-54 54.5t-29.5 78.5t-9 93.5v253h160v-256q0 -61 17 -89.5t56 -28.5q25 0 43.5 11t29.5 27v336h160zM473 559h-132l-48 82l-48 -82h-132l109 169h142z" />
    <glyph glyph-name="udieresis" unicode="&#xfc;" horiz-adv-x="579" 
d="M519 490v-490h-154v64q-28 -42 -63 -58t-74 -16q-49 0 -82.5 20.5t-54 54.5t-29.5 78.5t-9 93.5v253h160v-256q0 -61 17 -89.5t56 -28.5q25 0 43.5 11t29.5 27v336h160zM119 642q0 30 20 52.5t55 22.5t55 -22.5t20 -52.5q0 -31 -20 -53t-55 -22t-55 22t-20 53zM319 642
q0 30 20 52.5t55 22.5t55 -22.5t20 -52.5q0 -31 -20 -53t-55 -22t-55 22t-20 53z" />
    <glyph glyph-name="yacute" unicode="&#xfd;" horiz-adv-x="506" 
d="M113 -206l64 194l-177 502h166l90 -349l89 349h161l-232 -696h-161zM177 559l73 169h175l-116 -169h-132z" />
    <glyph glyph-name="thorn" unicode="&#xfe;" horiz-adv-x="584" 
d="M60 706h160v-269q19 27 56.5 45t83.5 18q41 0 77 -17.5t62.5 -50t41.5 -78.5t15 -103q0 -65 -20.5 -113.5t-55 -81.5t-80.5 -49.5t-98 -16.5q-26 0 -46 3.5t-36 8.5v-208h-160v912zM302 377q-27 0 -47 -8.5t-35 -25.5v-227q11 -4 25 -6t32 -2q63 0 91 38.5t28 103.5
q0 54 -22.5 90.5t-71.5 36.5z" />
    <glyph glyph-name="ydieresis" unicode="&#xff;" horiz-adv-x="506" 
d="M113 -206l64 194l-177 502h166l90 -349l89 349h161l-232 -696h-161zM85 642q0 30 20 52.5t55 22.5t55 -22.5t20 -52.5q0 -31 -20 -53t-55 -22t-55 22t-20 53zM285 642q0 30 20 52.5t55 22.5t55 -22.5t20 -52.5q0 -31 -20 -53t-55 -22t-55 22t-20 53z" />
    <glyph glyph-name="hbar" horiz-adv-x="585" 
d="M-5 642h67v64h160v-64h130v-104h-130v-106q22 35 57 51.5t74 16.5q49 0 83 -20.5t55.5 -54.5t31 -78.5t9.5 -93.5v-253h-160v256q0 61 -19 89.5t-58 28.5q-25 0 -43.5 -11t-29.5 -27v-336h-160v538h-67v104z" />
    <glyph glyph-name="dotlessi" unicode="&#x131;" horiz-adv-x="280" 
d="M60 0v490h160v-490h-160z" />
    <glyph glyph-name="OE" unicode="&#x152;" horiz-adv-x="973" 
d="M510 0q-31 -5 -63 -8.5t-60 -3.5q-86 0 -151.5 27.5t-110.5 74.5t-68 109.5t-23 133.5t23 133.5t68 109.5t110.5 74.5t151.5 27.5q57 0 123 -12h415v-130h-251v-134h239v-130h-239v-142h254v-130h-418zM397 548q-94 0 -146.5 -58t-52.5 -157t52.5 -157t146.5 -58
q33 0 62.5 4t50.5 9v403q-56 14 -113 14z" />
    <glyph glyph-name="oe" unicode="&#x153;" horiz-adv-x="866" 
d="M629 500q96 0 150.5 -57.5t54.5 -155.5q0 -21 -2 -40t-7 -41h-281q1 -44 29.5 -72t87.5 -28q39 0 72 6.5t67 21.5l24 -106q-38 -18 -83.5 -28t-100.5 -10q-58 0 -103 17.5t-77 49.5q-30 -31 -75 -49t-98 -18q-64 0 -112.5 19.5t-81.5 54t-49.5 81t-16.5 100.5t17.5 100.5
t51 81t82 54t109.5 19.5q52 0 92 -14.5t80 -50.5q36 35 76.5 50t93.5 15zM387 245q0 62 -26 99.5t-74 37.5t-74 -36.5t-26 -100.5t26 -100.5t74 -36.5t74 37.5t26 99.5zM623 398q-38 0 -58 -25.5t-21 -66.5h143q4 39 -12 65.5t-52 26.5z" />
    <glyph glyph-name="circumflex" unicode="&#x2c6;" horiz-adv-x="560" 
d="M460 559h-132l-48 82l-48 -82h-132l109 169h142z" />
    <glyph glyph-name="ring" unicode="&#x2da;" horiz-adv-x="410" 
d="M310 650q0 -18 -7 -34.5t-20 -30t-33 -21.5t-45 -8q-26 0 -45.5 8t-32.5 21.5t-20 30t-7 34.5t7 35t20 30.5t32.5 21.5t45.5 8q25 0 45 -8t33 -21.5t20 -30.5t7 -35zM169 650q0 -17 10 -26.5t26 -9.5t26 9.5t10 26.5t-10 26.5t-26 9.5t-26 -9.5t-10 -26.5z" />
    <glyph glyph-name="tilde" unicode="&#x2dc;" horiz-adv-x="600" 
d="M373 562q-22 0 -40.5 6.5t-39.5 16.5q-19 8 -33 14.5t-26 6.5q-17 0 -26 -12.5t-19 -32.5l-89 43q12 33 24.5 55t27.5 36t34 20t43 6t43 -7t39 -18q19 -10 31.5 -14.5t23.5 -4.5q18 0 27.5 11.5t20.5 33.5l86 -44q-14 -30 -27.5 -52t-28 -36t-32 -21t-39.5 -7z" />
    <glyph glyph-name="hungarumlaut" horiz-adv-x="602" 
d="M100 559l56 169h146l-87 -169h-115zM300 559l56 169h146l-87 -169h-115z" />
    <glyph glyph-name="u0400" unicode="&#x400;" horiz-adv-x="531" 
d="M65 666h415v-130h-251v-134h239v-130h-239v-142h254v-130h-418v666zM229 724l-130 124h183l75 -124h-128z" />
    <glyph glyph-name="u0401" unicode="&#x401;" horiz-adv-x="531" 
d="M65 666h415v-130h-251v-134h239v-130h-239v-142h254v-130h-418v666zM94 790q0 30 20.5 50.5t54.5 20.5t54.5 -20.5t20.5 -50.5q0 -31 -20.5 -51t-54.5 -20t-54.5 20t-20.5 51zM309 790q0 30 20.5 50.5t54.5 20.5t54.5 -20.5t20.5 -50.5q0 -31 -20.5 -51t-54.5 -20
t-54.5 20t-20.5 51z" />
    <glyph glyph-name="u0402" unicode="&#x402;" horiz-adv-x="789" 
d="M560 666v-130h-223v-146q41 19 79 28t85 9q111 0 174.5 -56.5t63.5 -155.5q0 -54 -20.5 -98t-58 -76t-89.5 -50t-116 -20l-35 119q70 5 109 31t39 89q0 35 -27.5 62t-82.5 27q-38 0 -68 -8t-53 -22v-269h-164v536h-135v130h522z" />
    <glyph glyph-name="u0403" unicode="&#x403;" horiz-adv-x="505" 
d="M229 0h-164v666h410v-130h-246v-536zM192 724l75 124h183l-130 -124h-128z" />
    <glyph glyph-name="u0404" unicode="&#x404;" horiz-adv-x="627" 
d="M392 678q52 0 104.5 -10t90.5 -29l-24 -121q-30 12 -68.5 20.5t-76.5 8.5q-43 0 -79.5 -8.5t-64.5 -27t-46.5 -47.5t-24.5 -70h269v-128h-267q5 -39 23 -66.5t46 -45.5t65 -26.5t79 -8.5q38 0 76.5 8.5t68.5 20.5l24 -121q-38 -19 -90.5 -29t-104.5 -10q-88 0 -155 26
t-112 72t-68 109t-23 138t23 138t68 109t112 72t155 26z" />
    <glyph glyph-name="u0405" unicode="&#x405;" horiz-adv-x="530" 
d="M502 199q0 -44 -17.5 -82.5t-50.5 -67t-80 -45t-107 -16.5q-55 0 -110 12t-102 35l33 125q35 -17 79 -29.5t95 -12.5q42 0 69 15.5t27 50.5q0 25 -23.5 45.5t-85.5 43.5q-98 37 -143 84.5t-45 121.5q0 97 63.5 148t175.5 51q57 0 109 -12.5t88 -32.5l-28 -123
q-35 17 -76.5 27.5t-85.5 10.5q-37 0 -59.5 -12.5t-22.5 -42.5q0 -14 4 -24t14.5 -19t29.5 -18t48 -21q42 -17 79 -36t64 -44t42.5 -57t15.5 -75z" />
    <glyph glyph-name="u0406" unicode="&#x406;" horiz-adv-x="304" 
d="M234 0h-164v666h164v-666z" />
    <glyph glyph-name="u0407" unicode="&#x407;" horiz-adv-x="304" 
d="M234 0h-164v666h164v-666zM-30 790q0 30 20.5 50.5t54.5 20.5t54.5 -20.5t20.5 -50.5q0 -31 -20.5 -51t-54.5 -20t-54.5 20t-20.5 51zM185 790q0 30 20.5 50.5t54.5 20.5t54.5 -20.5t20.5 -50.5q0 -31 -20.5 -51t-54.5 -20t-54.5 20t-20.5 51z" />
    <glyph glyph-name="u0408" unicode="&#x408;" horiz-adv-x="299" 
d="M234 159q0 -45 -6 -87.5t-21.5 -84t-42.5 -82t-69 -81.5l-113 89q42 50 65 102t23 117v534h164v-507v0z" />
    <glyph glyph-name="u0409" unicode="&#x409;" horiz-adv-x="989" 
d="M624 416q14 2 39 4t54 2q68 0 113.5 -17t73.5 -45t39.5 -63.5t11.5 -72.5q0 -57 -20 -99.5t-57.5 -70t-90 -41t-116.5 -13.5h-211v536h-145l-17 -149q-13 -112 -36 -187.5t-53 -121.5t-65.5 -66.5t-71.5 -23.5l-49 122q27 9 49 30t39 59t29.5 95t19.5 138l21 234h443
v-250zM793 219q0 38 -27 62.5t-81 24.5q-10 0 -28 -1t-33 -3v-179h50q119 0 119 96z" />
    <glyph glyph-name="u040A" unicode="&#x40a;" horiz-adv-x="1002" 
d="M730 422q68 0 113.5 -17t73.5 -45t39.5 -63.5t11.5 -72.5q0 -57 -20 -99.5t-57.5 -70t-90 -41t-116.5 -13.5h-211v271h-244v-271h-164v666h164v-261h244v261h164v-250q14 2 39 4t54 2zM806 219q0 38 -27 62.5t-81 24.5q-10 0 -28 -1t-33 -3v-179h50q119 0 119 96z" />
    <glyph glyph-name="u040B" unicode="&#x40b;" horiz-adv-x="775" 
d="M560 666v-130h-223v-146q22 10 39 17t34 11.5t36.5 6.5t46.5 2q103 0 162 -54.5t59 -167.5v-205h-164v185q0 34 -8.5 56t-24 35t-36.5 18t-45 5q-61 0 -99 -30v-269h-164v536h-135v130h522z" />
    <glyph glyph-name="u040C" unicode="&#x40c;" horiz-adv-x="640" 
d="M65 0v666h164v-319l210 319h185l-225 -329l241 -337h-197l-214 326v-326h-164zM257 724l75 124h183l-130 -124h-128z" />
    <glyph glyph-name="u040D" unicode="&#x40d;" horiz-adv-x="711" 
d="M482 0v430l-253 -430h-164v666h164v-421l253 421h164v-666h-164zM326 724l-130 124h183l75 -124h-128z" />
    <glyph glyph-name="u040E" unicode="&#x40e;" horiz-adv-x="621" 
d="M465 275q-29 -81 -59.5 -136.5t-64.5 -90.5t-71 -51t-80 -19l-52 121q46 6 78.5 22.5t43.5 44.5l-247 500h179l157 -340l93 340h164zM514 859q-19 -70 -72.5 -105.5t-127.5 -35.5q-75 0 -128.5 35.5t-72.5 105.5l121 32q9 -29 27.5 -46.5t52.5 -17.5q32 0 51 17.5
t28 46.5z" />
    <glyph glyph-name="u040F" unicode="&#x40f;" horiz-adv-x="696" 
d="M423 0v-190h-147v190h-211v666h164v-536h238v536h164v-666h-208z" />
    <glyph glyph-name="u0410" unicode="&#x410;" horiz-adv-x="700" 
d="M477 129h-255l-41 -129h-169l248 666h180l248 -666h-169zM264 259h171l-85 281z" />
    <glyph glyph-name="u0411" unicode="&#x411;" horiz-adv-x="595" 
d="M65 666h410v-130h-250v-120q12 2 38 4t46 2q73 0 120.5 -17t75.5 -45t39.5 -63.5t11.5 -72.5q0 -115 -75.5 -169.5t-227.5 -54.5h-188v666zM394 215q0 44 -27 67.5t-81 23.5q-10 0 -28 -1t-33 -3v-179h50q119 0 119 92z" />
    <glyph glyph-name="u0412" unicode="&#x412;" horiz-adv-x="589" 
d="M556 188q0 -45 -20 -80t-57.5 -59t-90 -36.5t-116.5 -12.5h-207v666h239q54 0 96.5 -12t71.5 -33t44.5 -49t15.5 -61q0 -62 -34.5 -102t-100.5 -60q34 -6 63 -19t50.5 -33t33.5 -47t12 -62zM394 201q0 38 -30.5 57.5t-84.5 19.5h-54v-155h58q60 0 85.5 23t25.5 55z
M273 401q43 0 70 19.5t27 55.5q0 32 -23.5 49.5t-65.5 17.5h-56v-142h48z" />
    <glyph glyph-name="u0413" unicode="&#x413;" horiz-adv-x="505" 
d="M229 0h-164v666h410v-130h-246v-536z" />
    <glyph glyph-name="u0414" unicode="&#x414;" horiz-adv-x="773" 
d="M159 0v-171h-147v300h61q17 21 34.5 56t33 96.5t28 154.5t21.5 230h450v-537h80v-300h-147v171h-414zM328 536q-8 -90 -20 -158t-25 -117.5t-26 -81.5t-24 -50h243v407h-148z" />
    <glyph glyph-name="u0415" unicode="&#x415;" horiz-adv-x="531" 
d="M65 666h415v-130h-251v-134h239v-130h-239v-142h254v-130h-418v666z" />
    <glyph glyph-name="u0416" unicode="&#x416;" horiz-adv-x="972" 
d="M404 326l-207 -326h-197l241 337l-225 329h185l203 -319v319h164v-319l203 319h185l-225 -329l241 -337h-197l-207 326v-326h-164v326z" />
    <glyph glyph-name="u0417" unicode="&#x417;" horiz-adv-x="534" 
d="M53 629q18 13 41.5 22t50 15t54 9t51.5 3q48 0 89.5 -10t72 -30.5t48 -52.5t17.5 -75q0 -57 -31 -95.5t-95 -64.5q78 -20 110.5 -60t32.5 -92q0 -49 -17.5 -88t-50.5 -66t-79.5 -41.5t-104.5 -14.5q-68 0 -120 9.5t-97 35.5l22 118q40 -14 80 -24.5t94 -10.5
q18 0 37.5 2.5t36 11.5t27 25t10.5 43q0 36 -28 57t-99 21h-67v120h72q32 0 53.5 6.5t34.5 18t18.5 26t5.5 31.5q0 43 -25.5 59.5t-61.5 16.5q-46 0 -82.5 -11t-74.5 -34z" />
    <glyph glyph-name="u0418" unicode="&#x418;" horiz-adv-x="711" 
d="M482 0v430l-253 -430h-164v666h164v-421l253 421h164v-666h-164z" />
    <glyph glyph-name="u0419" unicode="&#x419;" horiz-adv-x="711" 
d="M482 0v430l-253 -430h-164v666h164v-421l253 421h164v-666h-164zM557 859q-19 -70 -72.5 -105.5t-127.5 -35.5q-75 0 -128.5 35.5t-72.5 105.5l121 32q9 -29 27.5 -46.5t52.5 -17.5q32 0 51 17.5t28 46.5z" />
    <glyph glyph-name="u041A" unicode="&#x41a;" horiz-adv-x="640" 
d="M65 0v666h164v-319l210 319h185l-225 -329l241 -337h-197l-214 326v-326h-164z" />
    <glyph glyph-name="u041B" unicode="&#x41b;" horiz-adv-x="689" 
d="M315 536l-17 -149q-13 -112 -36 -187.5t-53 -121.5t-65.5 -66.5t-71.5 -23.5l-49 122q27 9 49 30t39 59t29.5 95t19.5 138l21 234h443v-666h-164v536h-145z" />
    <glyph glyph-name="u041C" unicode="&#x41c;" horiz-adv-x="864" 
d="M511 106h-158l-130 267l-20 -373h-161l50 666h148l192 -407l192 407h148l50 -666h-161l-20 373z" />
    <glyph glyph-name="u041D" unicode="&#x41d;" horiz-adv-x="702" 
d="M473 0v271h-244v-271h-164v666h164v-261h244v261h164v-666h-164z" />
    <glyph glyph-name="u041E" unicode="&#x41e;" horiz-adv-x="748" 
d="M714 333q0 -71 -23 -133.5t-66.5 -109.5t-106.5 -74.5t-144 -27.5t-144.5 27.5t-107 74.5t-66 109.5t-22.5 133.5t22.5 133.5t66 109.5t107 74.5t144.5 27.5t144 -27.5t106.5 -74.5t66.5 -109.5t23 -133.5zM374 118q43 0 76 16t55.5 44.5t33.5 68t11 86.5t-11 86.5
t-33.5 68t-55.5 44.5t-76 16q-44 0 -76.5 -16t-55 -44.5t-33.5 -68t-11 -86.5t11 -86.5t33.5 -68t55 -44.5t76.5 -16z" />
    <glyph glyph-name="u041F" unicode="&#x41f;" horiz-adv-x="696" 
d="M631 666v-666h-164v536h-238v-536h-164v666h566z" />
    <glyph glyph-name="u0420" unicode="&#x420;" horiz-adv-x="559" 
d="M547 449q0 -53 -23 -95t-63.5 -70.5t-95.5 -43.5t-119 -15h-17v-225h-164v666h192q63 0 116.5 -13t92 -39.5t60 -67.5t21.5 -97zM389 448q0 92 -131 92h-29v-189h27q65 0 99 26t34 71z" />
    <glyph glyph-name="u0421" unicode="&#x421;" horiz-adv-x="627" 
d="M392 678q52 0 104.5 -10t90.5 -29l-24 -121q-30 12 -68.5 20.5t-76.5 8.5q-102 0 -161 -53t-59 -161t59 -161t161 -53q38 0 76.5 8.5t68.5 20.5l24 -121q-38 -19 -90.5 -29t-104.5 -10q-88 0 -155 26t-112 72t-68 109t-23 138t23 138t68 109t112 72t155 26z" />
    <glyph glyph-name="u0422" unicode="&#x422;" horiz-adv-x="550" 
d="M536 666v-130h-179v-536h-164v536h-179v130h522z" />
    <glyph glyph-name="u0423" unicode="&#x423;" horiz-adv-x="621" 
d="M465 275q-29 -81 -59.5 -136.5t-64.5 -90.5t-71 -51t-80 -19l-52 121q46 6 78.5 22.5t43.5 44.5l-247 500h179l157 -340l93 340h164z" />
    <glyph glyph-name="u0424" unicode="&#x424;" horiz-adv-x="906" 
d="M371 48q-73 0 -134.5 20.5t-106.5 58.5t-70.5 92t-25.5 122q0 63 20.5 116t62 91.5t105 61t149.5 24.5v50h164v-50q172 -5 254.5 -83t82.5 -208q0 -61 -25.5 -114.5t-70.5 -93.5t-106.5 -63.5t-134.5 -23.5v-54h-164v54zM709 343q0 89 -46.5 133t-127.5 48v-366
q38 2 70 15t55 36.5t36 57t13 76.5zM197 339q0 -37 11.5 -69t34 -56t54.5 -39t74 -17v366q-84 -3 -129 -53t-45 -132z" />
    <glyph glyph-name="u0425" unicode="&#x425;" horiz-adv-x="654" 
d="M411 335l225 -335h-175l-134 213l-134 -213h-175l225 335l-221 331h174l131 -208l131 208h174z" />
    <glyph glyph-name="u0426" unicode="&#x426;" horiz-adv-x="771" 
d="M65 0v666h164v-536h238v536h164v-536h91v-301h-147v171h-510z" />
    <glyph glyph-name="u0427" unicode="&#x427;" horiz-adv-x="670" 
d="M436 666h164v-666h-164v264q-33 -20 -78.5 -28.5t-94.5 -8.5q-46 0 -84 12t-65 38.5t-42 68.5t-15 103v217h164v-180q0 -41 7 -65.5t21.5 -38.5t36.5 -18.5t52 -4.5q29 0 54 9.5t44 20.5v277z" />
    <glyph glyph-name="u0428" unicode="&#x428;" horiz-adv-x="1038" 
d="M65 0v666h164v-536h208v536h164v-536h208v536h164v-666h-908z" />
    <glyph glyph-name="u0429" unicode="&#x429;" horiz-adv-x="1113" 
d="M973 130h91v-301h-147v171h-852v666h164v-536h208v536h164v-536h208v536h164v-536z" />
    <glyph glyph-name="u042A" unicode="&#x42a;" horiz-adv-x="703" 
d="M431 422q68 0 113.5 -17t73.5 -45t39.5 -63.5t11.5 -72.5q0 -57 -20 -99.5t-57.5 -70t-90 -41t-116.5 -13.5h-211v536h-160v130h324v-250q14 2 39 4t54 2zM507 219q0 38 -27 62.5t-81 24.5q-10 0 -28 -1t-33 -3v-179h50q119 0 119 96z" />
    <glyph glyph-name="u042B" unicode="&#x42b;" horiz-adv-x="874" 
d="M322 422q68 0 113.5 -17t73.5 -45t39.5 -63.5t11.5 -72.5q0 -57 -20 -99.5t-57.5 -70t-90 -41t-116.5 -13.5h-211v666h164v-250q14 2 39 4t54 2zM398 219q0 38 -27 62.5t-81 24.5q-10 0 -28 -1t-33 -3v-179h50q119 0 119 96zM809 0h-164v666h164v-666z" />
    <glyph glyph-name="u042C" unicode="&#x42c;" horiz-adv-x="594" 
d="M322 422q68 0 113.5 -17t73.5 -45t39.5 -63.5t11.5 -72.5q0 -57 -20 -99.5t-57.5 -70t-90 -41t-116.5 -13.5h-211v666h164v-250q14 2 39 4t54 2zM398 219q0 38 -27 62.5t-81 24.5q-10 0 -28 -1t-33 -3v-179h50q119 0 119 96z" />
    <glyph glyph-name="u042D" unicode="&#x42d;" horiz-adv-x="621" 
d="M229 678q88 0 155 -26t112 -72t68 -109t23 -138t-23 -138t-68 -109t-112 -72t-155 -26q-52 0 -104.5 10t-90.5 29l24 121q30 -12 68.5 -20.5t76.5 -8.5q43 0 79.5 8.5t64.5 26.5t46 46.5t23 68.5h-265v128h265q-5 39 -23 67t-46 46.5t-64.5 27.5t-79.5 9
q-38 0 -76.5 -8.5t-68.5 -20.5l-24 121q38 19 90.5 29t104.5 10z" />
    <glyph glyph-name="u042E" unicode="&#x42e;" horiz-adv-x="1058" 
d="M1024 333q0 -71 -23 -133.5t-66.5 -109.5t-106.5 -74.5t-144 -27.5q-73 0 -132 22t-101.5 61t-69 92t-34.5 114h-118v-277h-164v666h164v-264h120q10 58 37 108.5t69.5 88t100 58.5t128.5 21q81 0 144 -27.5t106.5 -74.5t66.5 -110t23 -133zM684 118q43 0 76 16
t55.5 44.5t33.5 68t11 86.5t-11 86.5t-33.5 68t-55.5 44.5t-76 16q-44 0 -76.5 -16t-55 -44.5t-33.5 -68t-11 -86.5t11 -86.5t33.5 -68t55 -44.5t76.5 -16z" />
    <glyph glyph-name="u042F" unicode="&#x42f;" horiz-adv-x="649" 
d="M231 436q0 -53 36 -74t92 -21h61v193h-76q-38 0 -60.5 -8t-34 -21.5t-15 -31.5t-3.5 -37zM217 253q-78 28 -114 78.5t-36 114.5q0 53 19 94t54 69t85 42.5t113 14.5h246v-666h-164v229h-57l-144 -229h-192z" />
    <glyph glyph-name="u0430" unicode="&#x430;" horiz-adv-x="535" 
d="M328 48q-23 -23 -62.5 -40.5t-86.5 -17.5q-33 0 -59 11t-43.5 30t-27 44.5t-9.5 54.5q0 68 42.5 102.5t120.5 40.5q29 2 61.5 3t57.5 2v16q0 80 -89 80q-35 0 -67.5 -8t-59.5 -22l-29 111q35 20 82.5 32.5t103.5 12.5q103 0 161 -53.5t58 -160.5v-286h-154v48zM241 95
q23 0 43.5 6t37.5 16v73q-24 -2 -43 -4.5t-37 -4.5q-49 -6 -49 -46q0 -18 12.5 -29t35.5 -11z" />
    <glyph glyph-name="u0431" unicode="&#x431;" horiz-adv-x="590" 
d="M564 254q0 -69 -23 -119t-59.5 -82t-83 -47.5t-93.5 -15.5q-60 0 -108 22t-81.5 61.5t-51.5 94.5t-18 121q0 61 4.5 112t17 93.5t35.5 79.5t61 72q30 27 71 45.5t82 32t76 24t52 21.5l39 -137q-26 -13 -57.5 -22.5t-64 -19t-64 -21t-58.5 -28.5q-40 -26 -61.5 -62.5
t-22.5 -85.5h5q8 15 22.5 31.5t37 30t54 22.5t72.5 9q54 0 94.5 -18.5t67.5 -50t41 -74t14 -89.5zM406 243q0 21 -3.5 44t-14.5 42t-31 31t-53 12q-15 0 -32.5 -5.5t-32 -20.5t-24 -40t-9.5 -64q0 -17 3.5 -40t14 -43.5t30 -35t51.5 -14.5q29 0 48.5 13t31 32.5t16.5 43.5
t5 45z" />
    <glyph glyph-name="u0432" unicode="&#x432;" horiz-adv-x="544" 
d="M60 0v490h216q111 0 163.5 -27.5t52.5 -94.5q0 -49 -28.5 -78t-69.5 -40q19 -3 38.5 -10t35.5 -20t26.5 -33t10.5 -49q0 -39 -14 -65.5t-41 -42.5t-65.5 -23t-87.5 -7h-237zM280 105q41 0 54.5 11.5t13.5 35.5q0 26 -16 37.5t-56 11.5h-56v-96h60zM276 293
q37 0 50.5 14.5t13.5 34.5q0 22 -14.5 32.5t-50.5 10.5h-55v-92h56z" />
    <glyph glyph-name="u0433" unicode="&#x433;" horiz-adv-x="425" 
d="M404 378h-184v-378h-160v490h344v-112z" />
    <glyph glyph-name="u0434" unicode="&#x434;" horiz-adv-x="642" 
d="M146 0v-123h-133v235h52q30 36 49 106.5t24 161.5l5 110h396v-378h67v-235h-133v123h-327zM277 378q-5 -51 -9.5 -90t-12 -70.5t-18.5 -56.5t-28 -49h170v266h-102z" />
    <glyph glyph-name="u0435" unicode="&#x435;" horiz-adv-x="516" 
d="M277 500q96 0 152 -56.5t56 -156.5q0 -38 -9 -81h-284q2 -45 30.5 -72.5t87.5 -27.5q36 0 75.5 6.5t68.5 19.5l20 -103q-38 -19 -85.5 -29t-98.5 -10q-64 0 -113 18.5t-82 51.5t-50 79t-17 102q0 60 17.5 108t50 81.5t78.5 51.5t103 18zM272 398q-38 0 -58.5 -24.5
t-20.5 -67.5h142q2 8 2 17q0 32 -17 53.5t-48 21.5z" />
    <glyph glyph-name="u0436" unicode="&#x436;" horiz-adv-x="845" 
d="M341 261v229h160v-229l147 229h173l-158 -241l179 -249h-183l-158 237v-237h-160v237l-158 -237h-183l179 249l-158 241h173z" />
    <glyph glyph-name="u0437" unicode="&#x437;" horiz-adv-x="475" 
d="M53 458q36 22 80.5 32t88.5 10q202 0 202 -131q0 -39 -27 -68t-71 -43q51 -11 80 -39t29 -75q0 -76 -54.5 -115t-152.5 -39q-57 0 -104 13.5t-81 36.5l15 102q41 -21 77.5 -32t72.5 -11q38 0 53.5 14t15.5 36q0 23 -16.5 35t-58.5 12h-74v101h66q38 0 57 11t19 37
q0 23 -16 35t-55 12q-30 0 -63.5 -10t-61.5 -24z" />
    <glyph glyph-name="u0438" unicode="&#x438;" horiz-adv-x="589" 
d="M60 0v490h159v-268l166 268h151v-490h-160v272l-164 -272h-152z" />
    <glyph glyph-name="u0439" unicode="&#x439;" horiz-adv-x="589" 
d="M60 0v490h159v-268l166 268h151v-490h-160v272l-164 -272h-152zM496 724q-13 -79 -68 -121t-135 -42t-135 42t-68 121l119 24q6 -29 24.5 -52t59.5 -23q21 0 36 6t24 16t14.5 24.5t9.5 28.5z" />
    <glyph glyph-name="u043A" unicode="&#x43a;" horiz-adv-x="571" 
d="M60 0v490h160v-229l147 229h173l-158 -241l179 -249h-183l-158 237v-237h-160z" />
    <glyph glyph-name="u043B" unicode="&#x43b;" horiz-adv-x="583" 
d="M530 490v-490h-160v378h-102l-4 -44q-7 -80 -24 -143t-43 -107.5t-60.5 -68t-77.5 -23.5l-31 120q25 9 43 28.5t30.5 52t20 79t10.5 108.5l5 110h393z" />
    <glyph glyph-name="u043C" unicode="&#x43c;" horiz-adv-x="746" 
d="M512 490h153l28 -490h-153l-14 287l-108 -225h-96l-121 225l-11 -287h-137l24 490h170l136 -264z" />
    <glyph glyph-name="u043D" unicode="&#x43d;" horiz-adv-x="583" 
d="M60 0v490h160v-187h150v187h160v-490h-160v190h-150v-190h-160z" />
    <glyph glyph-name="u043E" unicode="&#x43e;" horiz-adv-x="574" 
d="M548 245q0 -54 -17 -100.5t-50 -81t-82 -54t-112 -19.5t-112 19.5t-82 54t-50 81t-17 100.5t17 100.5t50 81t82 54t112 19.5t112 -19.5t82 -54t50 -81t17 -100.5zM388 245q0 26 -5 50.5t-16.5 44t-31 31t-48.5 11.5t-48.5 -11.5t-31 -31t-16.5 -44t-5 -50.5t5 -50.5
t16.5 -44t31 -31t48.5 -11.5t48.5 11.5t31 31t16.5 44t5 50.5z" />
    <glyph glyph-name="u043F" unicode="&#x43f;" horiz-adv-x="583" 
d="M60 0v490h470v-490h-160v378h-150v-378h-160z" />
    <glyph glyph-name="u0440" unicode="&#x440;" horiz-adv-x="584" 
d="M60 490h153v-58q48 68 147 68q41 0 77 -17.5t62.5 -50t41.5 -78.5t15 -103q0 -65 -20.5 -113.5t-55 -81.5t-80.5 -49.5t-98 -16.5q-26 0 -46 3.5t-36 8.5v-208h-160v696zM302 377q-27 0 -47 -8.5t-35 -25.5v-227q11 -4 25 -6t32 -2q63 0 91 38.5t28 103.5
q0 54 -22.5 90.5t-71.5 36.5z" />
    <glyph glyph-name="u0441" unicode="&#x441;" horiz-adv-x="454" 
d="M291 500q38 0 74.5 -8t63.5 -22l-16 -114q-19 8 -45.5 14t-53.5 6q-64 0 -96 -35t-32 -96t32 -96t96 -35q27 0 53.5 6t45.5 14l16 -114q-27 -14 -63.5 -22t-74.5 -8q-62 0 -111.5 18.5t-83.5 52t-52 80.5t-18 104t18 104t52 80.5t83.5 52t111.5 18.5z" />
    <glyph glyph-name="u0442" unicode="&#x442;" horiz-adv-x="488" 
d="M24 490h440v-112h-140v-378h-160v378h-140v112z" />
    <glyph glyph-name="u0443" unicode="&#x443;" horiz-adv-x="506" 
d="M113 -206l64 194l-177 502h166l90 -349l89 349h161l-232 -696h-161z" />
    <glyph glyph-name="u0444" unicode="&#x444;" horiz-adv-x="810" 
d="M624 244q0 72 -36 105t-103 38v-294q75 5 107 46.5t32 104.5zM325 706h160v-218q61 0 115 -14t95 -43.5t65 -75t24 -108.5t-24.5 -110.5t-66 -79.5t-95.5 -48.5t-113 -16.5v-198h-160v199q-59 0 -113 14.5t-95.5 44.5t-66 76t-24.5 109q0 67 22 114.5t61.5 78t94.5 45
t121 14.5v217zM186 234q0 -55 34 -95.5t105 -44.5v294q-139 -6 -139 -154z" />
    <glyph glyph-name="u0445" unicode="&#x445;" horiz-adv-x="531" 
d="M5 0l175 248l-169 242h164l90 -135l91 135h164l-170 -242l176 -248h-166l-95 141l-94 -141h-166z" />
    <glyph glyph-name="u0446" unicode="&#x446;" horiz-adv-x="639" 
d="M220 490v-378h150v378h160v-378h85v-245h-133v133h-422v490h160z" />
    <glyph glyph-name="u0447" unicode="&#x447;" horiz-adv-x="569" 
d="M60 490h160v-140q0 -40 16.5 -60t63.5 -20q21 0 35.5 4t20.5 8v208h160v-490h-160v181q-20 -11 -45.5 -18.5t-69.5 -7.5q-83 0 -132 36.5t-49 119.5v179z" />
    <glyph glyph-name="u0448" unicode="&#x448;" horiz-adv-x="865" 
d="M60 0v490h160v-378h136v378h160v-378h136v378h160v-490h-752z" />
    <glyph glyph-name="u0449" unicode="&#x449;" horiz-adv-x="921" 
d="M356 490h160v-378h136v378h160v-378h85v-245h-133v133h-704v490h160v-378h136v378z" />
    <glyph glyph-name="u044A" unicode="&#x44a;" horiz-adv-x="629" 
d="M311 344q6 1 17.5 2.5t23.5 2.5t23.5 1.5t19.5 0.5q65 0 105.5 -16t63 -41t30.5 -57t8 -63q0 -38 -14.5 -70t-42.5 -55t-69.5 -36t-95.5 -13h-229v378h-135v112h295v-146zM357 112q17 0 34.5 2.5t31.5 10.5t22.5 21.5t8.5 36.5q0 29 -20.5 47t-69.5 18q-11 0 -25 -1.5
t-28 -3.5v-131h46z" />
    <glyph glyph-name="u044B" unicode="&#x44b;" horiz-adv-x="787" 
d="M266 112q17 0 34.5 2.5t31.5 10.5t22.5 21.5t8.5 36.5q0 26 -19 45.5t-70 19.5q-14 0 -30 -1.5t-24 -3.5v-131h46zM220 344q6 1 17.5 2.5t23.5 2.5t23.5 1.5t19.5 0.5q65 0 105.5 -16.5t63 -41.5t30.5 -55t8 -56q0 -85 -56.5 -133.5t-165.5 -48.5h-229v490h160v-146z
M574 0v490h160v-490h-160z" />
    <glyph glyph-name="u044C" unicode="&#x44c;" horiz-adv-x="538" 
d="M266 112q17 0 34.5 2.5t31.5 10.5t22.5 21.5t8.5 36.5q0 26 -19 45.5t-70 19.5q-14 0 -30 -1.5t-24 -3.5v-131h46zM220 344q6 1 17.5 2.5t23.5 2.5t23.5 1.5t19.5 0.5q65 0 105.5 -16.5t63 -41.5t30.5 -55t8 -56q0 -85 -56.5 -133.5t-165.5 -48.5h-229v490h160v-146z" />
    <glyph glyph-name="u044D" unicode="&#x44d;" horiz-adv-x="455" 
d="M164 500q62 0 111.5 -17.5t83.5 -49t52 -76.5t18 -99q0 -62 -18 -111.5t-52 -84.5t-83.5 -53.5t-111.5 -18.5q-38 0 -74.5 8t-63.5 22l16 111q19 -8 47.5 -15.5t66.5 -7.5q41 0 74.5 23t40.5 65h-214v100h212q-5 43 -42 64.5t-86 21.5q-27 0 -53.5 -7.5t-45.5 -15.5
l-16 111q27 14 63.5 22t74.5 8z" />
    <glyph glyph-name="u044E" unicode="&#x44e;" horiz-adv-x="841" 
d="M815 245q0 -54 -17 -100.5t-50 -81t-82 -54t-112 -19.5q-96 0 -157 42.5t-87 111.5q-4 11 -7.5 22.5t-5.5 23.5h-77v-190h-160v490h160v-195h76q4 24 14 50q26 70 87 112.5t157 42.5q63 0 112 -19.5t82 -54t50 -81t17 -100.5zM655 245q0 26 -5 50.5t-16.5 44t-31 31
t-48.5 11.5t-48.5 -11.5t-31 -31t-16.5 -44t-5 -50.5t5 -50.5t16.5 -44t31 -31t48.5 -11.5t48.5 11.5t31 31t16.5 44t5 50.5z" />
    <glyph glyph-name="u044F" unicode="&#x44f;" horiz-adv-x="547" 
d="M15 0l153 189q-59 18 -87 52t-28 81q0 78 54.5 118t154.5 40h232v-480h-160v153h-39l-102 -153h-178zM334 243v135h-52q-26 0 -40.5 -7.5t-22 -18t-9 -23t-1.5 -21.5q0 -10 2 -21.5t10.5 -21t24.5 -16t43 -6.5h45z" />
    <glyph glyph-name="u0450" unicode="&#x450;" horiz-adv-x="516" 
d="M277 500q96 0 152 -56.5t56 -156.5q0 -38 -9 -81h-284q2 -45 30.5 -72.5t87.5 -27.5q36 0 75.5 6.5t68.5 19.5l20 -103q-38 -19 -85.5 -29t-98.5 -10q-64 0 -113 18.5t-82 51.5t-50 79t-17 102q0 60 17.5 108t50 81.5t78.5 51.5t103 18zM272 398q-38 0 -58.5 -24.5
t-20.5 -67.5h142q2 8 2 17q0 32 -17 53.5t-48 21.5zM207 559l-116 169h169l76 -169h-129z" />
    <glyph glyph-name="u0451" unicode="&#x451;" horiz-adv-x="516" 
d="M277 500q96 0 152 -56.5t56 -156.5q0 -38 -9 -81h-284q2 -45 30.5 -72.5t87.5 -27.5q36 0 75.5 6.5t68.5 19.5l20 -103q-38 -19 -85.5 -29t-98.5 -10q-64 0 -113 18.5t-82 51.5t-50 79t-17 102q0 60 17.5 108t50 81.5t78.5 51.5t103 18zM272 398q-38 0 -58.5 -24.5
t-20.5 -67.5h142q2 8 2 17q0 32 -17 53.5t-48 21.5zM98 642q0 30 20 52.5t55 22.5t55 -22.5t20 -52.5q0 -31 -20 -53t-55 -22t-55 22t-20 53zM298 642q0 30 20 52.5t55 22.5t55 -22.5t20 -52.5q0 -31 -20 -53t-55 -22t-55 22t-20 53z" />
    <glyph glyph-name="u0452" unicode="&#x452;" horiz-adv-x="585" 
d="M372 161q0 103 -18 156t-61 53q-25 0 -42.5 -9t-28.5 -25v-336h-160v538h-67v104h67v64h160v-64h130v-104h-130v-106q22 35 57 51.5t74 16.5q49 0 83 -20.5t55.5 -54.5t31 -78.5t9.5 -93.5q0 -75 -5.5 -143t-21.5 -127t-45 -109.5t-76 -89.5l-91 84q27 31 42.5 67.5
t24 74.5t10.5 76.5t2 74.5z" />
    <glyph glyph-name="u0453" unicode="&#x453;" horiz-adv-x="425" 
d="M404 378h-184v-378h-160v490h344v-112zM140 559l73 169h175l-116 -169h-132z" />
    <glyph glyph-name="u0454" unicode="&#x454;" horiz-adv-x="454" 
d="M291 500q38 0 74.5 -8t63.5 -22l-16 -111q-19 8 -45.5 14t-53.5 6q-51 0 -81.5 -23.5t-41.5 -63.5h170v-97h-169q11 -38 41.5 -61t80.5 -23q27 0 53.5 6t45.5 14l16 -111q-27 -14 -63.5 -22t-74.5 -8q-62 0 -111.5 18.5t-83.5 52t-52 80.5t-18 104t18 104t52 80.5
t83.5 52t111.5 18.5z" />
    <glyph glyph-name="u0455" unicode="&#x455;" horiz-adv-x="435" 
d="M409 160q0 -41 -15.5 -73t-44 -53.5t-67.5 -32.5t-86 -11q-40 0 -84 7.5t-80 22.5l22 111q31 -13 68.5 -19.5t65.5 -6.5q29 0 50.5 8.5t21.5 28.5q0 18 -19 25.5t-57 21.5q-31 11 -58 24.5t-46.5 32t-30.5 42.5t-11 56q0 80 54 118t141 38q46 0 84 -8.5t73 -28.5
l-22 -105q-27 12 -57 19.5t-63 7.5q-29 0 -44.5 -5.5t-15.5 -22.5t18.5 -24.5t47.5 -18.5q22 -8 49 -19.5t50.5 -29.5t39.5 -43.5t16 -61.5z" />
    <glyph glyph-name="u0456" unicode="&#x456;" horiz-adv-x="280" 
d="M60 0v490h160v-490h-160zM50 633q0 38 25 64t65 26t65 -26t25 -64t-25 -64t-65 -26t-65 26t-25 64z" />
    <glyph glyph-name="u0457" unicode="&#x457;" horiz-adv-x="280" 
d="M60 0v490h160v-490h-160zM-35 642q0 30 20 52.5t55 22.5t55 -22.5t20 -52.5q0 -31 -20 -53t-55 -22t-55 22t-20 53zM165 642q0 30 20 52.5t55 22.5t55 -22.5t20 -52.5q0 -31 -20 -53t-55 -22t-55 22t-20 53z" />
    <glyph glyph-name="u0458" unicode="&#x458;" horiz-adv-x="281" 
d="M222 126q0 -50 -6.5 -95t-23 -87.5t-45 -82t-73.5 -77.5l-105 88q22 25 39.5 50.5t29.5 52.5t18 58t6 67v390h160v-364zM52 633q0 38 25 64t65 26t65 -26t25 -64t-25 -64t-65 -26t-65 26t-25 64z" />
    <glyph glyph-name="u0459" unicode="&#x459;" horiz-adv-x="848" 
d="M530 344q6 1 17.5 2.5t23.5 2.5t23.5 1.5t19.5 0.5q65 0 105.5 -16.5t63 -41.5t30.5 -55t8 -56q0 -85 -56.5 -133.5t-165.5 -48.5h-229v378h-102l-4 -44q-7 -80 -24 -143t-43 -107.5t-60.5 -68t-77.5 -23.5l-31 120q25 9 43 28.5t30.5 52t20 79t10.5 108.5l5 110h393
v-146zM576 112q17 0 34.5 2.5t31.5 10.5t22.5 21.5t8.5 36.5q0 26 -19 45.5t-70 19.5q-14 0 -30 -1.5t-24 -3.5v-131h46z" />
    <glyph glyph-name="u045A" unicode="&#x45a;" horiz-adv-x="848" 
d="M576 112q17 0 34.5 2.5t31.5 10.5t22.5 21.5t8.5 36.5q0 26 -19 45.5t-70 19.5q-14 0 -30 -1.5t-24 -3.5v-131h46zM530 344q6 1 17.5 2.5t23.5 2.5t23.5 1.5t19.5 0.5q65 0 105.5 -16.5t63 -41.5t30.5 -55t8 -56q0 -85 -56.5 -133.5t-165.5 -48.5h-229v190h-150v-190
h-160v490h160v-187h150v187h160v-146z" />
    <glyph glyph-name="u045B" unicode="&#x45b;" horiz-adv-x="585" 
d="M-5 642h67v64h160v-64h130v-104h-130v-106q22 35 57 51.5t74 16.5q49 0 83 -20.5t55.5 -54.5t31 -78.5t9.5 -93.5v-253h-160v256q0 61 -19 89.5t-58 28.5q-25 0 -43.5 -11t-29.5 -27v-336h-160v538h-67v104z" />
    <glyph glyph-name="u045C" unicode="&#x45c;" horiz-adv-x="571" 
d="M60 0v490h160v-229l147 229h173l-158 -241l179 -249h-183l-158 237v-237h-160zM234 559l73 169h175l-116 -169h-132z" />
    <glyph glyph-name="u045D" unicode="&#x45d;" horiz-adv-x="589" 
d="M60 0v490h159v-268l166 268h151v-490h-160v272l-164 -272h-152zM252 559l-116 169h169l76 -169h-129z" />
    <glyph glyph-name="u045E" unicode="&#x45e;" horiz-adv-x="506" 
d="M113 -206l64 194l-177 502h166l90 -349l89 349h161l-232 -696h-161zM455 724q-13 -79 -68 -121t-135 -42t-135 42t-68 121l119 24q6 -29 24.5 -52t59.5 -23q21 0 36 6t24 16t14.5 24.5t9.5 28.5z" />
    <glyph glyph-name="u045F" unicode="&#x45f;" horiz-adv-x="583" 
d="M220 490v-378h150v378h160v-490h-169v-164h-133v164h-168v490h160z" />
    <glyph glyph-name="u0460" unicode="&#x460;" horiz-adv-x="987" 
d="M927 666q1 -8 3.5 -27.5t5 -47t4.5 -61t2 -69.5q0 -81 -21 -151t-55.5 -128t-77.5 -103.5t-88 -78.5h-74q-13 12 -30 30t-35.5 40.5t-36.5 48.5t-32 52q-12 -20 -32 -44t-42 -48t-44 -45t-39 -34h-74q-50 39 -87 90t-61 110.5t-35.5 126t-11.5 137.5q0 100 21 202h156
q-19 -104 -19 -193q0 -67 9 -116.5t23.5 -87t33 -65.5t37.5 -51q29 23 56 62.5t44 82.5q-11 49 -14.5 84.5t-3.5 64.5q0 18 1 43.5t4 54.5t8.5 60.5t15.5 60.5h156q-7 -18 -11.5 -39t-7.5 -47t-4 -59.5t-1 -77.5q0 -105 29.5 -178t74.5 -112q30 21 52 54t36 74.5t20.5 90
t6.5 100.5q0 27 -2 55t-4.5 53.5t-5.5 47.5t-6 38h156z" />
    <glyph glyph-name="u0461" unicode="&#x461;" horiz-adv-x="783" 
d="M738 479q5 -19 8.5 -49t3.5 -68q0 -65 -16 -122t-42.5 -103t-60.5 -81t-70 -56h-69q-31 23 -60 53t-58 75q-26 -41 -53 -72t-56 -56h-69q-33 21 -60.5 56.5t-48 80t-32 95.5t-11.5 102q0 71 15 145h150q-3 -11 -5.5 -27.5t-4.5 -36t-3 -39.5t-1 -36q0 -49 5.5 -82
t14.5 -55.5t22 -38.5t28 -30q20 17 39.5 45t27.5 62q-5 27 -6.5 52.5t-1.5 32.5q0 12 0.5 30.5t2.5 39.5t5 43t8 40h150q-7 -32 -11 -71t-4 -102q0 -38 6.5 -65t16 -47t21 -34t20.5 -24q31 34 48.5 80.5t17.5 122.5q0 40 -6 77t-11 63h150z" />
    <glyph glyph-name="u0462" unicode="&#x462;" horiz-adv-x="630" 
d="M101 609v57h164v-57h190v-130h-190v-79q14 2 39 4t54 2q62 0 107 -14.5t74 -40t43 -59.5t14 -73q0 -111 -71 -165t-194 -54h-230v479h-88v130h88zM434 211q0 79 -108 79q-10 0 -28 -1t-33 -3v-163h50q119 0 119 88z" />
    <glyph glyph-name="u0463" unicode="&#x463;" horiz-adv-x="595" 
d="M463 378h-186v-54q17 3 40 5t42 2q60 0 100 -13.5t64 -35.5t34.5 -49.5t10.5 -55.5q0 -91 -56.5 -134t-165.5 -43h-229v378h-93v112h93v216h160v-216h186v-112zM335 112q45 0 65 15.5t20 44.5q0 21 -16 38.5t-61 17.5q-48 0 -66 -5v-111h58z" />
    <glyph glyph-name="u0464" unicode="&#x464;" horiz-adv-x="957" 
d="M722 678q52 0 104.5 -10t90.5 -29l-24 -121q-30 12 -68.5 20.5t-76.5 8.5q-43 0 -79.5 -8.5t-64.5 -27t-46.5 -47.5t-24.5 -70h269v-128h-267q5 -39 23 -66.5t46 -45.5t65 -26.5t79 -8.5q38 0 76.5 8.5t68.5 20.5l24 -121q-38 -19 -90.5 -29t-104.5 -10
q-78 0 -139.5 20.5t-105.5 57t-71.5 87.5t-36.5 113h-140v-266h-164v666h164v-272h139q9 63 35.5 115t71 89.5t106.5 58.5t141 21z" />
    <glyph glyph-name="u0465" unicode="&#x465;" horiz-adv-x="724" 
d="M561 500q38 0 74.5 -8t63.5 -22l-16 -111q-19 8 -45.5 14t-53.5 6q-51 0 -81.5 -23.5t-41.5 -63.5h170v-97h-169q11 -38 41 -61t81 -23q27 0 53.5 6t45.5 14l16 -111q-27 -14 -63.5 -22t-74.5 -8q-48 0 -92 12t-79 37t-59 63.5t-32 92.5h-79v-195h-160v490h160v-198h79
q4 49 27 87.5t58.5 65.5t81 41t95.5 14z" />
    <glyph glyph-name="u0466" unicode="&#x466;" horiz-adv-x="770" 
d="M536 188h-66v-188h-164v188h-66l-69 -188h-169l288 666h196l288 -666h-169zM285 318h206l-105 247z" />
    <glyph glyph-name="u0467" unicode="&#x467;" horiz-adv-x="654" 
d="M432 136h-38v-136h-138v136h-37l-50 -136h-162l222 490h188l227 -490h-162zM255 229h141l-72 178z" />
    <glyph glyph-name="u0468" unicode="&#x468;" horiz-adv-x="1063" 
d="M829 188h-66v-188h-164v188h-66l-69 -188h-169l81 188h-147v-188h-164v666h164v-350h203l151 350h196l288 -666h-169zM578 315h206l-105 250z" />
    <glyph glyph-name="u0469" unicode="&#x469;" horiz-adv-x="938" 
d="M60 0v490h160v-261h177l116 261h188l227 -490h-162l-50 136h-38v-136h-138v136h-37l-50 -136h-162l63 136h-134v-136h-160zM539 229h141l-72 178z" />
    <glyph glyph-name="u046A" unicode="&#x46a;" horiz-adv-x="756" 
d="M463 536h-168l84 -143zM54 666h650l-196 -294q79 -13 124.5 -52t69.5 -92t32.5 -113.5t12.5 -114.5h-161q-8 84 -20 136.5t-28 82.5t-35.5 42t-41.5 15v-276h-164v276q-22 -3 -41.5 -15t-35.5 -42t-28.5 -82.5t-19.5 -136.5h-161q4 54 15.5 115.5t37.5 115t71 92.5
t116 49z" />
    <glyph glyph-name="u046B" unicode="&#x46b;" horiz-adv-x="655" 
d="M384 378h-118l60 -95zM76 490h501l-141 -222q57 -9 96 -37.5t64 -67t37 -81.5t15 -82h-155q-6 60 -17 95t-24 53t-26.5 24t-22.5 8v-180h-152v180q-10 -2 -23.5 -8t-26.5 -24t-24 -53t-16 -95h-156q3 39 17.5 83t40.5 83t65 67t90 35z" />
    <glyph glyph-name="u046C" unicode="&#x46c;" horiz-adv-x="1092" 
d="M775 536h-168l84 -143zM1016 666l-196 -294q79 -13 124.5 -52t69.5 -92t32.5 -113.5t12.5 -114.5h-161q-8 84 -20 136.5t-28 82.5t-35.5 42t-41.5 15v-276h-164v276q-22 -3 -41.5 -15t-35.5 -42t-28.5 -82.5t-19.5 -136.5h-161q4 54 14.5 103t28 88t40.5 64.5t53 33.5
h-230v-289h-164v666h164v-249h301l-164 249h650z" />
    <glyph glyph-name="u046D" unicode="&#x46d;" horiz-adv-x="899" 
d="M446 292l-126 198h501l-141 -222q57 -9 96 -37.5t64 -67t37 -81.5t15 -82h-155q-6 60 -17 95t-24 53t-26.5 24t-22.5 8v-180h-152v180q-10 -2 -23.5 -8t-26.5 -24t-24 -53t-16 -95h-156q2 23 11 52.5t24.5 57.5t37 51t48.5 34h-150v-195h-160v490h160v-198h226zM628 378
h-118l60 -95z" />
    <glyph glyph-name="u046E" unicode="&#x46e;" horiz-adv-x="591" 
d="M405 367q48 -13 77 -33t45 -43.5t21.5 -47.5t5.5 -45q0 -41 -12 -78t-37 -65t-65 -45t-95 -17q-44 0 -79.5 4.5t-63.5 4.5q-21 0 -35 -12.5t-14 -42.5q0 -20 12 -36.5t44 -16.5q20 0 46.5 8.5t67.5 8.5q33 0 64 -6t62 -17l-15 -102q-27 9 -54 14t-56 5q-20 0 -35 -3
t-30 -6.5t-32 -6.5t-41 -3q-40 0 -70 12.5t-50 34t-30 50.5t-10 62q0 88 42.5 130.5t122.5 42.5q26 0 56.5 -4t57.5 -4q24 0 40.5 7.5t27 20t15 28t4.5 32.5q0 53 -25 74t-74 21q-23 0 -56.5 -10t-59.5 -27l-43 88q15 12 34 21.5t38 16t35.5 11t26.5 6.5q13 3 30 9
t32.5 16.5t26.5 27t11 40.5q0 10 -3 21t-12.5 20t-26 15t-43.5 6q-49 0 -93.5 -19t-70.5 -45l-49 102q11 12 30 26.5t47 28t65 22.5t84 9q36 0 76 -5.5t73.5 -22t55.5 -47t22 -80.5q0 -51 -29 -92.5t-89 -63.5zM366 724h-158l-93 124h135l37 -52l37 52h135z" />
    <glyph glyph-name="u046F" unicode="&#x46f;" horiz-adv-x="496" 
d="M457 384q0 -48 -27.5 -75.5t-79.5 -46.5q54 -11 85.5 -45.5t31.5 -82.5q0 -38 -14.5 -65t-38.5 -44.5t-56 -26t-67 -8.5q-31 0 -57.5 3t-39.5 3q-23 0 -32.5 -11.5t-9.5 -33.5q0 -37 44 -37q19 0 41 6t55 6q50 0 106 -20l-21 -94q-49 17 -89 17q-13 0 -23.5 -2t-21.5 -5
q-13 -2 -28 -4.5t-47 -2.5q-27 0 -51 8.5t-42 25.5t-28.5 41.5t-10.5 57.5q0 45 12 74t31.5 46.5t43.5 24t47 6.5q26 0 48.5 -3t39.5 -3q22 0 37 11.5t15 42.5q0 55 -65 55q-42 0 -96 -35l-34 83q26 17 57 29.5t55 20.5q38 13 56.5 25t18.5 31q0 25 -17.5 31t-42.5 6
q-27 0 -68.5 -13t-78.5 -38l-52 90q48 31 102.5 49.5t118.5 18.5q40 0 75 -6t61.5 -20t41.5 -36t15 -54zM325 559h-142l-109 169h132l48 -82l48 82h132z" />
    <glyph glyph-name="u0470" unicode="&#x470;" horiz-adv-x="802" 
d="M325 666h164v-348q21 0 36 7t27 25t21.5 48t19.5 77q6 31 14.5 57.5t22 48.5t32.5 39t47 29l122 -82q-20 -11 -36 -26.5t-29 -38.5t-24.5 -54t-22.5 -72q-17 -61 -40.5 -98.5t-52.5 -58t-63.5 -27.5t-73.5 -7v-185h-164v185q-49 1 -86 9t-66 30.5t-51.5 62t-41.5 104.5
l-69 233h168l56 -194q9 -32 19 -53.5t20.5 -34.5t23 -18.5t27.5 -5.5v348z" />
    <glyph glyph-name="u0471" unicode="&#x471;" horiz-adv-x="842" 
d="M726 147q-18 -47 -43 -76t-53.5 -45t-60 -21t-63.5 -5v-206h-160v206q-49 1 -91 11.5t-75 33.5t-56.5 60.5t-35.5 91.5l-63 293h167l52 -248q24 -113 102 -130v594h160v-594q35 8 54.5 40.5t32.5 89.5q10 44 21 85t25.5 74.5t34.5 59.5t47 40l134 -59q-35 -22 -53.5 -55
t-29.5 -72t-20.5 -82.5t-25.5 -85.5z" />
    <glyph glyph-name="u0472" unicode="&#x472;" horiz-adv-x="748" 
d="M714 333q0 -71 -23 -133.5t-66.5 -109.5t-106.5 -74.5t-144 -27.5t-144.5 27.5t-107 74.5t-66 109.5t-22.5 133.5q0 70 22.5 133t66 110t107 74.5t144.5 27.5t144 -27.5t106.5 -74.5t66.5 -110t23 -133zM202 275q12 -71 55.5 -114t116.5 -43q42 0 73.5 14.5t53.5 41
t34 62.5t14 80q-22 -21 -47 -37.5t-56 -16.5q-21 0 -40.5 7t-38.5 16t-38 16t-40 7q-51 0 -87 -33zM199 360q22 21 47 37.5t56 16.5q23 0 42 -7t37 -16t36.5 -16t41.5 -7q50 0 84 31q-14 67 -56 108t-113 41q-81 0 -125 -51t-50 -137z" />
    <glyph glyph-name="u0473" unicode="&#x473;" horiz-adv-x="574" 
d="M548 245q0 -54 -17 -100.5t-50 -81t-82 -54t-112 -19.5t-112 19.5t-82 54t-50 81t-17 100.5t17 100.5t50 81t82 54t112 19.5t112 -19.5t82 -54t50 -81t17 -100.5zM188 269q11 14 24 24.5t35 10.5q13 0 25 -5t23.5 -11t24 -11t26.5 -5q23 0 39 13q-7 40 -29.5 68.5
t-68.5 28.5q-48 0 -72.5 -31.5t-26.5 -81.5zM189 203q4 -40 28 -67.5t70 -27.5q48 0 71 28.5t28 87.5q-13 -16 -25.5 -26.5t-38.5 -10.5q-11 0 -21 4.5t-20.5 10t-22 10t-24.5 4.5q-12 0 -23 -2.5t-22 -10.5z" />
    <glyph glyph-name="u0474" unicode="&#x474;" horiz-adv-x="644" 
d="M397 0h-172l-225 666h172l157 -496l65 232q19 70 36.5 116t36.5 77.5t41.5 53t53.5 42.5l91 -111q-20 -11 -36.5 -27.5t-31.5 -41t-30 -59t-31 -82.5z" />
    <glyph glyph-name="u0475" unicode="&#x475;" horiz-adv-x="518" 
d="M293 250q17 60 33.5 104.5t35 76t39.5 50t47 24.5l80 -102q-30 -12 -60 -60t-65 -152l-64 -191h-170l-170 490h161l103 -344z" />
    <glyph glyph-name="u0476" unicode="&#x476;" horiz-adv-x="644" 
d="M397 0h-172l-225 666h172l157 -496l65 232q19 70 36.5 116t36.5 77.5t41.5 53t53.5 42.5l91 -111q-20 -11 -36.5 -27.5t-31.5 -41t-30 -59t-31 -82.5zM154 724l-130 124h183l75 -124h-128zM396 724l-130 124h183l75 -124h-128z" />
    <glyph glyph-name="u0477" unicode="&#x477;" horiz-adv-x="518" 
d="M293 250q17 60 33.5 104.5t35 76t39.5 50t47 24.5l80 -102q-30 -12 -60 -60t-65 -152l-64 -191h-170l-170 490h161l103 -344zM97 559l-116 169h169l76 -169h-129zM332 559l-116 169h169l76 -169h-129z" />
    <glyph glyph-name="u0478" unicode="&#x478;" horiz-adv-x="1240" 
d="M714 333q0 -71 -23 -133.5t-66.5 -109.5t-106.5 -74.5t-144 -27.5t-144.5 27.5t-107 74.5t-66 109.5t-22.5 133.5t22.5 133.5t66 109.5t107 74.5t144.5 27.5t144 -27.5t106.5 -74.5t66.5 -109.5t23 -133.5zM374 118q43 0 76 16t55.5 44.5t33.5 68t11 86.5t-11 86.5
t-33.5 68t-55.5 44.5t-76 16q-44 0 -76.5 -16t-55 -44.5t-33.5 -68t-11 -86.5t11 -86.5t33.5 -68t55 -44.5t76.5 -16zM847 -206l64 194l-177 502h166l90 -349l89 349h161l-232 -696h-161z" />
    <glyph glyph-name="u0479" unicode="&#x479;" horiz-adv-x="1044" 
d="M548 245q0 -54 -17 -100.5t-50 -81t-82 -54t-112 -19.5t-112 19.5t-82 54t-50 81t-17 100.5t17 100.5t50 81t82 54t112 19.5t112 -19.5t82 -54t50 -81t17 -100.5zM388 245q0 26 -5 50.5t-16.5 44t-31 31t-48.5 11.5t-48.5 -11.5t-31 -31t-16.5 -44t-5 -50.5t5 -50.5
t16.5 -44t31 -31t48.5 -11.5t48.5 11.5t31 31t16.5 44t5 50.5zM651 -206l64 194l-177 502h166l90 -349l89 349h161l-232 -696h-161z" />
    <glyph glyph-name="u047A" unicode="&#x47a;" horiz-adv-x="810" 
d="M467 124q72 17 108.5 73t36.5 136q0 95 -35 146.5t-110 64.5v-51h-124v51q-75 -13 -110 -64.5t-35 -146.5q0 -80 36.5 -136t108.5 -73v47h124v-47zM343 -72v64q-70 8 -127 35t-97.5 70.5t-62.5 103t-22 132.5q0 72 22 131.5t62.5 104t97.5 71.5t127 35v61h124v-61
q70 -8 127 -35t97.5 -71.5t62.5 -104t22 -131.5q0 -73 -22 -132.5t-62.5 -103t-97.5 -70.5t-127 -35v-64h-124z" />
    <glyph glyph-name="u047B" unicode="&#x47b;" horiz-adv-x="622" 
d="M369 544v-49q54 -8 96 -30t71 -55t44.5 -75t15.5 -90t-15.5 -90t-44.5 -75t-71 -55t-96 -30v-47h-113v46q-57 7 -100 29t-72 55t-43.5 76t-14.5 91t15 90.5t44 75.5t72 55t99 30v48h113zM369 155v-38q37 13 52 49t15 79q0 47 -15 82t-52 47v-37h-113v38q-38 -8 -54 -44
t-16 -86q0 -21 4 -42t12 -38.5t21.5 -30.5t32.5 -19v40h113z" />
    <glyph glyph-name="u047C" unicode="&#x47c;" horiz-adv-x="942" 
d="M553 386v-123q0 -28 7 -53.5t19 -44.5t28 -30.5t34 -11.5q26 0 45.5 14.5t32 38.5t19 56t6.5 68q0 48 -4.5 86t-16.5 67t-32.5 50t-53.5 36l29 129q73 -21 120 -56.5t74 -80t37.5 -95.5t10.5 -104q0 -89 -22 -153.5t-59.5 -107t-88.5 -63t-109 -20.5q-57 0 -95.5 30.5
t-62.5 82.5q-24 -52 -64.5 -82.5t-108.5 -30.5q-56 0 -104.5 20t-84 60t-55.5 100t-20 139q0 62 13 120.5t41.5 107t74.5 83.5t113 50l29 -129q-33 -15 -53.5 -36t-32.5 -50t-16.5 -67t-4.5 -86q0 -36 6.5 -68t19 -56t32 -38.5t45.5 -14.5q23 0 40 11.5t27.5 30.5t15.5 44.5
t5 53.5v123h164zM380 595q21 11 31.5 25.5t10.5 28.5q0 19 -9.5 29.5t-28.5 17.5l72 60q38 -9 58 -31.5t20 -57.5t-22.5 -63.5t-61.5 -45.5zM244 768q40 139 160 139q31 0 62 -10.5t66 -30t76.5 -47t92.5 -61.5l-40 -69l-138 81q-38 22 -63 29.5t-51 7.5q-25 0 -40 -15.5
t-26 -54.5z" />
    <glyph glyph-name="u047D" unicode="&#x47d;" horiz-adv-x="758" 
d="M186 214q0 -49 16 -77.5t51 -28.5q27 0 39 26.5t12 71.5v84h150v-84q0 -45 12 -71.5t39 -26.5q35 0 51 28.5t16 77.5q0 60 -24 98.5t-68 52.5l39 120q109 -30 161 -93.5t52 -171.5q0 -60 -19 -103t-48.5 -71.5t-66 -42t-71.5 -13.5q-52 0 -90 18.5t-58 64.5
q-10 -23 -26.5 -39t-36.5 -25.5t-43 -14t-45 -4.5q-39 0 -75 13.5t-64.5 41.5t-45.5 71t-17 102q0 110 52.5 173.5t161.5 93.5l39 -120q-45 -14 -69 -54.5t-24 -96.5zM294 479q21 11 31.5 25.5t10.5 28.5q0 19 -9.5 29.5t-28.5 17.5l72 60q38 -9 58 -31.5t20 -57.5
t-22.5 -63.5t-61.5 -45.5zM171 645q40 139 160 139q31 0 62 -10.5t66 -30t76.5 -47t92.5 -61.5l-40 -69l-138 81q-38 22 -63 29.5t-51 7.5q-25 0 -40 -15.5t-26 -54.5z" />
    <glyph glyph-name="u047E" unicode="&#x47e;" horiz-adv-x="987" 
d="M665 693v54h-118v-54h-98v54h-118v-54h-97v116h528v-116h-97zM927 666q1 -8 3.5 -27.5t5 -47t4.5 -61t2 -69.5q0 -81 -21 -151t-55.5 -128t-77.5 -103.5t-88 -78.5h-74q-13 12 -30 30t-35.5 40.5t-36.5 48.5t-32 52q-12 -20 -32 -44t-42 -48t-44 -45t-39 -34h-74
q-50 39 -87 90t-61 110.5t-35.5 126t-11.5 137.5q0 100 21 202h156q-19 -104 -19 -193q0 -67 9 -116.5t23.5 -87t33 -65.5t37.5 -51q29 23 56 62.5t44 82.5q-11 49 -14.5 84.5t-3.5 64.5q0 18 1 43.5t4 54.5t8.5 60.5t15.5 60.5h156q-7 -18 -11.5 -39t-7.5 -47t-4 -59.5
t-1 -77.5q0 -105 29.5 -178t74.5 -112q30 21 52 54t36 74.5t20.5 90t6.5 100.5q0 27 -2 55t-4.5 53.5t-5.5 47.5t-6 38h156z" />
    <glyph glyph-name="u047F" unicode="&#x47f;" horiz-adv-x="783" 
d="M524 526v48h-89v-48h-79v48h-89v-48h-79v112h415v-112h-79zM738 479q5 -19 8.5 -49t3.5 -68q0 -65 -16 -122t-42.5 -103t-60.5 -81t-70 -56h-69q-31 23 -60 53t-58 75q-26 -41 -53 -72t-56 -56h-69q-33 21 -60.5 56.5t-48 80t-32 95.5t-11.5 102q0 71 15 145h150
q-3 -11 -5.5 -27.5t-4.5 -36t-3 -39.5t-1 -36q0 -49 5.5 -82t14.5 -55.5t22 -38.5t28 -30q20 17 39.5 45t27.5 62q-5 27 -6.5 52.5t-1.5 32.5q0 12 0.5 30.5t2.5 39.5t5 43t8 40h150q-7 -32 -11 -71t-4 -102q0 -38 6.5 -65t16 -47t21 -34t20.5 -24q31 34 48.5 80.5
t17.5 122.5q0 40 -6 77t-11 63h150z" />
    <glyph glyph-name="u0480" unicode="&#x480;" horiz-adv-x="610" 
d="M455 -171h-124v165q-71 10 -126 39.5t-93 74t-58 102t-20 123.5q0 75 23 138t68 109t112 72t155 26q52 0 104.5 -10t90.5 -29l-24 -121q-30 12 -68.5 20.5t-76.5 8.5q-102 0 -161 -53t-59 -161q0 -109 66 -167.5t191 -58.5v-278z" />
    <glyph glyph-name="u0481" unicode="&#x481;" horiz-adv-x="454" 
d="M291 500q38 0 74.5 -8t63.5 -22l-16 -114q-19 8 -45.5 14t-53.5 6q-64 0 -96 -35t-32 -96t32 -96t96 -35h63v-234h-104v110h-2q-42 0 -91.5 18.5t-83.5 52t-52 80.5t-18 104t18 104t52 80.5t83.5 52t111.5 18.5z" />
    <glyph glyph-name="u0482" unicode="&#x482;" horiz-adv-x="502" 
d="M96 468l23 77l154 -48l65 193l83 -29l-63 -190l135 -41l-24 -77l-136 42l-64 -193l145 -44l-23 -78l-146 45l-67 -202l-84 27l65 202l-142 44l24 76l144 -44l64 192z" />
    <glyph glyph-name="u0483" unicode="&#x483;" 
d="M-351 663v-67h-106v133h335v66h106v-132h-335z" />
    <glyph glyph-name="u0484" unicode="&#x484;" 
d="M-111 610q-11 39 -26 54.5t-40 15.5q-26 0 -51 -7.5t-63 -29.5l-138 -81l-40 69q51 34 92.5 61.5t76.5 47t66 30t62 10.5q120 0 160 -139z" />
    <glyph glyph-name="u0485" unicode="&#x485;" 
d="M-277 599q-39 17 -61.5 45.5t-22.5 63.5t20 57.5t58 31.5l72 -60q-19 -7 -28.5 -17.5t-9.5 -29.5q0 -14 10.5 -28.5t31.5 -25.5z" />
    <glyph glyph-name="u0486" unicode="&#x486;" 
d="M-346 635q21 11 31.5 25.5t10.5 28.5q0 19 -9.5 29.5t-28.5 17.5l72 60q38 -9 58 -31.5t20 -57.5t-22.5 -63.5t-61.5 -45.5z" />
    <glyph glyph-name="u0487" unicode="&#x487;" 
d="M-465 645q40 139 160 139q31 0 62 -10.5t66 -30t76.5 -47t92.5 -61.5l-40 -69l-138 81q-38 22 -63 29.5t-51 7.5q-25 0 -40 -15.5t-26 -54.5z" />
    <glyph glyph-name="u0488" unicode="&#x488;" 
d="M-230 -236q-12 46 -53 46q-20 0 -34.5 -12.5t-18.5 -33.5h-81q8 54 44.5 84.5t89.5 30.5t89.5 -30.5t45.5 -84.5h-82zM-613 -79q-12 46 -53 46q-20 0 -34.5 -12.5t-18.5 -33.5h-81q8 54 44.5 84.5t89.5 30.5t89.5 -30.5t45.5 -84.5h-82zM-704 201q-12 46 -53 46
q-20 0 -34.5 -12.5t-18.5 -33.5h-81q8 54 44.5 84.5t89.5 30.5t89.5 -30.5t45.5 -84.5h-82zM-230 616q-12 46 -53 46q-20 0 -34.5 -12.5t-18.5 -33.5h-81q8 54 44.5 84.5t89.5 30.5t89.5 -30.5t45.5 -84.5h-82zM-613 473q-12 46 -53 46q-20 0 -34.5 -12.5t-18.5 -33.5h-81
q8 54 44.5 84.5t89.5 30.5t89.5 -30.5t45.5 -84.5h-82zM-40 -79q9 54 45.5 84.5t89.5 30.5t89.5 -30.5t44.5 -84.5h-81q-4 21 -18.5 33.5t-34.5 12.5q-41 0 -53 -46h-82zM51 201q9 54 45.5 84.5t89.5 30.5t89.5 -30.5t44.5 -84.5h-81q-4 21 -18.5 33.5t-34.5 12.5
q-41 0 -53 -46h-82zM-40 473q9 54 45.5 84.5t89.5 30.5t89.5 -30.5t44.5 -84.5h-81q-4 21 -18.5 33.5t-34.5 12.5q-41 0 -53 -46h-82z" />
    <glyph glyph-name="u0489" unicode="&#x489;" 
d="M153 521q-39 -8 -80.5 -33t-75.5 -58l-64 79q35 32 81 54.5t100 32.5zM-732 -65q39 8 80.5 33t75.5 58l64 -79q-35 -32 -81 -54.5t-100 -32.5zM-632 660q13 -38 42.5 -76t66.5 -68l-71 -73q-36 32 -63.5 74.5t-44.5 95.5zM-213 752q-19 -32 -28 -74.5t-9 -87.5v-14
l-101 5v5q0 48 14 95.5t43 92.5zM-364 -270q19 32 28 74.5t9 87.5v14l101 -5v-5q0 -48 -14 -95.5t-43 -92.5zM66 -183q-19 35 -54.5 67.5t-77.5 55.5l58 84q41 -25 75.5 -61.5t58.5 -86.5zM-824 312q33 -21 79.5 -32t94.5 -11l-8 -101q-48 2 -97 17.5t-94 46.5zM214 136
q-33 21 -79.5 32t-94.5 11l8 101q48 -2 97 -17.5t94 -46.5z" />
    <glyph glyph-name="u048A" unicode="&#x48a;" horiz-adv-x="755" 
d="M482 0v430l-253 -430h-164v666h164v-421l253 421h164v-536h97l-51 -301h-147l29 171h-92zM557 859q-19 -70 -72.5 -105.5t-127.5 -35.5q-75 0 -128.5 35.5t-72.5 105.5l121 32q9 -29 27.5 -46.5t52.5 -17.5q32 0 51 17.5t28 46.5z" />
    <glyph glyph-name="u048B" unicode="&#x48b;" horiz-adv-x="654" 
d="M60 0v490h159v-268l166 268h151v-360h105l-45 -263h-128l22 133h-114v272l-164 -272h-152zM496 724q-13 -79 -68 -121t-135 -42t-135 42t-68 121l119 24q6 -29 24.5 -52t59.5 -23q21 0 36 6t24 16t14.5 24.5t9.5 28.5z" />
    <glyph glyph-name="u048C" unicode="&#x48c;" horiz-adv-x="613" 
d="M341 422q68 0 113.5 -17t73.5 -45t39.5 -63.5t11.5 -72.5q0 -57 -20 -99.5t-57.5 -70t-90 -41t-116.5 -13.5h-211v536h-73v130h73v98h164v-98h200v-130h-200v-120q14 2 39 4t54 2zM417 219q0 38 -27 62.5t-81 24.5q-10 0 -28 -1t-33 -3v-179h50q119 0 119 96z" />
    <glyph glyph-name="u048D" unicode="&#x48d;" horiz-adv-x="595" 
d="M463 378h-186v-54q17 3 40 5t42 2q60 0 100 -12.5t64 -33.5t34.5 -49t10.5 -59q0 -91 -56.5 -134t-165.5 -43h-229v378h-93v112h93v216h160v-216h186v-112zM335 112q45 0 65 15.5t20 44.5q0 21 -16 38.5t-61 17.5q-48 0 -66 -5v-111h58z" />
    <glyph glyph-name="u048E" unicode="&#x48e;" horiz-adv-x="559" 
d="M547 449q0 -61 -27 -106t-75 -74l53 -86h-110l-32 51q-42 -9 -92 -9h-35v-225h-164v666h192q63 0 116.5 -13t92 -39.5t60 -67.5t21.5 -97zM389 448q0 46 -30.5 69t-100.5 23h-29v-189h38t17 1l-40 66h110l18 -30q17 23 17 60z" />
    <glyph glyph-name="u048F" unicode="&#x48f;" horiz-adv-x="584" 
d="M60 490h153v-58q48 68 147 68q41 0 77 -17.5t62.5 -50t41.5 -78.5t15 -103q0 -88 -36 -146t-93 -87l42 -88h-108l-29 62q-8 -1 -15 -1.5t-15 -0.5q-26 0 -46 3.5t-36 8.5v-208h-160v696zM302 377q-52 0 -82 -34v-227q11 -4 25 -6t32 -2l-35 74h108l17 -37q15 19 22 45.5
t7 59.5q0 54 -22.5 90.5t-71.5 36.5z" />
    <glyph glyph-name="u0490" unicode="&#x490;" horiz-adv-x="505" 
d="M475 757v-221h-246v-536h-164v666h297v91h113z" />
    <glyph glyph-name="u0491" unicode="&#x491;" horiz-adv-x="432" 
d="M411 592v-214h-191v-378h-160v490h219v102h132z" />
    <glyph glyph-name="u0492" unicode="&#x492;" horiz-adv-x="514" 
d="M65 0v255h-57v130h57v281h419v-130h-255v-151h189v-130h-189v-255h-164z" />
    <glyph glyph-name="u0493" unicode="&#x493;" horiz-adv-x="425" 
d="M60 0v185h-43v89h43v216h344v-112h-184v-104h92v-89h-92v-185h-160z" />
    <glyph glyph-name="u0494" unicode="&#x494;" horiz-adv-x="625" 
d="M229 400q14 4 41 6.5t47 2.5q74 0 127.5 -20t88 -55t51 -83t16.5 -104q0 -66 -22 -122t-65 -97.5t-106.5 -67t-145.5 -30.5l-13 133h9q80 0 130 42t50 126q0 46 -13 75.5t-35.5 47t-53 24t-65.5 6.5q-22 0 -41 -3v-281h-164v666h410v-130h-246v-136z" />
    <glyph glyph-name="u0495" unicode="&#x495;" horiz-adv-x="564" 
d="M404 378h-184v-96q12 2 24 5q11 2 24.5 4t27.5 2q53 0 98 -14.5t77.5 -43t50.5 -71t18 -98.5q0 -73 -26.5 -124.5t-69.5 -84.5t-96 -48t-106 -15h-25l-9 107h6q75 0 120 36t45 119q0 63 -29.5 96t-83.5 33q-12 0 -20.5 -1t-14.5 -2q-7 -2 -11 -3v-179h-160v490h344v-112z
" />
    <glyph glyph-name="u0496" unicode="&#x496;" horiz-adv-x="1031" 
d="M404 326l-207 -326h-197l241 337l-225 329h185l203 -319v319h164v-319l203 319h185l-225 -329l148 -207h128v-301h-147v171h-85l-207 326v-326h-164v326z" />
    <glyph glyph-name="u0497" unicode="&#x497;" horiz-adv-x="881" 
d="M341 261v229h160v-229l147 229h173l-158 -241l98 -137h104v-245h-133v133h-73l-158 237v-237h-160v237l-158 -237h-183l179 249l-158 241h173z" />
    <glyph glyph-name="u0498" unicode="&#x498;" horiz-adv-x="534" 
d="M53 629q18 13 41.5 22t50 15t54 9t51.5 3q48 0 89.5 -10t72 -30.5t48 -52.5t17.5 -75q0 -57 -31 -95.5t-95 -64.5q78 -20 110.5 -60t32.5 -92q0 -48 -16.5 -85.5t-46 -63.5t-69.5 -41.5t-87 -18.5l-8 -32q18 0 34.5 -4t29.5 -12.5t21 -21.5t8 -32q0 -25 -14.5 -43.5
t-39.5 -31t-57.5 -19.5t-69.5 -9l-12 74q23 2 43 8.5t20 21.5q0 16 -20 22t-40 8l24 71q-39 3 -79.5 11.5t-89.5 32.5l22 118q40 -14 80 -24.5t94 -10.5q18 0 37.5 2.5t36 11.5t27 25t10.5 43q0 36 -28 57t-99 21h-67v120h72q32 0 53.5 6.5t34.5 18t18.5 26t5.5 31.5
q0 43 -25.5 59.5t-61.5 16.5q-46 0 -82.5 -11t-74.5 -34z" />
    <glyph glyph-name="u0499" unicode="&#x499;" horiz-adv-x="467" 
d="M53 458q36 22 80 32t89 10q202 0 202 -131q0 -39 -26.5 -68t-71.5 -43q51 -11 80 -38.5t29 -75.5q0 -68 -43 -106t-122 -46l-9 -35q18 0 34.5 -4t29.5 -12.5t21 -21.5t8 -32q0 -25 -14.5 -43.5t-39.5 -31t-57.5 -19.5t-69.5 -9l-12 74q23 2 43 8.5t20 21.5q0 16 -20 22
t-40 8l25 74q-45 4 -81.5 16t-64.5 32l15 102q42 -21 78 -32t72 -11q38 0 53.5 14t15.5 36q0 23 -16.5 35t-58.5 12h-74v101h66q38 0 57 11t19 37q0 23 -16 35t-55 12q-30 0 -63.5 -10t-61.5 -24z" />
    <glyph glyph-name="u049A" unicode="&#x49a;" horiz-adv-x="700" 
d="M65 0v666h164v-319l210 319h185l-225 -329l148 -207h129v-301h-147v171h-86l-214 326v-326h-164z" />
    <glyph glyph-name="u049B" unicode="&#x49b;" horiz-adv-x="600" 
d="M60 0v490h160v-229l147 229h173l-158 -241l98 -137h104v-245h-133v133h-73l-158 237v-237h-160z" />
    <glyph glyph-name="u049C" unicode="&#x49c;" horiz-adv-x="772" 
d="M270 285h-41v-285h-164v666h164v-285h41v108h105v-108h16l180 285h185l-215 -325l231 -341h-197l-185 285h-15v-107h-105v107z" />
    <glyph glyph-name="u049D" unicode="&#x49d;" horiz-adv-x="672" 
d="M335 283h17l116 207h173l-158 -241l179 -249h-183l-128 197h-16v-103h-84v103h-31v-197h-160v490h160v-207h31v101h84v-101z" />
    <glyph glyph-name="u049E" unicode="&#x49e;" horiz-adv-x="640" 
d="M65 0v517h-60v94h60v55h164v-55h60v-94h-60v-170l210 319h185l-225 -329l241 -337h-197l-214 326v-326h-164z" />
    <glyph glyph-name="u049F" unicode="&#x49f;" horiz-adv-x="563" 
d="M60 0v535h-48v86h48v85h160v-85h99v-86h-99v-274l147 229h173l-158 -241l179 -249h-183l-158 237v-237h-160z" />
    <glyph glyph-name="u04A0" unicode="&#x4a0;" horiz-adv-x="750" 
d="M175 0v536h-161v130h325v-319l210 319h185l-225 -329l241 -337h-197l-214 326v-326h-164z" />
    <glyph glyph-name="u04A1" unicode="&#x4a1;" horiz-adv-x="662" 
d="M311 261l147 229h173l-158 -241l179 -249h-183l-158 237v-237h-160v378h-135v112h295v-229z" />
    <glyph glyph-name="u04A2" unicode="&#x4a2;" horiz-adv-x="777" 
d="M473 0v271h-244v-271h-164v666h164v-261h244v261h164v-536h91v-301h-147v171h-108z" />
    <glyph glyph-name="u04A3" unicode="&#x4a3;" horiz-adv-x="639" 
d="M60 0v490h160v-187h150v187h160v-378h85v-245h-133v133h-112v190h-150v-190h-160z" />
    <glyph glyph-name="u04A4" unicode="&#x4a4;" horiz-adv-x="913" 
d="M473 0v271h-244v-271h-164v666h164v-261h244v261h410v-130h-246v-536h-164z" />
    <glyph glyph-name="u04A5" unicode="&#x4a5;" horiz-adv-x="735" 
d="M714 378h-184v-378h-160v190h-150v-190h-160v490h160v-187h150v187h344v-112z" />
    <glyph glyph-name="u04A6" unicode="&#x4a6;" horiz-adv-x="1027" 
d="M631 666v-266q14 4 41 6.5t47 2.5q74 0 127.5 -20t88 -55t51 -83t16.5 -104q0 -66 -22 -122t-65 -97.5t-106.5 -67t-145.5 -30.5l-13 133h9q80 0 130 42t50 126q0 46 -13 75.5t-35.5 47t-53 24t-65.5 6.5q-22 0 -41 -3v-281h-164v536h-238v-536h-164v666h566z" />
    <glyph glyph-name="u04A7" unicode="&#x4a7;" horiz-adv-x="874" 
d="M530 282q12 2 24 5q11 2 24.5 4t27.5 2q53 0 98 -14.5t77.5 -43t50.5 -71t18 -98.5q0 -73 -26.5 -124.5t-69.5 -84.5t-96 -48t-106 -15h-25l-9 107h6q75 0 120 36t45 119q0 63 -29.5 96t-83.5 33q-12 0 -20.5 -1t-14.5 -2q-7 -2 -11 -3v-179h-160v378h-150v-378h-160v490
h470v-208z" />
    <glyph glyph-name="u04A8" unicode="&#x4a8;" horiz-adv-x="799" 
d="M414 121q-26 21 -41.5 45.5t-24 49t-11 47.5t-2.5 42q0 91 50.5 146t153.5 55q54 0 91 -16.5t59.5 -43.5t32.5 -61t10 -68q0 -66 -23 -115.5t-77 -96.5q23 -14 47 -17t38 -3q17 0 36 3.5t30 8.5l14 -84q-11 -8 -40.5 -16.5t-78.5 -8.5q-12 0 -30 2t-39 6.5t-44 13
t-44 22.5q-28 -21 -80 -32.5t-110 -11.5q-63 0 -117 21.5t-94 64t-63 104.5t-23 143q0 84 27.5 150.5t74.5 112.5t111 70t137 24q52 0 81 -5.5t53 -13.5l-20 -120q-13 4 -23 6t-20.5 3.5t-23 2t-30.5 0.5q-107 0 -155 -60.5t-48 -163.5q0 -64 18.5 -104.5t45 -63.5
t55.5 -31.5t50 -8.5h20.5h12t7.5 0.5t7 1.5zM542 176q15 14 26 31t18.5 34.5t11 34t3.5 29.5q0 19 -2 37t-9 32t-19.5 22t-33.5 8q-18 0 -29 -9t-17 -23.5t-7.5 -34t-1.5 -40.5q0 -10 3 -26t10.5 -33.5t18.5 -34t28 -27.5z" />
    <glyph glyph-name="u04A9" unicode="&#x4a9;" horiz-adv-x="719" 
d="M291 393q-56 -15 -80.5 -48.5t-24.5 -98.5q0 -28 8.5 -53.5t24 -45t39 -31.5t53.5 -12q11 0 28 2t31 9q-28 20 -50 59.5t-22 87.5q0 56 15 93.5t41.5 60.5t61.5 32.5t75 9.5q39 0 72.5 -10t58.5 -32t39.5 -56t14.5 -82q0 -27 -8 -54t-22.5 -51t-33.5 -45t-40 -37
q19 -5 34.5 -7t30.5 -2q7 0 22.5 2t23.5 6l12 -84q-13 -5 -39 -10.5t-58 -5.5q-35 0 -70.5 7.5t-69.5 26.5q-30 -15 -72.5 -24.5t-86.5 -9.5q-65 0 -116 18.5t-86 52t-53 80.5t-18 104q0 115 69.5 183t195.5 72v-107zM483 166q25 14 42.5 44.5t17.5 65.5q0 13 -1 27.5
t-6 26.5t-16.5 20t-32.5 8q-29 0 -42 -23.5t-13 -56.5q0 -35 12.5 -61t38.5 -51z" />
    <glyph glyph-name="u04AA" unicode="&#x4aa;" horiz-adv-x="627" 
d="M498 -113q0 -25 -14.5 -43.5t-39.5 -31t-57.5 -19.5t-69.5 -9l-12 74q23 2 43 8.5t20 21.5q0 8 -5.5 13.5t-14.5 8.5t-19.5 5t-20.5 3l25 74q-74 8 -130 37t-93.5 73.5t-56.5 103.5t-19 127q0 75 23 138t68 109t112 72t155 26q52 0 104.5 -10t90.5 -29l-24 -121
q-30 12 -68.5 20.5t-76.5 8.5q-102 0 -161 -53t-59 -161t59 -161t161 -53q38 0 76.5 8.5t68.5 20.5l24 -121q-35 -17 -80.5 -26.5t-93.5 -11.5l-8 -32q18 0 34.5 -4t29.5 -12.5t21 -21.5t8 -32z" />
    <glyph glyph-name="u04AB" unicode="&#x4ab;" horiz-adv-x="454" 
d="M392 -113q0 -25 -14.5 -43.5t-39.5 -31t-57.5 -19.5t-69.5 -9l-12 74q23 2 43 8.5t20 21.5q0 8 -5.5 13.5t-14.5 8.5t-19.5 5t-20.5 3l26 77q-48 9 -85.5 30.5t-63.5 53.5t-39.5 74t-13.5 92q0 57 18 104t52 80.5t83.5 52t111.5 18.5q38 0 74.5 -8t63.5 -22l-16 -114
q-19 8 -45.5 14t-53.5 6q-64 0 -96 -35t-32 -96t32 -96t96 -35q27 0 53.5 6t45.5 14l16 -114q-24 -12 -56 -19.5t-66 -9.5l-8 -34q18 0 34.5 -4t29.5 -12.5t21 -21.5t8 -32z" />
    <glyph glyph-name="u04AC" unicode="&#x4ac;" horiz-adv-x="550" 
d="M536 666v-130h-179v-406h91v-301h-147v171h-108v536h-179v130h522z" />
    <glyph glyph-name="u04AD" unicode="&#x4ad;" horiz-adv-x="488" 
d="M24 490h440v-112h-140v-266h85v-245h-133v133h-112v378h-140v112z" />
    <glyph glyph-name="u04AE" unicode="&#x4ae;" horiz-adv-x="592" 
d="M378 242v-242h-164v242l-219 424h175l126 -280l126 280h175z" />
    <glyph glyph-name="u04AF" unicode="&#x4af;" horiz-adv-x="528" 
d="M346 -206h-161v206l-182 490h161l106 -344l92 344h161l-177 -491v-205z" />
    <glyph glyph-name="u04B0" unicode="&#x4b0;" horiz-adv-x="592" 
d="M508 262v-94h-130v-168h-164v168h-130v94h130l-219 404h175l129 -266l123 266h175l-219 -404h130z" />
    <glyph glyph-name="u04B1" unicode="&#x4b1;" horiz-adv-x="528" 
d="M465 0h-119v-206h-161v206h-119v86h116l-179 404h161l106 -272l92 272h161l-174 -404h116v-86z" />
    <glyph glyph-name="u04B2" unicode="&#x4b2;" horiz-adv-x="691" 
d="M411 335l137 -205h128v-301h-147v171h-68l-134 213l-134 -213h-175l225 335l-221 331h174l131 -208l131 208h174z" />
    <glyph glyph-name="u04B3" unicode="&#x4b3;" horiz-adv-x="551" 
d="M5 0l175 248l-169 242h164l90 -135l91 135h164l-170 -242l96 -136h92v-245h-133v133h-45l-95 141l-94 -141h-166z" />
    <glyph glyph-name="u04B4" unicode="&#x4b4;" horiz-adv-x="879" 
d="M496 666v-130h-159v-406h238v536h164v-536h91v-301h-147v171h-510v536h-159v130h482z" />
    <glyph glyph-name="u04B5" unicode="&#x4b5;" horiz-adv-x="723" 
d="M24 490h400v-112h-120v-266h150v378h160v-378h85v-245h-133v133h-422v378h-120v112z" />
    <glyph glyph-name="u04B6" unicode="&#x4b6;" horiz-adv-x="740" 
d="M436 666h164v-536h91v-301h-147v171h-108v264q-33 -20 -78.5 -28.5t-94.5 -8.5q-46 0 -84 12t-65 38.5t-42 68.5t-15 103v217h164v-180q0 -41 7 -65.5t21.5 -38.5t36.5 -18.5t52 -4.5q29 0 54 9.5t44 20.5v277z" />
    <glyph glyph-name="u04B7" unicode="&#x4b7;" horiz-adv-x="625" 
d="M60 490h160v-140q0 -40 16.5 -60t63.5 -20q21 0 35.5 4t20.5 8v208h160v-378h85v-245h-133v133h-112v181q-20 -11 -45.5 -18.5t-82.5 -7.5q-70 0 -119 36.5t-49 119.5v179z" />
    <glyph glyph-name="u04B8" unicode="&#x4b8;" horiz-adv-x="692" 
d="M463 666h164v-666h-164v264q-37 -19 -78 -28v-79h-90v70h-39q-43 0 -79.5 12t-63 38.5t-41.5 68.5t-15 103v217h164v-180q0 -34 4 -56.5t12.5 -37t22.5 -22.5t35 -11v88h90v-88q29 4 48 12.5t30 17.5v277z" />
    <glyph glyph-name="u04B9" unicode="&#x4b9;" horiz-adv-x="601" 
d="M220 321q0 -14 5 -24t12 -16t15.5 -8.5t15.5 -2.5v93h80v-93q17 2 24.5 4.5t15.5 7.5v208h160v-490h-160v181q-17 -9 -40 -14v-94h-80v82h-27q-83 0 -132 36.5t-49 119.5v179h160v-169z" />
    <glyph glyph-name="u04BA" unicode="&#x4ba;" horiz-adv-x="647" 
d="M229 0h-164v666h164v-264q29 14 76.5 25.5t96.5 11.5q96 0 151 -47.5t55 -157.5v-234h-164v198q0 33 -7 54t-20.5 33t-33.5 17t-47 5q-28 0 -58 -9t-49 -21v-277z" />
    <glyph glyph-name="u04BB" unicode="&#x4bb;" horiz-adv-x="583" 
d="M60 0v706h160v-274q22 35 57 51.5t74 16.5q49 0 83 -20.5t55.5 -54.5t31 -78.5t9.5 -93.5v-253h-160v256q0 61 -19 89.5t-58 28.5q-25 0 -43.5 -11t-29.5 -27v-336h-160z" />
    <glyph glyph-name="u04BC" unicode="&#x4bc;" horiz-adv-x="830" 
d="M513 -11q-77 0 -137.5 20t-104.5 56.5t-70.5 89t-35.5 118.5q-78 0 -117 29t-39 91q0 11 3.5 27t11.5 30l88 -7q-2 -8 -3.5 -14.5t-1.5 -12.5q0 -13 3 -20t10 -11t18 -5t27 -2q6 62 28.5 117t62 95.5t96.5 64t133 23.5q65 0 119.5 -22t94 -64.5t61.5 -106t22 -147.5v-65
h-452q7 -44 25 -73.5t45 -47.5t62 -25.5t78 -7.5q60 0 101.5 11.5t55.5 17.5l24 -121q-42 -21 -93.5 -29.5t-114.5 -8.5zM485 548q-24 0 -49 -8.5t-46.5 -28t-37 -52t-21.5 -81.5h287q0 83 -36 126.5t-97 43.5z" />
    <glyph glyph-name="u04BD" unicode="&#x4bd;" horiz-adv-x="638" 
d="M399 500q97 0 152.5 -56.5t55.5 -156.5q0 -38 -9 -81h-284q2 -45 30 -72.5t88 -27.5q36 0 75.5 6.5t68.5 19.5l20 -103q-38 -19 -85.5 -29t-98.5 -10q-59 0 -105.5 15.5t-79 44t-52 68.5t-24.5 88q-40 2 -66 12t-41.5 25t-22 34.5t-6.5 42.5q0 16 4 37.5t19 42.5l77 -17
q-4 -8 -6 -18.5t-2 -18.5q0 -20 10 -29t39 -11q17 91 81 142.5t162 51.5zM394 398q-38 0 -58.5 -24.5t-20.5 -67.5h142q2 10 2 17q0 32 -17 53.5t-48 21.5z" />
    <glyph glyph-name="u04BE" unicode="&#x4be;" horiz-adv-x="806" 
d="M435 -171v166q-119 18 -186.5 90.5t-83.5 187.5q-78 0 -117 29t-39 91q0 11 3.5 27t11.5 30l88 -7q-2 -8 -3.5 -14.5t-1.5 -12.5q0 -13 3 -20t10 -11t18 -5t27 -2q6 62 28.5 117t62 95.5t96.5 64t133 23.5q65 0 119.5 -22t94 -64.5t61.5 -106t22 -147.5v-65h-452
q7 -44 25 -73.5t45 -47.5t62 -25.5t78 -7.5q60 0 101.5 11.5t55.5 17.5l24 -121q-34 -17 -74 -24.5t-88 -11.5v-162h-124zM485 548q-24 0 -49 -8.5t-46.5 -28t-37 -52t-21.5 -81.5h287q0 83 -36 126.5t-97 43.5z" />
    <glyph glyph-name="u04BF" unicode="&#x4bf;" horiz-adv-x="638" 
d="M399 500q97 0 152.5 -56.5t55.5 -156.5q0 -38 -9 -81h-284q2 -45 30 -72.5t88 -27.5q36 0 75.5 6.5t68.5 19.5l20 -103q-62 -31 -141 -37v-125h-119v131q-84 17 -130.5 72t-54.5 136q-40 2 -66 12t-41.5 25t-22 34.5t-6.5 42.5q0 16 4 37.5t19 42.5l77 -17
q-4 -8 -6 -18.5t-2 -18.5q0 -20 10 -29t39 -11q17 91 81 142.5t162 51.5zM394 398q-38 0 -58.5 -24.5t-20.5 -67.5h142q2 10 2 17q0 32 -17 53.5t-48 21.5z" />
    <glyph glyph-name="palochkacyrillic" unicode="&#x4c0;" horiz-adv-x="304" 
d="M234 0h-164v666h164v-666z" />
    <glyph glyph-name="u04C1" unicode="&#x4c1;" horiz-adv-x="972" 
d="M404 326l-207 -326h-197l241 337l-225 329h185l203 -319v319h164v-319l203 319h185l-225 -329l241 -337h-197l-207 326v-326h-164v326zM673 874q-19 -70 -72.5 -105.5t-127.5 -35.5q-75 0 -128.5 35.5t-72.5 105.5l121 32q9 -29 27.5 -46.5t52.5 -17.5q32 0 51 17.5
t28 46.5z" />
    <glyph glyph-name="u04C2" unicode="&#x4c2;" horiz-adv-x="845" 
d="M341 261v229h160v-229l147 229h173l-158 -241l179 -249h-183l-158 237v-237h-160v237l-158 -237h-183l179 249l-158 241h173zM609 724q-13 -79 -68 -121t-135 -42t-135 42t-68 121l119 24q6 -29 24.5 -52t59.5 -23q21 0 36 6t24 16t14.5 24.5t9.5 28.5z" />
    <glyph glyph-name="u04C3" unicode="&#x4c3;" horiz-adv-x="638" 
d="M516 189q18 -26 32 -47.5t23 -42t13.5 -41.5t4.5 -46q0 -34 -10 -67t-35 -58.5t-67.5 -41t-106.5 -15.5h-24l-7 105q18 0 35.5 2t31 8t22 17t8.5 28q0 28 -10.5 56t-40.5 69l-156 211v-326h-164v666h164v-319l210 319h185l-225 -329z" />
    <glyph glyph-name="u04C4" unicode="&#x4c4;" horiz-adv-x="531" 
d="M455 157q17 -24 29.5 -43t20.5 -36t11.5 -35t3.5 -40q0 -34 -10.5 -65.5t-34 -55.5t-60.5 -38t-90 -14h-18l-9 93q32 0 56.5 12.5t24.5 47.5q0 10 -2.5 20t-9 22.5t-17 28t-26.5 38.5l-104 145v-237h-160v490h160v-229l147 229h173l-158 -241z" />
    <glyph glyph-name="u04C5" unicode="&#x4c5;" horiz-adv-x="733" 
d="M315 536l-17 -149q-13 -113 -36 -188t-53 -121t-65 -66.5t-72 -23.5l-49 122q27 9 49 30t39 59t29.5 95t19.5 138l21 234h443v-536h97l-51 -301h-147l29 171h-92v536h-145z" />
    <glyph glyph-name="u04C6" unicode="&#x4c6;" horiz-adv-x="648" 
d="M530 490v-360h105l-45 -263h-128l22 133h-114v378h-102l-4 -44q-7 -80 -24 -143t-43 -107.5t-60.5 -68t-77.5 -23.5l-31 120q25 9 43 28.5t30.5 52t20 79t10.5 108.5l5 110h393z" />
    <glyph glyph-name="u04C7" unicode="&#x4c7;" horiz-adv-x="702" 
d="M637 33q0 -122 -66.5 -178.5t-185.5 -56.5h-9l-17 138h9q33 0 53.5 7t32 20t15.5 30.5t4 38.5v239h-244v-271h-164v666h164v-261h244v261h164v-633z" />
    <glyph glyph-name="u04C8" unicode="&#x4c8;" horiz-adv-x="583" 
d="M530 21q0 -114 -54 -168.5t-148 -54.5h-24l-13 112q24 2 39 8t24 18.5t12.5 33.5t3.5 54v166h-150v-190h-160v490h160v-187h150v187h160v-469z" />
    <glyph glyph-name="u04C9" unicode="&#x4c9;" horiz-adv-x="746" 
d="M473 0v271h-244v-271h-164v666h164v-261h244v261h164v-536h97l-51 -301h-147l29 171h-92z" />
    <glyph glyph-name="u04CA" unicode="&#x4ca;" horiz-adv-x="648" 
d="M60 0v490h160v-187h150v187h160v-360h105l-45 -263h-128l22 133h-114v190h-150v-190h-160z" />
    <glyph glyph-name="u04CB" unicode="&#x4cb;" horiz-adv-x="665" 
d="M436 666h164v-666h-108v-171h-147v301h91v134q-33 -20 -78.5 -28.5t-94.5 -8.5q-46 0 -84 12t-65 38.5t-42 68.5t-15 103v217h164v-180q0 -41 7 -65.5t21.5 -38.5t36.5 -18.5t52 -4.5q29 0 54 9.5t44 20.5v277z" />
    <glyph glyph-name="u04CC" unicode="&#x4cc;" horiz-adv-x="569" 
d="M60 490h160v-131q0 -40 16.5 -60t63.5 -20q21 0 35.5 4t20.5 8v199h160v-490h-112v-133h-133v245h85v78q-20 -11 -51 -18.5t-81 -7.5q-35 0 -65 8t-52 26.5t-34.5 48.5t-12.5 73v170z" />
    <glyph glyph-name="u04CD" unicode="&#x4cd;" horiz-adv-x="912" 
d="M511 106h-158l-130 267l-20 -373h-161l50 666h148l192 -407l192 407h148l40 -536h96l-51 -301h-147l29 171h-78l-20 373z" />
    <glyph glyph-name="u04CE" unicode="&#x4ce;" horiz-adv-x="795" 
d="M512 490h153l20 -360h105l-45 -263h-128l22 133h-99l-14 287l-108 -225h-96l-121 225l-11 -287h-137l24 490h170l136 -264z" />
    <glyph glyph-name="u04CF" unicode="&#x4cf;" horiz-adv-x="304" 
d="M234 0h-164v666h164v-666z" />
    <glyph glyph-name="u04D0" unicode="&#x4d0;" horiz-adv-x="700" 
d="M477 129h-255l-41 -129h-169l248 666h180l248 -666h-169zM264 259h171l-85 281zM548 874q-19 -70 -72.5 -105.5t-127.5 -35.5q-75 0 -128.5 35.5t-72.5 105.5l121 32q9 -29 27.5 -46.5t52.5 -17.5q32 0 51 17.5t28 46.5z" />
    <glyph glyph-name="u04D1" unicode="&#x4d1;" horiz-adv-x="535" 
d="M328 48q-23 -23 -62.5 -40.5t-86.5 -17.5q-33 0 -59 11t-43.5 30t-27 44.5t-9.5 54.5q0 68 42.5 102.5t120.5 40.5q29 2 61.5 3t57.5 2v16q0 80 -89 80q-35 0 -67.5 -8t-59.5 -22l-29 111q35 20 82.5 32.5t103.5 12.5q103 0 161 -53.5t58 -160.5v-286h-154v48zM241 95
q23 0 43.5 6t37.5 16v73q-24 -2 -43 -4.5t-37 -4.5q-49 -6 -49 -46q0 -18 12.5 -29t35.5 -11zM472 724q-13 -79 -68 -121t-135 -42t-135 42t-68 121l119 24q6 -29 24.5 -52t59.5 -23q21 0 36 6t24 16t14.5 24.5t9.5 28.5z" />
    <glyph glyph-name="u04D2" unicode="&#x4d2;" horiz-adv-x="700" 
d="M477 129h-255l-41 -129h-169l248 666h180l248 -666h-169zM264 259h171l-85 281zM171 790q0 30 20.5 50.5t54.5 20.5t54.5 -20.5t20.5 -50.5q0 -31 -20.5 -51t-54.5 -20t-54.5 20t-20.5 51zM386 790q0 30 20.5 50.5t54.5 20.5t54.5 -20.5t20.5 -50.5q0 -31 -20.5 -51
t-54.5 -20t-54.5 20t-20.5 51z" />
    <glyph glyph-name="u04D3" unicode="&#x4d3;" horiz-adv-x="535" 
d="M328 48q-23 -23 -62.5 -40.5t-86.5 -17.5q-33 0 -59 11t-43.5 30t-27 44.5t-9.5 54.5q0 68 42.5 102.5t120.5 40.5q29 2 61.5 3t57.5 2v16q0 80 -89 80q-35 0 -67.5 -8t-59.5 -22l-29 111q35 20 82.5 32.5t103.5 12.5q103 0 161 -53.5t58 -160.5v-286h-154v48zM241 95
q23 0 43.5 6t37.5 16v73q-24 -2 -43 -4.5t-37 -4.5q-49 -6 -49 -46q0 -18 12.5 -29t35.5 -11zM95 642q0 30 20 52.5t55 22.5t55 -22.5t20 -52.5q0 -31 -20 -53t-55 -22t-55 22t-20 53zM295 642q0 30 20 52.5t55 22.5t55 -22.5t20 -52.5q0 -31 -20 -53t-55 -22t-55 22t-20 53
z" />
    <glyph glyph-name="Aiecyrillic" unicode="&#x4d4;" horiz-adv-x="894" 
d="M843 536h-288l18 -134h258v-130h-242l19 -142h238v-130h-371l-17 129h-238l-72 -129h-168l390 666h473v-130zM294 259h148l-27 237z" />
    <glyph glyph-name="aiecyrillic" unicode="&#x4d5;" horiz-adv-x="813" 
d="M574 500q99 0 149.5 -57.5t50.5 -155.5q0 -19 -2.5 -41.5t-6.5 -39.5h-279q1 -47 29 -73.5t88 -26.5q35 0 69 9t72 26l26 -107q-40 -21 -88 -32.5t-100 -11.5q-64 0 -111.5 18.5t-80.5 52.5q-38 -32 -85.5 -51.5t-107.5 -19.5q-39 0 -68.5 11t-49 30t-29.5 44.5t-10 54.5
q0 68 42.5 101.5t120.5 41.5q35 4 63.5 6t55.5 4v9q0 38 -19.5 60t-69.5 22q-64 0 -129 -29l-31 114q39 20 82.5 30.5t97.5 10.5q48 0 87 -15.5t68 -50.5q32 32 72.5 49t93.5 17zM565 396q-37 0 -57 -24t-21 -66h141q2 8 2 18q0 32 -16.5 52t-48.5 20zM344 128q-7 17 -11 31
t-7 31l-84 -15q-24 -5 -36.5 -13t-12.5 -27q0 -18 13 -28t35 -10q26 0 51.5 7t51.5 24z" />
    <glyph glyph-name="u04D6" unicode="&#x4d6;" horiz-adv-x="531" 
d="M65 666h415v-130h-251v-134h239v-130h-239v-142h254v-130h-418v666zM473 874q-19 -70 -72.5 -105.5t-127.5 -35.5q-75 0 -128.5 35.5t-72.5 105.5l121 32q9 -29 27.5 -46.5t52.5 -17.5q32 0 51 17.5t28 46.5z" />
    <glyph glyph-name="u04D7" unicode="&#x4d7;" horiz-adv-x="516" 
d="M277 500q96 0 152 -56.5t56 -156.5q0 -38 -9 -81h-284q2 -45 30.5 -72.5t87.5 -27.5q36 0 75.5 6.5t68.5 19.5l20 -103q-38 -19 -85.5 -29t-98.5 -10q-64 0 -113 18.5t-82 51.5t-50 79t-17 102q0 60 17.5 108t50 81.5t78.5 51.5t103 18zM272 398q-38 0 -58.5 -24.5
t-20.5 -67.5h142q2 8 2 17q0 32 -17 53.5t-48 21.5zM456 724q-13 -79 -68 -121t-135 -42t-135 42t-68 121l119 24q6 -29 24.5 -52t59.5 -23q21 0 36 6t24 16t14.5 24.5t9.5 28.5z" />
    <glyph glyph-name="u04D8" unicode="&#x4d8;" horiz-adv-x="719" 
d="M343 678q68 0 130 -17.5t109 -57t75 -104t28 -157.5q0 -74 -22 -138t-64 -112t-103.5 -75.5t-140.5 -27.5q-71 0 -129.5 23t-100 67.5t-64 108.5t-22.5 146v67h476q-4 42 -21.5 71t-44.5 47.5t-61.5 27t-73.5 8.5q-63 0 -107 -14.5t-82 -36.5l-17 119q52 28 108 41.5
t127 13.5zM357 118q22 0 48.5 6.5t49.5 24t40 49t21 82.5h-316q0 -35 11 -64.5t31 -51.5t49.5 -34t65.5 -12z" />
    <glyph glyph-name="u04D9" unicode="&#x4d9;" horiz-adv-x="516" 
d="M236 -10q-96 0 -152 56.5t-56 156.5q0 38 9 81h284q-2 45 -30.5 72.5t-87.5 27.5q-36 0 -75.5 -6.5t-68.5 -19.5l-20 103q38 19 85.5 29t98.5 10q64 0 113 -18.5t82 -51.5t50 -79t17 -102q0 -60 -17.5 -108t-50 -81.5t-78.5 -51.5t-103 -18zM241 92q38 0 58.5 24.5
t20.5 67.5h-142q-2 -8 -2 -17q0 -32 17 -53.5t48 -21.5z" />
    <glyph glyph-name="u04DA" unicode="&#x4da;" horiz-adv-x="719" 
d="M343 678q68 0 130 -17.5t109 -57t75 -104t28 -157.5q0 -74 -22 -138t-64 -112t-103.5 -75.5t-140.5 -27.5q-71 0 -129.5 23t-100 67.5t-64 108.5t-22.5 146v67h476q-4 42 -21.5 71t-44.5 47.5t-61.5 27t-73.5 8.5q-63 0 -107 -14.5t-82 -36.5l-17 119q52 28 108 41.5
t127 13.5zM357 118q22 0 48.5 6.5t49.5 24t40 49t21 82.5h-316q0 -35 11 -64.5t31 -51.5t49.5 -34t65.5 -12zM169 790q0 30 20.5 50.5t54.5 20.5t54.5 -20.5t20.5 -50.5q0 -31 -20.5 -51t-54.5 -20t-54.5 20t-20.5 51zM384 790q0 30 20.5 50.5t54.5 20.5t54.5 -20.5
t20.5 -50.5q0 -31 -20.5 -51t-54.5 -20t-54.5 20t-20.5 51z" />
    <glyph glyph-name="u04DB" unicode="&#x4db;" horiz-adv-x="516" 
d="M236 -10q-96 0 -152 56.5t-56 156.5q0 38 9 81h284q-2 45 -30.5 72.5t-87.5 27.5q-36 0 -75.5 -6.5t-68.5 -19.5l-20 103q38 19 85.5 29t98.5 10q64 0 113 -18.5t82 -51.5t50 -79t17 -102q0 -60 -17.5 -108t-50 -81.5t-78.5 -51.5t-103 -18zM241 92q38 0 58.5 24.5
t20.5 67.5h-142q-2 -8 -2 -17q0 -32 17 -53.5t48 -21.5zM73 642q0 30 20 52.5t55 22.5t55 -22.5t20 -52.5q0 -31 -20 -53t-55 -22t-55 22t-20 53zM273 642q0 30 20 52.5t55 22.5t55 -22.5t20 -52.5q0 -31 -20 -53t-55 -22t-55 22t-20 53z" />
    <glyph glyph-name="u04DC" unicode="&#x4dc;" horiz-adv-x="972" 
d="M404 326l-207 -326h-197l241 337l-225 329h185l203 -319v319h164v-319l203 319h185l-225 -329l241 -337h-197l-207 326v-326h-164v326zM304 790q0 30 20.5 50.5t54.5 20.5t54.5 -20.5t20.5 -50.5q0 -31 -20.5 -51t-54.5 -20t-54.5 20t-20.5 51zM519 790q0 30 20.5 50.5
t54.5 20.5t54.5 -20.5t20.5 -50.5q0 -31 -20.5 -51t-54.5 -20t-54.5 20t-20.5 51z" />
    <glyph glyph-name="u04DD" unicode="&#x4dd;" horiz-adv-x="845" 
d="M341 261v229h160v-229l147 229h173l-158 -241l179 -249h-183l-158 237v-237h-160v237l-158 -237h-183l179 249l-158 241h173zM245 642q0 30 20 52.5t55 22.5t55 -22.5t20 -52.5q0 -31 -20 -53t-55 -22t-55 22t-20 53zM445 642q0 30 20 52.5t55 22.5t55 -22.5t20 -52.5
q0 -31 -20 -53t-55 -22t-55 22t-20 53z" />
    <glyph glyph-name="u04DE" unicode="&#x4de;" horiz-adv-x="534" 
d="M53 629q18 13 41.5 22t50 15t54 9t51.5 3q48 0 89.5 -10t72 -30.5t48 -52.5t17.5 -75q0 -57 -31 -95.5t-95 -64.5q78 -20 110.5 -60t32.5 -92q0 -49 -17.5 -88t-50.5 -66t-79.5 -41.5t-104.5 -14.5q-68 0 -120 9.5t-97 35.5l22 118q40 -14 80 -24.5t94 -10.5
q18 0 37.5 2.5t36 11.5t27 25t10.5 43q0 36 -28 57t-99 21h-67v120h72q32 0 53.5 6.5t34.5 18t18.5 26t5.5 31.5q0 43 -25.5 59.5t-61.5 16.5q-46 0 -82.5 -11t-74.5 -34zM60 790q0 30 20.5 50.5t54.5 20.5t54.5 -20.5t20.5 -50.5q0 -31 -20.5 -51t-54.5 -20t-54.5 20
t-20.5 51zM275 790q0 30 20.5 50.5t54.5 20.5t54.5 -20.5t20.5 -50.5q0 -31 -20.5 -51t-54.5 -20t-54.5 20t-20.5 51z" />
    <glyph glyph-name="u04DF" unicode="&#x4df;" horiz-adv-x="475" 
d="M53 458q36 22 80.5 32t88.5 10q202 0 202 -131q0 -39 -27 -68t-71 -43q51 -11 80 -39t29 -75q0 -76 -54.5 -115t-152.5 -39q-57 0 -104 13.5t-81 36.5l15 102q41 -21 77.5 -32t72.5 -11q38 0 53.5 14t15.5 36q0 23 -16.5 35t-58.5 12h-74v101h66q38 0 57 11t19 37
q0 23 -16 35t-55 12q-30 0 -63.5 -10t-61.5 -24zM63 642q0 30 20 52.5t55 22.5t55 -22.5t20 -52.5q0 -31 -20 -53t-55 -22t-55 22t-20 53zM263 642q0 30 20 52.5t55 22.5t55 -22.5t20 -52.5q0 -31 -20 -53t-55 -22t-55 22t-20 53z" />
    <glyph glyph-name="u04E0" unicode="&#x4e0;" horiz-adv-x="540" 
d="M469 537l-174 -153q73 -1 116.5 -19t66 -44.5t29 -57t6.5 -57.5q0 -51 -20.5 -91.5t-57 -68.5t-86 -43t-107.5 -15q-69 0 -119 12t-95 35l28 110q46 -20 88.5 -26.5t81.5 -6.5q37 0 61.5 8t38 20.5t19 28t5.5 30.5q0 59 -39 78t-117 19h-56v87l167 154h-247v129h411v-129
z" />
    <glyph glyph-name="u04E1" unicode="&#x4e1;" horiz-adv-x="442" 
d="M28 490h364v-104l-142 -169q36 -6 68.5 -19.5t57.5 -37t40 -58t15 -82.5q0 -51 -18 -94t-50.5 -74.5t-78 -49t-101.5 -17.5q-57 0 -99 9.5t-74 23.5l23 109q33 -17 60.5 -22.5t55.5 -5.5q23 0 45 6t39 19.5t27 35t10 51.5q0 29 -11.5 48.5t-31.5 31.5t-47.5 17.5
t-60.5 5.5h-35v59l157 190h-213v127z" />
    <glyph glyph-name="u04E2" unicode="&#x4e2;" horiz-adv-x="711" 
d="M482 0v430l-253 -430h-164v666h164v-421l253 421h164v-666h-164zM186 848h365v-121h-365v121z" />
    <glyph glyph-name="u04E3" unicode="&#x4e3;" horiz-adv-x="589" 
d="M60 0v490h159v-268l166 268h151v-490h-160v272l-164 -272h-152zM115 694h365v-121h-365v121z" />
    <glyph glyph-name="u04E4" unicode="&#x4e4;" horiz-adv-x="711" 
d="M482 0v430l-253 -430h-164v666h164v-421l253 421h164v-666h-164zM162 790q0 30 20.5 50.5t54.5 20.5t54.5 -20.5t20.5 -50.5q0 -31 -20.5 -51t-54.5 -20t-54.5 20t-20.5 51zM377 790q0 30 20.5 50.5t54.5 20.5t54.5 -20.5t20.5 -50.5q0 -31 -20.5 -51t-54.5 -20t-54.5 20
t-20.5 51z" />
    <glyph glyph-name="u04E5" unicode="&#x4e5;" horiz-adv-x="589" 
d="M60 0v490h159v-268l166 268h151v-490h-160v272l-164 -272h-152zM124 642q0 30 20 52.5t55 22.5t55 -22.5t20 -52.5q0 -31 -20 -53t-55 -22t-55 22t-20 53zM324 642q0 30 20 52.5t55 22.5t55 -22.5t20 -52.5q0 -31 -20 -53t-55 -22t-55 22t-20 53z" />
    <glyph glyph-name="u04E6" unicode="&#x4e6;" horiz-adv-x="748" 
d="M714 333q0 -71 -23 -133.5t-66.5 -109.5t-106.5 -74.5t-144 -27.5t-144.5 27.5t-107 74.5t-66 109.5t-22.5 133.5t22.5 133.5t66 109.5t107 74.5t144.5 27.5t144 -27.5t106.5 -74.5t66.5 -109.5t23 -133.5zM374 118q43 0 76 16t55.5 44.5t33.5 68t11 86.5t-11 86.5
t-33.5 68t-55.5 44.5t-76 16q-44 0 -76.5 -16t-55 -44.5t-33.5 -68t-11 -86.5t11 -86.5t33.5 -68t55 -44.5t76.5 -16zM191 790q0 30 20.5 50.5t54.5 20.5t54.5 -20.5t20.5 -50.5q0 -31 -20.5 -51t-54.5 -20t-54.5 20t-20.5 51zM406 790q0 30 20.5 50.5t54.5 20.5t54.5 -20.5
t20.5 -50.5q0 -31 -20.5 -51t-54.5 -20t-54.5 20t-20.5 51z" />
    <glyph glyph-name="u04E7" unicode="&#x4e7;" horiz-adv-x="574" 
d="M548 245q0 -54 -17 -100.5t-50 -81t-82 -54t-112 -19.5t-112 19.5t-82 54t-50 81t-17 100.5t17 100.5t50 81t82 54t112 19.5t112 -19.5t82 -54t50 -81t17 -100.5zM388 245q0 26 -5 50.5t-16.5 44t-31 31t-48.5 11.5t-48.5 -11.5t-31 -31t-16.5 -44t-5 -50.5t5 -50.5
t16.5 -44t31 -31t48.5 -11.5t48.5 11.5t31 31t16.5 44t5 50.5zM113 642q0 30 20 52.5t55 22.5t55 -22.5t20 -52.5q0 -31 -20 -53t-55 -22t-55 22t-20 53zM313 642q0 30 20 52.5t55 22.5t55 -22.5t20 -52.5q0 -31 -20 -53t-55 -22t-55 22t-20 53z" />
    <glyph glyph-name="u04E8" unicode="&#x4e8;" horiz-adv-x="740" 
d="M714 333q0 -71 -23 -133.5t-66.5 -109.5t-106.5 -74.5t-144 -27.5t-144.5 27.5t-107 74.5t-66 109.5t-22.5 133.5q0 70 22.5 133t66 110t107 74.5t144.5 27.5t144 -27.5t106.5 -74.5t66.5 -110t23 -133zM374 118q78 0 121.5 48.5t51.5 126.5h-347q9 -78 52.5 -126.5
t121.5 -48.5zM374 548q-75 0 -118 -44.5t-54 -116.5h344q-12 72 -55 116.5t-117 44.5z" />
    <glyph glyph-name="u04E9" unicode="&#x4e9;" horiz-adv-x="574" 
d="M548 245q0 -54 -17 -100.5t-50 -81t-82 -54t-112 -19.5t-112 19.5t-82 54t-50 81t-17 100.5t17 100.5t50 81t82 54t112 19.5t112 -19.5t82 -54t50 -81t17 -100.5zM287 108q46 0 69 29t29 70h-197q6 -41 29 -70t70 -29zM287 382q-47 0 -69.5 -28.5t-28.5 -67.5h196
q-7 39 -29.5 67.5t-68.5 28.5z" />
    <glyph glyph-name="u04EA" unicode="&#x4ea;" horiz-adv-x="740" 
d="M714 333q0 -71 -23 -133.5t-66.5 -109.5t-106.5 -74.5t-144 -27.5t-144.5 27.5t-107 74.5t-66 109.5t-22.5 133.5q0 70 22.5 133t66 110t107 74.5t144.5 27.5t144 -27.5t106.5 -74.5t66.5 -110t23 -133zM374 118q78 0 121.5 48.5t51.5 126.5h-347q9 -78 52.5 -126.5
t121.5 -48.5zM374 548q-75 0 -118 -44.5t-54 -116.5h344q-12 72 -55 116.5t-117 44.5zM203 790q0 30 20.5 50.5t54.5 20.5t54.5 -20.5t20.5 -50.5q0 -31 -20.5 -51t-54.5 -20t-54.5 20t-20.5 51zM418 790q0 30 20.5 50.5t54.5 20.5t54.5 -20.5t20.5 -50.5q0 -31 -20.5 -51
t-54.5 -20t-54.5 20t-20.5 51z" />
    <glyph glyph-name="u04EB" unicode="&#x4eb;" horiz-adv-x="574" 
d="M548 245q0 -54 -17 -100.5t-50 -81t-82 -54t-112 -19.5t-112 19.5t-82 54t-50 81t-17 100.5t17 100.5t50 81t82 54t112 19.5t112 -19.5t82 -54t50 -81t17 -100.5zM287 108q46 0 69 29t29 70h-197q6 -41 29 -70t70 -29zM287 382q-47 0 -69.5 -28.5t-28.5 -67.5h196
q-7 39 -29.5 67.5t-68.5 28.5zM112 642q0 30 20 52.5t55 22.5t55 -22.5t20 -52.5q0 -31 -20 -53t-55 -22t-55 22t-20 53zM312 642q0 30 20 52.5t55 22.5t55 -22.5t20 -52.5q0 -31 -20 -53t-55 -22t-55 22t-20 53z" />
    <glyph glyph-name="u04EC" unicode="&#x4ec;" horiz-adv-x="621" 
d="M229 678q88 0 155 -26t112 -72t68 -109t23 -138t-23 -138t-68 -109t-112 -72t-155 -26q-52 0 -104.5 10t-90.5 29l24 121q30 -12 68.5 -20.5t76.5 -8.5q43 0 79.5 8.5t64.5 26.5t46 46.5t23 68.5h-265v128h265q-5 39 -23 67t-46 46.5t-64.5 27.5t-79.5 9
q-38 0 -76.5 -8.5t-68.5 -20.5l-24 121q38 19 90.5 29t104.5 10zM87 790q0 30 20.5 50.5t54.5 20.5t54.5 -20.5t20.5 -50.5q0 -31 -20.5 -51t-54.5 -20t-54.5 20t-20.5 51zM302 790q0 30 20.5 50.5t54.5 20.5t54.5 -20.5t20.5 -50.5q0 -31 -20.5 -51t-54.5 -20t-54.5 20
t-20.5 51z" />
    <glyph glyph-name="u04ED" unicode="&#x4ed;" horiz-adv-x="455" 
d="M164 500q62 0 111.5 -17.5t83.5 -49t52 -76.5t18 -99q0 -62 -18 -111.5t-52 -84.5t-83.5 -53.5t-111.5 -18.5q-38 0 -74.5 8t-63.5 22l16 111q19 -8 47.5 -15.5t66.5 -7.5q41 0 74.5 23t40.5 65h-214v100h212q-5 43 -42 64.5t-86 21.5q-27 0 -53.5 -7.5t-45.5 -15.5
l-16 111q27 14 63.5 22t74.5 8zM29 642q0 30 20 52.5t55 22.5t55 -22.5t20 -52.5q0 -31 -20 -53t-55 -22t-55 22t-20 53zM229 642q0 30 20 52.5t55 22.5t55 -22.5t20 -52.5q0 -31 -20 -53t-55 -22t-55 22t-20 53z" />
    <glyph glyph-name="u04EE" unicode="&#x4ee;" horiz-adv-x="621" 
d="M465 275q-29 -81 -59.5 -136.5t-64.5 -90.5t-71 -51t-80 -19l-52 121q46 6 78.5 22.5t43.5 44.5l-247 500h179l157 -340l93 340h164zM113 848h365v-121h-365v121z" />
    <glyph glyph-name="u04EF" unicode="&#x4ef;" horiz-adv-x="506" 
d="M113 -206l64 194l-177 502h166l90 -349l89 349h161l-232 -696h-161zM81 694h365v-121h-365v121z" />
    <glyph glyph-name="u04F0" unicode="&#x4f0;" horiz-adv-x="621" 
d="M465 275q-29 -81 -59.5 -136.5t-64.5 -90.5t-71 -51t-80 -19l-52 121q46 6 78.5 22.5t43.5 44.5l-247 500h179l157 -340l93 340h164zM120 790q0 30 20.5 50.5t54.5 20.5t54.5 -20.5t20.5 -50.5q0 -31 -20.5 -51t-54.5 -20t-54.5 20t-20.5 51zM335 790q0 30 20.5 50.5
t54.5 20.5t54.5 -20.5t20.5 -50.5q0 -31 -20.5 -51t-54.5 -20t-54.5 20t-20.5 51z" />
    <glyph glyph-name="u04F1" unicode="&#x4f1;" horiz-adv-x="506" 
d="M113 -206l64 194l-177 502h166l90 -349l89 349h161l-232 -696h-161zM85 642q0 30 20 52.5t55 22.5t55 -22.5t20 -52.5q0 -31 -20 -53t-55 -22t-55 22t-20 53zM285 642q0 30 20 52.5t55 22.5t55 -22.5t20 -52.5q0 -31 -20 -53t-55 -22t-55 22t-20 53z" />
    <glyph glyph-name="u04F2" unicode="&#x4f2;" horiz-adv-x="621" 
d="M465 275q-29 -81 -59.5 -136.5t-64.5 -90.5t-71 -51t-80 -19l-52 121q46 6 78.5 22.5t43.5 44.5l-247 500h179l157 -340l93 340h164zM148 724l44 124h155l-75 -124h-124zM361 724l44 124h155l-75 -124h-124z" />
    <glyph glyph-name="u04F3" unicode="&#x4f3;" horiz-adv-x="506" 
d="M113 -206l64 194l-177 502h166l90 -349l89 349h161l-232 -696h-161zM90 559l56 169h146l-87 -169h-115zM290 559l56 169h146l-87 -169h-115z" />
    <glyph glyph-name="u04F4" unicode="&#x4f4;" horiz-adv-x="670" 
d="M436 666h164v-666h-164v264q-33 -20 -78.5 -28.5t-94.5 -8.5q-46 0 -84 12t-65 38.5t-42 68.5t-15 103v217h164v-180q0 -41 7 -65.5t21.5 -38.5t36.5 -18.5t52 -4.5q29 0 54 9.5t44 20.5v277zM146 790q0 30 20.5 50.5t54.5 20.5t54.5 -20.5t20.5 -50.5q0 -31 -20.5 -51
t-54.5 -20t-54.5 20t-20.5 51zM361 790q0 30 20.5 50.5t54.5 20.5t54.5 -20.5t20.5 -50.5q0 -31 -20.5 -51t-54.5 -20t-54.5 20t-20.5 51z" />
    <glyph glyph-name="u04F5" unicode="&#x4f5;" horiz-adv-x="569" 
d="M60 490h160v-140q0 -40 16.5 -60t63.5 -20q21 0 35.5 4t20.5 8v208h160v-490h-160v181q-20 -11 -45.5 -18.5t-69.5 -7.5q-83 0 -132 36.5t-49 119.5v179zM110 642q0 30 20 52.5t55 22.5t55 -22.5t20 -52.5q0 -31 -20 -53t-55 -22t-55 22t-20 53zM310 642q0 30 20 52.5
t55 22.5t55 -22.5t20 -52.5q0 -31 -20 -53t-55 -22t-55 22t-20 53z" />
    <glyph glyph-name="u04F6" unicode="&#x4f6;" horiz-adv-x="505" 
d="M229 130h91v-301h-147v171h-108v666h410v-130h-246v-406z" />
    <glyph glyph-name="u04F7" unicode="&#x4f7;" horiz-adv-x="425" 
d="M404 378h-184v-266h85v-245h-133v133h-112v490h344v-112z" />
    <glyph glyph-name="u04F8" unicode="&#x4f8;" horiz-adv-x="874" 
d="M322 422q68 0 113.5 -17t73.5 -45t39.5 -63.5t11.5 -72.5q0 -57 -20 -99.5t-57.5 -70t-90 -41t-116.5 -13.5h-211v666h164v-250q14 2 39 4t54 2zM398 219q0 38 -27 62.5t-81 24.5q-10 0 -28 -1t-33 -3v-179h50q119 0 119 96zM809 0h-164v666h164v-666zM264 790
q0 30 20.5 50.5t54.5 20.5t54.5 -20.5t20.5 -50.5q0 -31 -20.5 -51t-54.5 -20t-54.5 20t-20.5 51zM479 790q0 30 20.5 50.5t54.5 20.5t54.5 -20.5t20.5 -50.5q0 -31 -20.5 -51t-54.5 -20t-54.5 20t-20.5 51z" />
    <glyph glyph-name="u04F9" unicode="&#x4f9;" horiz-adv-x="787" 
d="M266 112q17 0 34.5 2.5t31.5 10.5t22.5 21.5t8.5 36.5q0 26 -19 45.5t-70 19.5q-14 0 -30 -1.5t-24 -3.5v-131h46zM220 344q6 1 17.5 2.5t23.5 2.5t23.5 1.5t19.5 0.5q65 0 105.5 -16.5t63 -41.5t30.5 -55t8 -56q0 -85 -56.5 -133.5t-165.5 -48.5h-229v490h160v-146z
M574 0v490h160v-490h-160zM231 642q0 30 20 52.5t55 22.5t55 -22.5t20 -52.5q0 -31 -20 -53t-55 -22t-55 22t-20 53zM431 642q0 30 20 52.5t55 22.5t55 -22.5t20 -52.5q0 -31 -20 -53t-55 -22t-55 22t-20 53zM266 112q17 0 34.5 2.5t31.5 10.5t22.5 21.5t8.5 36.5
q0 26 -19 45.5t-70 19.5q-14 0 -30 -1.5t-24 -3.5v-131h46zM220 344q6 1 17.5 2.5t23.5 2.5t23.5 1.5t19.5 0.5q65 0 105.5 -16.5t63 -41.5t30.5 -55t8 -56q0 -85 -56.5 -133.5t-165.5 -48.5h-229v490h160v-146zM574 0v490h160v-490h-160z" />
    <glyph glyph-name="u04FA" unicode="&#x4fa;" horiz-adv-x="514" 
d="M65 255h-57v130h57v281h419v-130h-255v-151h189v-130h-189v-164q95 -6 138 -47.5t43 -106.5q0 -39 -14.5 -69.5t-37.5 -51.5t-53.5 -31.5t-61.5 -10.5q-37 0 -59.5 5t-36.5 10l18 94q11 -4 24 -5.5t27 -1.5q30 0 44 16t14 41q0 12 -4.5 24t-16.5 21.5t-32 15.5t-51 6
h-105v255z" />
    <glyph glyph-name="u04FB" unicode="&#x4fb;" horiz-adv-x="425" 
d="M404 378h-184v-104h92v-89h-92v-125q28 -5 48 -17t33 -28.5t19 -36t6 -38.5q0 -66 -35 -100.5t-89 -34.5q-11 0 -31 3t-40 15l18 71q8 -4 17 -5t16 -1q17 0 27.5 13t10.5 39t-21.5 43t-59.5 17h-79v185h-43v89h43v216h344v-112z" />
    <glyph glyph-name="u04FC" unicode="&#x4fc;" horiz-adv-x="643" 
d="M411 335l100 -146q18 -26 31.5 -48t23 -42t14 -41t4.5 -46q0 -34 -11 -67t-36 -58.5t-64 -41t-96 -15.5h-24l-7 105q18 0 35.5 2t31 8t22 17t8.5 28q0 28 -11.5 55.5t-39.5 69.5l-65 98l-134 -213h-175l225 335l-221 331h174l131 -208l131 208h174z" />
    <glyph glyph-name="u04FD" unicode="&#x4fd;" horiz-adv-x="512" 
d="M265 141l-94 -141h-166l175 248l-169 242h164l90 -135l91 135h164l-170 -242l72 -92q34 -44 52 -78.5t18 -78.5q0 -34 -10.5 -64.5t-33.5 -54t-59 -37t-86 -13.5h-18l-9 93q32 0 56.5 12t24.5 44q0 22 -12 47t-43 66z" />
    <glyph glyph-name="u04FE" unicode="&#x4fe;" horiz-adv-x="654" 
d="M96 288v94h115l-189 284h174l131 -208l131 208h174l-190 -284h107v-94h-107l194 -288h-175l-134 213l-134 -213h-175l193 288h-115z" />
    <glyph glyph-name="u04FF" unicode="&#x4ff;" horiz-adv-x="531" 
d="M5 0l152 211h-94v79h90l-142 200h164l90 -136l91 136h164l-144 -200h92v-79h-95l153 -211h-166l-95 142l-94 -142h-166z" />
    <glyph glyph-name="u0500" unicode="&#x500;" horiz-adv-x="611" 
d="M289 422q29 0 54 -2t39 -4v250h164v-666h-228q-59 0 -108 11t-84.5 35t-55 62.5t-19.5 94.5q0 47 13.5 87t42.5 69.5t74 46t108 16.5zM213 217q0 -47 26 -70.5t93 -23.5h50v179q-15 2 -33 3t-28 1q-60 0 -84 -26t-24 -63z" />
    <glyph glyph-name="u0501" unicode="&#x501;" horiz-adv-x="584" 
d="M524 0h-153v62q-23 -33 -59.5 -52.5t-87.5 -19.5q-41 0 -77 17.5t-62.5 50t-41.5 78.5t-15 103q0 64 20.5 113t55 82t80.5 49.5t98 16.5q26 0 46 -3.5t36 -8.5v218h160v-706zM282 113q51 0 82 34v225q-22 8 -57 8q-60 0 -89.5 -37t-29.5 -101q0 -57 22.5 -93t71.5 -36z
" />
    <glyph glyph-name="u0502" unicode="&#x502;" horiz-adv-x="859" 
d="M289 422q29 0 54 -2t39 -4v250h164v-434q0 -35 5.5 -57.5t15.5 -35.5t22.5 -18.5t26.5 -5.5q29 0 48.5 24t19.5 76v158h134v-165q0 -58 -16.5 -99.5t-45.5 -68.5t-69 -39.5t-87 -12.5q-13 0 -35 2.5t-46 9.5t-47.5 19t-38.5 32q-27 -23 -63 -37t-95 -14q-45 0 -86 11
t-71.5 35t-48.5 62.5t-18 94.5q0 47 13.5 87t42.5 69.5t74 46t108 16.5zM213 217q0 -94 97 -94q29 0 49.5 7.5t28.5 17.5q-3 13 -4.5 48.5t-1.5 105.5q-15 2 -33 3t-28 1q-60 0 -84 -26t-24 -63z" />
    <glyph glyph-name="u0503" unicode="&#x503;" horiz-adv-x="744" 
d="M524 186q0 -44 13 -59t35 -15q21 0 30.5 17t9.5 57v66h115v-88q0 -79 -46 -126.5t-140 -47.5q-60 0 -96 18.5t-56 50.5q-39 -44 -79 -56.5t-86 -12.5q-41 0 -77 17.5t-62.5 50t-41.5 78.5t-15 103q0 64 20.5 113t55 82t80.5 49.5t98 16.5q26 0 46 -3.5t36 -8.5v218h160
v-520zM282 113q51 0 82 34v225q-24 8 -57 8q-60 0 -89.5 -37t-29.5 -101q0 -57 22.5 -93t71.5 -36z" />
    <glyph glyph-name="u0504" unicode="&#x504;" horiz-adv-x="777" 
d="M464 204q0 -49 18 -69t52 -20q29 0 48.5 24t19.5 76v158h134v-165q0 -58 -16.5 -99.5t-45.5 -68.5t-69 -39.5t-87 -12.5q-67 0 -109 16t-65 42.5t-31.5 59t-8.5 65.5q0 56 -28 80.5t-99 24.5h-67v120h72q32 0 53.5 6.5t34.5 18t18.5 26t5.5 31.5q0 43 -25.5 59.5
t-61.5 16.5q-46 0 -82.5 -11t-74.5 -34l-25 120q18 13 41.5 22t50 15t54 9t51.5 3q48 0 89.5 -10t72 -30.5t48 -52.5t17.5 -75q0 -57 -31 -95.5t-95 -64.5q40 -6 67 -19.5t43.5 -33t23.5 -43.5t7 -50z" />
    <glyph glyph-name="u0505" unicode="&#x505;" horiz-adv-x="627" 
d="M247 149q0 23 -16.5 35t-58.5 12h-74v101h66q38 0 57 11t19 37q0 23 -16 35t-55 12q-30 0 -63.5 -10t-61.5 -24l-21 100q36 22 80 32t89 10q202 0 202 -131q0 -39 -26.5 -68t-71.5 -43q51 -11 81 -32t30 -69q0 -22 13.5 -33.5t24.5 -11.5q29 0 39.5 17t10.5 57v66h115
v-88q0 -79 -46 -126.5t-140 -47.5q-52 0 -86 12.5t-54.5 32t-28.5 44t-8 48.5v22z" />
    <glyph glyph-name="u0506" unicode="&#x506;" horiz-adv-x="611" 
d="M307 0v162q0 64 -33 89t-90 25h-67v120h72q32 0 53.5 6.5t34.5 18t18.5 26t5.5 31.5q0 43 -25.5 59.5t-61.5 16.5q-46 0 -82.5 -11t-74.5 -34l-25 120q18 13 41.5 22t50 15t54 9t51.5 3q48 0 89.5 -10t72 -30.5t48 -52.5t17.5 -75q0 -57 -31 -95.5t-95 -64.5
q36 -5 63 -17.5t44 -30.5t25.5 -40t8.5 -45v-87h91v-301h-147v171h-108z" />
    <glyph glyph-name="u0507" unicode="&#x507;" horiz-adv-x="511" 
d="M247 0v105q0 46 -17.5 65t-67.5 19h-64v101h66q45 0 60.5 14.5t15.5 40.5q0 23 -16 35t-55 12q-30 0 -63.5 -10t-61.5 -24l-21 100q36 22 80 32t89 10q202 0 202 -131q0 -39 -26.5 -71.5t-71.5 -46.5q25 -6 45 -15t33.5 -24.5t20.5 -39.5t7 -60h85v-245h-133v133h-107z
" />
    <glyph glyph-name="u0508" unicode="&#x508;" horiz-adv-x="937" 
d="M315 536l-17 -149q-13 -113 -36 -188t-53 -121t-65 -66.5t-72 -23.5l-49 122q27 9 49 30t39 59t29.5 95t19.5 138l21 234h443v-434q0 -35 5.5 -57.5t15.5 -35.5t22.5 -18.5t26.5 -5.5q29 0 48.5 24t19.5 76v158h134v-165q0 -58 -16.5 -99.5t-45.5 -68.5t-69 -39.5
t-87 -12.5q-69 0 -111.5 21.5t-66.5 56.5t-32 79t-8 89v302h-145z" />
    <glyph glyph-name="u0509" unicode="&#x509;" horiz-adv-x="750" 
d="M370 378h-102l-4 -44q-7 -80 -24 -143t-43 -107.5t-60.5 -68t-77.5 -23.5l-31 120q25 9 43 28.5t30.5 52t20 79t10.5 108.5l5 110h393v-304q0 -44 13 -59t35 -15q21 0 30.5 17t9.5 57v66h115v-88q0 -79 -46 -126.5t-140 -47.5q-52 0 -86 14.5t-54.5 39t-28.5 57t-8 69.5
v208z" />
    <glyph glyph-name="u050A" unicode="&#x50a;" horiz-adv-x="950" 
d="M473 271h-244v-271h-164v666h164v-261h244v261h164v-434q0 -35 5.5 -57.5t15.5 -35.5t22.5 -18.5t26.5 -5.5q29 0 48.5 24t19.5 76v158h134v-165q0 -58 -16.5 -99.5t-45.5 -68.5t-69 -39.5t-87 -12.5q-69 0 -111.5 21.5t-66.5 56.5t-32 79t-8 89v37z" />
    <glyph glyph-name="u050B" unicode="&#x50b;" horiz-adv-x="750" 
d="M60 0v490h160v-187h150v187h160v-304q0 -44 13 -59t35 -15q21 0 30.5 17t9.5 57v66h115v-88q0 -79 -46 -126.5t-140 -47.5q-52 0 -86 14.5t-54.5 39t-28.5 57t-8 69.5v20h-150v-190h-160z" />
    <glyph glyph-name="u050C" unicode="&#x50c;" horiz-adv-x="694" 
d="M377 678q69 0 129 -10.5t105 -30.5l-22 -124q-43 17 -90.5 25.5t-110.5 8.5q-39 0 -73.5 -13t-60.5 -40.5t-41 -70t-15 -101.5q0 -52 13 -91.5t36.5 -65.5t55.5 -39.5t70 -13.5q34 0 56.5 9.5t36.5 25.5t20 37.5t6 46.5v79h147v-87q0 -56 -21 -99.5t-57 -73.5t-85 -46
t-105 -16q-82 0 -145 24.5t-105.5 68.5t-64.5 105.5t-22 136.5q0 82 24.5 147.5t69 111.5t108 71t141.5 25z" />
    <glyph glyph-name="u050D" unicode="&#x50d;" horiz-adv-x="510" 
d="M291 500q38 0 74.5 -8t63.5 -22l-16 -114q-19 8 -45.5 14t-53.5 6q-64 0 -96 -35t-32 -96t27 -96t80 -35q27 0 45 11.5t18 44.5v64h130v-60q0 -85 -53 -134.5t-150 -49.5q-62 0 -110 18.5t-80.5 52t-49.5 80.5t-17 104t18 104t52 80.5t83.5 52t111.5 18.5z" />
    <glyph glyph-name="u050E" unicode="&#x50e;" horiz-adv-x="670" 
d="M536 666v-130h-179v-304q0 -35 5.5 -57.5t15.5 -35.5t22.5 -18.5t26.5 -5.5q29 0 48.5 24t19.5 76v158h134v-165q0 -58 -16.5 -99.5t-45.5 -68.5t-69 -39.5t-87 -12.5q-67 0 -109.5 20.5t-66.5 54t-33 75.5t-9 86v312h-179v130h522z" />
    <glyph glyph-name="u050F" unicode="&#x50f;" horiz-adv-x="544" 
d="M24 490h440v-112h-140v-192q0 -44 13 -59t35 -15q21 0 30.5 17t9.5 57v66h115v-88q0 -79 -46 -126.5t-140 -47.5q-52 0 -86 14.5t-54.5 39t-28.5 57t-8 69.5v208h-140v112z" />
    <glyph glyph-name="u0510" unicode="&#x510;" horiz-adv-x="512" 
d="M438 522q-39 20 -77.5 25.5t-69.5 5.5q-14 0 -30 -3t-30 -11.5t-23.5 -24.5t-9.5 -42q0 -33 27.5 -54t81.5 -21h65v-119h-71q-33 0 -54 -5.5t-34 -15.5t-18 -23.5t-5 -29.5q0 -40 30 -58.5t81 -18.5q52 0 87 7t70 19l19 -119q-39 -24 -91.5 -35t-131.5 -11
q-114 0 -171.5 51.5t-57.5 136.5q0 64 34 108t94 61q-59 21 -82.5 59.5t-23.5 86.5q0 50 19.5 85.5t51.5 58t73 33t85 10.5q49 0 99.5 -8.5t90.5 -28.5z" />
    <glyph glyph-name="u0511" unicode="&#x511;" horiz-adv-x="459" 
d="M147 252q-50 11 -71.5 41t-21.5 66q0 39 17.5 66t47 43.5t67.5 24t80 7.5q41 0 76.5 -5.5t77.5 -16.5l-23 -112q-21 10 -54 16t-60 6q-39 0 -63 -11.5t-24 -36.5q0 -23 20 -30.5t52 -7.5h77v-101h-57q-47 0 -62 -13t-15 -37q0 -41 82 -41q13 0 29 2t32.5 5t32 7.5
t26.5 10.5l16 -115q-12 -6 -33.5 -12t-47 -10t-52 -6.5t-47.5 -2.5q-101 0 -155.5 35t-54.5 101q0 48 28 77t80 46v4z" />
    <glyph glyph-name="u0512" unicode="&#x512;" horiz-adv-x="689" 
d="M315 536l-17 -149q-13 -112 -36 -187.5t-53 -121.5t-65.5 -66.5t-71.5 -23.5l-49 122q27 9 49 30t39 59t29.5 95t19.5 138l21 234h443v-633q0 -69 -18.5 -114.5t-52 -72t-80 -37.5t-101.5 -11h-9l-17 138h9q31 0 51 6.5t32 18t17 27.5t5 35v513h-145z" />
    <glyph glyph-name="u0513" unicode="&#x513;" horiz-adv-x="590" 
d="M530 490v-469q0 -114 -54 -168.5t-148 -54.5h-24l-13 112q24 2 39 8t24 18.5t12.5 33.5t3.5 54v354h-102l-4 -44q-7 -80 -24 -143t-43 -107.5t-60.5 -68t-77.5 -23.5l-31 120q25 9 43 28.5t30.5 52t20 79t10.5 108.5l5 110h393z" />
    <glyph glyph-name="u0514" unicode="&#x514;" horiz-adv-x="1031" 
d="M788 335l225 -335h-175l-134 213l-134 -213h-175l225 335l-134 201h-171l-17 -149q-13 -112 -36 -187.5t-53 -121.5t-65.5 -66.5t-71.5 -23.5l-49 122q27 9 49 30t39 59t29.5 95t19.5 138l21 234h392l131 -208l131 208h174z" />
    <glyph glyph-name="u0515" unicode="&#x515;" horiz-adv-x="838" 
d="M312 0l175 248l-91 130h-128l-4 -44q-7 -80 -24 -143t-43 -107.5t-60.5 -68t-77.5 -23.5l-31 120q25 9 43 28.5t30.5 52t20 79t10.5 108.5l5 110h345l90 -135l91 135h164l-170 -242l176 -248h-166l-95 141l-94 -141h-166z" />
    <glyph glyph-name="u0516" unicode="&#x516;" horiz-adv-x="924" 
d="M547 449q0 -34 -9 -62l185 279h185l-225 -329l241 -337h-197l-223 325q-38 -49 -105.5 -74.5t-152.5 -25.5h-17v-225h-164v666h192q63 0 116.5 -13t92 -39.5t60 -67.5t21.5 -97zM389 448q0 92 -131 92h-29v-189h27q66 0 99.5 26t33.5 71z" />
    <glyph glyph-name="u0517" unicode="&#x517;" horiz-adv-x="906" 
d="M60 490h153v-58q48 68 147 68q63 0 110.5 -38.5t70.5 -107.5q13 -42 15 -92l146 228h173l-158 -241l179 -249h-183l-157 235q-3 -54 -21 -98q-30 -72 -92 -109.5t-141 -37.5q-26 0 -46 3.5t-36 8.5v-208h-160v696zM302 377q-52 0 -82 -34v-227q11 -4 25 -6t32 -2
q63 0 91 38t28 104q0 54 -22.5 90.5t-71.5 36.5z" />
    <glyph glyph-name="u0518" unicode="&#x518;" horiz-adv-x="886" 
d="M217 253q-78 28 -114 78.5t-36 114.5q0 53 19 94t54 69t85 42.5t113 14.5h497v-130h-251v-134h239v-130h-239v-142h254v-130h-418v229h-57l-144 -229h-192zM231 436q0 -53 36 -74t92 -21h61v193h-76q-38 0 -60.5 -8t-34 -21.5t-15 -31.5t-3.5 -37z" />
    <glyph glyph-name="u0519" unicode="&#x519;" horiz-adv-x="807" 
d="M568 500q97 0 152.5 -56.5t55.5 -156.5q0 -38 -9 -81h-284q2 -45 30 -72.5t88 -27.5q36 0 75.5 6.5t68.5 19.5l20 -103q-38 -19 -85.5 -29t-98.5 -10q-97 0 -158 40t-87 109l-5 14h-36l-102 -153h-178l153 189q-60 18 -87.5 51.5t-27.5 81.5q0 78 54.5 118t154.5 40h198
l5 2q46 18 103 18zM282 378q-26 0 -40.5 -7.5t-22 -18t-9 -23t-1.5 -21.5q0 -10 2 -21.5t10.5 -21t24.5 -16t43 -6.5h30q2 42 8.5 73.5t25.5 61.5h-71zM563 398q-38 0 -58.5 -24.5t-20.5 -67.5h142q2 10 2 17q0 32 -17 53.5t-48 21.5z" />
    <glyph glyph-name="u051A" unicode="&#x51a;" horiz-adv-x="748" 
d="M393 -10q-4 -1 -8 -1.5t-11 -0.5q-81 0 -144.5 27.5t-107 74.5t-66 109.5t-22.5 133.5t22.5 133.5t66 109.5t107 74.5t144.5 27.5t144 -27.5t106.5 -74.5t66.5 -109.5t23 -133.5q0 -92 -37.5 -168.5t-108.5 -122.5l160 -106l-77 -117zM374 118q43 0 76 16t55.5 44.5
t33.5 68t11 86.5t-11 86.5t-33.5 68t-55.5 44.5t-76 16q-44 0 -76.5 -16t-55 -44.5t-33.5 -68t-11 -86.5t11 -86.5t33.5 -68t55 -44.5t76.5 -16z" />
    <glyph glyph-name="u051B" unicode="&#x51b;" horiz-adv-x="584" 
d="M524 -206h-160v243q-22 -22 -53 -34.5t-72 -12.5q-50 0 -89.5 18.5t-66.5 51.5t-41 79t-14 101q0 59 18 107t53.5 82t88.5 52.5t122 18.5q64 0 115 -12t99 -36v-658zM285 112q46 0 79 26v232q-23 11 -56 11q-61 0 -90.5 -38.5t-29.5 -101.5q0 -60 23.5 -94.5t73.5 -34.5z
" />
    <glyph glyph-name="u051C" unicode="&#x51c;" horiz-adv-x="998" 
d="M714 204l103 462h168l-184 -666h-167l-135 500l-135 -500h-167l-184 666h168l103 -462l124 462h182z" />
    <glyph glyph-name="u051D" unicode="&#x51d;" horiz-adv-x="804" 
d="M510 0l-108 313l-108 -313h-150l-139 490h153l69 -295l100 295h150l100 -295l69 295h153l-139 -490h-150z" />
    <glyph glyph-name="u051E" unicode="&#x51e;" horiz-adv-x="640" 
d="M65 0v666h164v-319l107 162l-65 42l50 83l69 -43l49 75h185l-107 -157l80 -52l-50 -84l-86 55l-62 -91l241 -337h-197l-214 326v-326h-164z" />
    <glyph glyph-name="u051F" unicode="&#x51f;" horiz-adv-x="571" 
d="M60 0v490h160v-229l80 124l-53 41l47 61l47 -37l26 40h173l-85 -129l54 -41l-47 -60l-49 37l-31 -48l179 -249h-183l-158 237v-237h-160z" />
    <glyph glyph-name="u0520" unicode="&#x520;" horiz-adv-x="1011" 
d="M625 400q14 4 41 6.5t47 2.5q74 0 126 -21t84.5 -57.5t47.5 -86.5t15 -108q0 -61 -20.5 -114.5t-62 -94t-103 -66.5t-143.5 -31l-13 133h9q81 0 125.5 39t44.5 124q0 82 -43 120t-114 38q-22 0 -41 -3v-281h-165v536h-145l-17 -149q-13 -112 -36 -187.5t-53 -121.5
t-65.5 -66.5t-71.5 -23.5l-49 122q27 9 49 30t39 59t29.5 95t19.5 138l21 234h443z" />
    <glyph glyph-name="u0521" unicode="&#x521;" horiz-adv-x="874" 
d="M530 280q0 2 23.5 7.5t52.5 5.5q54 0 99 -14.5t77.5 -43t50 -71t17.5 -98.5q0 -73 -26.5 -124.5t-69.5 -84.5t-96 -48t-106 -15h-25l-9 107h6q75 0 120 36t45 119q0 63 -29.5 96t-83.5 33q-12 0 -20.5 -1t-14.5 -2q-7 -2 -11 -3v-179h-160v378h-102l-4 -44
q-7 -80 -24 -143t-43 -107.5t-60.5 -68t-77.5 -23.5l-31 120q25 9 43 28.5t30.5 52t20 79t10.5 108.5l5 110h393v-210z" />
    <glyph glyph-name="u0522" unicode="&#x522;" horiz-adv-x="1033" 
d="M473 0v271h-244v-271h-164v666h164v-261h244v261h164v-266q14 4 41 6.5t47 2.5q74 0 127.5 -20t88 -55t51 -83t16.5 -104q0 -66 -22 -122t-65 -97.5t-106.5 -67t-145.5 -30.5l-13 133h9q80 0 130 42t50 126q0 46 -13 75.5t-35.5 47t-53 24t-65.5 6.5q-22 0 -41 -3v-281
h-164z" />
    <glyph glyph-name="u0523" unicode="&#x523;" horiz-adv-x="874" 
d="M530 282q9 2 21 5q10 2 24 4t31 2q53 0 98 -14.5t77.5 -43t50.5 -71t18 -98.5q0 -73 -26.5 -124.5t-69.5 -84.5t-96 -48t-106 -15h-25l-9 107h6q75 0 120 36t45 119q0 63 -29.5 96t-83.5 33q-12 0 -20.5 -1t-14.5 -2q-7 -2 -11 -3v-179h-160v190h-150v-190h-160v490h160
v-187h150v187h160v-208z" />
    <glyph glyph-name="u0524" unicode="&#x524;" horiz-adv-x="771" 
d="M631 666v-536h91v-301h-147v171h-108v536h-238v-536h-164v666h566z" />
    <glyph glyph-name="u0525" unicode="&#x525;" horiz-adv-x="639" 
d="M530 112h85v-245h-133v133h-112v378h-150v-378h-160v490h470v-378z" />
    <glyph glyph-name="u0526" unicode="&#x526;" horiz-adv-x="718" 
d="M444 0v198q0 33 -7 54t-20.5 33t-33.5 17t-47 5q-28 0 -58 -9t-49 -21v-277h-164v666h164v-264q29 14 76.5 25.5t96.5 11.5q96 0 151 -47.5t55 -157.5v-104h91v-301h-147v171h-108z" />
    <glyph glyph-name="u0527" unicode="&#x527;" horiz-adv-x="639" 
d="M60 0v706h160v-274q22 35 57 51.5t74 16.5q49 0 83 -20.5t55.5 -54.5t31 -78.5t9.5 -93.5v-141h85v-245h-133v133h-112v256q0 61 -19 89.5t-58 28.5q-25 0 -43.5 -11t-29.5 -27v-336h-160z" />
    <glyph glyph-name="endash" unicode="&#x2013;" horiz-adv-x="525" 
d="M50 259v128h425v-128h-425z" />
    <glyph glyph-name="emdash" unicode="&#x2014;" horiz-adv-x="804" 
d="M50 195v128h704v-128h-704z" />
    <glyph glyph-name="quoteleft" unicode="&#x2018;" horiz-adv-x="288" 
d="M258 649q-32 -63 -46.5 -123t-18.5 -127l-153 15q1 87 32 160t80 132z" />
    <glyph glyph-name="quoteright" unicode="&#x2019;" horiz-adv-x="288" 
d="M40 456q32 63 46.5 123t18.5 127l153 -15q-1 -87 -32 -160t-80 -132z" />
    <glyph glyph-name="quotesinglbase" unicode="&#x201a;" horiz-adv-x="296" 
d="M33 -105q32 63 46.5 123t18.5 127l153 -15q-1 -87 -32 -160t-80 -132z" />
    <glyph glyph-name="quotedblleft" unicode="&#x201c;" horiz-adv-x="516" 
d="M486 649q-32 -63 -46.5 -123t-18.5 -127l-153 15q1 87 32 160t80 132zM258 649q-32 -63 -46.5 -123t-18.5 -127l-153 15q1 87 32 160t80 132z" />
    <glyph glyph-name="quotedblright" unicode="&#x201d;" horiz-adv-x="516" 
d="M40 456q32 63 46.5 123t18.5 127l153 -15q-1 -87 -32 -160t-80 -132zM268 456q32 63 46.5 123t18.5 127l153 -15q-1 -87 -32 -160t-80 -132z" />
    <glyph glyph-name="quotedblbase" unicode="&#x201e;" horiz-adv-x="524" 
d="M33 -105q32 63 46.5 123t18.5 127l153 -15q-1 -87 -32 -160t-80 -132zM261 -105q32 63 46.5 123t18.5 127l153 -15q-1 -87 -32 -160t-80 -132z" />
    <glyph glyph-name="dagger" unicode="&#x2020;" horiz-adv-x="464" 
d="M182 80l-30 302l29 92l-71 -26h-60v132h60l71 -27l-29 93v60h160v-60l-29 -93l71 27h60v-132h-60l-71 26l29 -92l-30 -302h-100z" />
    <glyph glyph-name="daggerdbl" unicode="&#x2021;" horiz-adv-x="464" 
d="M181 474l-71 -26h-60v132h60l71 -27l-29 93v60h160v-60l-29 -93l71 27h60v-132h-60l-71 26l29 -92v-58l-29 -92l71 26h60v-132h-60l-71 27l29 -93v-60h-160v60l29 93l-71 -27h-60v132h60l71 -26l-29 92v58z" />
    <glyph glyph-name="bullet" unicode="&#x2022;" horiz-adv-x="436" 
d="M65 283q0 32 11 60t31.5 49t48.5 33t61 12t61.5 -12t49 -33t32 -49t11.5 -60q0 -31 -11.5 -58.5t-32 -48.5t-49 -33t-61.5 -12t-61 12t-48.5 33t-31.5 48.5t-11 58.5z" />
    <glyph glyph-name="ellipsis" unicode="&#x2026;" horiz-adv-x="858" 
d="M53 82q0 36 23 63t67 27t67 -27t23 -63t-23 -63t-67 -27t-67 27t-23 63zM339 82q0 36 23 63t67 27t67 -27t23 -63t-23 -63t-67 -27t-67 27t-23 63zM625 82q0 36 23 63t67 27t67 -27t23 -63t-23 -63t-67 -27t-67 27t-23 63z" />
    <glyph glyph-name="perthousand" unicode="&#x2030;" horiz-adv-x="1447" 
d="M424 479q0 -36 -11.5 -71.5t-35 -64t-59.5 -46t-86 -17.5t-86 17.5t-59.5 46t-35 64t-11.5 71.5t11.5 71.5t35 64t59.5 46t86 17.5t86 -17.5t59.5 -46t35 -64t11.5 -71.5zM297 479q0 45 -15.5 71.5t-49.5 26.5t-49.5 -26.5t-15.5 -71.5t15.5 -71.5t49.5 -26.5t49.5 26.5
t15.5 71.5zM599 678l114 -55l-302 -635l-112 57zM970 187q0 -36 -11.5 -71.5t-35 -64t-59.5 -46t-86 -17.5t-86 17.5t-59.5 46t-35 64t-11.5 71.5t11.5 71.5t35 64t59.5 46t86 17.5t86 -17.5t59.5 -46t35 -64t11.5 -71.5zM843 187q0 45 -15.5 71.5t-49.5 26.5t-49.5 -26.5
t-15.5 -71.5t15.5 -71.5t49.5 -26.5t49.5 26.5t15.5 71.5zM1407 187q0 -36 -11.5 -71.5t-35 -64t-59.5 -46t-86 -17.5t-86 17.5t-59.5 46t-35 64t-11.5 71.5t11.5 71.5t35 64t59.5 46t86 17.5t86 -17.5t59.5 -46t35 -64t11.5 -71.5zM1280 187q0 45 -15.5 71.5t-49.5 26.5
t-49.5 -26.5t-15.5 -71.5t15.5 -71.5t49.5 -26.5t49.5 26.5t15.5 71.5z" />
    <glyph glyph-name="guilsinglleft" unicode="&#x2039;" horiz-adv-x="375" 
d="M320 107l-104 -81l-181 215l181 215l104 -81l-115 -134z" />
    <glyph glyph-name="guilsinglright" unicode="&#x203a;" horiz-adv-x="375" 
d="M170 241l-115 134l104 81l181 -215l-181 -215l-104 81z" />
    <glyph glyph-name="fraction" unicode="&#x2044;" horiz-adv-x="242" 
d="M240 678l102 -54l-340 -636l-102 55z" />
    <glyph glyph-name="uni2074" unicode="&#x2074;" horiz-adv-x="415" 
d="M337 509v-89h-126v89h-176l-23 87l183 228h142v-221h60v-94h-60zM211 716l-88 -113h88v113z" />
    <glyph glyph-name="Euro" unicode="&#x20ac;" horiz-adv-x="572" 
d="M392 678q36 0 73.5 -6t66.5 -19l-15 -113q-20 7 -44.5 10.5t-49.5 3.5q-60 0 -93.5 -22.5t-48.5 -70.5h198v-96h-212v-64h212v-96h-198q15 -48 48.5 -70.5t93.5 -22.5q25 0 49.5 3.5t44.5 10.5l15 -113q-29 -13 -66.5 -19t-73.5 -6q-106 0 -176.5 54.5t-96.5 162.5h-89
v96h76q-1 8 -1 16v16v16t1 16h-76v96h89q26 108 96.5 162.5t176.5 54.5z" />
    <glyph glyph-name="uni2116" unicode="&#x2116;" horiz-adv-x="1127" 
d="M437 0l-221 388v-388h-151v666h151l221 -388v388h151v-666h-151zM696 255h370v-113h-370v113zM1083 493q0 -38 -13 -71.5t-38.5 -58.5t-63.5 -39t-87 -14q-50 0 -87.5 14t-63 39t-38.5 58.5t-13 71.5t13 71.5t38.5 58t63 39t87.5 14.5q49 0 87 -14.5t63.5 -39t38.5 -58
t13 -71.5zM951 493q0 41 -17.5 63.5t-52.5 22.5t-52.5 -22.5t-17.5 -63.5t17.5 -63.5t52.5 -22.5t52.5 22.5t17.5 63.5z" />
    <glyph glyph-name="onethird" horiz-adv-x="933" 
d="M566 678l102 -54l-340 -636l-102 55zM156 262v270l-86 -28l-30 103l159 59h93v-404h-136zM893 113q0 -29 -13.5 -52t-37 -38.5t-56.5 -24t-72 -8.5q-33 0 -68.5 8t-60.5 19l21 89q20 -8 44 -13t49 -5q26 0 43 8t17 28t-16.5 27t-38.5 7h-75v93h58q31 0 46 9.5t15 26.5
q0 15 -12.5 22t-32.5 7q-25 0 -46 -5t-41 -13l-20 89q33 16 68 21.5t68 5.5q66 0 108 -27t42 -79q0 -31 -18.5 -56.5t-55.5 -39.5q33 -10 59 -33t26 -66z" />
    <glyph glyph-name="twothirds" horiz-adv-x="1007" 
d="M640 678l102 -54l-340 -636l-102 55zM967 113q0 -29 -13.5 -52t-37 -38.5t-56.5 -24t-72 -8.5q-33 0 -68.5 8t-60.5 19l21 89q20 -8 44 -13t49 -5q26 0 43 8t17 28t-16.5 27t-38.5 7h-75v93h58q31 0 46 9.5t15 26.5q0 15 -12.5 22t-32.5 7q-25 0 -46 -5t-41 -13l-20 89
q33 16 68 21.5t68 5.5q66 0 108 -27t42 -79q0 -31 -18.5 -56.5t-55.5 -39.5q33 -10 59 -33t26 -66zM48 637q62 39 146 39q72 0 115.5 -34t43.5 -95q0 -51 -23.5 -89t-66.5 -70q-9 -7 -14.5 -11t-13.5 -9h125v-106h-300l-23 80q29 24 56.5 46t57.5 48q27 23 46.5 44.5
t19.5 47.5q0 20 -13.5 31t-39.5 11q-23 0 -45 -7.5t-41 -18.5z" />
    <glyph glyph-name="oneeighth" horiz-adv-x="941" 
d="M566 678l102 -54l-340 -636l-102 55zM156 262v270l-86 -28l-30 103l159 59h93v-404h-136zM557 109q0 38 23.5 60.5t58.5 41.5q-30 17 -48.5 40t-18.5 55q0 50 44 79t113 29q34 0 62.5 -7t49.5 -20t33 -32t12 -44q0 -33 -23 -57t-49 -37q38 -20 62.5 -43.5t24.5 -63.5
q0 -27 -13.5 -49t-36.5 -37.5t-54.5 -24.5t-67.5 -9q-83 0 -127.5 32.5t-44.5 86.5zM777 113q0 18 -13.5 30t-36.5 24q-24 -14 -35 -25.5t-11 -28.5t13 -27.5t35 -10.5q21 0 34.5 11t13.5 27zM690 302q0 -11 8.5 -21.5t29.5 -22.5q20 11 30 20.5t10 23.5q0 11 -8.5 21
t-30.5 10q-19 0 -29 -8.5t-10 -22.5z" />
    <glyph glyph-name="threeeighths" horiz-adv-x="966" 
d="M582 109q0 38 23.5 60.5t58.5 41.5q-30 17 -48.5 40t-18.5 55q0 50 44 79t113 29q34 0 62.5 -7t49.5 -20t33 -32t12 -44q0 -33 -23 -57t-49 -37q38 -20 62.5 -43.5t24.5 -63.5q0 -27 -13.5 -49t-36.5 -37.5t-54.5 -24.5t-67.5 -9q-83 0 -127.5 32.5t-44.5 86.5zM802 113
q0 18 -13.5 30t-36.5 24q-24 -14 -35 -25.5t-11 -28.5t13 -27.5t35 -10.5q21 0 34.5 11t13.5 27zM715 302q0 -11 8.5 -21.5t29.5 -22.5q20 11 30 20.5t10 23.5q0 11 -8.5 21t-30.5 10q-19 0 -29 -8.5t-10 -22.5zM591 678l102 -54l-340 -636l-102 55zM363 375
q0 -29 -13.5 -52t-37 -38.5t-56.5 -24t-72 -8.5q-33 0 -68.5 8t-60.5 19l21 89q20 -8 44 -13t49 -5q26 0 43 8t17 28t-16.5 27t-38.5 7h-75v93h58q31 0 46 9.5t15 26.5q0 15 -12.5 22t-32.5 7q-25 0 -46 -5t-41 -13l-20 89q33 16 68 21.5t68 5.5q66 0 108 -27t42 -79
q0 -31 -18.5 -56.5t-55.5 -39.5q33 -10 59 -33t26 -66z" />
    <glyph glyph-name="fiveeighths" horiz-adv-x="977" 
d="M593 109q0 38 23.5 60.5t58.5 41.5q-30 17 -48.5 40t-18.5 55q0 50 44 79t113 29q34 0 62.5 -7t49.5 -20t33 -32t12 -44q0 -33 -23 -57t-49 -37q38 -20 62.5 -43.5t24.5 -63.5q0 -27 -13.5 -49t-36.5 -37.5t-54.5 -24.5t-67.5 -9q-83 0 -127.5 32.5t-44.5 86.5zM813 113
q0 18 -13.5 30t-36.5 24q-24 -14 -35 -25.5t-11 -28.5t13 -27.5t35 -10.5q21 0 34.5 11t13.5 27zM726 302q0 -11 8.5 -21.5t29.5 -22.5q20 11 30 20.5t10 23.5q0 11 -8.5 21t-30.5 10q-19 0 -29 -8.5t-10 -22.5zM602 678l102 -54l-340 -636l-102 55zM372 395
q0 -33 -14.5 -59.5t-39 -45t-58 -28.5t-71.5 -10q-37 0 -71 5.5t-63 15.5l16 94q27 -8 52 -12t51 -4q28 0 46.5 9t18.5 29q0 18 -15.5 26t-41.5 8h-104v243h267v-100h-138v-47h5q30 0 58.5 -7t51 -22t36.5 -38.5t14 -56.5z" />
    <glyph glyph-name="seveneighths" horiz-adv-x="927" 
d="M543 109q0 38 23.5 60.5t58.5 41.5q-30 17 -48.5 40t-18.5 55q0 50 44 79t113 29q34 0 62.5 -7t49.5 -20t33 -32t12 -44q0 -33 -23 -57t-49 -37q38 -20 62.5 -43.5t24.5 -63.5q0 -27 -13.5 -49t-36.5 -37.5t-54.5 -24.5t-67.5 -9q-83 0 -127.5 32.5t-44.5 86.5zM763 113
q0 18 -13.5 30t-36.5 24q-24 -14 -35 -25.5t-11 -28.5t13 -27.5t35 -10.5q21 0 34.5 11t13.5 27zM676 302q0 -11 8.5 -21.5t29.5 -22.5q20 11 30 20.5t10 23.5q0 11 -8.5 21t-30.5 10q-19 0 -29 -8.5t-10 -22.5zM552 678l102 -54l-340 -636l-102 55zM382 577l-174 -315h-139
l172 298h-176v106h301z" />
    <glyph glyph-name="minus" unicode="&#x2212;" horiz-adv-x="576" 
d="M50 264v118h476v-118h-476z" />
    <glyph glyph-name="u2DE0" unicode="&#x2de0;" 
d="M-151 781q0 -38 -13 -64t-33 -42.5t-45 -24t-49 -7.5q-63 0 -99.5 38t-36.5 118q0 32 2.5 58.5t9 49t19 42.5t32.5 38q15 14 37 23.5t44 16.5t40.5 12.5t27.5 11.5l20 -74q-13 -7 -29.5 -12t-34 -10t-35 -11t-31.5 -14q-21 -14 -33 -33t-12 -44h4q8 16 30.5 32t66.5 16
q54 0 86 -34t32 -86zM-236 775q0 11 -2.5 23t-8.5 21.5t-17 16t-28 6.5q-8 0 -17 -3t-16.5 -10.5t-12 -20.5t-4.5 -33q0 -9 1.5 -21t7 -23t15.5 -18.5t27 -7.5q30 0 42.5 20.5t12.5 49.5z" />
    <glyph glyph-name="u2DE1" unicode="&#x2de1;" 
d="M-397 647v252h112q57 0 84 -14t27 -49q0 -25 -14.5 -40t-35.5 -20q20 -4 38.5 -15.5t18.5 -39.5q0 -38 -28 -56t-79 -18h-123zM-283 701q33 0 33 24q0 13 -7 19t-28 6h-29v-49h31zM-285 798q19 0 25.5 7.5t6.5 17.5q0 11 -7 16.5t-25 5.5h-29v-47h29z" />
    <glyph glyph-name="u2DE2" unicode="&#x2de2;" 
d="M-158 841h-95v-194h-83v252h178v-58z" />
    <glyph glyph-name="u2DE3" unicode="&#x2de3;" 
d="M-395 647v-63h-68v121h26q16 19 26 54.5t12 83.5l2 56h204v-194h35v-121h-68v63h-169zM-328 841q-3 -26 -6 -45.5t-6.5 -35.5t-9 -29t-13.5 -26h87v136h-52z" />
    <glyph glyph-name="u2DE4" unicode="&#x2de4;" 
d="M-340 781v118h83v-118l75 118h89l-81 -124l92 -128h-94l-81 122v-122h-83v122l-81 -122h-94l92 128l-81 124h89z" />
    <glyph glyph-name="u2DE5" unicode="&#x2de5;" 
d="M-364 880q15 8 37 15t49 7q103 0 103 -67q0 -20 -13.5 -34.5t-36.5 -21.5q26 -6 41 -20.5t15 -38.5q0 -38 -27.5 -58t-78.5 -20q-29 0 -53 7t-41 18l8 52q21 -10 39.5 -16t36.5 -6q20 0 27.5 7.5t7.5 18.5q0 12 -8.5 18t-29.5 6h-38v51h34q39 0 39 25q0 24 -36 24
q-16 0 -33 -5t-31 -12z" />
    <glyph glyph-name="u2DE6" unicode="&#x2de6;" 
d="M-411 647v252h83v-118l76 118h89l-81 -124l92 -128h-94l-82 122v-122h-83z" />
    <glyph glyph-name="u2DE7" unicode="&#x2de7;" 
d="M-131 899v-252h-83v194h-52l-2 -22q-8 -82 -34.5 -129t-71.5 -47l-16 62q27 8 39.5 41t14.5 96l2 57h203z" />
    <glyph glyph-name="u2DE8" unicode="&#x2de8;" 
d="M-154 899h79l14 -252h-78l-8 148l-56 -116h-49l-63 116l-5 -148h-70l13 252h87l69 -136z" />
    <glyph glyph-name="u2DE9" unicode="&#x2de9;" 
d="M-403 647v252h83v-96h77v96h83v-252h-83v98h-77v-98h-83z" />
    <glyph glyph-name="u2DEA" unicode="&#x2dea;" 
d="M-425 774q0 38 12.5 64t32.5 41.5t44.5 22.5t48.5 7q67 0 102.5 -36.5t35.5 -98.5q0 -28 -9 -52.5t-26.5 -42.5t-43.5 -28.5t-59 -10.5q-27 0 -52 7.5t-44 24t-30.5 42t-11.5 60.5zM-234 774q0 28 -11 50t-42 22t-42 -22t-11 -50q0 -27 11 -49.5t42 -22.5t42 22.5
t11 49.5z" />
    <glyph glyph-name="u2DEB" unicode="&#x2deb;" 
d="M-409 647v252h242v-252h-83v194h-76v-194h-83z" />
    <glyph glyph-name="u2DEC" unicode="&#x2dec;" 
d="M-382 903h80v-30q26 35 76 35q45 0 73.5 -35t28.5 -95q0 -33 -10.5 -58.5t-28.5 -42.5t-42 -25.5t-51 -8.5q-25 0 -43 6v-108h-83v362zM-256 844q-27 0 -43 -18v-118q11 -4 30 -4q33 0 47.5 20t14.5 54q0 28 -11.5 47t-37.5 19z" />
    <glyph glyph-name="u2DED" unicode="&#x2ded;" 
d="M-281 902q43 0 71 -16l-8 -58q-10 4 -23.5 7t-27.5 3q-33 0 -49 -18t-16 -49t16 -48t49 -17q14 0 27.5 3t23.5 7l8 -59q-14 -7 -32.5 -11t-38.5 -4q-63 0 -100 35t-37 94q0 62 37 96.5t100 34.5z" />
    <glyph glyph-name="u2DEE" unicode="&#x2dee;" 
d="M-412 899h229v-58h-73v-194h-83v194h-73v58z" />
    <glyph glyph-name="u2DEF" unicode="&#x2def;" 
d="M-420 647l90 128l-87 124h84l46 -69l47 69h84l-87 -124l91 -128h-86l-49 73l-48 -73h-85z" />
    <glyph glyph-name="u2DF0" unicode="&#x2df0;" 
d="M-333 899v-193h75v193h83v-194h44v-125h-68v68h-217v251h83z" />
    <glyph glyph-name="u2DF1" unicode="&#x2df1;" 
d="M-423 899h83v-72q0 -20 8 -30.5t32 -10.5q21 0 29 6v107h83v-251h-83v93q-11 -6 -24 -10t-35 -4q-43 0 -68 19t-25 61v92z" />
    <glyph glyph-name="u2DF2" unicode="&#x2df2;" 
d="M-469 647v252h83v-194h70v194h83v-194h70v194h83v-252h-389z" />
    <glyph glyph-name="u2DF3" unicode="&#x2df3;" 
d="M-469 647v252h83v-194h70v194h83v-194h70v194h83v-194h44v-127h-69v69h-364z" />
    <glyph glyph-name="u2DF4" unicode="&#x2df4;" 
d="M-435 774q0 38 12.5 64t32.5 41.5t44.5 22.5t48.5 7q67 0 102.5 -36.5t35.5 -98.5q0 -28 -9 -52.5t-26.5 -42.5t-43.5 -28.5t-59 -10.5q-27 0 -52 7.5t-44 24t-30.5 42t-11.5 60.5zM-350 782q5 10 13 15.5t16 5.5q18 0 29 -8t27 -8q13 0 20 4q-2 23 -14 39t-38 16
q-28 0 -40 -18.5t-13 -45.5zM-348 753q3 -21 14.5 -36t36.5 -15q28 0 39.5 18t13.5 42q-6 -8 -13.5 -13t-16.5 -5q-17 0 -27 7t-26 7q-5 0 -10.5 -1t-10.5 -4z" />
    <glyph glyph-name="u2DF5" unicode="&#x2df5;" 
d="M-327 903q17 0 37.5 -1t43.5 -3h178v-58h-95v-195h-83v187q-6 1 -27 3.5t-41 2.5q-42 0 -59 -19.5t-17 -47.5q0 -31 16 -49t49 -18q31 0 51 11l8 -59q-14 -7 -32.5 -11t-38.5 -4q-63 0 -99.5 36t-36.5 94q0 60 37.5 95.5t108.5 35.5z" />
    <glyph glyph-name="u2DF6" unicode="&#x2df6;" 
d="M-231 673q-12 -12 -32 -21t-45 -9q-35 0 -53.5 21t-18.5 51q0 68 85 74q15 1 31.5 1.5t29.5 0.5v9q0 41 -46 41q-38 0 -66 -16l-15 58q18 10 43 16.5t54 6.5q54 0 83.5 -27t29.5 -84v-147h-80v25zM-276 697q23 0 42 11v38q-12 -1 -22 -2.5t-19 -2.5q-25 -3 -25 -23
q0 -21 24 -21z" />
    <glyph glyph-name="u2DF7" unicode="&#x2df7;" 
d="M-258 902q48 0 76.5 -28.5t28.5 -79.5q0 -22 -4 -41h-145q1 -23 15.5 -37t44.5 -14q19 0 39 3t34 10l11 -52q-42 -20 -94 -20q-65 0 -99 35t-34 92q0 63 34.5 97.5t92.5 34.5zM-261 850q-19 0 -29.5 -12.5t-10.5 -34.5h72q1 3 1 9q0 16 -8.5 27t-24.5 11z" />
    <glyph glyph-name="u2DF8" unicode="&#x2df8;" 
d="M-324 872v27h83v-27h45v-58h-45v-25q30 -4 48 -17.5t27.5 -33t12 -43t2.5 -47.5h-80q0 54 -11.5 76t-40.5 22q-30 0 -40 -21t-12 -77h-80q0 24 3.5 48t13 43.5t27.5 32.5t47 17v25h-45v58h45z" />
    <glyph glyph-name="u2DF9" unicode="&#x2df9;" 
d="M-247 750q20 23 29.5 48t9.5 48q0 10 -4 20t-15 18l57 42q14 -5 26.5 -23.5t12.5 -43.5q0 -36 -15.5 -72t-61.5 -69q22 -17 33.5 -34.5t13.5 -45.5q0 -47 -29 -67.5t-68 -20.5q-16 0 -32 4t-28.5 12t-20.5 21.5t-8 32.5q0 16 2.5 28t8 23t15.5 21.5t25 22.5
q-28 26 -48.5 62.5t-29.5 95.5l69 13q7 -47 19 -78t39 -58zM-285 624q0 -29 25 -29q11 0 18 6t7 21q0 20 -7.5 31t-17.5 24q-11 -12 -18 -24.5t-7 -28.5z" />
    <glyph glyph-name="u2DFA" unicode="&#x2dfa;" 
d="M-364 877v22h84v-22h70v-49h-70v-30q8 2 21 2.5t23 0.5q54 0 77 -21.5t23 -51.5q0 -42 -29.5 -61.5t-78.5 -19.5h-120v181h-33v49h33zM-216 728q0 28 -41 28q-3 0 -10 -0.5t-13 -1.5v-55h19q25 0 35 6t10 23z" />
    <glyph glyph-name="u2DFB" unicode="&#x2dfb;" 
d="M-74 775q0 -28 -9 -52.5t-26.5 -42.5t-43.5 -28.5t-59 -10.5q-55 0 -91 24.5t-45 80.5h-40v-99h-83v252h83v-97h40q9 53 48.5 80.5t87.5 27.5q67 0 102.5 -36.5t35.5 -98.5zM-159 775q0 28 -11 50t-42 22t-42 -22t-11 -50q0 -27 11 -49.5t42 -22.5t42 22.5t11 49.5z" />
    <glyph glyph-name="u2DFC" unicode="&#x2dfc;" 
d="M-177 672q-13 -12 -33.5 -21t-44.5 -9q-35 0 -54 21.5t-19 51.5v11t2 10h-35v-89h-84v257h84v-118h91q21 5 44 5.5t45 1.5v8q0 42 -46 42q-37 0 -67 -16l-15 58q19 11 43.5 17.5t53.5 6.5q54 0 84.5 -27.5t30.5 -84.5v-150h-80v25zM-223 697q12 0 22.5 3t19.5 8v39
q-13 -2 -25 -3t-21.5 -3.5t-15 -7.5t-5.5 -15q0 -21 25 -21z" />
    <glyph glyph-name="u2DFD" unicode="&#x2dfd;" 
d="M-235 647h-83v71h-16l-35 -71h-86l134 252h89l134 -252h-86l-35 71h-16v-71zM-238 767l-39 88l-38 -88h77z" />
    <glyph glyph-name="u2DFE" unicode="&#x2dfe;" 
d="M-418 899h262l-72 -114q29 -5 49.5 -19.5t34 -34.5t20 -42t8.5 -42h-83q-3 31 -8.5 49t-12.5 27.5t-13.5 12.5t-11.5 4v-93h-83v93q-5 -1 -12.5 -5.5t-14.5 -15t-12.5 -28t-7.5 -44.5h-83q1 12 5 31.5t15.5 40.5t33.5 39t58 27zM-255 841h-62l31 -48z" />
    <glyph glyph-name="u2DFF" unicode="&#x2dff;" 
d="M-283 797l-65 102h262l-72 -114q29 -5 49.5 -19.5t34 -34.5t20 -42t8.5 -42h-83q-3 31 -8.5 49t-12.5 27.5t-13.5 12.5t-11.5 4v-93h-83v93q-5 -1 -12 -4t-14 -12.5t-12.5 -27.5t-8.5 -49h-83q1 12 6 27t13.5 29.5t20 26.5t25.5 17h-87v-100h-83v252h83v-102h127z
M-185 841h-62l31 -48z" />
    <glyph glyph-name="uA640" unicode="&#xa640;" horiz-adv-x="564" 
d="M230 130h134q52 0 87.5 -11.5t57.5 -31.5t31 -47t9 -57q0 -39 -13 -66.5t-34.5 -45t-50.5 -25.5t-62 -8t-56.5 6t-43 13t-37 13t-37.5 6q-26 0 -46.5 -12.5t-43.5 -34.5l-38 60q22 34 58 51t68 17q37 0 62.5 -6t45 -12.5t35.5 -12.5t33 -6q26 0 36.5 9.5t10.5 28.5
q0 20 -17 31t-65 11h-306v130l292 406h-284v130h466v-130z" />
    <glyph glyph-name="uA641" unicode="&#xa641;" horiz-adv-x="490" 
d="M375 -37q0 17 -15 27t-56 10h-260v110l199 268h-197v112h375v-111l-198 -267h89q46 0 76.5 -11t49.5 -28.5t27 -40.5t8 -47q0 -34 -11 -58t-30 -39t-44.5 -22t-53.5 -7q-29 0 -49.5 5t-37 11.5t-31.5 11.5t-33 5q-23 0 -40.5 -11t-37.5 -30l-33 52q19 29 50.5 44t58.5 15
q32 0 52.5 -5t35.5 -11t27 -11t28 -5q30 0 40.5 8t10.5 25z" />
    <glyph glyph-name="uA642" unicode="&#xa642;" horiz-adv-x="564" 
d="M48 0v130l108 150h-90v113h171l103 143h-284v130h466v-130l-103 -143h85v-113h-166l-108 -150h134q52 0 87.5 -11.5t57.5 -31.5t31 -47t9 -57q0 -39 -13 -66.5t-34.5 -45t-50.5 -25.5t-62 -8t-56.5 6t-43 13t-37 13t-37.5 6q-26 0 -46.5 -12.5t-43.5 -34.5l-38 60
q22 34 58 51t68 17q37 0 62.5 -6t45 -12.5t35.5 -12.5t33 -6q26 0 36.5 9.5t10.5 28.5q0 20 -17 31t-65 11h-306z" />
    <glyph glyph-name="uA643" unicode="&#xa643;" horiz-adv-x="490" 
d="M375 -37q0 17 -15 27t-56 10h-260v110l64 87h-62v98h135l62 83h-197v112h375v-111l-63 -84h60v-98h-132l-63 -85h89q46 0 76.5 -11t49.5 -28.5t27 -40.5t8 -47q0 -34 -11 -58t-30 -39t-44.5 -22t-53.5 -7q-29 0 -48 5t-35 11.5t-31.5 11.5t-36.5 5q-23 0 -40.5 -11
t-37.5 -30l-33 52q19 29 50.5 44t58.5 15q32 0 52.5 -5t35.5 -11t27 -11t28 -5q30 0 40.5 8t10.5 25z" />
    <glyph glyph-name="uA644" unicode="&#xa644;" horiz-adv-x="530" 
d="M32 168q0 51 17 87.5t45.5 63t65 46.5t76.5 38q31 14 50.5 26t30 23t14 21t3.5 20q0 30 -22.5 42.5t-59.5 12.5q-45 0 -86 -10.5t-76 -27.5l-28 123q36 20 88 32.5t109 12.5q64 0 109 -12.5t74 -36t42.5 -56t13.5 -72.5q0 -42 -11.5 -73.5t-34 -56.5t-57.5 -45.5
t-81 -41.5q-36 -16 -59 -29t-36 -25.5t-18 -24.5t-5 -27q0 -31 27 -45.5t69 -14.5q51 0 95.5 15t78.5 40l33 -125q-48 -30 -106 -45t-136 -15q-116 0 -170.5 49.5t-54.5 130.5z" />
    <glyph glyph-name="uA645" unicode="&#xa645;" horiz-adv-x="435" 
d="M26 133q0 41 12.5 68.5t34 46t50 31.5t60.5 25q29 11 49.5 23.5t20.5 29.5t-13 22.5t-42 5.5q-33 0 -63 -7.5t-57 -19.5l-22 105q35 20 73 28.5t84 8.5q190 0 190 -146q0 -36 -11 -62t-30.5 -45t-46.5 -33t-58 -25q-38 -14 -60 -21.5t-22 -25.5q0 -20 23 -28.5t52 -8.5
q28 0 55.5 5.5t59.5 23.5l22 -111q-18 -8 -36 -14t-40 -10t-50 -6.5t-65 -2.5q-30 0 -60.5 7t-54.5 23.5t-39.5 44t-15.5 68.5z" />
    <glyph glyph-name="uA646" unicode="&#xa646;" horiz-adv-x="411" 
d="M234 164q0 -20 6 -32t22 -12t27 17.5t12 67.5l99 -7q-3 -63 -19.5 -103.5t-40.5 -64t-52.5 -32t-53.5 -8.5q-50 0 -82 13.5t-50 38.5t-25 59.5t-7 76.5v488h164v-502z" />
    <glyph glyph-name="uA647" unicode="&#xa647;" horiz-adv-x="393" 
d="M219 -10q-48 0 -79 12.5t-49 35.5t-24.5 54.5t-6.5 70.5v327h160v-340q0 -19 8 -29.5t19 -10.5q16 0 26.5 16t11.5 62l96 -6q-3 -59 -19 -96t-39.5 -58.5t-51 -29.5t-52.5 -8z" />
    <glyph glyph-name="uA648" unicode="&#xa648;" horiz-adv-x="666" 
d="M250 589v77h164v-77h118v-118h-118v-68q54 -8 91.5 -29t62 -51.5t37.5 -69t19.5 -80.5t7.5 -86.5t1 -86.5h-164q0 71 -3 125t-16.5 90t-41.5 54t-78 18q-42 0 -68.5 -19t-41 -55.5t-20 -90t-5.5 -122.5h-164q0 64 6 130.5t28 123.5t65.5 97.5t119.5 51.5v68h-118v118h118
z" />
    <glyph glyph-name="uA649" unicode="&#xa649;" horiz-adv-x="550" 
d="M194 429v51h161v-51h85v-112h-85v-47q58 -8 92 -34t50.5 -63t21 -82t4.5 -91h-148q0 51 -5.5 87t-17.5 58t-31.5 32t-47.5 10q-29 0 -47.5 -9.5t-29 -31t-15.5 -57.5t-7 -89h-148q0 46 5.5 91t23.5 82.5t51 63t88 33.5v47h-85v112h85z" />
    <glyph glyph-name="uA64A" unicode="&#xa64a;" horiz-adv-x="618" 
d="M90 159q0 60 35 103t103 59q-28 17 -58.5 50.5t-59 79t-54 100.5t-43.5 115h175q14 -78 45 -146t76 -123l131 269h175l-217 -338q44 -7 74.5 -23t49 -37.5t26.5 -48t8 -53.5q0 -45 -18.5 -79t-50 -57t-74 -34.5t-90.5 -11.5q-38 0 -79.5 9t-75.5 29t-56 53.5t-22 83.5z
M207 170q0 -19 6.5 -37t20 -31.5t35.5 -21.5t53 -8q34 0 56.5 9t36 22.5t19 29t5.5 28.5q0 34 -20 58t-58 32q1 -14 2 -27.5t5.5 -25.5t13.5 -22.5t24 -19.5l-102 -45q-26 13 -42.5 30.5t-16.5 38.5q0 23 3 37.5t8 30.5q-22 -14 -35.5 -33t-13.5 -45z" />
    <glyph glyph-name="uA64B" unicode="&#xa64b;" horiz-adv-x="536" 
d="M278 180q40 45 59 95t19 94q0 20 -8 40.5t-30 34.5l112 83q29 -11 52.5 -46.5t23.5 -85.5q0 -35 -6.5 -70.5t-23.5 -70.5t-46 -68.5t-74 -65.5q21 -17 37 -33.5t27 -35t18 -40t9 -48.5q0 -46 -15 -79t-41 -54t-60.5 -31t-73.5 -10q-32 0 -62.5 7.5t-55.5 24t-40 42.5
t-15 63q0 31 4.5 55t16 45.5t30.5 42.5t49 45q-28 25 -52 54.5t-43.5 66.5t-34.5 83.5t-24 105.5l136 23q6 -46 14 -83t21 -69t31.5 -60t45.5 -55zM205 -65q0 -29 13.5 -42.5t36.5 -13.5q19 0 33 11t14 41q0 20 -4 34.5t-11 26.5t-15 23t-17 23q-23 -24 -36.5 -47.5
t-13.5 -55.5z" />
    <glyph glyph-name="uA64C" unicode="&#xa64c;" horiz-adv-x="942" 
d="M553 397v-134q0 -28 7 -53.5t19 -44.5t28 -30.5t34 -11.5q26 0 45 14.5t31.5 38.5t18.5 56t6 68q0 97 -23 155t-82 84l29 129q73 -21 120 -56.5t74 -80t37.5 -95.5t10.5 -104q0 -89 -22 -153.5t-59.5 -107t-88.5 -63t-109 -20.5q-57 0 -95.5 30.5t-62.5 82.5
q-24 -52 -64.5 -82.5t-108.5 -30.5q-56 0 -104.5 20t-84 60t-55.5 100t-20 139q0 62 13 120.5t41.5 107t74.5 83.5t113 50l29 -129q-58 -23 -81.5 -82.5t-23.5 -156.5q0 -36 6 -68t18.5 -56t31.5 -38.5t45 -14.5q23 0 40 11.5t27.5 30.5t15.5 44.5t5 53.5v134h164z" />
    <glyph glyph-name="uA64D" unicode="&#xa64d;" horiz-adv-x="758" 
d="M186 214q0 -49 16 -77.5t51 -28.5q27 0 39 26.5t12 71.5v84h150v-84q0 -45 12 -71.5t39 -26.5q35 0 51 28.5t16 77.5q0 60 -24 98.5t-68 52.5l39 120q109 -30 161 -93.5t52 -171.5q0 -60 -19 -103t-48.5 -71.5t-66 -42t-71.5 -13.5q-52 0 -90 18.5t-58 64.5
q-10 -23 -26.5 -39t-36.5 -25.5t-43 -14t-45 -4.5q-39 0 -75 13.5t-64.5 41.5t-45.5 71t-17 102q0 110 52.5 173.5t161.5 93.5l39 -120q-45 -14 -69 -54.5t-24 -96.5z" />
    <glyph glyph-name="uA64E" unicode="&#xa64e;" horiz-adv-x="690" 
d="M161 483q0 58 -18 83t-58 25q-46 0 -77 -10l-11 111q24 11 59 17t70 6q40 0 76 -9.5t63.5 -35t43.5 -69.5t16 -113v-72q14 2 39 4t54 2q68 0 113.5 -17t73.5 -45t39.5 -63.5t11.5 -72.5q0 -57 -20 -99.5t-57.5 -70t-90 -41t-116.5 -13.5h-211v483zM494 219q0 38 -27 62.5
t-81 24.5q-10 0 -28 -1t-33 -3v-179h50q119 0 119 96z" />
    <glyph glyph-name="uA64F" unicode="&#xa64f;" horiz-adv-x="639" 
d="M367 112q17 0 34.5 2.5t31.5 10.5t22.5 21.5t8.5 36.5q0 26 -19 45.5t-70 19.5q-14 0 -30 -1.5t-24 -3.5v-131h46zM320 344q7 1 18 2.5t23.5 2.5t24 1.5t19.5 0.5q65 0 105.5 -16.5t63 -41.5t30.5 -55t8 -56q0 -85 -56.5 -133.5t-165.5 -48.5h-229v272q0 58 -16 83
t-59 25q-46 0 -77 -10l-11 111q24 11 59 17t70 6q42 0 76.5 -9t60 -28.5t40 -49.5t16.5 -73z" />
    <glyph glyph-name="uA650" unicode="&#xa650;" horiz-adv-x="983" 
d="M431 422q68 0 113.5 -17t73.5 -45t39.5 -63.5t11.5 -72.5q0 -57 -20 -99.5t-57.5 -70t-90 -41t-116.5 -13.5h-211v536h-160v130h324v-250q14 2 39 4t54 2zM507 219q0 38 -27 62.5t-81 24.5q-10 0 -28 -1t-33 -3v-179h50q119 0 119 96zM918 0h-164v666h164v-666z" />
    <glyph glyph-name="uA651" unicode="&#xa651;" horiz-adv-x="878" 
d="M665 0v490h160v-490h-160zM311 344q7 1 18 2.5t23 2.5t23.5 1.5t19.5 0.5q65 0 105.5 -16t63 -41t30.5 -57t8 -63q0 -38 -14.5 -70t-42.5 -55t-69.5 -36t-95.5 -13h-229v378h-135v112h295v-146zM357 112q17 0 34.5 2.5t31.5 10.5t22.5 21.5t8.5 36.5q0 29 -20.5 47
t-69.5 18q-11 0 -25 -1.5t-28 -3.5v-131h46z" />
    <glyph glyph-name="uA652" unicode="&#xa652;" horiz-adv-x="871" 
d="M599 422q68 0 113.5 -17t73.5 -45t39.5 -63.5t11.5 -72.5q0 -57 -20 -99.5t-57.5 -70t-90 -41t-116.5 -13.5h-211v478h-113v-478h-164v666h164v-65h113v65h164v-65h194v-123h-194v-62q14 2 39 4t54 2zM675 219q0 38 -27 62.5t-81 24.5q-10 0 -28 -1t-33 -3v-179h50
q119 0 119 96z" />
    <glyph glyph-name="uA653" unicode="&#xa653;" horiz-adv-x="804" 
d="M60 0v706h160v-216h106v216h160v-216h186v-112h-186v-54q17 3 40 5t42 2q60 0 100 -13.5t64 -35.5t34.5 -49.5t10.5 -55.5q0 -91 -56.5 -134t-165.5 -43h-229v378h-106v-378h-160zM544 112q45 0 65 15.5t20 44.5q0 21 -16 38.5t-61 17.5q-48 0 -66 -5v-111h58z" />
    <glyph glyph-name="uA654" unicode="&#xa654;" horiz-adv-x="1058" 
d="M34 333q0 70 23 133t66.5 110t106.5 74.5t144 27.5q71 0 128.5 -21t100 -58.5t69.5 -88t37 -108.5h120v264h164v-666h-164v277h-118q-8 -61 -34.5 -114t-69 -92t-101.5 -61t-132 -22q-81 0 -144 27.5t-106.5 74.5t-66.5 109.5t-23 133.5zM374 118q44 0 76.5 16t55 44.5
t33.5 68t11 86.5t-11 86.5t-33.5 68t-55 44.5t-76.5 16q-43 0 -76 -16t-55.5 -44.5t-33.5 -68t-11 -86.5t11 -86.5t33.5 -68t55.5 -44.5t76 -16z" />
    <glyph glyph-name="uA655" unicode="&#xa655;" horiz-adv-x="834" 
d="M26 245q0 54 17 100.5t50 81t82 54t112 19.5q96 0 157 -42.5t87 -112.5q10 -26 14 -50h76v195h160v-490h-160v190h-77q-2 -12 -5.5 -23.5t-7.5 -22.5q-26 -69 -87 -111.5t-157 -42.5q-63 0 -112 19.5t-82 54t-50 81t-17 100.5zM186 245q0 -26 5 -50.5t16.5 -44t31 -31
t48.5 -11.5t48.5 11.5t31 31t16.5 44t5 50.5t-5 50.5t-16.5 44t-31 31t-48.5 11.5t-48.5 -11.5t-31 -31t-16.5 -44t-5 -50.5z" />
    <glyph glyph-name="uA656" unicode="&#xa656;" horiz-adv-x="1003" 
d="M780 129h-255l-41 -129h-169l90 243h-176v-243h-164v666h164v-293h225l109 293h180l248 -666h-169zM567 259h171l-85 281z" />
    <glyph glyph-name="uA657" unicode="&#xa657;" horiz-adv-x="778" 
d="M571 48q-23 -23 -62 -40.5t-87 -17.5q-33 0 -59 11t-43.5 30t-27 44.5t-9.5 54.5q0 11 1 21t3 19h-67v-170h-160v490h160v-224h175q40 8 84 9t86 3v16q0 80 -89 80q-35 0 -67.5 -8t-59.5 -22l-29 111q35 20 82 32.5t104 12.5q103 0 161 -53t58 -161v-286h-154v48zM484 95
q23 0 43.5 6t37.5 16v73q-24 -2 -43 -4.5t-37 -4.5q-49 -6 -49 -46q0 -18 12.5 -29t35.5 -11z" />
    <glyph glyph-name="uA658" unicode="&#xa658;" horiz-adv-x="732" 
d="M277 666h180l268 -666h-716zM220 110h291l-48 128h-197zM296 348h141l-70 192z" />
    <glyph glyph-name="uA659" unicode="&#xa659;" horiz-adv-x="612" 
d="M8 0l239 480h123l239 -480h-601zM359 242l-52 104l-49 -104h101zM424 85l-31 72h-169l-31 -72h231z" />
    <glyph glyph-name="uA65A" unicode="&#xa65a;" horiz-adv-x="699" 
d="M586 0q-3 29 -6.5 54.5t-7.5 48.5h-111v-103h-164v103h-111q-5 -22 -8.5 -47.5t-5.5 -55.5h-161q4 54 15.5 115.5t37.5 115t71 92.5t116 49l-197 294h650l-196 -294q79 -13 124.5 -52t69.5 -92t32.5 -113.5t12.5 -114.5h-161zM379 295q-54 -5 -90 -25t-59 -52h298
q-25 33 -58.5 52.5t-90.5 24.5zM463 536h-168l84 -143z" />
    <glyph glyph-name="uA65B" unicode="&#xa65b;" horiz-adv-x="609" 
d="M454 0q-2 21 -5 39.5t-6 34.5h-79v-74h-118v74h-80q-3 -16 -5.5 -34t-4.5 -40h-136q3 39 11.5 82.5t28 82t52.5 67.5t84 39l-145 208h507l-142 -208q52 -12 84 -41t51 -67.5t27 -81t11 -81.5h-135zM305 212q-38 -4 -64 -18t-43 -37h214q-18 23 -42 37t-65 18zM365 386
h-121l62 -92z" />
    <glyph glyph-name="uA65C" unicode="&#xa65c;" horiz-adv-x="1031" 
d="M406 243h-177v-243h-164v666h164v-293h229l118 293h180l268 -666h-716zM519 110h291l-48 128h-197zM595 348h141l-70 192z" />
    <glyph glyph-name="uA65D" unicode="&#xa65d;" horiz-adv-x="870" 
d="M266 0l84 170h-130v-170h-160v490h160v-224h178l107 214h123l239 -480h-601zM682 85l-31 72h-169l-31 -72h231zM617 242l-52 104l-49 -104h101z" />
    <glyph glyph-name="uA65E" unicode="&#xa65e;" horiz-adv-x="787" 
d="M451 -133h-164v543q-18 -65 -48 -115t-62 -85.5t-62.5 -56.5t-51.5 -27l-72 128q27 11 53.5 31t53.5 52t55.5 77t58.5 106l73 146h166l326 -529h-178l-148 273v-543z" />
    <glyph glyph-name="uA65F" unicode="&#xa65f;" horiz-adv-x="794" 
d="M460 706l331 -705h-178l-138 318v-525h-160v521q-12 -58 -35.5 -112.5t-55 -99t-70.5 -74.5t-83 -40l-62 125q42 15 85 63.5t86 125t84 179t77 224.5h119z" />
    <glyph glyph-name="uA660" unicode="&#xa660;" horiz-adv-x="748" 
d="M173 0v-171h-147v301h91v536h164v-536h238v536h164v-666h-510z" />
    <glyph glyph-name="uA661" unicode="&#xa661;" horiz-adv-x="637" 
d="M584 490v-490h-422v-133h-133v245h85v378h160v-378h150v378h160z" />
    <glyph glyph-name="uA662" unicode="&#xa662;" horiz-adv-x="831" 
d="M159 0v-171h-147v300h61q17 21 34.5 56t33 96.5t28 154.5t21.5 230h611v-130h-161v-407h80v-300h-147v171h-414zM328 536q-8 -90 -20 -158t-25 -117.5t-26 -81.5t-24 -50h243v407h-148z" />
    <glyph glyph-name="uA663" unicode="&#xa663;" horiz-adv-x="695" 
d="M146 0v-123h-133v235h52q30 36 49 106.5t24 161.5l5 110h531v-112h-135v-266h67v-235h-133v123h-327zM277 378q-5 -51 -9.5 -90t-12 -70.5t-18.5 -56.5t-28 -49h170v266h-102z" />
    <glyph glyph-name="uA664" unicode="&#xa664;" horiz-adv-x="814" 
d="M624 0h-164v536h-145l-17 -149q-13 -112 -36 -187.5t-53 -121.5t-65.5 -66.5t-71.5 -23.5l-49 122q27 9 49 30t39 59t29.5 95t19.5 138l21 234h603v-130h-161z" />
    <glyph glyph-name="uA665" unicode="&#xa665;" horiz-adv-x="686" 
d="M665 378h-135v-378h-160v378h-102l-4 -44q-7 -80 -24 -143t-43 -107.5t-60.5 -68t-77.5 -23.5l-31 120q25 9 43 28.5t30.5 52t20 79t10.5 108.5l5 110h528v-112z" />
    <glyph glyph-name="uA666" unicode="&#xa666;" horiz-adv-x="973" 
d="M943 536h-161l40 -536h-161l-20 373l-130 -267h-158l-130 267l-20 -373h-161l50 666h148l192 -407l192 407h319v-130z" />
    <glyph glyph-name="uA667" unicode="&#xa667;" horiz-adv-x="827" 
d="M806 378h-135l22 -378h-153l-14 287l-108 -225h-96l-121 225l-11 -287h-137l24 490h170l136 -264l129 264h294v-112z" />
    <glyph glyph-name="uA668" unicode="&#xa668;" horiz-adv-x="749" 
d="M304 345q0 30 19.5 50t51.5 20q31 0 50.5 -20t19.5 -50t-19.5 -50.5t-50.5 -20.5q-32 0 -51.5 20.5t-19.5 50.5zM715 333q0 -71 -23 -133.5t-67 -109.5t-107 -74.5t-144 -27.5t-144.5 27.5t-107 74.5t-66 109.5t-22.5 133.5q0 70 22.5 133t66 110t107 74.5t144.5 27.5
t144 -27.5t107 -74.5t67 -110t23 -133zM374 118q43 0 76.5 16t55.5 44.5t33.5 68t11.5 86.5q0 101 -44.5 158t-132.5 57t-132 -56t-44 -159q0 -47 11 -86.5t33.5 -68t55 -44.5t76.5 -16z" />
    <glyph glyph-name="uA669" unicode="&#xa669;" horiz-adv-x="594" 
d="M568 245q0 -54 -18.5 -100.5t-53.5 -81t-85.5 -54t-113.5 -19.5t-113.5 19.5t-85.5 54t-53.5 81t-18.5 100.5t18.5 100.5t53.5 81t85.5 54t113.5 19.5t113.5 -19.5t85.5 -54t53.5 -81t18.5 -100.5zM408 245q0 26 -6.5 50.5t-20 44t-34.5 31t-50 11.5t-50 -11.5t-34.5 -31
t-20 -44t-6.5 -50.5t6.5 -50.5t20 -44t34.5 -31t50 -11.5t50 11.5t34.5 31t20 44t6.5 50.5zM226 252q0 30 19.5 50t51.5 20q31 0 50.5 -20t19.5 -50t-19.5 -50.5t-50.5 -20.5q-32 0 -51.5 20.5t-19.5 50.5z" />
    <glyph glyph-name="uA66A" unicode="&#xa66a;" horiz-adv-x="798" 
d="M764 333q0 -61 -21 -122.5t-65 -111t-112 -80.5t-162 -31q-95 0 -164.5 27.5t-115.5 74.5t-68 109.5t-22 133.5q0 70 24 133t71 110t116 74.5t159 27.5q88 0 155.5 -27.5t113 -74.5t68.5 -110t23 -133zM403 118q43 0 79.5 16t62.5 44.5t40.5 68t14.5 86.5t-11.5 86.5
t-35.5 68t-61 44.5t-88 16q-54 0 -92.5 -16t-64 -44.5t-37.5 -68t-12 -86.5t11.5 -86.5t36.5 -68t64 -44.5t93 -16zM235 345q0 30 19.5 50t51.5 20q31 0 50.5 -20t19.5 -50t-19.5 -50.5t-50.5 -20.5q-32 0 -51.5 20.5t-19.5 50.5zM421 344q0 30 19.5 50t51.5 20
q31 0 50.5 -20t19.5 -50t-19.5 -50.5t-50.5 -20.5q-32 0 -51.5 20.5t-19.5 50.5z" />
    <glyph glyph-name="uA66B" unicode="&#xa66b;" horiz-adv-x="746" 
d="M718 245q0 -54 -25 -100.5t-70.5 -81t-110.5 -54t-145 -19.5q-84 0 -148 19.5t-106.5 54t-64.5 81t-22 100.5t20.5 100.5t63 81t106.5 54t151 19.5q91 0 157.5 -19.5t109.5 -54t63.5 -81t20.5 -100.5zM558 245q0 26 -9.5 50.5t-31.5 44t-58 31t-89 11.5
q-56 0 -91.5 -11.5t-56 -31t-28.5 -44t-8 -50.5t10 -50.5t32 -44t57.5 -31t86.5 -11.5q50 0 85 11.5t57.5 31t33 44t10.5 50.5zM226 252q0 30 17 50t46 20q27 0 44.5 -20t17.5 -50t-17.5 -50.5t-44.5 -20.5q-29 0 -46 20.5t-17 50.5zM393 249q0 30 17 50t46 20
q27 0 44.5 -20t17.5 -50t-17.5 -50.5t-44.5 -20.5q-29 0 -46 20.5t-17 50.5z" />
    <glyph glyph-name="uA66C" unicode="&#xa66c;" horiz-adv-x="1266" 
d="M1232 333q0 -71 -23 -133.5t-67 -109.5t-107 -74.5t-144 -27.5q-85 0 -150 29.5t-109 80.5q-45 -51 -109 -80.5t-149 -29.5q-81 0 -144.5 27.5t-107 74.5t-66 109.5t-22.5 133.5q0 70 22.5 133t66 110t107 74.5t144.5 27.5q85 0 149 -29.5t109 -80.5q44 51 109 80.5
t150 29.5q81 0 144 -27.5t107 -74.5t67 -110t23 -133zM891 118q43 0 76.5 16t55.5 44.5t33.5 68t11.5 86.5q0 101 -44.5 158t-132.5 57t-132 -56t-44 -159v-10q1 -45 13 -82.5t34 -65t54.5 -42.5t74.5 -15zM374 118q43 0 76.5 16t55.5 44.5t33.5 68t11.5 86.5v10
q-2 97 -47 151t-130 54q-88 0 -132 -56t-44 -159q0 -47 11 -86.5t33.5 -68t55 -44.5t76.5 -16zM304 345q0 30 19.5 50t51.5 20q31 0 50.5 -20t19.5 -50t-19.5 -50.5t-50.5 -20.5q-32 0 -51.5 20.5t-19.5 50.5zM821 345q0 30 19.5 50t51.5 20q31 0 50.5 -20t19.5 -50
t-19.5 -50.5t-50.5 -20.5q-32 0 -51.5 20.5t-19.5 50.5z" />
    <glyph glyph-name="uA66D" unicode="&#xa66d;" horiz-adv-x="976" 
d="M950 245q0 -54 -18.5 -100.5t-53.5 -81t-85.5 -54t-113.5 -19.5q-60 0 -107 20t-84 56q-70 -76 -191 -76q-63 0 -113.5 19.5t-85.5 54t-53.5 81t-18.5 100.5t18.5 100.5t53.5 81t85.5 54t113.5 19.5q60 0 108 -17.5t83 -59.5q30 38 80.5 57.5t110.5 19.5
q63 0 113.5 -19.5t85.5 -54t53.5 -81t18.5 -100.5zM790 245q0 26 -6.5 50.5t-20 44t-34.5 31t-50 11.5t-50 -11.5t-34.5 -31t-20 -44t-6.5 -50.5t6.5 -50.5t20 -44t34.5 -31t50 -11.5t50 11.5t34.5 31t20 44t6.5 50.5zM408 245q0 26 -6.5 50.5t-20 44t-34.5 31t-50 11.5
t-50 -11.5t-34.5 -31t-20 -44t-6.5 -50.5t6.5 -50.5t20 -44t34.5 -31t50 -11.5q28 0 48.5 11.5t34 30t20.5 43.5t8 52zM608 252q0 30 19.5 50t51.5 20q31 0 50.5 -20t19.5 -50t-19.5 -50.5t-50.5 -20.5q-32 0 -51.5 20.5t-19.5 50.5zM226 252q0 30 19.5 50t51.5 20
q31 0 50.5 -20t19.5 -50t-19.5 -50.5t-50.5 -20.5q-32 0 -51.5 20.5t-19.5 50.5z" />
    <glyph glyph-name="uA66E" unicode="&#xa66e;" horiz-adv-x="705" 
d="M580 467q0 -28 -10 -51q51 -8 78.5 -42t27.5 -82q0 -47 -27 -81t-77 -43q5 -11 7.5 -24t2.5 -27q0 -27 -9 -50t-26.5 -40t-42.5 -26.5t-56 -9.5q-59 0 -95 33q-36 -33 -94 -33q-63 0 -98.5 36t-35.5 90q0 29 10 52q-50 9 -77.5 42.5t-27.5 81.5q0 47 27 81t75 43
q-9 22 -9 50q0 27 9.5 50t26.5 40.5t42 27t56 9.5q29 0 53 -9t41 -24q17 15 41 24t54 9q63 0 98.5 -36.5t35.5 -90.5zM298 298q1 -35 14.5 -54t40.5 -19q28 0 41.5 21t13.5 47t-13 47t-42 21q-27 0 -40.5 -16.5t-14.5 -46.5zM259 49q27 0 41 21.5t14 51.5q0 28 -14 45.5
t-41 17.5q-29 0 -42 -21t-13 -47t13 -47t42 -21zM487 293q0 -29 13.5 -49t41.5 -20q29 0 42 21t13 47t-13 47t-42 21q-27 0 -41 -20t-14 -47zM503 117q0 26 -13 47t-42 21t-42 -21t-13 -47t13 -47t42 -21t42 21t13 47zM501 467q0 26 -13 47t-42 21t-42 -21t-13 -47v-5
q1 -24 14.5 -43.5t40.5 -19.5q29 0 42 21t13 47zM312 472q-2 24 -15 43.5t-40 19.5q-29 0 -42 -21t-13 -47t13 -47t42 -21t42 21t13 47v5zM219 298q-2 24 -15 43.5t-40 19.5q-29 0 -42 -21t-13 -47t13 -47t42 -21t42 21t13 47v5zM507 294q0 15 9.5 24.5t25.5 9.5
q15 0 25 -9.5t10 -24.5t-10 -25t-25 -10q-16 0 -25.5 10t-9.5 25zM222 469q0 15 9.5 24.5t25.5 9.5q15 0 25 -9.5t10 -24.5t-10 -25t-25 -10q-16 0 -25.5 10t-9.5 25zM413 119q0 15 9.5 24.5t25.5 9.5q15 0 25 -9.5t10 -24.5t-10 -25t-25 -10q-16 0 -25.5 10t-9.5 25z
M318 295q0 15 9.5 24.5t25.5 9.5q15 0 25 -9.5t10 -24.5t-10 -25t-25 -10q-16 0 -25.5 10t-9.5 25zM411 469q0 15 9.5 24.5t25.5 9.5q15 0 25 -9.5t10 -24.5t-10 -25t-25 -10q-16 0 -25.5 10t-9.5 25zM129 295q0 15 9.5 24.5t25.5 9.5q15 0 25 -9.5t10 -24.5t-10 -25
t-25 -10q-16 0 -25.5 10t-9.5 25zM224 119q0 15 9.5 24.5t25.5 9.5q15 0 25 -9.5t10 -24.5t-10 -25t-25 -10q-16 0 -25.5 10t-9.5 25z" />
    <glyph glyph-name="uA66F" unicode="&#xa66f;" 
d="M-384 616q-32 0 -53 -15t-26 -66h-90q1 25 5.5 51.5t19.5 48.5t45 36.5t83 14.5h258q53 0 83 -14.5t44.5 -36.5t18 -48.5t5.5 -51.5h-90q-5 51 -26 66t-53 15h-224z" />
    <glyph glyph-name="uA670" unicode="&#xa670;" 
d="M-825 156l61 87l-59 84h57l32 -47l31 47h58l-60 -84l62 -87h-58l-33 49l-33 -49h-58zM-379 -274l61 87l-59 84h57l32 -47l31 47h58l-60 -84l62 -87h-58l-33 49l-33 -49h-58zM-711 -156l61 87l-59 84h57l32 -47l31 47h58l-60 -84l62 -87h-58l-33 49l-33 -49h-58zM-379 588
l61 87l-59 84h57l32 -47l31 47h58l-60 -84l62 -87h-58l-33 49l-33 -49h-58zM-711 458l61 87l-59 84h57l32 -47l31 47h58l-60 -84l62 -87h-58l-33 49l-33 -49h-58zM192 156l-33 49l-33 -49h-58l62 87l-60 84h58l31 -47l32 47h57l-59 -84l61 -87h-58zM78 -156l-33 49l-33 -49
h-58l62 87l-60 84h58l31 -47l32 47h57l-59 -84l61 -87h-58zM78 458l-33 49l-33 -49h-58l62 87l-60 84h58l31 -47l32 47h57l-59 -84l61 -87h-58z" />
    <glyph glyph-name="uA671" unicode="&#xa671;" 
d="M-592 686h617v-206h-49v111h-519v-112h-49v207zM-592 13h49v-112h519v111h49v-206h-617v207z" />
    <glyph glyph-name="uA672" unicode="&#xa672;" 
d="M5 48v67h245v-67h-245zM5 203v67h245v-67h-245zM5 358v67h245v-67h-245zM-851 48v67h245v-67h-245zM-851 203v67h245v-67h-245zM-851 358v67h245v-67h-245zM-267 705v-138h-67v138h-138v67h138v138h67v-138h138v-67h-138zM-112 -326h-67v245h67v-245zM-267 -326h-67v245
h67v-245zM-422 -326h-67v245h67v-245z" />
    <glyph glyph-name="uA673" unicode="&#xa673;" horiz-adv-x="358" 
d="M24 631h105l49 88l50 -88h109l-54 -97l51 -89h-102l-47 -84l-51 84h-110l54 96zM131 541l-26 -47h53l25 -40l22 40h49l-24 44l26 46h-53l-24 42l-23 -42h-51z" />
    <glyph glyph-name="uA674" unicode="&#xa674;" 
d="M-266 911q20 0 39.5 -4.5t33.5 -11.5l-8 -58q-23 10 -53 10q-26 0 -42.5 -12.5t-23.5 -34.5h92v-51h-91q6 -20 22.5 -32t42.5 -12q15 0 28.5 3t24.5 7l8 -59q-14 -7 -33.5 -11t-39.5 -4q-66 0 -103 37.5t-37 97.5t37 97.5t103 37.5z" />
    <glyph glyph-name="uA675" unicode="&#xa675;" 
d="M-413 647v252h83v-137l86 137h78v-252h-83v131l-84 -131h-80z" />
    <glyph glyph-name="uA676" unicode="&#xa676;" 
d="M-311 988q0 -16 -10 -26.5t-28 -10.5q-16 0 -26.5 10.5t-10.5 26.5q0 17 10.5 27.5t26.5 10.5q18 0 28 -10.5t10 -27.5zM-196 988q0 -16 -10.5 -26.5t-26.5 -10.5q-18 0 -28 10.5t-10 26.5q0 17 10 27.5t28 10.5q16 0 26.5 -10.5t10.5 -27.5zM-250 647h-83v252h83v-252z
" />
    <glyph glyph-name="uA677" unicode="&#xa677;" 
d="M-367 548l32 98l-92 253h87l45 -165l45 165h83l-117 -351h-83z" />
    <glyph glyph-name="uA678" unicode="&#xa678;" 
d="M-293 824q6 2 21 3t23 1q33 0 54.5 -7t34 -19t17 -28t4.5 -34q0 -45 -30.5 -69t-87.5 -24h-119v194h-74v58h157v-75zM-269 705q19 0 34.5 6.5t15.5 29.5q0 13 -9.5 23.5t-36.5 10.5q-7 0 -15.5 -1t-12.5 -2v-67h24z" />
    <glyph glyph-name="uA679" unicode="&#xa679;" 
d="M-176 647v252h83v-252h-83zM-350 705q19 0 34.5 6.5t15.5 29.5q0 13 -9.5 23.5t-36.5 10.5q-7 0 -15.5 -1t-12.5 -2v-67h24zM-374 824q6 2 21 3t23 1q33 0 54.5 -7t34 -19t17 -28t4.5 -34q0 -45 -30.5 -69t-87.5 -24h-119v253h83v-76z" />
    <glyph glyph-name="uA67A" unicode="&#xa67a;" 
d="M-291 705q19 0 34.5 6.5t15.5 29.5q0 13 -9.5 23.5t-36.5 10.5q-7 0 -15.5 -1t-12.5 -2v-67h24zM-315 824q6 2 21 3t23 1q33 0 54.5 -7t34 -19t17 -28t4.5 -34q0 -45 -30.5 -69t-87.5 -24h-119v252h83v-75z" />
    <glyph glyph-name="uA67B" unicode="&#xa67b;" 
d="M-88 899q2 -10 4 -26t2 -36q0 -35 -8.5 -65t-22.5 -54t-32 -42.5t-37 -29.5h-37q-17 12 -32.5 28t-30.5 40q-26 -42 -58 -68h-36q-17 11 -32 29.5t-26 42t-17 50.5t-6 54q0 19 2 38t6 39h80q-4 -11 -6 -34t-2 -40q0 -26 3 -43t8 -29t11.5 -20.5t14.5 -15.5q11 8 21 23.5
t15 33.5q-2 14 -3 27t-1 17q0 13 1.5 37t6.5 44h80q-4 -17 -6 -37.5t-2 -54.5q0 -35 10 -53.5t24 -35.5q17 17 26 41.5t9 65.5q0 21 -3 40.5t-6 33.5h80z" />
    <glyph glyph-name="uA67C" unicode="&#xa67c;" 
d="M-297 791q38 0 67.5 20t52.5 55l47 -50q-27 -52 -67 -78.5t-100 -26.5q-58 0 -99.5 27t-67.5 78l47 50q23 -35 54 -55t66 -20z" />
    <glyph glyph-name="uA67D" unicode="&#xa67d;" 
d="M-106 714l-156 -115l-45 45l95 68l-115 101l156 115l45 -45l-95 -68z" />
    <glyph glyph-name="uA67E" unicode="&#xa67e;" horiz-adv-x="376" 
d="M188 791q38 0 67.5 20t52.5 55l47 -50q-27 -52 -67 -78.5t-100 -26.5q-58 0 -99.5 27t-67.5 78l47 50q23 -35 54 -55t66 -20z" />
    <glyph glyph-name="uA67F" unicode="&#xa67f;" horiz-adv-x="263" 
d="M242 714l-156 -115l-45 45l95 68l-115 101l156 115l45 -45l-95 -68z" />
    <glyph glyph-name="uA680" unicode="&#xa680;" horiz-adv-x="701" 
d="M159 0v-171h-147v300h61q34 42 56.5 106.5t35.5 141.5t18 160.5t5 163.5v113h139v-148h313v-537h80v-300h-147v171h-414zM328 536q-8 -90 -19.5 -158t-25 -117.5t-26.5 -81.5t-24 -50h243v407h-148z" />
    <glyph glyph-name="uA681" unicode="&#xa681;" horiz-adv-x="642" 
d="M146 0v-123h-133v235h52q15 18 29 46.5t24.5 72.5t17 105t6.5 144v123h136v-113h261v-378h67v-235h-133v123h-327zM277 378q-5 -51 -10 -90t-12 -70t-18 -56.5t-28 -49.5h170v266h-102z" />
    <glyph glyph-name="uA682" unicode="&#xa682;" horiz-adv-x="530" 
d="M502 72q0 -61 -17.5 -112t-50.5 -88.5t-80 -58.5t-107 -21q-55 0 -109.5 12t-102.5 35l33 125q35 -17 75.5 -29.5t71.5 -12.5t54 9.5t38.5 25t23 36t7.5 41.5q0 36 -7.5 60.5t-22.5 45.5t-38.5 40.5t-54.5 45.5q-47 38 -79.5 68.5t-52.5 57.5t-28.5 54.5t-8.5 59.5
q0 107 63.5 159.5t175.5 52.5q57 0 109 -12.5t88 -32.5l-28 -123q-35 17 -76 27.5t-86 10.5q-37 0 -59.5 -14t-22.5 -53q0 -18 5.5 -32t21 -31.5t42.5 -41t70 -60.5q23 -20 49.5 -44.5t49.5 -54.5t38.5 -66.5t15.5 -78.5z" />
    <glyph glyph-name="uA683" unicode="&#xa683;" horiz-adv-x="435" 
d="M409 0q0 -29 -12 -64.5t-38.5 -67t-68.5 -53t-102 -21.5q-40 0 -84 7.5t-80 22.5l22 111q31 -13 67 -19.5t55 -6.5q21 0 38 7t29 19t18.5 27t6.5 31q0 24 -5 40t-16.5 31t-30 31.5t-45.5 41.5q-25 23 -47.5 46t-40 46.5t-27.5 48t-10 51.5q0 37 14 68.5t40 54t61.5 35.5
t79.5 13q46 0 84 -8.5t73 -28.5l-22 -105q-27 12 -57 19.5t-63 7.5q-29 0 -44.5 -16t-15.5 -37q0 -18 6 -31.5t19 -28t33.5 -33.5t49.5 -47q31 -30 52.5 -54t35 -46t19.5 -43.5t6 -48.5z" />
    <glyph glyph-name="uA684" unicode="&#xa684;" horiz-adv-x="1176" 
d="M601 0v300h-167q34 -16 47 -45.5t13 -67.5q0 -45 -17.5 -81.5t-50.5 -63t-79.5 -40.5t-104.5 -14q-69 0 -120.5 9.5t-96.5 35.5l22 118q40 -14 80 -24.5t94 -10.5q18 0 37.5 2.5t36 11.5t27 25t10.5 43q0 36 -28 57t-99 21h-67v120h72q32 0 53.5 6.5t34.5 18t18.5 26
t5.5 31.5q0 43 -25.5 59.5t-61.5 16.5q-46 0 -82.5 -11t-74.5 -34l-25 120q18 13 41.5 22t50 15t54 9t51.5 3q48 0 89.5 -10t72 -30.5t48 -52.5t17.5 -75q0 -68 -47 -112h171v268h164v-319l210 319h185l-225 -329l241 -337h-197l-214 326v-326h-164z" />
    <glyph glyph-name="uA685" unicode="&#xa685;" horiz-adv-x="1019" 
d="M508 0v219h-124q29 -11 40 -35t11 -50q0 -69 -54 -106.5t-153 -37.5q-57 0 -104 13.5t-81 36.5l15 102q42 -21 78 -32t72 -11q38 0 53.5 14t15.5 36q0 23 -16.5 35t-58.5 12h-74v101h66q38 0 57 11t19 37q0 23 -16 35t-55 12q-30 0 -63.5 -10t-61.5 -24l-21 100
q36 22 80 32t89 10q202 0 202 -131q0 -22 -12 -44t-36 -36h132v201h160v-229l147 229h173l-158 -241l179 -249h-183l-158 237v-237h-160z" />
    <glyph glyph-name="uA686" unicode="&#xa686;" horiz-adv-x="1027" 
d="M798 666h164v-666h-164v264q-33 -20 -73.5 -28.5t-89.5 -8.5q-53 0 -95 16t-69 51q-27 -23 -53.5 -36.5t-52.5 -20.5t-51.5 -8.5t-50.5 -1.5q-46 0 -84 12t-65 38.5t-42 68.5t-15 103v217h164v-180q0 -41 6.5 -65.5t18.5 -38.5t29 -18.5t38 -4.5q40 0 67.5 7.5t52.5 28.5
q-4 23 -4 54v217h164v-180q0 -41 6.5 -65.5t18.5 -38.5t29 -18.5t38 -4.5q45 0 69.5 9.5t43.5 20.5v277z" />
    <glyph glyph-name="uA687" unicode="&#xa687;" horiz-adv-x="844" 
d="M345 490h160v-140q0 -20 2 -35t9.5 -25t21 -15t37.5 -5q21 0 35.5 4t20.5 8v208h160v-490h-160v181q-20 -11 -45.5 -18.5t-59.5 -7.5q-50 0 -88 12.5t-61 39.5q-39 -35 -76 -43.5t-69 -8.5q-77 0 -124.5 36.5t-47.5 119.5v179h160v-140q0 -20 2 -35t9.5 -25t21 -15
t37.5 -5q14 0 30 5.5t25 19.5v195z" />
    <glyph glyph-name="uA688" unicode="&#xa688;" horiz-adv-x="849" 
d="M159 0v-171h-147v300h61q17 21 34 56.5t32.5 96.5t28.5 154t22 230h450v-549q7 5 26.5 9t36.5 4q124 0 124 -80q0 -24 -16.5 -42t-43.5 -26q31 -7 48.5 -24t17.5 -46q0 -46 -33 -70t-93 -24q-70 0 -114 30l10 63q50 -26 91 -26q24 0 33.5 8.5t9.5 21.5q0 14 -10.5 21.5
t-35.5 7.5h-46v62h41q46 0 46 29q0 14 -9.5 21.5t-33.5 7.5q-28 0 -53 -17.5t-42 -46.5h-435zM328 536q-8 -90 -19.5 -158t-25 -117.5t-26.5 -81.5t-24 -50h243v407h-148z" />
    <glyph glyph-name="uA689" unicode="&#xa689;" horiz-adv-x="696" 
d="M277 378q-5 -51 -9.5 -90t-12 -70.5t-18.5 -56.5t-28 -49h170v266h-102zM539 108q7 4 22 6.5t33 2.5q39 0 61.5 -15.5t22.5 -47.5q0 -19 -13 -32.5t-34 -20.5q24 -5 38 -19t14 -37q0 -35 -26 -55t-73 -20q-24 0 -47 6.5t-43 17.5l8 54q40 -20 64 -20q32 0 32 20
q0 11 -3.5 17t-23.5 6h-31v49h27q18 0 24.5 4.5t6.5 15.5q0 13 -6.5 17.5t-22.5 4.5q-22 0 -41.5 -18t-32.5 -44h-349v-123h-133v235h52q30 36 49 106.5t24 161.5l5 110h396v-382z" />
    <glyph glyph-name="uA68A" unicode="&#xa68a;" horiz-adv-x="753" 
d="M536 666v-130h-179v-136q14 4 41 6.5t47 2.5q74 0 127.5 -20t88 -55t51 -83t16.5 -104q0 -66 -22 -122t-65 -97.5t-106.5 -67t-145.5 -30.5l-13 133h9q80 0 130 42t50 126q0 46 -13 75.5t-35.5 47t-53 24t-65.5 6.5q-22 0 -41 -3v-281h-164v536h-179v130h522z" />
    <glyph glyph-name="uA68B" unicode="&#xa68b;" horiz-adv-x="668" 
d="M24 490h440v-112h-140v-98q0 2 23.5 7.5t52.5 5.5q54 0 99 -14.5t77.5 -43t50 -71t17.5 -98.5q0 -73 -26.5 -124.5t-69.5 -84.5t-96 -48t-106 -15h-25l-9 107h6q75 0 120 36t45 119q0 63 -29.5 96t-83.5 33q-12 0 -20.5 -1t-14.5 -2q-7 -2 -11 -3v-179h-160v378h-140v112
z" />
    <glyph glyph-name="uA68C" unicode="&#xa68c;" horiz-adv-x="550" 
d="M536 666v-130h-179v-340q0 -24 6 -38.5t15.5 -23t22.5 -11.5t28 -3q46 0 77 10l11 -111q-24 -11 -59 -17t-70 -6q-41 0 -76.5 9.5t-62 34.5t-41.5 67.5t-15 107.5v321h-179v130h522z" />
    <glyph glyph-name="uA68D" unicode="&#xa68d;" horiz-adv-x="488" 
d="M324 140q0 -19 8 -29.5t31 -10.5q14 0 34 3l5 -100q-20 -6 -45.5 -9.5t-52.5 -3.5q-40 0 -67 12t-43 32t-23 45.5t-7 52.5v246h-140v112h440v-112h-140v-238z" />
    <glyph glyph-name="uA68E" unicode="&#xa68e;" horiz-adv-x="811" 
d="M631 130q61 -8 96 -29t52.5 -46.5t22 -53t4.5 -49.5q0 -49 -19 -84.5t-50 -58t-70 -33t-78 -10.5h-211q-48 0 -77.5 25t-29.5 69q0 13 4 28.5t16 29.5t34.5 23.5t59.5 9.5h188v-66h-174q-24 0 -36 -7t-12 -18q0 -14 10.5 -21t38.5 -7h175q62 0 95.5 23t33.5 65
q0 45 -30 62.5t-98 17.5h-511v666h164v-536h238v536h164v-536z" />
    </font>
</defs>
</svg>
